<svg width="195" height="47" viewBox="0 0 195 47" fill="none" xmlns="http://www.w3.org/2000/svg">
<path d="M64.7766 28.7853V26.0286H71.8362C73.1809 26.0286 74.2345 25.6309 74.9966 24.8351C75.7585 24.0395 76.1397 23.0813 76.1397 21.961C76.1397 21.1989 75.9713 20.5096 75.6352 19.8936C75.2991 19.2773 74.8116 18.7895 74.1726 18.431C73.5341 18.0724 72.7888 17.8933 71.9371 17.8933H64.7766V15.1366H71.4667C72.5872 15.1366 73.4781 14.8397 74.1394 14.2457C74.8 13.6518 75.1307 12.7946 75.1307 11.6738C75.1307 10.5535 74.7834 9.69609 74.0889 9.10215C73.3939 8.50822 72.4752 8.21147 71.3322 8.21147H64.7766V5.45479H71.3993C72.9233 5.45479 74.1951 5.72901 75.2149 6.27834C76.2348 6.82744 77.008 7.55018 77.5346 8.44633C78.0612 9.34292 78.3245 10.3292 78.3245 11.4051C78.3245 12.6601 77.9827 13.7583 77.2993 14.6997C76.6157 15.6407 75.6126 16.3805 74.2905 16.9182L74.5593 15.9097C76.0609 16.4476 77.2317 17.26 78.0724 18.3471C78.913 19.4339 79.3328 20.7171 79.3328 22.1963C79.3328 23.429 79.0304 24.5383 78.4253 25.5246C77.8204 26.5104 76.9521 27.3005 75.8202 27.8942C74.6883 28.4884 73.3043 28.7853 71.6683 28.7853H64.7766ZM62.6587 28.7853V5.45479H65.8188V28.7853H62.6587ZM83.0981 28.7853V12.8169H86.1239V28.7853H83.0981ZM97.2176 35.8113C95.5814 35.8113 94.1305 35.5089 92.8641 34.9036C91.5979 34.2987 90.5837 33.4469 89.8216 32.3489L91.7716 30.3653C92.4215 31.1947 93.1947 31.8278 94.0913 32.2647C94.9877 32.7017 96.0522 32.9203 97.2849 32.9203C98.9209 32.9203 100.215 32.4889 101.168 31.6262C102.12 30.7631 102.596 29.6032 102.596 28.1468V24.1795L103.134 20.5826L102.596 17.019V12.8169H105.622V28.1468C105.622 29.6708 105.269 31.0043 104.563 32.1469C103.857 33.2899 102.871 34.1865 101.605 34.8364C100.339 35.4866 98.876 35.8113 97.2176 35.8113ZM97.2176 28.5161C95.7609 28.5161 94.4552 28.1689 93.301 27.4743C92.1468 26.7794 91.2336 25.8213 90.5614 24.5998C89.8892 23.3787 89.5528 22.0058 89.5528 20.4818C89.5528 18.9578 89.8892 17.5961 90.5614 16.3971C91.2336 15.1981 92.1468 14.2457 93.301 13.5396C94.4552 12.8335 95.7609 12.4808 97.2176 12.4808C98.4728 12.4808 99.5822 12.7272 100.546 13.2206C101.509 13.7135 102.277 14.4023 102.849 15.2877C103.42 16.1732 103.728 17.2095 103.773 18.3974V22.6332C103.706 23.7985 103.387 24.8239 102.815 25.7092C102.243 26.5946 101.476 27.2839 100.512 27.7768C99.5483 28.2697 98.4503 28.5161 97.2176 28.5161ZM97.8227 25.6586C98.8089 25.6586 99.6773 25.4459 100.428 25.0201C101.179 24.5943 101.756 23.9949 102.159 23.2214C102.563 22.4484 102.765 21.5461 102.765 20.5155C102.765 19.4844 102.557 18.5824 102.143 17.8091C101.728 17.0361 101.151 16.4308 100.411 15.9939C99.6718 15.5569 98.7977 15.3383 97.789 15.3383C96.7804 15.3383 95.8954 15.5569 95.1333 15.9939C94.3714 16.4308 93.7718 17.0361 93.3347 17.8091C92.8978 18.5824 92.6791 19.4733 92.6791 20.4818C92.6791 21.4902 92.8978 22.3868 93.3347 23.1712C93.7718 23.9556 94.3769 24.5663 95.1502 25.0035C95.9232 25.4404 96.8141 25.6586 97.8227 25.6586ZM110.598 28.7853V5.45479H112.816L122.7 21.6918H121.187L131.071 5.45479H133.289V28.7853H130.129V11.0016L130.869 11.2032L123.069 24.0115H120.851L113.051 11.2032L113.757 11.0016V28.7853H110.598ZM138.298 28.7853V12.8169H141.324V28.7853H138.298ZM157.09 28.7853V19.4733C157.09 18.2629 156.709 17.2655 155.947 16.4813C155.185 15.6969 154.199 15.3046 152.989 15.3046C152.16 15.3046 151.437 15.4839 150.821 15.8425C150.204 16.201 149.717 16.6941 149.358 17.3219C149 17.9493 148.821 18.6663 148.821 19.4733L147.577 18.7672C147.577 17.5572 147.846 16.4813 148.383 15.5399C148.921 14.5985 149.667 13.8534 150.619 13.3043C151.572 12.7554 152.653 12.4808 153.863 12.4808C155.096 12.4808 156.177 12.7832 157.107 13.3883C158.037 13.9936 158.771 14.7835 159.309 15.7586C159.847 16.7332 160.116 17.77 160.116 18.868L160.082 28.7853H157.09ZM145.795 28.7853V12.8169H148.821V28.7853H145.795ZM170.974 29.1214C169.495 29.1214 168.173 28.7571 167.008 28.0289C165.842 27.3005 164.918 26.3088 164.234 25.0538C163.551 23.7985 163.209 22.3979 163.209 20.8516C163.209 19.2603 163.551 17.8369 164.234 16.5821C164.918 15.3271 165.848 14.3297 167.024 13.5899C168.201 12.8505 169.518 12.4808 170.974 12.4808C172.162 12.4808 173.238 12.7327 174.202 13.2372C175.165 13.7415 175.944 14.4362 176.538 15.3216C177.132 16.2066 177.462 17.232 177.53 18.3974V23.2048C177.462 24.3479 177.137 25.3674 176.555 26.2639C175.972 27.1605 175.199 27.861 174.235 28.365C173.271 28.8695 172.185 29.1214 170.974 29.1214ZM171.479 26.2639C172.487 26.2639 173.367 26.0341 174.118 25.5749C174.868 25.1154 175.457 24.4712 175.882 23.6418C176.308 22.8127 176.521 21.8713 176.521 20.8179C176.521 19.7197 176.308 18.7617 175.882 17.9438C175.457 17.1253 174.863 16.4868 174.101 16.0273C173.339 15.5681 172.465 15.3383 171.479 15.3383C170.448 15.3383 169.551 15.5681 168.789 16.0273C168.027 16.4868 167.422 17.1253 166.974 17.9438C166.526 18.7617 166.313 19.7086 166.335 20.7843C166.335 21.8602 166.548 22.8127 166.974 23.6418C167.4 24.4712 168.005 25.1154 168.789 25.5749C169.574 26.0341 170.47 26.2639 171.479 26.2639ZM179.345 28.7853H176.32V24.4824L176.891 20.5826L176.32 16.7166L176.353 4.78235H179.379L179.345 28.7853ZM188.859 29.1214C187.962 29.1214 187.116 29.004 186.321 28.7687C185.525 28.5332 184.791 28.1971 184.119 27.7597C183.446 27.3228 182.864 26.8017 182.371 26.1968L184.321 24.2471C184.903 24.9641 185.575 25.4964 186.338 25.8436C187.1 26.1913 187.951 26.3648 188.893 26.3648C189.834 26.3648 190.562 26.2025 191.078 25.8773C191.593 25.5524 191.851 25.0986 191.851 24.5156C191.851 23.933 191.643 23.4795 191.229 23.1543C190.814 22.8294 190.282 22.5602 189.632 22.3476C188.982 22.1348 188.293 21.9216 187.565 21.7088C186.836 21.4958 186.147 21.2212 185.497 20.8851C184.847 20.549 184.315 20.0897 183.9 19.5067C183.486 18.9239 183.278 18.1509 183.278 17.1872C183.278 16.2237 183.514 15.3886 183.984 14.6827C184.455 13.9765 185.11 13.4331 185.951 13.0522C186.792 12.6712 187.806 12.4808 188.993 12.4808C190.248 12.4808 191.364 12.6994 192.338 13.1364C193.313 13.5733 194.114 14.2289 194.742 15.103L192.792 17.0527C192.344 16.4701 191.789 16.0216 191.128 15.708C190.467 15.3942 189.722 15.2374 188.893 15.2374C188.018 15.2374 187.352 15.3886 186.892 15.691C186.433 15.9939 186.203 16.4142 186.203 16.9519C186.203 17.4896 186.405 17.9045 186.808 18.1957C187.211 18.487 187.744 18.7335 188.405 18.9351C189.066 19.1372 189.756 19.3443 190.473 19.557C191.19 19.7702 191.873 20.0558 192.523 20.4142C193.173 20.7731 193.706 21.2549 194.12 21.8602C194.535 22.465 194.742 23.2608 194.742 24.2471C194.742 25.7483 194.21 26.9362 193.145 27.8105C192.081 28.6845 190.652 29.1214 188.859 29.1214Z" fill="white"/>
<path fill-rule="evenodd" clip-rule="evenodd" d="M139.801 7.50204C140.646 7.50204 141.331 8.18695 141.331 9.03215C141.331 9.87713 140.646 10.562 139.801 10.562C138.956 10.562 138.271 9.87713 138.271 9.03215C138.271 8.18695 138.956 7.50204 139.801 7.50204Z" fill="white"/>
<path fill-rule="evenodd" clip-rule="evenodd" d="M84.5992 7.53772C85.4444 7.53772 86.1293 8.22262 86.1293 9.0676C86.1293 9.9128 85.4444 10.5977 84.5992 10.5977C83.7542 10.5977 83.0693 9.9128 83.0693 9.0676C83.0693 8.22262 83.7542 7.53772 84.5992 7.53772Z" fill="white"/>
<path fill-rule="evenodd" clip-rule="evenodd" d="M4.102 10.3302C6.31701 10.3302 8.122 12.086 8.20094 14.282C8.20269 14.313 8.204 14.3443 8.204 14.376V14.4322V19.0846V23.0338V23.0598V23.0836C8.2169 23.6323 8.66629 24.0738 9.21802 24.0738C9.77019 24.0738 10.2196 23.6323 10.232 23.0836V23.0598V23.0338V21.9852V19.0846V5.55994C10.2218 5.44142 10.2165 5.32223 10.2165 5.2013C10.2165 2.93578 12.053 1.0993 14.3185 1.0993C16.2591 1.0993 17.885 2.44659 18.3114 4.25704C18.382 4.43374 18.4205 4.62596 18.4205 4.82714V5.2013V27.2908V31.2008H18.4229L18.4205 31.266C18.4205 31.8256 18.8749 32.28 19.4345 32.28C19.9946 32.28 20.4486 31.8256 20.4486 31.266L20.4461 31.2008H20.4486V27.2908V4.25704L20.4501 4.19756L20.4486 4.102C20.4486 1.83648 22.2855 0 24.551 0C26.8165 0 28.653 1.83648 28.653 4.102L28.6517 4.19756L28.653 4.2577V32.0749V35.9958V36.0236V36.0501V36.0555C28.6563 36.6129 29.1089 37.0641 29.6672 37.0641C30.2255 37.0641 30.678 36.6129 30.6812 36.0555V36.0501V36.0236V35.996V32.0749V6.00211L30.683 5.92994L30.6812 5.81667C30.6812 3.55114 32.5177 1.71445 34.7832 1.71445C36.764 1.71445 38.417 3.1186 38.8011 4.98569C38.8562 5.14314 38.8857 5.31217 38.8857 5.48777V5.81667V36.2034V40.0784H38.8911L38.8857 40.1785C38.8857 40.7381 39.3397 41.1925 39.8997 41.1925C40.4593 41.1925 40.9137 40.7381 40.9137 40.1785L40.908 40.0784H40.9137V36.2034V12.9544C40.9137 12.8641 40.9216 12.7757 40.9367 12.6891C40.9214 12.5461 40.9137 12.4003 40.9137 12.2529C40.9137 9.98734 42.7502 8.15086 45.0157 8.15086C47.0877 8.15086 48.8004 9.68709 49.0781 11.6825C49.1039 11.7945 49.1177 11.9108 49.1177 12.03V12.2529V26.9442V30.5752V30.8934V30.9076V30.9194C49.1177 31.479 49.5721 31.9334 50.1317 31.9334C50.6918 31.9334 51.1458 31.479 51.1458 30.9194V30.9076V30.8934V26.9442V21.6157C51.1458 20.7661 51.8407 20.0718 52.6896 20.0718H52.6903C53.5392 20.0718 54.2342 20.7661 54.2342 21.6157V30.9194V31.0491C54.2342 31.1169 54.2294 31.1835 54.2211 31.2489C54.0531 33.3605 52.2864 35.0214 50.1317 35.0214C47.8662 35.0214 46.0297 33.1849 46.0297 30.9194C46.0297 30.8481 46.0315 30.7772 46.0354 30.7066C46.0315 30.6631 46.0297 30.6194 46.0297 30.5752V16.2289V12.2791V12.2529V12.2268V12.2004H46.028C46.0013 11.6655 45.558 11.2388 45.0157 11.2388C44.4734 11.2388 44.0301 11.6655 44.0034 12.2004H44.0017V12.2268V12.2529V12.2791V12.9544V16.2289V40.1184L44.0013 40.1527L44.0017 40.1785C44.0017 42.444 42.1652 44.2805 39.8997 44.2805C37.6342 44.2805 35.7973 42.444 35.7973 40.1785L35.7979 40.1302L35.7973 40.0856V9.79249V5.84291V5.81667V5.80858C35.7933 5.25269 35.3409 4.80243 34.7832 4.80243C34.226 4.80243 33.7734 5.25269 33.7692 5.80858V5.81667V5.84291V6.00211V9.79249V35.996L33.7688 36.0267L33.7692 36.0501C33.7692 38.3156 31.9328 40.1521 29.6672 40.1521C27.4017 40.1521 25.565 38.3156 25.565 36.0501L25.5654 36.0267L25.565 35.9958V8.07782V4.2577V4.12846V4.11797V4.102C25.565 3.5424 25.1108 3.08798 24.551 3.08798C23.9909 3.08798 23.537 3.5424 23.537 4.102V4.11797V4.12846V4.25704V8.07782V31.2465V31.266L23.5367 31.2861C23.5258 33.5422 21.6935 35.368 19.4345 35.368C17.176 35.368 15.3441 33.5427 15.333 31.2868L15.3325 31.266V31.2472V9.17756V5.2785H15.3295L15.3325 5.2013C15.3325 4.64148 14.8781 4.18728 14.3185 4.18728C13.8131 4.18728 13.3942 4.55773 13.3174 5.04167C13.3194 5.07403 13.3205 5.10705 13.3205 5.14008V21.9852C13.3205 22.1256 13.3017 22.2616 13.2662 22.3909C13.3021 22.6085 13.3205 22.8322 13.3205 23.0598C13.3205 25.3253 11.4835 27.1622 9.21802 27.1622C7.12044 27.1622 5.39112 25.5873 5.14597 23.5558C5.12607 23.4582 5.11602 23.3574 5.11602 23.254V23.0598V18.408V14.4582V14.4322C5.11602 13.8726 4.6616 13.4182 4.102 13.4182C3.54239 13.4182 3.08798 13.8726 3.08798 14.4322V14.4582V18.408V19.7313C3.08798 20.5804 2.39301 21.2754 1.54453 21.2754H1.54344C0.694524 21.2754 0 20.5804 0 19.7313V14.4322V14.3756C0 14.3439 0.00130973 14.3124 0.00305917 14.2813C0.08244 12.086 1.88699 10.3302 4.102 10.3302ZM52.6925 15.6054C53.5375 15.6054 54.2224 16.2903 54.2224 17.1353C54.2224 17.9805 53.5375 18.6654 52.6925 18.6654C51.8473 18.6654 51.1626 17.9805 51.1626 17.1353C51.1626 16.2903 51.8473 15.6054 52.6925 15.6054ZM6.55843 5.71302C7.40341 5.71302 8.08832 6.3977 8.08832 7.2429C8.08832 8.08788 7.40341 8.77279 6.55843 8.77279C5.71323 8.77279 5.02833 8.08788 5.02833 7.2429C5.02833 6.3977 5.71323 5.71302 6.55843 5.71302Z" fill="url(#paint0_linear_383_249)"/>
<defs>
<linearGradient id="paint0_linear_383_249" x1="-0.194625" y1="36.724" x2="68.1075" y2="36.724" gradientUnits="userSpaceOnUse">
<stop stop-color="#00CCFF"/>
<stop offset="1" stop-color="#99FF00"/>
</linearGradient>
</defs>
</svg>
