<?xml version="1.0" encoding="UTF-8"?>
<!DOCTYPE svg PUBLIC "-//W3C//DTD SVG 1.1//EN" "http://www.w3.org/Graphics/SVG/1.1/DTD/svg11.dtd">
<!-- Creator: CorelDRAW -->
<svg xmlns="http://www.w3.org/2000/svg" xml:space="preserve" width="69.1726mm" height="12.3612mm" version="1.1" style="shape-rendering:geometricPrecision; text-rendering:geometricPrecision; image-rendering:optimizeQuality; fill-rule:evenodd; clip-rule:evenodd"
viewBox="0 0 6917.26 1236.12"
 xmlns:xlink="http://www.w3.org/1999/xlink"
 xmlns:xodm="http://www.corel.com/coreldraw/odm/2003">
 <defs>
  <style type="text/css">
   <![CDATA[
    .fil4 {fill:white}
    .fil2 {fill:white;fill-rule:nonzero}
    .fil1 {fill:url(#id0)}
    .fil0 {fill:url(#id1)}
    .fil3 {fill:url(#id2);fill-rule:nonzero}
   ]]>
  </style>
  <linearGradient id="id0" gradientUnits="userSpaceOnUse" x1="1079.1" y1="945.29" x2="2668.8" y2="945.29">
   <stop offset="0" style="stop-opacity:1; stop-color:#00CCFF"/>
   <stop offset="1" style="stop-opacity:1; stop-color:#99FF00"/>
  </linearGradient>
  <linearGradient id="id1" gradientUnits="userSpaceOnUse" xlink:href="#id0" x1="1105.14" y1="927.97" x2="2694.76" y2="927.97">
  </linearGradient>
  <linearGradient id="id2" gradientUnits="userSpaceOnUse" xlink:href="#id0" x1="5169.32" y1="1154.51" x2="6044.74" y2="1154.51">
  </linearGradient>
 </defs>
 <g id="Camada_x0020_1">
  <metadata id="CorelCorpID_0Corel-Layer"/>
  <g id="_2191545228016">
   <g>
    <path class="fil0" d="M1205.69 314.44c51.56,0 93.56,40.86 95.4,91.97 0.03,0.72 0.06,1.44 0.06,2.18l0 1.31 0 108.27 0 91.91 0 0.61 0 0.57c0.31,12.76 10.76,23.03 23.6,23.03 12.85,0 23.31,-10.27 23.6,-23.03l0 -0.57 0 -0.61 0 -24.4 0 -67.51 0 -314.75c-0.23,-2.76 -0.35,-5.53 -0.35,-8.35 0,-52.73 42.73,-95.47 95.46,-95.47 45.17,0 83,31.36 92.93,73.49 1.64,4.11 2.54,8.59 2.54,13.28l0 8.7 0 514.1 0 91 0.05 0 -0.05 1.5c0,13.03 10.57,23.61 23.6,23.61 13.03,0 23.6,-10.58 23.6,-23.61l-0.06 -1.5 0.06 0 0 -91 0 -536.08 0.03 -1.37 -0.03 -2.24c0,-52.72 42.74,-95.46 95.47,-95.46 52.73,0 95.47,42.74 95.47,95.46l-0.04 2.24 0.04 1.39 0 647.4 0 91.25 0 0.65 0 0.62 0 0.13c0.07,12.95 10.61,23.47 23.6,23.47 13,0 23.53,-10.52 23.6,-23.47l0 -0.13 0 -0.62 0 -0.64 0 -91.26 0 -606.8 0.04 -1.68 -0.04 -2.64c0,-52.72 42.75,-95.47 95.47,-95.47 46.1,0 84.57,32.68 93.51,76.13 1.28,3.66 1.97,7.6 1.97,11.68l0 7.66 0 707.2 0 90.19 0.13 0 -0.13 2.33c0,13.02 10.56,23.6 23.6,23.6 13.02,0 23.6,-10.58 23.6,-23.6l-0.13 -2.33 0.13 0 0 -90.19 0 -541.08c0,-2.1 0.18,-4.15 0.53,-6.17 -0.36,-3.33 -0.53,-6.73 -0.53,-10.15 0,-52.73 42.74,-95.48 95.47,-95.48 48.22,0 88.08,35.76 94.54,82.19 0.59,2.62 0.92,5.32 0.92,8.1l0 5.19 0 341.91 0 84.51 0 7.4 0 0.33 0 0.27c0,13.03 10.58,23.6 23.6,23.6 13.04,0 23.6,-10.57 23.6,-23.6l0 -0.27 0 -0.33 0 -91.91 0 -124.01c0,-19.78 16.18,-35.93 35.93,-35.93l0.01 0c19.77,0 35.94,16.15 35.94,35.93l0 216.52 0 3.02c0,1.58 -0.11,3.13 -0.31,4.65 -3.91,49.15 -45.02,87.8 -95.17,87.8 -52.73,0 -95.46,-42.74 -95.46,-95.47 0,-1.65 0.04,-3.3 0.13,-4.95 -0.09,-1.01 -0.13,-2.03 -0.13,-3.05l0 -333.89 0 -91.92 0 -0.61 0 -0.61 0 -0.62 -0.05 0c-0.62,-12.45 -10.93,-22.37 -23.55,-22.37 -12.63,0 -22.94,9.92 -23.56,22.37l-0.05 0 0 0.62 0 0.61 0 0.61 0 15.71 0 76.21 0 555.98 -0.01 0.8 0.01 0.61c0,52.71 -42.74,95.46 -95.46,95.46 -52.73,0 -95.48,-42.75 -95.48,-95.46l0.02 -1.13 -0.02 -1.04 0 -705.02 0 -91.92 0 -0.61 0 -0.19c-0.09,-12.93 -10.63,-23.41 -23.6,-23.41 -12.97,0 -23.5,10.48 -23.6,23.41l0 0.19 0 0.61 0 3.71 0 88.21 0 609.85 -0.01 0.71 0.01 0.55c0,52.71 -42.74,95.46 -95.47,95.46 -52.72,0 -95.47,-42.75 -95.47,-95.46l0.01 -0.55 -0.01 -0.72 0 -649.75 0 -88.9 0 -3.01 0 -0.24 0 -0.38c0,-13.02 -10.57,-23.6 -23.6,-23.6 -13.03,0 -23.6,10.58 -23.6,23.6l0 0.38 0 0.24 0 2.99 0 88.92 0 539.22 0 0.44 -0.01 0.48c-0.25,52.5 -42.89,95 -95.46,95 -52.57,0 -95.2,-42.49 -95.46,-94.99l-0.01 -0.49 0 -0.43 0 -513.63 0 -90.74 -0.07 0 0.07 -1.8c0,-13.03 -10.57,-23.6 -23.6,-23.6 -11.77,0 -21.51,8.62 -23.3,19.88 0.05,0.76 0.07,1.53 0.07,2.3l0 392.03c0,3.27 -0.43,6.44 -1.26,9.45 0.84,5.06 1.26,10.26 1.26,15.56 0,52.73 -42.75,95.48 -95.48,95.48 -48.81,0 -89.06,-36.65 -94.77,-83.93 -0.45,-2.27 -0.69,-4.62 -0.69,-7.02l0 -4.53 0 -108.25 0 -91.93 0 -0.61c0,-13.02 -10.58,-23.6 -23.6,-23.6 -13.03,0 -23.6,10.58 -23.6,23.6l0 0.61 0 91.93 0 30.79c0,19.76 -16.17,35.94 -35.92,35.94l-0.03 0c-19.75,0 -35.92,-16.18 -35.92,-35.94l0 -123.33 0 -1.31c0,-0.74 0.04,-1.47 0.07,-2.2 1.85,-51.09 43.84,-91.95 95.4,-91.95zm1130.86 122.77c19.67,0 35.61,15.94 35.61,35.61 0,19.66 -15.94,35.6 -35.61,35.6 -19.67,0 -35.61,-15.94 -35.61,-35.6 0,-19.67 15.94,-35.61 35.61,-35.61zm-1073.69 -230.23c19.67,0 35.61,15.94 35.61,35.6 0,19.67 -15.94,35.61 -35.61,35.61 -19.67,0 -35.61,-15.94 -35.61,-35.61 0,-19.66 15.94,-35.6 35.61,-35.6z"/>
    <path class="fil1" d="M1854.52 1090.9c19.68,0 35.61,15.93 35.61,35.6 0,19.67 -15.93,35.6 -35.61,35.6 -19.67,0 -35.59,-15.93 -35.59,-35.6 0,-19.67 15.92,-35.6 35.59,-35.6z"/>
   </g>
   <g>
    <path class="fil2" d="M2612.57 750.66l0 -67.57 173.06 0c32.97,0 58.8,-9.76 77.48,-29.27 18.67,-19.5 28.02,-42.98 28.02,-70.45 0,-18.68 -4.13,-35.58 -12.37,-50.68 -8.24,-15.11 -20.19,-27.06 -35.85,-35.85 -15.65,-8.8 -33.92,-13.18 -54.8,-13.18l-175.54 0 0 -67.58 164 0c27.47,0 49.31,-7.28 65.52,-21.85 16.2,-14.55 24.31,-35.56 24.31,-63.04 0,-27.47 -8.52,-48.48 -25.55,-63.04 -17.03,-14.56 -39.56,-21.84 -67.58,-21.84l-160.7 0 0 -67.58 162.35 0c37.37,0 68.55,6.72 93.54,20.19 25,13.47 43.96,31.18 56.87,53.16 12.9,21.98 19.35,46.15 19.35,72.53 0,30.76 -8.37,57.68 -25.13,80.75 -16.75,23.08 -41.34,41.2 -73.75,54.39l6.58 -24.73c36.82,13.2 65.53,33.1 86.13,59.75 20.6,26.66 30.9,58.11 30.9,94.37 0,30.21 -7.41,57.41 -22.25,81.59 -14.83,24.16 -36.12,43.54 -63.87,58.09 -27.75,14.57 -61.67,21.84 -101.78,21.84l-168.94 0zm-51.91 0l0 -571.93 77.46 0 0 571.93 -77.46 0zm501.05 0l0 -391.44 74.17 0 0 391.44 -74.17 0zm346.12 172.24c-40.1,0 -75.68,-7.42 -106.72,-22.26 -31.04,-14.82 -55.91,-35.7 -74.58,-62.62l47.8 -48.62c15.94,20.32 34.88,35.85 56.86,46.55 21.98,10.72 48.08,16.08 78.29,16.08 40.11,0 71.84,-10.58 95.18,-31.73 23.35,-21.16 35.03,-49.59 35.03,-85.29l0 -97.26 13.18 -88.17 -13.18 -87.36 0 -103 74.17 0 0 375.79c0,37.36 -8.66,70.04 -25.96,98.05 -17.3,28.02 -41.48,50.01 -72.52,65.94 -31.04,15.93 -66.89,23.9 -107.55,23.9zm0 -178.84c-35.71,0 -67.71,-8.5 -96,-25.53 -28.3,-17.04 -50.68,-40.52 -67.16,-70.47 -16.48,-29.94 -24.72,-63.6 -24.72,-100.95 0,-37.36 8.24,-70.75 24.72,-100.14 16.48,-29.39 38.86,-52.74 67.16,-70.04 28.29,-17.32 60.29,-25.96 96,-25.96 30.78,0 57.97,6.04 81.59,18.13 23.62,12.09 42.45,28.98 56.45,50.69 14.01,21.69 21.56,47.1 22.66,76.22l0 103.84c-1.64,28.57 -9.47,53.7 -23.48,75.4 -14.01,21.71 -32.82,38.61 -56.45,50.69 -23.63,12.08 -50.55,18.12 -80.77,18.12zm14.83 -70.05c24.19,0 45.48,-5.21 63.87,-15.64 18.4,-10.45 32.56,-25.14 42.45,-44.11 9.89,-18.94 14.83,-41.06 14.83,-66.32 0,-25.28 -5.08,-47.39 -15.24,-66.35 -10.17,-18.94 -24.31,-33.78 -42.45,-44.5 -18.12,-10.71 -39.54,-16.07 -64.28,-16.07 -24.72,0 -46.42,5.36 -65.1,16.07 -18.67,10.72 -33.38,25.56 -44.09,44.5 -10.71,18.96 -16.07,40.79 -16.07,65.52 0,24.72 5.36,46.7 16.07,65.92 10.71,19.23 25.55,34.21 44.5,44.93 18.96,10.7 40.79,16.05 65.51,16.05zm313.17 76.65l0 -571.93 54.39 0 242.29 398.04 -37.09 0 242.28 -398.04 54.4 0 0 571.93 -77.48 0 0 -435.95 18.14 4.95 -191.19 313.98 -54.39 0 -191.2 -313.98 17.32 -4.95 0 435.95 -77.47 0zm679.06 0l0 -391.44 74.16 0 0 391.44 -74.16 0zm460.66 0l0 -228.28c0,-29.67 -9.34,-54.12 -28.02,-73.34 -18.67,-19.22 -42.85,-28.84 -72.51,-28.84 -20.33,0 -38.04,4.39 -53.15,13.18 -15.12,8.79 -27.07,20.88 -35.85,36.26 -8.79,15.39 -13.19,32.96 -13.19,52.74l-30.49 -17.3c0,-29.66 6.59,-56.04 19.78,-79.12 13.18,-23.08 31.45,-41.34 54.8,-54.81 23.35,-13.45 49.86,-20.18 79.52,-20.18 30.23,0 56.73,7.41 79.53,22.25 22.8,14.84 40.8,34.19 53.98,58.11 13.18,23.89 19.78,49.3 19.78,76.22l-0.82 243.11 -73.36 0zm-276.88 0l0 -391.44 74.16 0 0 391.44 -74.16 0zm617.24 8.24c-36.27,0 -68.68,-8.93 -97.25,-26.78 -28.56,-17.85 -51.22,-42.17 -67.98,-72.93 -16.75,-30.77 -25.14,-65.11 -25.14,-103.01 0,-39.01 8.39,-73.9 25.14,-104.67 16.76,-30.76 39.56,-55.21 68.39,-73.35 28.86,-18.12 61.13,-27.19 96.84,-27.19 29.12,0 55.49,6.18 79.11,18.54 23.63,12.37 42.71,29.39 57.28,51.1 14.55,21.7 22.65,46.84 24.31,75.4l0 117.85c-1.66,28.03 -9.62,53.01 -23.9,74.99 -14.28,21.99 -33.24,39.15 -56.86,51.51 -23.63,12.36 -50.27,18.54 -79.94,18.54zm12.37 -70.05c24.72,0 46.28,-5.62 64.68,-16.89 18.41,-11.27 32.82,-27.05 43.27,-47.39 10.44,-20.33 15.66,-43.39 15.66,-69.22 0,-26.92 -5.22,-50.41 -15.66,-70.46 -10.45,-20.06 -25,-35.71 -43.68,-46.98 -18.67,-11.25 -40.11,-16.89 -64.27,-16.89 -25.28,0 -47.25,5.64 -65.94,16.89 -18.68,11.27 -33.51,26.92 -44.5,46.98 -10.98,20.05 -16.21,43.27 -15.66,69.64 0,26.37 5.22,49.71 15.66,70.04 10.44,20.34 25.27,36.12 44.5,47.39 19.23,11.27 41.22,16.89 65.94,16.89zm192.83 61.81l-74.16 0 0 -105.48 14 -95.6 -14 -94.78 0.82 -292.55 74.16 0 -0.82 588.41zm233.22 8.24c-21.97,0 -42.71,-2.88 -62.22,-8.64 -19.51,-5.78 -37.49,-14.02 -53.97,-24.74 -16.5,-10.71 -30.78,-23.48 -42.86,-38.31l47.8 -47.8c14.28,17.58 30.76,30.62 49.44,39.14 18.69,8.52 39.56,12.78 62.64,12.78 23.07,0 40.93,-3.98 53.56,-11.95 12.64,-7.97 18.96,-19.1 18.96,-33.39 0,-14.27 -5.09,-25.4 -15.25,-33.37 -10.17,-7.97 -23.21,-14.56 -39.15,-19.78 -15.92,-5.22 -32.82,-10.43 -50.67,-15.65 -17.85,-5.22 -34.76,-11.96 -50.69,-20.2 -15.93,-8.24 -28.98,-19.49 -39.15,-33.78 -10.16,-14.28 -15.24,-33.24 -15.24,-56.87 0,-23.61 5.77,-44.09 17.31,-61.39 11.54,-17.31 27.6,-30.63 48.21,-39.97 20.6,-9.34 45.46,-14.01 74.57,-14.01 30.78,0 58.11,5.36 82.01,16.07 23.89,10.71 43.53,26.78 58.92,48.22l-47.8 47.78c-10.99,-14.27 -24.59,-25.26 -40.79,-32.96 -16.21,-7.69 -34.47,-11.54 -54.8,-11.54 -21.44,0 -37.78,3.71 -49.03,11.13 -11.27,7.42 -16.91,17.73 -16.91,30.91 0,13.18 4.96,23.35 14.84,30.49 9.88,7.14 22.94,13.18 39.14,18.12 16.21,4.95 33.11,10.03 50.69,15.25 17.58,5.23 34.34,12.23 50.27,21.01 15.93,8.8 28.98,20.61 39.14,35.45 10.17,14.83 15.25,34.33 15.25,58.51 0,36.81 -13.05,65.92 -39.15,87.36 -26.09,21.42 -61.11,32.13 -105.07,32.13z"/>
    <path class="fil3" d="M5217.15 1070.51l0 -225.22 24.57 0.33 0.33 224.89 -24.9 0zm-81.48 -209.07l0 -22.56 187.85 0 0 22.56 -187.85 0zm250.48 212.44c-15.93,0 -30.19,-3.6 -42.75,-10.77 -12.57,-7.2 -22.51,-17.07 -29.81,-29.63 -7.29,-12.57 -10.93,-26.71 -10.93,-42.42 0,-15.49 3.58,-29.46 10.76,-41.92 7.19,-12.45 16.95,-22.27 29.3,-29.46 12.34,-7.18 26.15,-10.77 41.41,-10.77 14.36,0 27.1,3.25 38.21,9.77 11.11,6.5 19.86,15.54 26.26,27.09 6.4,11.57 9.59,24.86 9.59,39.91 0,1.79 -0.11,3.86 -0.33,6.22 -0.22,2.36 -0.68,5.1 -1.34,8.25l-137.04 0 0 -20.2 124.23 0 -8.41 7.4c0.23,-11.66 -1.74,-21.72 -5.89,-30.13 -4.16,-8.41 -10.1,-14.92 -17.84,-19.53 -7.75,-4.6 -17.12,-6.9 -28.11,-6.9 -11.45,0 -21.44,2.47 -29.96,7.42 -8.54,4.93 -15.22,11.83 -20.03,20.69 -4.83,8.88 -7.25,19.36 -7.25,31.49 0,12.12 2.53,22.77 7.58,31.98 5.05,9.2 12.12,16.38 21.2,21.54 9.1,5.17 19.59,7.75 31.48,7.75 9.66,0 18.52,-1.75 26.6,-5.22 8.08,-3.48 14.93,-8.7 20.54,-15.66l15.15 15.49c-7.41,8.75 -16.55,15.55 -27.44,20.36 -10.89,4.83 -22.61,7.25 -35.18,7.25zm180.11 0c-15.49,0 -29.46,-3.65 -41.91,-10.95 -12.45,-7.29 -22.34,-17.22 -29.63,-29.79 -7.3,-12.57 -10.94,-26.6 -10.94,-42.08 0,-15.49 3.64,-29.46 10.94,-41.92 7.29,-12.45 17.18,-22.27 29.63,-29.46 12.45,-7.18 26.42,-10.77 41.91,-10.77 11.9,0 23.01,2.25 33.33,6.73 10.33,4.5 19.08,10.78 26.26,18.86l-15.49 15.83c-5.39,-6.07 -11.89,-10.73 -19.53,-13.98 -7.62,-3.26 -15.82,-4.88 -24.57,-4.88 -11.22,0 -21.21,2.58 -29.96,7.74 -8.76,5.16 -15.59,12.18 -20.54,21.04 -4.94,8.86 -7.4,19.14 -7.4,30.81 0,11.45 2.46,21.71 7.4,30.81 4.95,9.08 11.78,16.21 20.54,21.38 8.75,5.15 18.74,7.73 29.96,7.73 8.98,0 17.28,-1.63 24.91,-4.88 7.64,-3.25 14.15,-7.91 19.53,-13.97l15.82 15.82c-7.4,8.31 -16.33,14.7 -26.76,19.2 -10.43,4.48 -21.6,6.73 -33.5,6.73zm208.4 -3.37l0 -92.92c0,-13.91 -4.1,-25.2 -12.29,-33.84 -8.2,-8.64 -19.14,-12.96 -32.83,-12.96 -9.2,0 -17.22,2.03 -24.07,6.07 -6.85,4.03 -12.29,9.53 -16.33,16.49 -4.03,6.96 -6.05,14.93 -6.05,23.9l-10.78 -6.06c0,-11.89 2.8,-22.55 8.42,-31.98 5.61,-9.43 13.18,-16.83 22.72,-22.22 9.54,-5.39 20.37,-8.08 32.5,-8.08 12.33,0 23.22,2.75 32.65,8.25 9.43,5.5 16.77,13.07 22.05,22.72 5.27,9.65 7.91,20.88 7.91,33.67l-0.34 96.96 -23.56 0zm-115.14 0l0 -238.36 23.57 0 0 238.36 -23.57 0z"/>
    <path class="fil4" d="M3098.5 229.8c20.72,0 37.51,16.79 37.51,37.5 0,20.72 -16.79,37.51 -37.51,37.51 -20.71,0 -37.5,-16.79 -37.5,-37.51 0,-20.71 16.79,-37.5 37.5,-37.5z"/>
    <path class="fil4" d="M4452.8 229.8c20.72,0 37.51,16.79 37.51,37.5 0,20.72 -16.79,37.51 -37.51,37.51 -20.73,0 -37.5,-16.79 -37.5,-37.51 0,-20.71 16.77,-37.5 37.5,-37.5z"/>
   </g>
  </g>
 </g>
</svg>
