<?xml version="1.0" encoding="UTF-8"?>
<!DOCTYPE svg PUBLIC "-//W3C//DTD SVG 1.1//EN" "http://www.w3.org/Graphics/SVG/1.1/DTD/svg11.dtd">
<!-- Creator: CorelDRAW -->
<svg xmlns="http://www.w3.org/2000/svg" xml:space="preserve" width="13.3772mm" height="12.3612mm" version="1.1" style="shape-rendering:geometricPrecision; text-rendering:geometricPrecision; image-rendering:optimizeQuality; fill-rule:evenodd; clip-rule:evenodd"
viewBox="0 0 1337.72 1236.12"
 xmlns:xlink="http://www.w3.org/1999/xlink"
 xmlns:xodm="http://www.corel.com/coreldraw/odm/2003">
 <defs>
  <style type="text/css">
   <![CDATA[
    .fil1 {fill:url(#id0)}
    .fil0 {fill:url(#id1)}
   ]]>
  </style>
  <linearGradient id="id0" gradientUnits="userSpaceOnUse" x1="95" y1="901" x2="1471" y2="901">
   <stop offset="0" style="stop-opacity:1; stop-color:#00CCFF"/>
   <stop offset="1" style="stop-opacity:1; stop-color:#99FF00"/>
  </linearGradient>
  <linearGradient id="id1" gradientUnits="userSpaceOnUse" xlink:href="#id0" x1="118" y1="886" x2="1494" y2="886">
  </linearGradient>
 </defs>
 <g id="Camada_x0020_1">
  <metadata id="CorelCorpID_0Corel-Layer"/>
  <g id="_2795517522240">
   <path class="fil0" d="M205.22 355.25c44.62,0 80.98,35.37 82.57,79.61 0.03,0.63 0.06,1.26 0.06,1.89l0 1.14 0 93.72 0 79.56 0 0.52 0 0.48c0.26,11.06 9.32,19.95 20.43,19.95 11.12,0 20.18,-8.89 20.43,-19.95l0 -0.48 0 -0.52 0 -21.13 0 -58.43 0 -272.46c-0.21,-2.38 -0.32,-4.79 -0.32,-7.22 0,-45.64 37,-82.64 82.64,-82.64 39.09,0 71.85,27.14 80.44,63.62 1.42,3.55 2.2,7.43 2.2,11.48l0 7.54 0 445 0 78.77 0.05 0 -0.05 1.31c0,11.27 9.15,20.43 20.43,20.43 11.28,0 20.42,-9.16 20.42,-20.43l-0.04 -1.31 0.04 0 0 -78.77 0 -464.02 0.03 -1.2 -0.03 -1.93c0,-45.64 37.01,-82.63 82.65,-82.63 45.64,0 82.64,36.99 82.64,82.63l-0.03 1.93 0.03 1.21 0 560.38 0 78.99 0 0.56 0 0.53 0 0.12c0.06,11.22 9.18,20.31 20.42,20.31 11.25,0 20.37,-9.09 20.43,-20.31l0 -0.12 0 -0.53 0 -0.55 0 -79 0 -525.24 0.04 -1.46 -0.04 -2.28c0,-45.64 37,-82.64 82.64,-82.64 39.9,0 73.2,28.29 80.94,65.9 1.11,3.18 1.7,6.58 1.7,10.12l0 6.62 0 612.15 0 78.07 0.11 0 -0.11 2.01c0,11.28 9.15,20.43 20.43,20.43 11.28,0 20.43,-9.15 20.43,-20.43l-0.11 -2.01 0.11 0 0 -78.07 0 -468.35c0,-1.82 0.16,-3.6 0.46,-5.35 -0.31,-2.88 -0.46,-5.82 -0.46,-8.79 0,-45.63 37,-82.63 82.64,-82.63 41.73,0 76.24,30.94 81.83,71.14 0.52,2.26 0.8,4.6 0.8,7.01l0 4.48 0 295.96 0 73.15 0 6.41 0 0.29 0 0.24c0,11.27 9.16,20.42 20.43,20.42 11.28,0 20.43,-9.15 20.43,-20.42l0 -0.24 0 -0.29 0 -79.56 0 -107.34c0,-17.12 14,-31.1 31.1,-31.1l0.01 0c17.11,0 31.11,13.98 31.11,31.1l0 187.43 0 2.61c0,1.36 -0.1,2.71 -0.27,4.02 -3.38,42.54 -38.97,76 -82.38,76 -45.64,0 -82.64,-37 -82.64,-82.63 0,-1.44 0.04,-2.87 0.12,-4.29 -0.08,-0.88 -0.12,-1.76 -0.12,-2.65l0 -289.01 0 -79.57 0 -0.53 0 -0.52 0 -0.53 -0.03 0c-0.54,-10.78 -9.47,-19.37 -20.39,-19.37 -10.93,0 -19.86,8.59 -20.4,19.37l-0.03 0 0 0.53 0 0.52 0 0.53 0 13.61 0 65.96 0 481.26 -0.01 0.7 0.01 0.51c0,45.64 -37,82.64 -82.64,82.64 -45.64,0 -82.64,-37 -82.64,-82.64l0.01 -0.97 -0.01 -0.9 0 -610.26 0 -79.57 0 -0.53 0 -0.16c-0.08,-11.2 -9.2,-20.27 -20.43,-20.27 -11.23,0 -20.35,9.07 -20.43,20.27l0 0.16 0 0.53 0 3.21 0 76.36 0 527.88 -0.01 0.62 0.01 0.46c0,45.64 -37,82.64 -82.64,82.64 -45.64,0 -82.63,-37 -82.63,-82.64l0 -0.46 0 -0.63 0 -562.41 0 -76.96 0 -2.61 0 -0.21 0 -0.32c0,-11.27 -9.16,-20.43 -20.43,-20.43 -11.28,0 -20.43,9.16 -20.43,20.43l0 0.32 0 0.21 0 2.6 0 76.97 0 466.74 0 0.39 -0.01 0.4c-0.21,45.45 -37.13,82.23 -82.63,82.23 -45.5,0 -82.41,-36.77 -82.63,-82.21l-0.01 -0.42 0 -0.38 0 -444.6 0 -78.55 -0.06 0 0.06 -1.55c0,-11.28 -9.15,-20.43 -20.43,-20.43 -10.18,0 -18.62,7.46 -20.17,17.21 0.04,0.65 0.07,1.32 0.07,1.98l0 339.35c0,2.83 -0.38,5.57 -1.1,8.18 0.72,4.38 1.1,8.88 1.1,13.47 0,45.64 -37.01,82.65 -82.65,82.65 -42.26,0 -77.1,-31.73 -82.03,-72.66 -0.4,-1.96 -0.61,-3.99 -0.61,-6.07l0 -3.92 0 -93.71 0 -79.57 0 -0.52c0,-11.28 -9.15,-20.43 -20.42,-20.43 -11.28,0 -20.43,9.15 -20.43,20.43l0 0.52 0 79.57 0 26.66c0,17.11 -14,31.1 -31.1,31.1l-0.02 0c-17.1,0 -31.09,-13.99 -31.09,-31.1l0 -106.75 0 -1.14c0,-0.64 0.03,-1.28 0.06,-1.9 1.6,-44.23 37.95,-79.6 82.58,-79.6zm978.87 106.27c17.02,0 30.82,13.8 30.82,30.82 0,17.03 -13.8,30.82 -30.82,30.82 -17.03,0 -30.82,-13.79 -30.82,-30.82 0,-17.02 13.79,-30.82 30.82,-30.82zm-929.39 -199.29c17.02,0 30.82,13.8 30.82,30.83 0,17.02 -13.8,30.82 -30.82,30.82 -17.02,0 -30.82,-13.8 -30.82,-30.82 0,-17.03 13.8,-30.83 30.82,-30.83z"/>
   <path class="fil1" d="M766.85 1027.35c17.03,0 30.82,13.8 30.82,30.82 0,17.03 -13.79,30.82 -30.82,30.82 -17.02,0 -30.82,-13.79 -30.82,-30.82 0,-17.02 13.8,-30.82 30.82,-30.82z"/>
  </g>
 </g>
</svg>
