<svg width="237" height="24" viewBox="0 0 237 24" fill="none" xmlns="http://www.w3.org/2000/svg">
<path fill-rule="evenodd" clip-rule="evenodd" d="M175.709 0.229445H177.315C178.187 0.229445 178.325 0.780113 178.325 1.14723V2.75334H176.719C175.893 2.75334 175.709 2.24856 175.709 1.83556V0.229445ZM175.893 5.4149H177.177C177.866 5.4149 178.187 5.78202 178.233 6.37857V19.6864H176.764V19.6405C176.26 19.5946 175.893 19.2275 175.893 18.6768V5.4149ZM97.7895 15.7399C98.2025 15.3728 98.8908 15.2352 99.4415 15.7858C99.6212 15.9492 99.7544 16.0777 99.8514 16.1713C100.027 16.3405 100.084 16.3956 100.084 16.3365L100.13 16.4283L100.084 16.52C97.7895 18.9063 95.5409 19.9158 92.4664 19.9158C86.9597 19.9158 82.8297 15.6482 82.8297 10.0038C82.8297 4.40534 87.0515 0 92.5122 0C96.2751 0 98.3401 1.46845 99.9922 3.07456L100.084 3.16634L99.9922 3.25812C99.9922 3.25812 99.5792 3.71701 99.1662 4.13001C98.7073 4.63479 98.0648 4.49712 97.6977 4.1759C96.1375 2.84512 94.4855 2.24856 92.5122 2.24856C88.3822 2.24856 85.2618 5.59846 85.2618 9.95792C85.2618 14.3174 88.474 17.7132 92.5122 17.7132C94.5314 17.7132 96.0916 17.1625 97.7895 15.7399ZM129.453 7.70935C130.692 5.96557 132.298 5.09368 134.317 5.09368C137.621 5.09368 139.64 7.29635 139.594 10.8298V19.5946H138.355C137.438 19.5946 137.3 19.0439 137.3 18.4474V11.2887C137.3 8.71891 136.015 7.20458 133.766 7.20458C131.885 7.20458 130.004 8.48947 130.004 11.4264V19.5946H128.719C128.076 19.5946 127.709 19.2734 127.709 18.5851V11.2428C127.709 8.67302 126.424 7.15869 124.222 7.15869C122.065 7.15869 120.459 8.99425 120.459 11.4723V18.5851C120.459 19.3652 120.092 19.5487 119.449 19.5487H118.164V5.27724H119.449C120.092 5.27724 120.505 5.69024 120.505 6.37857V7.38813C121.422 6.19502 122.661 5.0019 124.956 5.0019C127.617 5.0019 128.902 6.60802 129.453 7.70935ZM145.606 8.03058C147.028 6.05735 148.772 5.13957 150.883 5.13957C154.187 5.13957 157.675 7.70935 157.675 12.5277C157.675 17.346 154.187 19.9617 150.883 19.9617C148.726 19.9617 147.028 19.0439 145.606 17.2084V24H144.321C143.633 24 143.311 23.6787 143.311 22.9904V5.46079H144.459C145.193 5.46079 145.606 5.8279 145.606 6.56213V8.03058ZM145.514 12.4818C145.514 15.7858 148.038 17.8049 150.47 17.8049C153.315 17.8049 155.288 15.6482 155.288 12.5277C155.288 9.04014 152.856 7.20458 150.47 7.15869C148.038 7.15869 145.514 9.1778 145.514 12.4818ZM193.33 7.61758V6.42446C193.33 5.73613 193.973 5.36901 194.386 5.36901H195.671V17.0707C195.671 21.4761 193.009 24 188.42 24C186.034 24 183.877 23.3575 181.996 22.0267L181.904 21.9808L181.95 21.8891C181.95 21.8891 182.088 21.6137 182.455 21.0172C182.638 20.6959 182.914 20.5583 183.189 20.5583C183.418 20.5583 183.694 20.6501 184.061 20.8795C185.437 21.6596 186.906 22.0267 188.42 22.0267C191.541 22.0267 193.376 20.2371 193.376 17.1166V15.7399C191.862 17.5755 190.072 18.4474 187.961 18.4474C184.703 18.4474 181.262 16.107 181.262 11.7476C181.262 9.82025 181.996 8.03058 183.327 6.79157C184.566 5.64435 186.263 5.0019 187.961 5.0019C190.669 5.0019 192.367 6.37857 193.33 7.61758ZM188.42 16.5659C190.898 16.5659 193.468 14.8222 193.468 11.8853C193.468 8.81069 190.852 7.20458 188.42 7.25046C185.713 7.25046 183.694 9.1778 183.694 11.8853C183.694 14.5468 185.713 16.5659 188.42 16.5659ZM201.82 7.61758C202.921 5.96557 204.481 5.13957 206.501 5.13957C209.85 5.13957 211.961 7.34224 211.915 10.8298V19.7323H210.539C209.942 19.7323 209.621 19.4569 209.621 18.7686V11.4264C209.621 8.81069 208.244 7.29635 205.858 7.29635C203.426 7.29635 201.728 9.04013 201.728 11.564L201.774 19.7323H199.434V5.46079H200.719C201.269 5.46079 201.82 5.73613 201.82 6.42446V7.61758ZM161.162 6.33268C162.906 5.55257 164.512 5.18546 166.302 5.18546C170.202 5.18546 172.359 7.25046 172.405 10.8757V19.5946H171.12C170.432 19.5946 170.111 19.3193 170.111 18.6768V17.7132C168.872 19.1816 167.174 19.9617 165.155 19.9617C161.438 19.9617 159.786 17.5755 159.786 15.4187C159.786 12.5736 161.988 10.9216 165.889 10.9216H168.275V11.7017C168.275 12.3441 167.954 12.6654 167.265 12.6654H166.118C163.548 12.6654 162.126 13.629 162.126 15.3728C162.126 17.2084 163.916 18.0344 165.568 18.0344C168.229 18.0344 170.156 16.52 170.156 14.3633V10.9216C170.156 8.53536 168.734 7.20458 166.118 7.20458C164.925 7.20458 163.87 7.43402 162.677 7.89291C162.264 8.07647 161.713 8.03058 161.529 7.57169C161.346 7.1128 161.116 6.47035 161.116 6.47035L161.07 6.37857L161.162 6.33268ZM103.388 6.33268C104.765 5.73613 106.325 5.18546 108.528 5.18546C112.428 5.18546 114.585 7.25046 114.631 10.8757V19.5946H113.346C112.703 19.5946 112.382 19.3193 112.382 18.6768V17.7132C111.097 19.1816 109.399 19.9617 107.38 19.9617C103.709 19.9617 102.057 17.5755 102.057 15.4187C102.057 12.5736 104.306 10.9216 108.206 10.9216H110.547V11.7017C110.547 12.3441 110.225 12.6654 109.537 12.6654H108.39C105.866 12.6654 104.443 13.629 104.443 15.3728C104.443 17.2084 106.187 18.0344 107.839 18.0344C110.501 18.0344 112.428 16.52 112.428 14.3633V10.9675C112.428 8.58125 110.96 7.25046 108.344 7.25046C107.151 7.25046 106.095 7.47991 104.902 7.9388C104.489 8.12235 103.939 8.07647 103.755 7.61758C103.571 7.15869 103.342 6.51624 103.342 6.51624L103.296 6.42446L103.388 6.33268ZM221.552 0.734224C222.149 1.10134 235.227 10.2333 235.548 10.5086C236.099 10.8757 236.374 11.3346 236.374 11.7935V12.0688C236.374 12.4359 236.237 13.0325 235.594 13.4914C235.319 13.7208 221.414 23.4034 221.414 23.4034V21.2466C221.414 20.6042 221.46 20.2829 222.195 19.8241C222.791 19.4569 232.244 12.8948 233.483 12.0229C232.893 11.6075 230.47 9.92145 228.024 8.22009C225.337 6.3503 222.623 4.46206 222.286 4.22179L222.195 4.1759C222.16 4.14804 222.125 4.12097 222.092 4.09442C221.682 3.77106 221.369 3.52363 221.369 2.84512V0.596557L221.552 0.734224ZM228.481 12.6195C228.114 12.8948 227.747 13.0325 227.38 13.0325C227.059 13.0325 226.738 12.9407 226.371 12.7113C225.545 12.1606 221.369 9.26958 221.323 9.22369L221.277 9.1778V7.75524C221.277 7.38813 221.46 7.15869 221.69 7.02102C221.919 6.88335 222.286 6.92924 222.562 7.15869C223.204 7.57169 229.307 11.7935 229.353 11.8394L229.491 11.9311L229.353 12.0229C229.353 12.0229 228.94 12.2983 228.481 12.6195ZM31.3422 16.4283C31.6175 16.1988 32.26 15.8776 32.7648 16.3824C33.2236 16.8413 33.4531 17.0248 33.4531 17.0248L33.5449 17.1166H33.4531C32.3518 18.4015 30.6539 19.9158 27.6711 19.9158C23.6328 19.9158 20.3288 16.5659 20.3288 12.4818C20.3288 8.30591 23.587 5.04779 27.6711 5.04779C29.9655 5.04779 31.7552 5.82791 33.3613 7.57169L33.4531 7.66347L33.3613 7.75524C33.3613 7.75524 32.9483 8.21413 32.5812 8.58125C32.1682 9.04014 31.6634 8.99425 31.0669 8.48947C30.2409 7.84702 29.2313 7.15869 27.6711 7.15869C24.9636 7.15869 22.8068 9.49903 22.8068 12.4818C22.8068 15.5105 25.0095 17.8508 27.8087 17.8508C29.0936 17.8508 30.2867 17.3919 31.3422 16.4283ZM46.3938 0.229445H47.9999C48.6424 0.229445 49.0554 0.688335 49.0095 1.33078V2.75334H47.4033C46.5773 2.75334 46.3938 2.24856 46.3938 1.83556V0.229445ZM46.4856 5.4149H47.8164C48.5047 5.4149 48.8718 5.78202 48.8259 6.37857V19.6864H47.3575V19.6405C46.8527 19.5946 46.4856 19.2275 46.4856 18.6768V5.4149ZM58.5544 16.7036C59.2427 15.1434 62.7303 6.6998 62.9138 6.19502C63.1433 5.64435 63.5563 5.4149 64.1528 5.4149H65.759L65.6672 5.59846C65.6213 5.73613 60.0687 18.4474 59.8393 18.9522C59.6098 19.4569 59.2427 19.6864 58.692 19.6864H58.4167C57.8202 19.6864 57.453 19.5487 57.2236 18.9522C56.9942 18.4474 51.4416 5.64435 51.3957 5.46079L51.3039 5.32313H52.9559C53.5525 5.32313 54.0114 5.64435 54.2408 6.19502C54.3047 6.35483 54.7694 7.48302 55.375 8.95357C56.5084 11.7057 58.1357 15.6568 58.5544 16.7036ZM71.8163 11.7017H77.2771C77.4148 11.7017 77.5066 11.6558 77.6442 11.4723C77.6901 11.3805 77.736 11.1969 77.6901 10.9675C77.4607 8.58125 75.7628 7.02102 73.4224 7.02102C71.0821 7.02102 69.2465 8.94836 68.9712 11.7017C68.9712 11.7017 68.9253 12.0229 68.9253 12.4818C68.9253 12.8948 68.9712 13.216 68.9712 13.216C69.2924 16.0153 71.2198 17.8967 73.8354 17.8967C75.3498 17.8967 76.5888 17.4378 77.5983 16.52C77.8737 16.2447 78.3784 16.0612 78.9291 16.52C79.2962 16.8413 79.6174 17.1166 79.6174 17.1166L79.7092 17.2084L79.6174 17.3002C77.9195 19.1357 76.1299 19.9617 73.7436 19.9617C69.6595 19.9617 66.585 16.7954 66.585 12.5277C66.585 8.30591 69.5677 5.09368 73.4683 5.09368C77.0477 5.09368 79.6633 7.47991 80.0763 11.151C80.1222 11.8853 79.9387 12.5277 79.5716 12.9407C79.1586 13.3537 78.6079 13.5373 77.8737 13.5373C76.6347 13.5373 73.606 13.5373 70.9903 13.5831H70.8526V12.6654C70.8526 12.0688 71.2197 11.7017 71.8163 11.7017ZM10.0956 0.229445C10.6921 0.229445 11.0134 0.413001 11.2887 0.963669C11.564 1.56023 19.5946 19.3193 19.5946 19.5028L19.6864 19.6864H18.3097C18.0344 19.6864 17.1625 19.6864 16.7954 18.9522C16.6465 18.6543 14.8731 14.6242 13.1381 10.6815C11.6655 7.33487 10.2205 4.0512 9.82025 3.16634L5.64435 12.5277H11.8394V13.5373C11.8394 14.2256 11.3805 14.6845 10.6463 14.6845H4.72657C4.65867 14.8339 4.49434 15.2042 4.28946 15.666C3.80196 16.7647 3.08487 18.3809 2.89101 18.7686C2.56978 19.4111 2.15678 19.6864 1.51434 19.6864H0L0.091778 19.5028C0.183556 19.3193 8.26002 1.33078 8.44358 0.91778C8.67302 0.504779 9.08603 0.229445 9.54492 0.229445H10.0956ZM42.2179 17.5296C42.5391 17.4378 42.8603 17.4837 43.0898 17.6214C43.2275 17.759 43.411 17.9426 43.3651 18.3097C43.3651 18.8145 43.3192 19.2275 43.3192 19.2275V19.2734L43.2733 19.3193C42.5391 19.6864 41.3919 19.9158 40.3823 19.9158C37.7208 19.9158 36.2982 18.4474 36.2982 15.8317V0.275334H37.4454C38.1338 0.275334 38.5927 0.734224 38.5927 1.37667V5.4149H41.8967C42.4473 5.4149 43.0898 5.78202 43.0898 6.51624V7.47991H38.6385V15.5105C38.6385 17.0248 39.4187 17.7591 40.8871 17.7591C41.346 17.7591 41.7131 17.6673 42.2179 17.5296Z" fill="white"/>
</svg>
