<svg width="126" height="40" viewBox="0 0 126 40" fill="none" xmlns="http://www.w3.org/2000/svg">
<path fill-rule="evenodd" clip-rule="evenodd" d="M19.7023 17.8857C19.8174 17.866 19.9356 17.8558 20.0559 17.8558C20.116 17.8558 20.1759 17.8584 20.2354 17.8635C20.2614 17.8036 20.2878 17.7438 20.3142 17.6844C20.3613 17.5781 20.4079 17.4728 20.4509 17.3691C20.5476 17.1324 20.6326 16.9091 20.7193 16.6791C21.0693 15.7724 21.3526 14.9257 21.5693 14.1456V14.1323C21.6198 13.9563 21.6633 13.7774 21.7062 13.6009C21.71 13.5852 21.7138 13.5696 21.7176 13.5539C21.8063 13.1997 21.8841 12.8429 21.951 12.4839C21.9577 12.4452 21.9644 12.4068 21.971 12.3689C21.9956 12.2273 22.0192 12.0921 22.0376 11.9672C22.0843 11.6355 22.1243 11.3205 22.1476 11.0188V11.0055C22.251 9.64043 22.1026 8.56205 21.8043 7.69701C21.736 7.502 21.6626 7.32366 21.581 7.15532C21.471 6.91531 21.0943 6.34195 20.8809 6.0486C20.879 6.04478 20.8766 6.0426 20.8742 6.04049C20.8724 6.03892 20.8707 6.0374 20.8693 6.03527C20.8669 6.03527 20.8679 6.03041 20.8686 6.02633C20.869 6.02456 20.8693 6.02294 20.8693 6.02193L20.8443 5.99693L20.8309 5.9836C20.829 5.97977 20.8265 5.97759 20.8242 5.97549C20.8224 5.97392 20.8207 5.9724 20.8193 5.97026C20.7776 5.92193 20.7343 5.87193 20.6959 5.83359L20.5242 5.65025H20.5109C18.7025 3.88517 15.6657 2.78846 12.1572 2.16843C8.90539 1.5934 5.2819 1.45673 1.88342 1.3934L11.9791 11.2889C12.3635 11.1349 12.8116 11.1241 13.2406 11.2172H13.2523C13.8989 11.3622 14.574 11.7122 15.294 12.2622C16.699 13.336 18.2636 15.1999 19.7023 17.8857ZM17.9558 19.8034C17.8817 19.7719 17.8082 19.74 17.735 19.7083C17.6134 19.6556 17.4929 19.6034 17.3724 19.5542C17.2193 19.4908 17.064 19.4323 16.9108 19.3747C16.8305 19.3445 16.7509 19.3145 16.6724 19.2842C15.7607 18.9325 14.9207 18.6508 14.1373 18.4342H14.1256C14.0655 18.4162 14.006 18.4016 13.9463 18.387C13.9118 18.3785 13.8771 18.37 13.8423 18.3608L13.5473 18.2875C13.1739 18.1958 12.8189 18.1175 12.4772 18.0541C12.396 18.0407 12.3184 18.027 12.2431 18.0136C12.1501 17.9971 12.0606 17.9813 11.9722 17.9675H11.9605C11.6255 17.9191 11.3122 17.8758 11.0122 17.8558L11.0138 17.8541C9.64709 17.7508 8.56871 17.8991 7.70368 18.1991C7.51628 18.264 7.33217 18.338 7.15198 18.4208C6.90697 18.5342 6.30361 18.9375 6.0186 19.1458C6.01488 19.1488 6.01149 19.1531 6.00799 19.1576C6.00365 19.1631 5.99914 19.1688 5.9936 19.1725H5.98193C5.93098 19.2158 5.88151 19.2609 5.83359 19.3075L5.78359 19.3575C5.76583 19.3746 5.74755 19.3904 5.72947 19.4061C5.70174 19.43 5.67447 19.4536 5.65025 19.4809V19.4942C3.88517 21.3009 2.78679 24.3394 2.16676 27.8479C1.5934 31.0947 1.47007 34.7132 1.4034 38.1084L11.2761 28.0179C11.1242 27.6353 11.1131 27.1904 11.2088 26.7645V26.7512C11.3538 26.1045 11.7139 25.4311 12.2672 24.7094C13.3523 23.2937 15.2557 21.7156 17.9759 20.2691C17.9594 20.1641 17.9508 20.0567 17.9508 19.9476C17.9508 19.8991 17.9525 19.851 17.9558 19.8034ZM19.8487 22.0406L19.8109 22.0426C19.7259 22.2377 19.6425 22.431 19.5642 22.6227C19.4675 22.856 19.3692 23.0944 19.2825 23.3227C18.9292 24.2344 18.6492 25.0728 18.4325 25.8561V25.8695L18.3575 26.1528L18.2841 26.4362V26.4495C18.1925 26.8212 18.1125 27.1779 18.0508 27.5196C18.0444 27.5554 18.0381 27.5909 18.0318 27.626C18.0067 27.7657 17.9828 27.8994 17.9641 28.0246V28.0379C17.9158 28.3713 17.8758 28.6846 17.8541 28.9846C17.7491 30.3513 17.8975 31.4297 18.1975 32.2948C18.2619 32.4829 18.3358 32.6676 18.4191 32.8481C18.637 33.2405 18.8797 33.6185 19.1458 33.9798C19.1487 33.9846 19.1547 33.9898 19.1604 33.9947C19.1646 33.9984 19.1687 34.002 19.1708 34.0048V34.0182C19.1949 34.0467 19.2204 34.0742 19.2447 34.1006C19.266 34.1235 19.2863 34.1456 19.3042 34.1665L19.3542 34.2165C19.3609 34.2247 19.3662 34.2329 19.3713 34.2406C19.3776 34.2502 19.3835 34.2591 19.3909 34.2665L19.4409 34.3165L19.4775 34.3549H19.4909C21.2976 36.1199 24.3361 37.2166 27.8446 37.8367C31.098 38.4117 34.7315 38.5484 38.1317 38.615L28.0038 28.7332C27.6238 28.8797 27.1844 28.8889 26.7629 28.7963H26.7495C26.1012 28.6529 25.4295 28.2929 24.7078 27.7396C23.296 26.6574 21.7246 24.7439 20.2826 22.0387C20.2076 22.0468 20.132 22.051 20.0559 22.051C19.986 22.051 19.9169 22.0475 19.8487 22.0406ZM22.1348 20.2327C22.2986 20.3022 22.4629 20.3705 22.6277 20.4376C22.8643 20.5359 23.1027 20.6342 23.3294 20.7209C24.16 21.0417 25.0061 21.321 25.8645 21.5576C25.9331 21.5764 26.0026 21.5962 26.0727 21.616C26.1949 21.6507 26.3189 21.6858 26.4428 21.7176H26.4545C26.8088 21.8061 27.1656 21.884 27.5246 21.951H27.5379L28.0412 22.0376C28.3366 22.0803 28.6202 22.1047 28.8922 22.1282C28.9288 22.1313 28.9651 22.1345 29.0013 22.1376C30.3563 22.2377 31.4397 22.0993 32.2998 21.8043H32.3114C32.4792 21.7459 32.6393 21.671 32.7895 21.6007C32.8109 21.5907 32.8321 21.5807 32.8531 21.571C33.0948 21.4576 33.6832 21.0676 33.9732 20.8576H33.9848L34.0098 20.8309C34.0402 20.805 34.0696 20.7772 34.098 20.7503C34.1227 20.727 34.1466 20.7044 34.1698 20.6842L34.3532 20.5126C36.1183 18.7042 37.2166 15.6657 37.8367 12.1572C38.4117 8.90373 38.5484 5.27357 38.6117 1.87342L28.698 11.9138C28.876 12.3145 28.8942 12.7913 28.7929 13.2406C28.6479 13.8889 28.2863 14.574 27.7346 15.2957C26.6625 16.6929 24.7995 18.2404 22.1346 19.6724C22.1471 19.765 22.1535 19.8589 22.1535 19.9534C22.1535 20.0473 22.1472 20.1406 22.1348 20.2327ZM21.4689 18.4031C23.998 17.0531 25.7775 15.6123 26.6862 14.4473C26.8797 14.1998 26.9616 14.0136 27.0457 13.8224C27.076 13.7535 27.1067 13.6839 27.1429 13.6106C27.1831 13.5267 27.2399 13.4319 27.296 13.3381C27.3816 13.1951 27.4657 13.0545 27.4879 12.9589C27.5679 12.5889 27.5012 12.4689 27.4379 12.4056L27.4129 12.3805L27.3879 12.3555L23.1677 8.24537C23.173 8.26977 23.1784 8.29418 23.1838 8.31858C23.3703 9.16739 23.557 10.017 23.476 11.1138C23.4511 11.4639 23.4139 11.8131 23.3644 12.1605C23.3474 12.279 23.3251 12.3928 23.303 12.5058C23.2903 12.5707 23.2776 12.6354 23.266 12.7006V12.7122C23.1578 13.3088 23.0221 13.9 22.8593 14.484C22.6293 15.3157 22.326 16.2074 21.9626 17.1541C21.9372 17.2197 21.9118 17.286 21.8862 17.3527C21.8195 17.5266 21.7516 17.7037 21.6793 17.8808C21.6092 18.0503 21.5375 18.2231 21.4626 18.3974C21.4647 18.3993 21.4668 18.4012 21.4689 18.4031ZM11.6046 28.5255L11.6172 28.5479H11.6272C11.6196 28.5405 11.612 28.5331 11.6046 28.5255ZM20.8176 19.9476C20.8176 19.5175 20.4859 19.1842 20.0559 19.1842C19.6242 19.1842 19.2925 19.5175 19.2925 19.9476C19.2925 20.3776 19.6242 20.7109 20.0559 20.7109C20.4842 20.7109 20.8176 20.3776 20.8176 19.9476ZM0.860886 0.0226634C0.965742 0.00824634 1.0136 0.00166674 1.08338 0.00166674V0C4.86188 0.0566692 8.63372 0.433353 12.3905 0.848371C16.029 1.49007 19.3109 2.60345 21.4459 4.68521L21.4593 4.69854L21.681 4.92022L27.8812 10.9605L38.23 0.343349H38.2417C38.4062 0.176283 38.6236 0.0714335 38.8567 0.0466687C38.93 0.0348475 39.0042 0.0303806 39.0784 0.0333348L39.0917 0.0500022C39.3429 0.0827216 39.5736 0.20554 39.741 0.39562C39.9084 0.5857 40.0011 0.830103 40.0018 1.08338C39.9518 4.73021 39.7951 8.75206 39.1534 12.3889C38.51 16.0257 37.3967 19.2975 35.3132 21.4326L35.3016 21.4459C35.2893 21.4585 35.277 21.4711 35.2648 21.4837C35.204 21.546 35.1437 21.608 35.0799 21.6676L29.0263 27.8796L39.6568 38.2267V38.24C39.8221 38.4062 39.9261 38.6237 39.9518 38.8567C39.9628 38.9301 39.9673 39.0043 39.9651 39.0784L39.9518 39.0917C39.9194 39.343 39.7967 39.574 39.6065 39.7414C39.4164 39.9089 39.1718 40.0014 38.9184 40.0018C35.2699 39.9518 31.2481 39.7834 27.6112 39.1401C20.9477 37.8689 19.3346 36.2276 15.8536 32.6859C14.8296 31.644 13.6439 30.4377 12.1205 29.028L1.77175 39.6451H1.76008C1.59068 39.8211 1.36338 39.93 1.12005 39.9518C1.05459 39.9569 0.988833 39.9569 0.923374 39.9518C0.670227 39.921 0.436921 39.7992 0.267008 39.609C0.0970945 39.4189 0.00218655 39.1734 0 38.9184C0.0500022 35.2699 0.216676 31.2481 0.861705 27.6129C1.50507 23.9761 2.60512 20.6943 4.68854 18.5575L4.70021 18.5442L4.92189 18.3225L10.9638 12.1222C9.98539 11.1677 8.75488 9.97237 7.482 8.73586C4.14933 5.49842 0.526238 1.97884 0.376683 1.76174C0.310155 1.66571 0.262106 1.61872 0.224475 1.58192C0.145203 1.5044 0.112164 1.47209 0.0500022 1.12172C-0.045002 0.606694 0.0883373 0.116672 0.500022 0.0683364C0.673451 0.0484347 0.782924 0.0333828 0.860886 0.0226634ZM18.4191 18.5458C17.3474 16.5574 15.6107 13.7173 12.9572 12.5172L12.9589 12.5106C12.5889 12.4272 12.4656 12.4956 12.4056 12.5606L12.3555 12.6106L8.2337 16.8307C8.25307 16.8265 8.27244 16.8222 8.29182 16.8179C9.14739 16.6287 10.0039 16.4393 11.1122 16.5224C11.4621 16.549 11.8112 16.5863 12.1589 16.6341V16.6507C12.2107 16.6586 12.2626 16.6663 12.3143 16.6741C12.4487 16.6941 12.5822 16.7141 12.7122 16.7357C13.0872 16.8057 13.4806 16.8841 13.8806 16.9824C14.0486 17.0237 14.2178 17.0699 14.3934 17.1178C14.4234 17.1259 14.4536 17.1342 14.484 17.1424H14.494C15.3942 17.3985 16.2814 17.6983 17.1524 18.0408C17.218 18.0662 17.2843 18.0916 17.351 18.1172C17.525 18.1839 17.702 18.2519 17.8791 18.3241C17.9401 18.3492 18.0014 18.3739 18.0629 18.3986C18.1814 18.4463 18.3006 18.4943 18.4191 18.5458ZM21.8474 21.5643C21.763 21.5264 21.6785 21.4883 21.5943 21.4526C22.9444 23.9844 24.3894 25.7711 25.5561 26.6828C26.1595 27.1545 26.6845 27.4112 27.0445 27.4946H27.0579C27.4079 27.5679 27.5379 27.5079 27.5996 27.4445L27.6229 27.4195L27.6479 27.3945L31.7697 23.1744L31.7119 23.1871C30.8562 23.3764 29.9997 23.5658 28.8913 23.481C28.5546 23.4544 28.2046 23.4077 27.8446 23.3577C27.7875 23.349 27.7303 23.3407 27.6732 23.3324C27.5437 23.3135 27.415 23.2947 27.2912 23.2727C26.9162 23.2044 26.5228 23.1127 26.1228 23.0144C26.0663 22.9997 26.0086 22.9854 25.9498 22.9708C25.8073 22.9355 25.6588 22.8987 25.5078 22.8527C24.6794 22.626 23.7927 22.331 22.8493 21.9693C22.8128 21.9552 22.7761 21.9412 22.7394 21.9271C22.5367 21.8493 22.3317 21.7706 22.1243 21.686C22.0327 21.6476 21.9401 21.606 21.8474 21.5643ZM18.3208 22.1276L18.5442 21.5993L18.5425 21.5943C16.014 22.9444 14.2356 24.3894 13.3256 25.5561C12.8556 26.1578 12.5956 26.6845 12.5122 27.0445C12.5122 27.049 12.5129 27.0508 12.5133 27.052C12.5139 27.0535 12.5141 27.0541 12.5122 27.0579C12.4322 27.4179 12.4956 27.5196 12.5622 27.5862V27.5996L12.5872 27.6129L12.6122 27.6512L16.8324 31.7747L16.8196 31.7169C16.6304 30.8612 16.441 30.0047 16.5257 28.8963C16.5551 28.5462 16.5957 28.1971 16.6474 27.8496C16.6738 27.6642 16.7027 27.4791 16.7341 27.2945C16.8024 26.9195 16.8924 26.5278 16.9924 26.1278C17.0408 25.9295 17.0924 25.7245 17.1524 25.5111C17.4036 24.6115 17.699 23.7249 18.0375 22.8543C18.0629 22.7888 18.0883 22.7226 18.1138 22.6559C18.1806 22.4819 18.2485 22.3048 18.3208 22.1276ZM48.5352 11.8609C48.4831 11.8609 48.4373 11.8415 48.3981 11.8029C48.359 11.7642 48.3394 11.7192 48.3394 11.6676C48.3394 11.6161 48.3427 11.5807 48.349 11.5614L50.7788 5.31085C50.8309 5.16916 50.9354 5.09831 51.0924 5.09831H51.7584C51.9151 5.09831 52.0196 5.16916 52.072 5.31085L54.4918 11.5614L54.5114 11.6676C54.5114 11.7192 54.4918 11.7642 54.4527 11.8029C54.4135 11.8415 54.3677 11.8609 54.3153 11.8609H53.8158C53.7439 11.8609 53.6884 11.8448 53.6493 11.8125C53.6101 11.7739 53.5839 11.7353 53.5709 11.6966L53.032 10.3248H49.8188L49.2798 11.6966C49.2669 11.7353 49.2374 11.7739 49.1916 11.8125C49.1524 11.8448 49.1003 11.8609 49.0349 11.8609H48.5352ZM52.748 9.49398L51.4252 6.06439L50.1028 9.49398H52.748ZM55.6666 13.6964C55.6013 13.6964 55.5458 13.6739 55.5 13.6288C55.4609 13.5902 55.4413 13.5386 55.4413 13.4742V7.05944C55.4413 6.99504 55.4609 6.94353 55.5 6.90488C55.5458 6.85979 55.6013 6.83724 55.6666 6.83724H56.1173C56.1826 6.83724 56.2348 6.85979 56.2739 6.90488C56.3197 6.94353 56.3426 6.99504 56.3426 7.05944V7.48452C56.7083 6.98859 57.2439 6.74064 57.9491 6.74064C58.635 6.74064 59.1477 6.95318 59.4872 7.37827C59.8333 7.80332 60.0195 8.35076 60.0457 9.02059C60.0523 9.09144 60.0556 9.20093 60.0556 9.34905C60.0556 9.49719 60.0523 9.60668 60.0457 9.67753C60.0195 10.3409 59.8333 10.8884 59.4872 11.3199C59.1411 11.7449 58.6284 11.9575 57.9491 11.9575C57.2701 11.9575 56.7408 11.7159 56.3622 11.2329V13.4742C56.3622 13.5386 56.3426 13.5902 56.3034 13.6288C56.2643 13.6739 56.2119 13.6964 56.1465 13.6964H55.6666ZM57.7433 11.175C58.2072 11.175 58.5434 11.0333 58.7525 10.7499C58.9682 10.4665 59.0857 10.0929 59.1052 9.62923C59.1119 9.56483 59.1152 9.47143 59.1152 9.34905C59.1152 8.1318 58.6579 7.52317 57.7433 7.52317C57.2927 7.52317 56.9532 7.67131 56.7246 7.96756C56.5026 8.25737 56.3818 8.60516 56.3622 9.01094L56.3522 9.37804L56.3622 9.75482C56.3751 10.1348 56.4992 10.4665 56.7345 10.7499C56.9695 11.0333 57.306 11.175 57.7433 11.175ZM62.6878 11.9575C62.3679 11.9575 62.0709 11.8931 61.7965 11.7642C61.522 11.6354 61.3033 11.4615 61.1401 11.2426C60.9834 11.0172 60.9048 10.7692 60.9048 10.4987C60.9048 10.0736 61.0813 9.72583 61.4341 9.45533C61.7932 9.17839 62.2763 8.99804 62.8839 8.91431L64.3437 8.71145V8.43126C64.3437 7.77436 63.9614 7.44588 63.1975 7.44588C62.9101 7.44588 62.6749 7.50707 62.492 7.62943C62.3092 7.74537 62.1721 7.88382 62.0805 8.04486C62.061 8.10281 62.0347 8.14467 62.0022 8.17045C61.976 8.19621 61.9368 8.20907 61.8847 8.20907H61.4633C61.4046 8.20907 61.3524 8.18976 61.3067 8.15111C61.2675 8.10602 61.2479 8.05451 61.2479 7.99656C61.2542 7.84197 61.3262 7.66807 61.4633 7.47487C61.607 7.27522 61.8257 7.10453 62.1197 6.96283C62.4137 6.81469 62.7761 6.74064 63.2072 6.74064C63.9386 6.74064 64.4645 6.91132 64.7844 7.25267C65.1043 7.58757 65.2646 8.00621 65.2646 8.50856V11.6387C65.2646 11.7031 65.2417 11.7578 65.1959 11.8029C65.1567 11.8415 65.1043 11.8609 65.0393 11.8609H64.5886C64.5232 11.8609 64.4678 11.8415 64.422 11.8029C64.3829 11.7578 64.3633 11.7031 64.3633 11.6387V11.2233C64.2196 11.4293 64.0105 11.6032 63.7361 11.7449C63.462 11.8866 63.1126 11.9575 62.6878 11.9575ZM62.8936 11.2329C63.3183 11.2329 63.6644 11.0977 63.9322 10.8272C64.2063 10.5502 64.3437 10.1541 64.3437 9.63888V9.36838L63.2072 9.5326C62.7436 9.59703 62.3941 9.70649 62.1589 9.86108C61.9239 10.0092 61.8061 10.1992 61.8061 10.4311C61.8061 10.6887 61.9139 10.8884 62.1296 11.03C62.345 11.1653 62.5999 11.2329 62.8936 11.2329ZM68.7303 11.9575C68.0314 11.9575 67.4826 11.7642 67.0843 11.3778C66.6924 10.985 66.4834 10.4375 66.4572 9.73548L66.4475 9.34905L66.4572 8.96264C66.4834 8.26061 66.6924 7.71637 67.0843 7.32994C67.4826 6.93708 68.0314 6.74064 68.7303 6.74064C69.2005 6.74064 69.5988 6.82438 69.9253 6.99183C70.2518 7.15928 70.4937 7.36537 70.6504 7.61012C70.8136 7.85486 70.9019 8.0996 70.9149 8.34432C70.9215 8.40875 70.9019 8.46026 70.8561 8.49891C70.8103 8.53755 70.7549 8.55686 70.6895 8.55686H70.2193C70.1539 8.55686 70.1048 8.544 70.0723 8.51821C70.0398 8.49246 70.0069 8.44095 69.9744 8.36366C69.8633 8.05451 69.7066 7.83552 69.5042 7.70672C69.3017 7.57147 69.0469 7.50383 68.7399 7.50383C68.3351 7.50383 68.0118 7.62943 67.77 7.88062C67.535 8.12536 67.4076 8.50211 67.388 9.01094L67.3784 9.35873L67.388 9.68718C67.4076 10.2024 67.535 10.5824 67.77 10.8272C68.0052 11.0719 68.3284 11.1943 68.7399 11.1943C69.0469 11.1943 69.3017 11.1299 69.5042 11.0011C69.7066 10.8658 69.8633 10.6436 69.9744 10.3345C70.0069 10.2572 70.0398 10.2056 70.0723 10.1799C70.1048 10.1477 70.1539 10.1316 70.2193 10.1316H70.6895C70.7549 10.1316 70.8103 10.1541 70.8561 10.1992C70.9019 10.2378 70.9215 10.2894 70.9149 10.3538C70.9019 10.5921 70.8136 10.8368 70.6504 11.088C70.4937 11.3327 70.2518 11.5388 69.9253 11.7063C69.6054 11.8737 69.2069 11.9575 68.7303 11.9575ZM72.3135 11.8609C72.2481 11.8609 72.1927 11.8415 72.1469 11.8029C72.1077 11.7578 72.0882 11.7031 72.0882 11.6387V5.22391C72.0882 5.15948 72.1077 5.10797 72.1469 5.06932C72.1927 5.02423 72.2481 5.00171 72.3135 5.00171H72.8033C72.8687 5.00171 72.9208 5.02423 72.9599 5.06932C73.0057 5.10797 73.0286 5.15948 73.0286 5.22391V7.47487C73.2181 7.23657 73.4401 7.05623 73.6946 6.93384C73.9495 6.80504 74.2661 6.74064 74.6451 6.74064C75.2719 6.74064 75.7587 6.94029 76.1048 7.33962C76.4576 7.73247 76.6338 8.25737 76.6338 8.91431V11.6387C76.6338 11.7031 76.6109 11.7578 76.5651 11.8029C76.526 11.8415 76.4738 11.8609 76.4085 11.8609H75.9187C75.8533 11.8609 75.7979 11.8415 75.7521 11.8029C75.7129 11.7578 75.6933 11.7031 75.6933 11.6387V8.96264C75.6933 8.50535 75.5789 8.15111 75.3505 7.89992C75.1282 7.64876 74.805 7.52317 74.3806 7.52317C73.9691 7.52317 73.6392 7.65197 73.391 7.90961C73.1494 8.16077 73.0286 8.5118 73.0286 8.96264V11.6387C73.0286 11.7031 73.0057 11.7578 72.9599 11.8029C72.9208 11.8415 72.8687 11.8609 72.8033 11.8609H72.3135ZM80.086 11.9575C79.4133 11.9575 78.8744 11.7546 78.4695 11.3488C78.071 10.9367 77.8523 10.3763 77.8131 9.66787L77.8032 9.33939L77.8131 9.02059C77.8586 8.32501 78.0809 7.77112 78.4792 7.35893C78.884 6.94673 79.4163 6.74064 80.076 6.74064C80.8011 6.74064 81.3629 6.96928 81.7611 7.42657C82.1597 7.87741 82.3588 8.48925 82.3588 9.2621V9.42634C82.3588 9.49074 82.3359 9.54549 82.2901 9.59058C82.2509 9.62923 82.1988 9.64854 82.1335 9.64854H78.7437V9.73548C78.7632 10.1541 78.8907 10.5116 79.1259 10.8078C79.3675 11.0977 79.6841 11.2426 80.076 11.2426C80.3767 11.2426 80.6216 11.1846 80.8107 11.0687C81.0068 10.9463 81.1505 10.8207 81.2418 10.6919C81.3008 10.6146 81.343 10.5695 81.3692 10.5567C81.4021 10.5373 81.4575 10.5277 81.5358 10.5277H82.016C82.0747 10.5277 82.1235 10.5438 82.1627 10.576C82.2021 10.6082 82.2217 10.6533 82.2217 10.7112C82.2217 10.8529 82.1301 11.0236 81.9473 11.2233C81.7711 11.4229 81.5195 11.5968 81.193 11.7449C80.8728 11.8866 80.5038 11.9575 80.086 11.9575ZM81.428 8.98195V8.95295C81.428 8.50856 81.3038 8.14791 81.0556 7.87096C80.814 7.58757 80.4875 7.44588 80.076 7.44588C79.6645 7.44588 79.338 7.58757 79.0964 7.87096C78.8614 8.14791 78.7437 8.50856 78.7437 8.95295V8.98195H81.428ZM46.4979 34.5497C46.3651 34.5497 46.2491 34.5004 46.1494 34.4023C46.05 34.304 46 34.1897 46 34.0587C46 33.9277 46.0084 33.8379 46.025 33.7886L52.1976 17.909C52.3302 17.549 52.5958 17.369 52.9941 17.369H54.6864C55.0846 17.369 55.35 17.549 55.4829 17.909L61.6305 33.7886L61.6802 34.0587C61.6802 34.1897 61.6305 34.304 61.5308 34.4023C61.4314 34.5004 61.3151 34.5497 61.1826 34.5497H59.9131C59.7306 34.5497 59.5896 34.5087 59.4899 34.427C59.3905 34.3287 59.3239 34.2306 59.2908 34.1323L57.922 30.6473H49.7585L48.3894 34.1323C48.3563 34.2306 48.2816 34.3287 48.1656 34.427C48.0659 34.5087 47.933 34.5497 47.7673 34.5497H46.4979ZM57.2002 28.5364L53.8402 19.8234L50.4803 28.5364H57.2002ZM64.3913 19.4061C64.2253 19.4061 64.0844 19.3571 63.9681 19.2589C63.8684 19.1443 63.8187 19.0053 63.8187 18.8416V17.5163C63.8187 17.3526 63.8684 17.2136 63.9681 17.099C64.0844 16.9845 64.2253 16.9272 64.3913 16.9272H65.9592C66.1252 16.9272 66.2662 16.9845 66.3822 17.099C66.4985 17.2136 66.5566 17.3526 66.5566 17.5163V18.8416C66.5566 19.0053 66.4985 19.1443 66.3822 19.2589C66.2662 19.3571 66.1252 19.4061 65.9592 19.4061H64.3913ZM64.5904 34.5497C64.4244 34.5497 64.2835 34.5004 64.1672 34.4023C64.0675 34.2877 64.0178 34.1487 64.0178 33.985V22.3514C64.0178 22.1877 64.0675 22.0568 64.1672 21.9587C64.2835 21.8441 64.4244 21.7869 64.5904 21.7869H65.7848C65.9508 21.7869 66.0836 21.8441 66.1831 21.9587C66.2993 22.0568 66.3575 22.1877 66.3575 22.3514V33.985C66.3575 34.1487 66.2993 34.2877 66.1831 34.4023C66.0836 34.5004 65.9508 34.5497 65.7848 34.5497H64.5904ZM70.6181 34.5497C70.4522 34.5497 70.3112 34.5004 70.1949 34.4023C70.0955 34.2877 70.0458 34.1487 70.0458 33.985V22.3759C70.0458 22.2123 70.0955 22.0732 70.1949 21.9587C70.3112 21.8441 70.4522 21.7869 70.6181 21.7869H71.7631C71.9288 21.7869 72.0701 21.8441 72.1861 21.9587C72.3023 22.0732 72.3605 22.2123 72.3605 22.3759V23.4558C73.0407 22.3432 74.2022 21.7869 75.8449 21.7869H76.8155C76.9814 21.7869 77.1143 21.8441 77.2137 21.9587C77.33 22.0568 77.3878 22.1877 77.3878 22.3514V23.3577C77.3878 23.5213 77.33 23.6522 77.2137 23.7504C77.1143 23.8486 76.9814 23.8976 76.8155 23.8976H75.3222C74.4261 23.8976 73.7209 24.1594 73.2066 24.683C72.6921 25.1904 72.4349 25.8858 72.4349 26.7692V33.985C72.4349 34.1487 72.377 34.2877 72.2608 34.4023C72.1445 34.5004 72.0035 34.5497 71.8375 34.5497H70.6181ZM81.3671 34.5497C81.2014 34.5497 81.0602 34.5004 80.9442 34.4023C80.8445 34.2877 80.7948 34.1487 80.7948 33.985V23.7504H78.6792C78.5132 23.7504 78.3722 23.7013 78.2563 23.6031C78.1566 23.4886 78.1068 23.3495 78.1068 23.1859V22.3514C78.1068 22.1877 78.1566 22.0568 78.2563 21.9587C78.3722 21.8441 78.5132 21.7869 78.6792 21.7869H80.7948V20.5597C80.7948 17.7781 82.2217 16.3873 85.0756 16.3873H86.4694C86.6354 16.3873 86.7683 16.4445 86.8677 16.5591C86.9839 16.6572 87.0421 16.7882 87.0421 16.9518V17.7863C87.0421 17.9499 86.9839 18.089 86.8677 18.2035C86.7683 18.3017 86.6354 18.3507 86.4694 18.3507H85.1256C84.3789 18.3507 83.8562 18.5471 83.5574 18.9398C83.2589 19.3162 83.1095 19.897 83.1095 20.6824V21.7869H88.4356V16.9518C88.4356 16.7882 88.4856 16.6572 88.585 16.5591C88.7013 16.4445 88.8423 16.3873 89.0082 16.3873H90.1529C90.3189 16.3873 90.4518 16.4445 90.5512 16.5591C90.6674 16.6572 90.7256 16.7882 90.7256 16.9518V33.985C90.7256 34.1487 90.6674 34.2877 90.5512 34.4023C90.4518 34.5004 90.3189 34.5497 90.1529 34.5497H89.0082C88.8423 34.5497 88.7013 34.5004 88.585 34.4023C88.4856 34.2877 88.4356 34.1487 88.4356 33.985V23.7504H83.1095V33.985C83.1095 34.1487 83.0513 34.2877 82.9353 34.4023C82.8356 34.5004 82.7031 34.5497 82.5371 34.5497H81.3671ZM99.7256 34.7951C97.9004 34.7951 96.4819 34.2877 95.4697 33.2732C94.4742 32.2588 93.9431 30.909 93.8768 29.2235L93.8518 28.1684L93.8768 27.1129C93.9431 25.4438 94.4823 24.1021 95.4944 23.0877C96.5066 22.0568 97.917 21.5414 99.7256 21.5414C101.534 21.5414 102.945 22.0568 103.957 23.0877C104.969 24.1021 105.508 25.4438 105.575 27.1129C105.591 27.2929 105.599 27.6446 105.599 28.1684C105.599 28.6918 105.591 29.0435 105.575 29.2235C105.508 30.909 104.969 32.2588 103.957 33.2732C102.961 34.2877 101.551 34.7951 99.7256 34.7951ZM99.7256 32.9052C100.771 32.9052 101.592 32.5778 102.19 31.9234C102.804 31.269 103.136 30.3279 103.185 29.1008C103.202 28.9371 103.21 28.6264 103.21 28.1684C103.21 27.71 103.202 27.3993 103.185 27.2356C103.136 26.0085 102.804 25.0674 102.19 24.413C101.592 23.7585 100.771 23.4313 99.7256 23.4313C98.6803 23.4313 97.8507 23.7585 97.2368 24.413C96.6229 25.0674 96.2993 26.0085 96.2662 27.2356L96.2412 28.1684L96.2662 29.1008C96.2993 30.3279 96.6229 31.269 97.2368 31.9234C97.8507 32.5778 98.6803 32.9052 99.7256 32.9052ZM111.811 34.5497C111.595 34.5497 111.429 34.5004 111.313 34.4023C111.197 34.304 111.097 34.1487 111.014 33.936L107.48 22.5477L107.43 22.3023C107.43 22.155 107.48 22.0323 107.579 21.9341C107.695 21.8359 107.82 21.7869 107.953 21.7869H109.048C109.214 21.7869 109.346 21.8359 109.446 21.9341C109.562 22.0159 109.637 22.1059 109.67 22.2041L112.433 31.457L115.394 22.3023C115.428 22.1714 115.502 22.0568 115.618 21.9587C115.735 21.8441 115.892 21.7869 116.091 21.7869H116.938C117.137 21.7869 117.294 21.8441 117.41 21.9587C117.527 22.0568 117.601 22.1714 117.635 22.3023L120.596 31.457L123.359 22.2041C123.376 22.1223 123.434 22.0323 123.533 21.9341C123.649 21.8359 123.79 21.7869 123.956 21.7869H125.076C125.209 21.7869 125.325 21.8359 125.425 21.9341C125.524 22.0323 125.574 22.155 125.574 22.3023L125.524 22.5477L122.015 33.936C121.932 34.1487 121.832 34.304 121.716 34.4023C121.6 34.5004 121.426 34.5497 121.194 34.5497H120.223C119.775 34.5497 119.501 34.345 119.402 33.936L116.514 25.1494L113.627 33.936C113.495 34.345 113.212 34.5497 112.781 34.5497H111.811Z" fill="white"/>
</svg>
