<svg width="157" height="40" viewBox="0 0 157 40" fill="none" xmlns="http://www.w3.org/2000/svg">
<path d="M20.9644 0.497978L3.46046 7.77602C2.48734 8.1811 2.49716 9.57046 3.47692 9.96061L21.0538 16.965C22.5982 17.5804 24.318 17.5804 25.8624 16.965L43.4396 9.96061C44.4188 9.57046 44.4292 8.1811 43.4555 7.77629L25.9521 0.497978C24.3552 -0.165993 22.5613 -0.165993 20.9644 0.497978Z" fill="white"/>
<path d="M25.0176 20.7897V38.288C25.0176 39.12 25.8527 39.6901 26.6226 39.3835L46.2086 31.7438C46.427 31.6567 46.6144 31.5058 46.7464 31.3104C46.8784 31.1151 46.949 30.8844 46.949 30.6483V13.1503C46.949 12.318 46.1139 11.7481 45.344 12.0548L25.758 19.6945C25.5396 19.7815 25.3522 19.9325 25.2202 20.1278C25.0882 20.3232 25.0176 20.5536 25.0176 20.7897Z" fill="white"/>
<path d="M20.4437 21.6926L14.631 24.5129L14.0408 24.7996L1.77056 30.7077C0.993023 31.0848 0 30.5152 0 29.6469V13.2236C0 12.9094 0.160285 12.6382 0.375236 12.4342C0.463364 12.3459 0.563417 12.2705 0.672453 12.2102C0.965424 12.0334 1.38365 11.9862 1.73925 12.1276L20.3461 19.5363C21.2919 19.9133 21.3662 21.2448 20.4437 21.6926Z" fill="white"/>
<path d="M20.4435 21.6926L14.6308 24.5129L0.375 12.434C0.463145 12.3458 0.563197 12.2704 0.672217 12.2102C0.965188 12.0334 1.38341 11.9862 1.73901 12.1276L20.3459 19.5363C21.2916 19.9133 21.3659 21.2448 20.4435 21.6926Z" fill="black" fill-opacity="0.25"/>
<path d="M66.6356 19.3585L64.0372 12.4422C64.0132 12.3799 63.9709 12.3263 63.9158 12.2885C63.8607 12.2507 63.7955 12.2305 63.7287 12.2305C63.6619 12.2305 63.5967 12.2507 63.5416 12.2885C63.4866 12.3263 63.4442 12.3799 63.4202 12.4422L60.8218 19.3596C60.8037 19.4087 60.798 19.4614 60.805 19.5132C60.812 19.565 60.8315 19.6143 60.8619 19.6568C60.8923 19.6993 60.9327 19.7338 60.9795 19.7571C61.0262 19.7805 61.078 19.7921 61.1303 19.7908H66.3493C66.4268 19.7911 66.5016 19.7623 66.559 19.7101C66.6163 19.6579 66.6519 19.5861 66.6589 19.5089C66.6627 19.458 66.6548 19.4069 66.6356 19.3596M67.8464 23.2407H59.611C59.5438 23.2411 59.4783 23.262 59.4232 23.3005C59.3681 23.339 59.326 23.3933 59.3025 23.4563L57.6727 27.7708C57.6492 27.8336 57.6073 27.8878 57.5524 27.9263C57.4976 27.9648 57.4323 27.9857 57.3653 27.9864H53.7949C53.7404 27.9872 53.6865 27.9743 53.6382 27.9491C53.5899 27.9238 53.5486 27.8869 53.5181 27.8417C53.4876 27.7965 53.4688 27.7444 53.4635 27.6902C53.4582 27.6359 53.4664 27.5811 53.4875 27.5308L61.7008 7.36919C61.7249 7.30788 61.7679 7.25584 61.8236 7.22064C61.8792 7.18545 61.9447 7.16892 62.0104 7.17348H65.4227C65.4875 7.17349 65.551 7.19188 65.6058 7.22652C65.6606 7.26116 65.7044 7.31063 65.7323 7.36919L73.9444 27.5297C73.9655 27.5802 73.9738 27.6351 73.9684 27.6895C73.963 27.7439 73.9441 27.7961 73.9135 27.8414C73.8829 27.8867 73.8415 27.9237 73.793 27.949C73.7446 27.9743 73.6906 27.9872 73.6359 27.9864H70.0711C70.0038 27.9859 69.9382 27.9648 69.8831 27.9261C69.828 27.8874 69.7859 27.8329 69.7626 27.7697L68.1328 23.4552C68.1167 23.3919 68.0796 23.336 68.0276 23.2966C67.9755 23.2572 67.9116 23.2367 67.8464 23.2385M75.6417 14.2401H78.7034C78.7898 14.2418 78.8723 14.2765 78.9338 14.3372C78.9954 14.3979 79.0312 14.4799 79.034 14.5663V27.6624C79.0312 27.7486 78.9953 27.8304 78.9337 27.8907C78.8721 27.951 78.7896 27.9853 78.7034 27.9864H75.6428C75.5564 27.9856 75.4737 27.9514 75.4119 27.8911C75.35 27.8307 75.3139 27.7488 75.3111 27.6624V14.5674C75.3103 14.5239 75.3184 14.4807 75.3349 14.4404C75.3513 14.4001 75.3758 14.3636 75.4069 14.3331C75.4379 14.3025 75.4748 14.2787 75.5154 14.2629C75.556 14.2471 75.5993 14.2397 75.6428 14.2412M90.1786 17.4279C90.176 17.5145 90.1403 17.5968 90.0787 17.6577C90.0172 17.7186 89.9346 17.7535 89.848 17.7552H89.7595C88.2402 17.7552 87.139 18.1002 86.4346 18.8167C85.7303 19.5332 85.3775 20.703 85.3775 22.3484V27.6392C85.3747 27.7254 85.339 27.8072 85.2777 27.8679C85.2165 27.9286 85.1343 27.9635 85.048 27.9654H82.0294C81.9432 27.9635 81.861 27.9286 81.7997 27.8679C81.7385 27.8072 81.7027 27.7254 81.6999 27.6392V14.5674C81.7027 14.481 81.7386 14.399 81.8001 14.3383C81.8617 14.2776 81.9441 14.2429 82.0305 14.2412H85.0248C85.1114 14.2426 85.1942 14.2772 85.2559 14.338C85.3177 14.3987 85.3537 14.4809 85.3565 14.5674V17.1471H85.4218C85.7275 16.1672 86.327 15.3049 87.139 14.6769C87.9876 14.078 89.009 13.7736 90.047 13.81H90.2007V17.429L90.1786 17.4279ZM98.5245 17.2996C98.4387 17.301 98.3567 17.3353 98.2954 17.3953C98.234 17.4554 98.1981 17.5367 98.195 17.6225V23.0649C98.1541 23.4906 98.2713 23.9152 98.5245 24.259C98.7457 24.4957 99.1194 24.604 99.6701 24.604H99.9785C100.065 24.6059 100.147 24.6408 100.208 24.7015C100.27 24.7622 100.305 24.844 100.308 24.9302V27.6613C100.305 27.7473 100.269 27.8289 100.208 27.8892C100.147 27.9495 100.065 27.9839 99.9785 27.9853H98.6804C97.3359 27.9853 96.302 27.6381 95.5756 26.9658C94.848 26.2736 94.4964 25.2752 94.4964 23.9107V17.6225C94.4933 17.5364 94.4571 17.4547 94.3953 17.3946C94.3335 17.3344 94.2509 17.3004 94.1647 17.2996H92.2496C92.1632 17.2977 92.0808 17.2627 92.0195 17.2018C91.9582 17.1409 91.9226 17.0587 91.9201 16.9724V14.5674C91.9226 14.4811 91.9582 14.3991 92.0196 14.3384C92.0809 14.2777 92.1633 14.2429 92.2496 14.2412H94.1658C94.252 14.2401 94.3345 14.2059 94.396 14.1455C94.4576 14.0852 94.4936 14.0034 94.4964 13.9173V9.05984C94.4992 8.97367 94.5352 8.89191 94.5968 8.83157C94.6583 8.77123 94.7408 8.73695 94.827 8.73586H97.8876C97.9738 8.73695 98.0563 8.77123 98.1179 8.83157C98.1795 8.89191 98.2154 8.97367 98.2182 9.05984V13.9173C98.2211 14.0034 98.257 14.0852 98.3186 14.1455C98.3802 14.2059 98.4627 14.2401 98.5489 14.2412H100.75C100.837 14.2429 100.919 14.2776 100.981 14.3383C101.042 14.399 101.078 14.481 101.081 14.5674V16.9724C101.078 17.0589 101.043 17.1412 100.981 17.2021C100.92 17.2631 100.837 17.298 100.75 17.2996H98.5245ZM112.509 23.8897C112.861 23.5172 113.134 23.0774 113.312 22.5967C113.49 22.1159 113.568 21.6042 113.543 21.0923C113.563 20.5808 113.482 20.0705 113.305 19.5904C113.127 19.1104 112.857 18.6701 112.509 18.2948C111.763 17.6122 110.789 17.2336 109.778 17.2336C108.767 17.2336 107.793 17.6122 107.047 18.2948C106.695 18.6673 106.422 19.1071 106.244 19.5878C106.066 20.0686 105.988 20.5803 106.012 21.0923C105.993 21.6037 106.074 22.114 106.251 22.5941C106.429 23.0741 106.699 23.5144 107.047 23.8897C107.405 24.2458 107.832 24.524 108.302 24.7067C108.772 24.8894 109.275 24.9726 109.779 24.9512C110.283 24.9796 110.788 24.8996 111.259 24.7165C111.73 24.5334 112.156 24.2515 112.509 23.8897ZM105.462 27.5541C104.428 26.9679 103.586 26.0935 103.04 25.0375C102.46 23.803 102.159 22.4557 102.159 21.0917C102.159 19.7277 102.46 18.3804 103.04 17.1459C103.593 16.0951 104.433 15.2227 105.462 14.6304C106.496 14.0483 107.665 13.7493 108.852 13.7636C109.822 13.7387 110.783 13.9553 111.649 14.3938C112.415 14.8 113.054 15.4076 113.499 16.1508H113.566V14.5431C113.569 14.4572 113.605 14.3758 113.666 14.3155C113.727 14.2552 113.809 14.2208 113.895 14.2191H116.913C116.999 14.2205 117.081 14.2548 117.143 14.3151C117.204 14.3754 117.24 14.457 117.243 14.5431V27.637C117.241 27.7238 117.205 27.8062 117.143 27.8672C117.081 27.9281 116.998 27.9629 116.912 27.9643H113.897C113.811 27.9626 113.728 27.9277 113.667 27.8668C113.605 27.8058 113.569 27.7236 113.567 27.637V26.0337H113.5C113.055 26.7775 112.415 27.3855 111.649 27.7918C110.783 28.2278 109.822 28.4438 108.852 28.421C107.665 28.4353 106.496 28.1362 105.462 27.5541ZM129.819 23.8897C130.171 23.5172 130.444 23.0774 130.622 22.5967C130.8 22.1159 130.878 21.6042 130.854 21.0923C130.873 20.5808 130.792 20.0705 130.615 19.5904C130.437 19.1104 130.167 18.6701 129.819 18.2948C129.073 17.6119 128.099 17.2331 127.087 17.2331C126.076 17.2331 125.102 17.6119 124.356 18.2948C124.004 18.6674 123.731 19.1072 123.554 19.588C123.376 20.0687 123.297 20.5804 123.322 21.0923C123.303 21.6037 123.384 22.114 123.561 22.5941C123.739 23.0741 124.009 23.5144 124.357 23.8897C124.715 24.2458 125.142 24.524 125.612 24.7067C126.082 24.8894 126.585 24.9726 127.089 24.9512C127.593 24.9796 128.098 24.8996 128.569 24.7165C129.04 24.5334 129.466 24.2515 129.819 23.8897ZM125.239 27.7907C124.473 27.3844 123.833 26.7764 123.388 26.0326H123.321V27.6381C123.319 27.7243 123.283 27.8061 123.222 27.8668C123.16 27.9275 123.078 27.9624 122.992 27.9643H119.928C119.842 27.9624 119.759 27.9275 119.698 27.8668C119.637 27.8061 119.601 27.7243 119.598 27.6381V7.47645C119.601 7.39036 119.637 7.30865 119.698 7.24816C119.76 7.18767 119.842 7.15302 119.928 7.15137H122.99C123.076 7.15273 123.158 7.1871 123.22 7.24738C123.281 7.30767 123.317 7.38927 123.32 7.47534V16.1707H123.387C123.831 15.427 124.471 14.8191 125.236 14.4126C126.103 13.9768 127.063 13.7608 128.033 13.7835C129.22 13.7702 130.389 14.0703 131.423 14.6537C132.457 15.2389 133.298 16.1121 133.844 17.167C134.464 18.3875 134.767 19.744 134.727 21.1122C134.754 22.4793 134.452 23.8329 133.846 25.0585C133.293 26.11 132.452 26.9824 131.424 27.574C130.39 28.1563 129.22 28.4554 128.033 28.4409C127.062 28.4499 126.102 28.2262 125.235 27.7885M139.879 27.9643H136.82C136.733 27.9629 136.65 27.9281 136.589 27.8671C136.527 27.8061 136.492 27.7237 136.489 27.637V7.47755C136.492 7.39109 136.528 7.30906 136.59 7.24851C136.652 7.18796 136.735 7.15356 136.821 7.15247H139.881C139.966 7.15438 140.048 7.18896 140.11 7.24916C140.171 7.30936 140.207 7.39065 140.21 7.47645V27.6381C140.211 27.7016 140.193 27.764 140.159 27.8173C140.124 27.8707 140.075 27.9126 140.017 27.9378C139.974 27.9561 139.926 27.9651 139.879 27.9643ZM147.081 17.4058C146.548 17.831 146.182 18.4298 146.046 19.0975C146.037 19.1458 146.038 19.1955 146.05 19.243C146.063 19.2906 146.086 19.3348 146.117 19.3722C146.149 19.4097 146.189 19.4396 146.234 19.4596C146.279 19.4796 146.328 19.4893 146.377 19.4879H152.191C152.237 19.488 152.284 19.4782 152.326 19.4592C152.369 19.4402 152.407 19.4123 152.439 19.3774C152.47 19.3425 152.493 19.3014 152.508 19.2568C152.522 19.2122 152.526 19.1651 152.521 19.1185C152.433 18.4714 152.112 17.8787 151.618 17.4511C150.981 16.9447 150.185 16.6827 149.372 16.7125C148.554 16.6904 147.75 16.9337 147.082 17.4069L147.081 17.4058ZM154.525 15.7152C155.714 16.9919 156.308 18.7979 156.307 21.1332V21.5257C156.304 21.6118 156.268 21.6934 156.206 21.7537C156.145 21.8139 156.063 21.8483 155.977 21.8497H146.267C146.219 21.8508 146.171 21.8621 146.128 21.8828C146.084 21.9036 146.046 21.9333 146.014 21.97C145.983 22.0068 145.96 22.0497 145.946 22.096C145.933 22.1424 145.929 22.1911 145.935 22.2389C146.063 23.0505 146.478 23.7894 147.104 24.321C147.875 24.9242 148.836 25.2314 149.813 25.1867C151.273 25.1668 152.669 24.5846 153.711 23.5613C153.745 23.5299 153.786 23.5065 153.831 23.4926C153.875 23.4788 153.922 23.4749 153.969 23.4812C154.015 23.4876 154.059 23.504 154.098 23.5293C154.137 23.5546 154.17 23.5882 154.195 23.6277L155.67 25.7296C155.713 25.7966 155.731 25.8758 155.723 25.9545C155.715 26.0333 155.681 26.1071 155.626 26.1642C154.894 26.7884 154.088 27.3202 153.227 27.7476C152.153 28.2262 150.987 28.4629 149.812 28.4409C148.435 28.472 147.073 28.1584 145.848 27.5286C144.745 26.9489 143.834 26.0602 143.228 24.9711C142.586 23.8033 142.26 22.4886 142.281 21.1564C142.256 19.8219 142.566 18.5025 143.184 17.3195C143.762 16.234 144.642 15.3385 145.717 14.741C146.884 14.1031 148.197 13.7814 149.527 13.8078C151.684 13.7824 153.336 14.4347 154.525 15.7152ZM79.4299 9.38823C79.4362 9.8325 79.3106 10.2687 79.0691 10.6416C78.8275 11.0145 78.4808 11.3074 78.0728 11.4833C77.6648 11.6592 77.2138 11.7102 76.7768 11.6298C76.3398 11.5494 75.9365 11.3413 75.6178 11.0317C75.2991 10.7221 75.0793 10.325 74.9863 9.89051C74.8933 9.45605 74.9311 9.00376 75.0951 8.59081C75.2591 8.17787 75.5418 7.82282 75.9076 7.57054C76.2733 7.31826 76.7056 7.18009 77.1499 7.17348H77.161C77.7537 7.17074 78.3237 7.40104 78.7481 7.81473C79.1726 8.22842 79.4174 8.79235 79.4299 9.38492V9.38823Z" fill="white"/>
</svg>
