<svg width="190" height="29" viewBox="0 0 190 29" fill="none" xmlns="http://www.w3.org/2000/svg">
<path fill-rule="evenodd" clip-rule="evenodd" d="M105.685 0C107.23 0 108.481 1.25156 108.481 2.79565C108.481 4.33989 107.23 5.59174 105.685 5.59174C104.141 5.59174 102.89 4.33989 102.89 2.79565C102.89 1.2517 104.141 0 105.685 0ZM177.05 8.74552L181.246 1.47799C181.482 1.07053 181.339 0.552931 180.937 0.316334C180.536 0.079579 180.012 0.217179 179.781 0.624479L175.531 7.98599C172.288 6.50475 168.638 5.67885 164.712 5.67885C160.786 5.67885 157.136 6.50475 153.893 7.98599L149.643 0.624479C149.406 0.217179 148.889 0.079579 148.481 0.316334C148.074 0.552931 147.936 1.07053 148.173 1.47799L152.368 8.74552C145.134 12.6659 140.234 19.9883 139.424 28.5609H190C189.191 19.9885 184.291 12.6659 177.05 8.74552ZM153.1 21.4586C151.928 21.4586 150.981 20.5059 150.981 19.3386C150.981 18.166 151.933 17.2188 153.1 17.2188C154.273 17.2188 155.22 18.1715 155.22 19.3386C155.226 20.5059 154.273 21.4586 153.1 21.4586ZM176.318 21.4586C175.145 21.4586 174.199 20.5059 174.199 19.3386C174.199 18.166 175.151 17.2188 176.318 17.2188C177.491 17.2188 178.438 18.1715 178.438 19.3386C178.444 20.5059 177.491 21.4586 176.318 21.4586ZM9.09929 9.2419C4.61292 9.2419 0 12.8369 0 19.1295C0 24.8821 4.05604 28.9456 9.09929 28.9456C13.2625 28.9456 15.1179 26.1511 15.1179 26.1511V27.3693C15.1179 27.9451 15.6623 28.5873 16.336 28.5873H19.3452V9.6718H15.1179V12.072C15.1179 12.072 13.2467 9.2419 9.09929 9.2419ZM9.85248 13.1097C13.5455 13.1097 15.4829 16.3575 15.4829 19.128C15.4829 22.2139 13.1825 25.1443 9.86031 25.1443C7.08273 25.1443 4.30074 22.8949 4.30074 19.0874C4.3006 15.6502 6.69482 13.1097 9.85248 13.1097ZM24.0024 27.3692C24.0024 28.1212 24.5709 28.5872 25.2205 28.5872V28.587H28.2297V18.5562C28.2297 15.9171 29.996 13.1139 32.9619 13.1139C35.7107 13.1139 36.8994 15.4701 36.8994 17.41V27.2976C36.8994 27.9423 37.4188 28.5872 38.1889 28.5872H41.1266V16.4784C41.1266 12.9787 38.6267 9.23595 33.9316 9.23595C31.0591 9.23595 29.1877 10.5726 28.2297 12.0125V9.67169H24.0024V27.3692ZM53.4504 9.24159C48.964 9.24159 44.3509 12.8366 44.3509 19.1292C44.3509 24.8818 48.4068 28.9453 53.4504 28.9453C57.6136 28.9453 59.469 26.1508 59.469 26.1508V27.369C59.469 27.9448 60.0132 28.587 60.687 28.587H63.6963V0.213617H59.469V12.0717C59.469 12.0717 57.5979 9.24159 53.4504 9.24159ZM54.2034 13.1094C57.8966 13.1094 59.8337 16.3572 59.8337 19.1277C59.8337 22.2136 57.5337 25.144 54.2111 25.144C51.4338 25.144 48.6517 22.8946 48.6517 19.0871C48.6517 15.6499 51.0459 13.1094 54.2034 13.1094ZM68.3533 27.3692C68.3533 28.1212 68.922 28.5871 69.5714 28.5871V28.587H72.5808V19.0545C72.5808 16.4154 74.2003 13.6124 77.1663 13.6124C78.2646 13.6124 79.1725 13.9705 79.1725 13.9705V9.59991C79.1725 9.59991 78.4454 9.45671 77.6679 9.45671C74.8783 9.45671 73.3083 11.0582 72.5806 12.8242V9.67165H68.3533V27.3692ZM104.823 28.587C104.174 28.587 103.605 28.1211 103.605 27.369V9.67151H107.832V28.587H104.823ZM111.128 19.1292C111.128 12.8366 115.741 9.24159 120.228 9.24159C124.375 9.24159 126.246 12.0717 126.246 12.0717V0.213617H130.474V28.587H127.464C126.79 28.587 126.246 27.9448 126.246 27.369V26.1508C126.246 26.1508 124.391 28.9453 120.228 28.9453C115.184 28.9453 111.128 24.8818 111.128 19.1292ZM126.611 19.1277C126.611 16.3572 124.674 13.1094 120.981 13.1094C117.823 13.1094 115.429 15.6499 115.429 19.0871C115.429 22.8946 118.211 25.144 120.988 25.144C124.311 25.144 126.611 22.2136 126.611 19.1277ZM80.4605 19.0957C80.4605 12.7425 85.6225 9.23524 90.3209 9.23524C96.0875 9.23524 100.313 13.7198 100.313 19.1324C100.313 23.5432 97.0313 28.9459 90.3107 28.9459C84.8572 28.9459 80.4605 24.885 80.4605 19.0957ZM96.0088 19.1075C96.0088 15.8017 93.5854 13.1829 90.3363 13.1829C87.3409 13.1829 84.6888 15.5372 84.6886 19.1642C84.6886 22.7315 87.4773 25.0659 90.346 25.0659C93.436 25.0659 96.0088 22.4709 96.0088 19.1075Z" fill="white"/>
</svg>
