<svg width="58" height="35" viewBox="0 0 58 35" fill="none" xmlns="http://www.w3.org/2000/svg">
<path fill-rule="evenodd" clip-rule="evenodd" d="M16.5584 14.3133C16.4223 13.8895 16.3454 13.31 16.3454 12.5953H16.3055V6.3462C16.3055 4.22362 15.7667 2.64166 14.7057 1.6003C13.6244 0.558477 11.9458 0.038026 9.65142 0.038026C8.59036 0.038026 7.58657 0.153936 6.64142 0.40454C5.69673 0.635903 4.88581 0.92545 4.21143 1.27272C3.94112 1.40879 3.76703 1.54303 3.67082 1.67726C3.57415 1.81287 3.53658 2.04378 3.53658 2.35348V3.29863C3.53658 3.70271 3.67082 3.89605 3.94112 3.89605C4.01809 3.89605 4.11476 3.87635 4.25037 3.83878C4.3846 3.79938 4.61551 3.72241 4.92521 3.58818C5.60309 3.32002 6.29925 3.10062 7.00839 2.93166C7.72264 2.75802 8.41672 2.68106 9.09157 2.68106C10.5769 2.68106 11.6182 2.97106 12.2367 3.56894C12.8341 4.16636 13.1438 5.18802 13.1438 6.65408V8.06241C12.3723 7.88877 11.6388 7.73484 10.9241 7.63817C10.2104 7.5415 9.53597 7.48423 8.88082 7.48423C6.89248 7.48423 5.33021 7.98544 4.15462 8.98969C2.97673 9.99165 2.39855 11.323 2.39855 12.9623C2.39855 14.5053 2.88006 15.74 3.82521 16.6668C4.77173 17.5922 6.0637 18.0559 7.68324 18.0559C9.96021 18.0559 11.8514 17.168 13.3551 15.3927C13.5385 15.7802 13.7378 16.16 13.9525 16.5312C14.155 16.8547 14.3876 17.1584 14.647 17.4383C14.8404 17.6119 15.0337 17.7086 15.227 17.7086C15.3805 17.7086 15.5541 17.6495 15.7278 17.535L16.9432 16.7241C17.1934 16.5312 17.3097 16.3379 17.3097 16.1463C17.3097 16.0103 17.2703 15.8563 17.1755 15.7024C16.9057 15.2012 16.7123 14.7376 16.5584 14.3133ZM10.5004 15.1815C9.80581 15.4124 9.14929 15.5288 8.51385 15.5288C7.62643 15.5288 6.95158 15.296 6.48794 14.8145C6.00506 14.3513 5.77415 13.6765 5.77415 12.7694C5.77415 11.8045 6.0834 11.0724 6.71884 10.552C7.35612 10.0311 8.30127 9.78045 9.59324 9.78045C10.1999 9.78082 10.806 9.81907 11.4079 9.89498C12.0049 9.97084 12.597 10.0808 13.1814 10.2244V11.033C13.1814 11.6904 13.1044 12.2485 12.9881 12.7121C12.8735 13.1753 12.6408 13.5803 12.3329 13.9468C11.812 14.525 11.1949 14.9488 10.5004 15.1815ZM23.2711 17.4186C23.425 17.5547 23.6559 17.6119 24.0032 17.6119H25.6622C26.0094 17.6119 26.2793 17.5547 26.4337 17.4186C26.5894 17.2844 26.704 17.0338 26.8002 16.6471L29.7712 4.22362L32.7615 16.6668C32.8385 17.0516 32.9728 17.3022 33.1285 17.4383C33.2825 17.5721 33.5331 17.6316 33.9 17.6316H35.5585C35.8861 17.6316 36.1367 17.5547 36.2906 17.4379C36.4464 17.3219 36.5806 17.0713 36.697 16.6865L41.3462 1.77347C41.4232 1.56273 41.4608 1.40879 41.4805 1.29242C41.4834 1.27543 41.4862 1.25885 41.489 1.24262C41.5055 1.14771 41.5199 1.06488 41.5199 0.982717C41.5199 0.655144 41.3462 0.501209 41.0365 0.501209H39.2434C38.8966 0.501209 38.6441 0.578177 38.4902 0.695004C38.3559 0.80954 38.2199 1.06152 38.1053 1.44636L34.7678 14.371L31.7197 1.4459C31.6432 1.07939 31.5072 0.809081 31.3532 0.694545C31.1993 0.558476 30.9482 0.501209 30.5817 0.501209H29.0391C28.6919 0.501209 28.4216 0.578177 28.2658 0.695004C28.1123 0.80954 27.9959 1.06152 27.9006 1.44636L24.8906 14.2171L21.6497 1.4459C21.5352 1.07939 21.4188 0.809081 21.2649 0.694545C21.1288 0.558476 20.8782 0.501667 20.5117 0.501667H18.6219C18.3122 0.501667 18.1578 0.674845 18.1578 0.982717C18.1578 1.11879 18.2173 1.36939 18.3319 1.75561L22.8647 16.6673C22.9811 17.0338 23.1153 17.3022 23.2711 17.4186ZM45.8205 17.7856C46.7849 18.0165 47.7891 18.1329 48.7911 18.1329C49.7756 18.1329 50.6827 17.9968 51.5509 17.7283C52.3793 17.4759 53.0935 17.1286 53.6914 16.6471C54.2888 16.1839 54.7524 15.6057 55.0997 14.9488C55.4268 14.2941 55.6009 13.5423 55.6009 12.7121C55.6009 11.7097 55.3109 10.8026 54.713 10.0114C54.1156 9.22014 53.1132 8.60302 51.7241 8.15908L48.9844 7.29089C47.9628 6.96378 47.2485 6.59635 46.8618 6.22983C46.477 5.86469 46.2841 5.40151 46.2841 4.8609C46.2841 4.07015 46.5915 3.50984 47.1912 3.1447C47.7891 2.77772 48.6568 2.60409 49.7559 2.60409C51.1249 2.60409 52.3596 2.85469 53.4605 3.3559C53.7876 3.50984 54.0382 3.58818 54.1921 3.58818C54.4821 3.58818 54.6361 3.3756 54.6361 2.9706V2.06348C54.6361 1.79363 54.5788 1.58197 54.4624 1.4262C54.3479 1.25302 54.155 1.09909 53.8847 0.94515C53.6914 0.828781 53.4211 0.714245 53.0738 0.597876C52.7265 0.481508 52.3596 0.38484 51.9747 0.288172L51.9631 0.285979C51.5611 0.209743 51.16 0.133692 50.7203 0.0769678C50.2961 0.0196998 49.8526 0 49.4284 0C48.5799 0 47.7694 0.0966683 46.9984 0.327573C46.2268 0.558477 45.5699 0.887882 44.9917 1.32999C44.421 1.75192 43.9475 2.29138 43.6031 2.91196C43.2562 3.52954 43.0821 4.24332 43.0821 5.05424C43.0821 6.0562 43.4102 7.00135 44.047 7.8512C44.682 8.71939 45.7238 9.37407 47.1321 9.81801L49.9296 10.6862C50.8743 10.9954 51.5312 11.3235 51.8785 11.69C52.2253 12.057 52.399 12.4991 52.399 13.0397C52.399 13.8304 52.0517 14.448 51.3952 14.8723C50.74 15.296 49.7953 15.5091 48.5799 15.5091C47.807 15.5091 47.0552 15.4321 46.2841 15.2782C45.5546 15.1281 44.843 14.9014 44.1611 14.6019C44.0942 14.5752 44.0296 14.5485 43.9689 14.5235C43.8548 14.4763 43.7548 14.435 43.68 14.4104C43.5637 14.371 43.4477 14.3513 43.3332 14.3513C43.0428 14.3513 42.8888 14.5447 42.8888 14.9488V15.9329C42.8895 16.1192 42.9291 16.3033 43.0052 16.4735C43.0821 16.6476 43.2934 16.8404 43.6031 17.0141C44.1043 17.3022 44.8556 17.5547 45.8205 17.7856ZM47.4991 23.38C49.312 22.1063 51.709 21.6532 53.7395 21.6244C55.77 21.595 57.4335 21.9913 57.7803 22.4151C58.4748 23.2833 57.587 29.2442 54.1921 32.0989C53.6717 32.5428 53.1705 32.3096 53.4014 31.7324C54.1743 29.8219 55.8905 25.52 55.0796 24.4983C54.2686 23.4569 49.7184 23.9971 47.653 24.2477C47.0355 24.3247 46.9388 23.7845 47.4991 23.38ZM0.256731 23.7465C-0.191791 23.341 0.000628841 22.8279 0.425328 22.7748H0.425786C0.567352 22.7574 0.734575 22.7908 0.913251 22.8966C9.09249 27.643 19.1817 30.5169 29.6173 30.5169C36.6576 30.5169 44.3943 29.0509 51.5111 26.0409C52.5726 25.5598 53.4779 26.7354 52.4365 27.5088C46.0908 32.1956 36.8706 34.6833 28.9425 34.6833C17.8307 34.6833 7.81976 30.5737 0.256731 23.7465Z" fill="white"/>
</svg>
