<svg width="88" height="39" viewBox="0 0 88 39" fill="none" xmlns="http://www.w3.org/2000/svg">
<path fill-rule="evenodd" clip-rule="evenodd" d="M70.4914 38.8142L56.5147 34.9342L53.4001 0H87.6245L84.5066 34.9287L70.4914 38.8142ZM80.4568 15.8131L81.2302 7.14109L70.4974 7.14111H59.7684L60.1578 11.4257L70.5119 11.4257H76.5348L76.1449 15.8131L70.4974 15.8131H60.5403L60.9243 20.0976L70.5123 20.0976H75.7733L75.276 25.6543L70.4974 26.9441V26.9444L70.4935 26.9454L65.7218 25.657L65.4167 22.2398H61.1157L61.716 28.9672L70.4925 31.4036L70.5122 31.3981V31.3975L79.2809 28.9673L79.3454 28.2434L80.3522 16.9636L80.4568 15.8131ZM14.5637 8.71118H0V26.9158H14.5637V20.8476H6.09026V14.7794H14.5637V8.71118ZM31.5546 8.71118H16.9909V20.4141H25.4643V21.4544H16.9909V26.9158H31.5546V14.9527H23.0812V13.9125H31.5546V8.71118ZM33.9819 8.71118H48.5455V13.9125H40.0721V14.9527H48.5455V26.9158H33.9819V21.4544H42.4553V20.4141H33.9819V8.71118Z" fill="white"/>
</svg>
