<svg width="118" height="40" viewBox="0 0 118 40" fill="none" xmlns="http://www.w3.org/2000/svg">
<path d="M8.15723 31.8428L1.31646 25.0021C0.491891 24.1541 0.0211728 23.024 0 21.8415C0 21.3085 0.298467 20.4771 0.524982 20L6.84078 6.84082L8.15723 31.8428Z" fill="#C6C6C6"/>
<path fill-rule="evenodd" clip-rule="evenodd" d="M24.7378 1.31645L31.5785 8.15723L6.84302 6.84077L19.4746 0.524985C20.0529 0.181214 20.9376 0 21.8437 0C22.899 0 24.1435 0.716854 24.7378 1.31645ZM32.8977 40H16.3167L9.21211 32.8927L20.5272 28.946L32.8977 32.8954V40ZM57.7696 5.76143H49.6737V32.5942H57.7696C60.5198 32.5942 62.9182 32.0266 64.9675 30.8887C66.968 29.801 68.6087 28.1546 69.6897 26.1505C70.7903 24.1252 71.3393 21.8041 71.3393 19.1792C71.3393 16.5516 70.7903 14.2331 69.6897 12.2078C68.6076 10.2029 66.966 8.55586 64.9649 7.46696C62.9156 6.32905 60.5172 5.76143 57.7696 5.76143ZM65.3219 26.8274C63.4592 28.6528 60.9435 29.5642 57.7696 29.5642V29.5589H52.8236V8.79941H57.7696C60.9435 8.79941 63.4619 9.70813 65.3219 11.5336C67.182 13.359 68.1148 15.9067 68.1148 19.1792C68.1148 22.457 67.182 25.0046 65.3219 26.8274ZM73.695 30.1052C74.3139 31.0858 75.197 31.8719 76.2427 32.373C77.3459 32.9247 78.5958 33.1991 79.9895 33.1991C81.2926 33.218 82.5762 32.8808 83.7017 32.2238C84.8023 31.5736 85.6284 30.7901 86.1774 29.8654H86.3266V32.5995H89.3619V20.4956C89.3619 18.1478 88.6184 16.2931 87.1341 14.9287C85.6444 13.5669 83.6031 12.8873 81.0048 12.8873C79.4928 12.8678 77.9971 13.2018 76.6371 13.8627C75.3807 14.4641 74.312 15.3964 73.5458 16.5596L75.9442 18.3584C76.4687 17.5328 77.2073 16.8651 78.0815 16.4263C78.9822 15.9653 79.9682 15.7334 81.0448 15.7334C82.5638 15.7334 83.8296 16.1652 84.8289 17.0259C85.8283 17.8893 86.3266 19.0326 86.3266 20.4556V21.6175C85.8016 21.2951 85.0448 21.0073 84.0588 20.7568C83.0701 20.5063 82.0015 20.3784 80.8556 20.3784C78.5292 20.3784 76.6024 20.9486 75.0835 22.0839C73.5565 23.2218 72.797 24.8021 72.797 26.8274C72.778 27.9832 73.0896 29.1205 73.695 30.1052ZM85.5032 27.3524C84.9515 28.2771 84.2134 29.0153 83.2913 29.5642C82.3693 30.1132 81.3673 30.3877 80.2933 30.3877C79.0675 30.3877 78.0548 30.0599 77.2553 29.4123C76.4559 28.7621 76.0561 27.912 76.0561 26.8647C76.0436 26.3246 76.1576 25.7891 76.389 25.301C76.6203 24.8128 76.9627 24.3855 77.3886 24.0532C78.2733 23.3284 79.5924 22.9686 81.3433 22.9686C82.2809 22.963 83.2146 23.0885 84.1174 23.3417C84.9005 23.5511 85.6466 23.88 86.3293 24.3171C86.3293 25.4177 86.0495 26.4303 85.5032 27.3524ZM95.763 13.7854H92.725V32.8954H95.9122V22.2891C95.9122 20.5676 96.4186 19.1685 97.4312 18.0945C98.4412 17.0206 99.7577 16.4823 101.383 16.4823C101.962 16.4684 102.54 16.5185 103.107 16.6315V13.3697C102.732 13.2977 102.271 13.2578 101.722 13.2578C100.484 13.2483 99.2657 13.5723 98.196 14.1958C97.1543 14.7826 96.3467 15.7106 95.9096 16.8234H95.763V13.7854ZM110.818 31.7656C111.3 32.2331 111.877 32.5919 112.509 32.8181C113.196 33.0749 113.924 33.205 114.657 33.2018C115.153 33.211 115.649 33.1736 116.139 33.0899C116.533 33.0105 116.917 32.8844 117.282 32.7141V29.6015C116.608 30.0279 115.904 30.2411 115.185 30.2411C114.284 30.2411 113.596 29.956 113.122 29.3963C112.722 28.8873 112.525 28.0932 112.525 27.0219V16.3704H117.17V13.4843H112.525V8.09054H109.338V13.4843H106.001V16.3704H109.341V27.7814C109.319 28.5733 109.446 29.3623 109.714 30.1079C109.959 30.7329 110.336 31.2982 110.818 31.7656Z" fill="white"/>
<path d="M6.84595 28.16C6.84595 30.2706 7.10977 30.7902 8.15974 31.8455L9.21237 32.8981H32.8979L21.319 19.7416L6.84595 6.84351V28.16Z" fill="#EBEBEB"/>
<path d="M27.8961 6.8408H6.84351L32.8955 32.8954H40.0001V16.5756L31.579 8.15459C30.3985 6.96871 29.3485 6.8408 27.8961 6.8408Z" fill="#C6C6C6"/>
<path opacity="0.2" d="M8.4211 32.1066C7.37113 31.0487 7.10731 30.0094 7.10731 28.1626V7.10731L6.84082 6.84082V28.1599C6.84615 30.0094 6.84615 30.521 8.42376 32.1066H8.4211Z" fill="white"/>
<path opacity="0.2" d="M39.7386 16.3174V32.6318H32.634L32.8979 32.8957H40.0051V16.5812L39.7386 16.3174Z" fill="#263238"/>
<path opacity="0.2" d="M31.579 8.15728C30.2759 6.85148 29.2073 6.84082 27.635 6.84082H6.84351L7.11 7.10731H27.6376C28.4185 7.10731 30.4011 6.97407 31.579 8.15728Z" fill="white"/>
</svg>
