<svg width="168" height="40" viewBox="0 0 168 40" fill="none" xmlns="http://www.w3.org/2000/svg">
<path fill-rule="evenodd" clip-rule="evenodd" d="M18.3613 25.8193L34.8529 16.4706V12.6471L18.3613 21.9958L0 11.5336V10.4202L18.3613 0L32.3529 7.89916V8.78151L31.1975 9.39076L18.3613 2.16387L2.81512 10.9454L18.3613 19.7899L35.8403 9.89496L36.7857 10.3992V17.521L18.3613 27.9832L1.93277 18.6975V22.479L18.3613 31.8277L35.9874 21.8697L36.8067 22.3109V29.5378L18.3824 40L0.0210097 29.5378V28.3193L0.840336 27.8782L18.3824 37.8361L34.874 28.4874V24.6429L18.3824 33.9916L0.0210097 23.5294V16.3025L0.840336 15.8613L18.3613 25.8193ZM75.7984 18.6554V25.0629C75.7984 29.6767 78.8069 29.8268 80.049 29.8888C80.0908 29.8908 80.1305 29.8928 80.1681 29.8949C81.0937 29.8949 81.8984 29.7942 82.4049 29.7308L82.437 29.7268V27.1218C82.0589 27.1638 81.3866 27.2268 80.9454 27.2268C79.7269 27.2268 78.7816 26.9957 78.7816 24.3277V18.6554C78.7816 18.4873 78.8866 18.3823 79.0547 18.3823H81.9958V15.8823H79.0547C78.8866 15.8823 78.7816 15.7772 78.7816 15.6092V11.5966H75.7984V15.6092C75.7984 15.7772 75.6933 15.8823 75.5253 15.8823H73.4244V18.3823H75.5253C75.6933 18.3823 75.7984 18.4873 75.7984 18.6554ZM159.433 25.3361L156.996 26.6176C157.773 28.6764 159.769 29.9579 162.269 30.0209C164.769 30.0209 167.248 28.5293 167.248 25.6302C167.248 23.8024 166.092 22.4579 163.656 21.6806L161.996 21.1344C160.882 20.7982 160.336 20.231 160.336 19.5167C160.336 18.6764 161.05 18.1302 162.101 18.1302C163.151 18.1302 164.034 18.7814 164.58 19.9579L167.017 18.6134C166.134 16.7856 164.307 15.6092 162.143 15.6092C159.433 15.6092 157.437 17.3949 157.437 19.7898C157.437 21.6806 158.592 23.0251 160.924 23.7394L162.584 24.2856C163.74 24.6848 164.244 25.126 164.244 25.9033C164.244 27.0587 163.193 27.4579 162.248 27.4579C161.029 27.4579 159.979 26.6176 159.433 25.3361ZM147.71 24.2856C147.71 24.2226 147.752 24.1806 147.815 24.1176L148.424 23.5713C148.487 23.5083 148.529 23.5083 148.592 23.5083C148.656 23.5083 148.698 23.5503 148.761 23.6134L153.571 29.6218H157.269L151.029 21.9957C150.924 21.8907 150.924 21.7646 151.029 21.6596L156.765 15.8403H153.067L148.151 20.8403C148.109 20.9033 147.983 20.9663 147.878 20.9033C147.773 20.9033 147.71 20.7772 147.71 20.6722V9.87387H144.664V29.6218H147.71V24.2856ZM141.24 19.5377L143.172 17.71C140.966 15.7562 138.908 15.5461 137.563 15.5461C133.361 15.5461 130.315 18.5924 130.315 22.773C130.315 24.7688 131.029 26.6596 132.311 27.9411C133.634 29.2856 135.462 29.9999 137.5 29.9999C139.202 29.9999 140.546 29.6638 143.025 27.8361L141.303 26.0083C140.084 26.8277 138.929 27.2268 137.815 27.2268C135.273 27.2268 133.382 25.3361 133.382 22.773C133.382 20.21 135.273 18.3192 137.815 18.3192C139.034 18.3192 140.126 18.6974 141.24 19.5377ZM127.08 13.5924C128.088 13.5924 128.908 12.773 128.908 11.7646C128.908 10.7562 128.067 9.91589 127.08 9.9369C126.071 9.9369 125.252 10.7562 125.252 11.7646C125.252 12.752 126.092 13.5924 127.08 13.5924ZM125.567 29.6218H128.613V15.8823H125.567V29.6218ZM118.95 29.6848V23.6134C118.95 20.6092 120.441 18.7184 122.878 18.7604C123.151 18.7604 123.424 18.7604 123.592 18.8235V15.7142C123.466 15.6512 123.319 15.6512 123.088 15.6512C121.534 15.6512 120.105 16.4915 119.328 17.773C119.286 17.8781 119.16 17.9411 119.055 17.8781C118.95 17.8361 118.887 17.71 118.887 17.605V15.9453H115.903V29.6848H118.95ZM106.933 18.3192C104.517 18.3192 102.626 20.273 102.626 22.773C102.626 25.273 104.517 27.2268 106.933 27.2268C109.349 27.2268 111.24 25.273 111.24 22.773C111.24 20.273 109.37 18.3192 106.933 18.3192ZM103.004 28.0041H102.899C102.794 28.0671 102.731 28.1092 102.752 28.2772V29.6638H99.7059V9.91589H102.752V17.3739C102.752 17.4999 102.815 17.5419 102.92 17.605C103.025 17.647 103.13 17.605 103.193 17.5419C104.244 16.2604 105.84 15.5461 107.563 15.5461C109.37 15.5461 111.092 16.2604 112.311 17.605C113.571 18.9915 114.244 20.7772 114.244 22.773C114.244 26.8277 111.366 29.9999 107.605 29.9999C105.84 29.9999 104.286 29.3277 103.235 28.1092C103.172 28.0671 103.067 28.0041 103.004 28.0041ZM85.9874 22.773C85.9874 25.273 87.9202 27.2268 90.2942 27.2268C92.6681 27.2268 94.6009 25.273 94.6009 22.773C94.6009 20.273 92.7311 18.3192 90.2942 18.3192C87.8782 18.3192 85.9874 20.273 85.9874 22.773ZM97.437 15.8823V29.6218V29.6848H94.4538V28.1722C94.4538 28.0461 94.3908 28.0041 94.2858 27.9411C94.1807 27.8991 94.0757 27.8991 94.0126 28.0041C92.9622 29.2856 91.3656 29.9999 89.6429 29.9999C85.9454 29.9999 83.0042 26.8277 83.0042 22.773C83.0042 18.7184 85.8824 15.5461 89.6429 15.5461C91.4706 15.5461 93.0253 16.2184 94.0126 17.4369C94.0547 17.4999 94.1807 17.5629 94.2858 17.4999C94.3908 17.4999 94.4538 17.3739 94.4538 17.2688V15.8823H97.437ZM60.3782 22.773C60.3782 25.273 62.311 27.2268 64.6849 27.2268C67.0589 27.2268 68.9916 25.273 68.9916 22.773C68.9916 20.273 67.0589 18.3192 64.6849 18.3192C62.2689 18.3192 60.3782 20.273 60.3782 22.773ZM71.8278 15.8823V29.6218V29.6848H68.8446V28.1722C68.8446 28.0461 68.7815 28.0041 68.6765 27.9411C68.5715 27.8991 68.4664 27.8991 68.4034 28.0041C67.353 29.2856 65.7563 29.9999 64.0337 29.9999C60.3362 29.9999 57.395 26.8277 57.395 22.773C57.395 18.7184 60.2731 15.5461 64.0337 15.5461C65.8614 15.5461 67.416 16.2184 68.4034 17.4369C68.4454 17.4999 68.5715 17.5629 68.6765 17.4999C68.7815 17.4999 68.8446 17.3739 68.8446 17.2688V15.8823H71.8278ZM44.2227 22.773C44.2227 25.273 46.0925 27.2268 48.5294 27.2268C50.9034 27.2268 52.8572 25.273 52.8362 22.773C52.8362 20.273 50.9034 18.3192 48.5294 18.3192C46.1135 18.3192 44.2227 20.273 44.2227 22.773ZM55.6723 9.91589V29.6218H55.6513V29.6638H52.6681V28.2142C52.6681 28.0882 52.6051 28.0461 52.5 27.9831C52.395 27.9411 52.29 27.9831 52.2269 28.0461C51.1765 29.3277 49.5799 30.0419 47.8572 30.0419C46.0505 30.0419 44.3278 29.3277 43.1093 27.9831C41.8488 26.5966 41.1765 24.8109 41.1765 22.8151C41.1765 18.7604 44.0547 15.5882 47.8152 15.5882C49.5799 15.5882 51.1345 16.2604 52.1849 17.4789C52.2269 17.5419 52.353 17.605 52.458 17.5419C52.5631 17.5419 52.6261 17.4159 52.6261 17.3108V9.91589H55.6723Z" fill="white"/>
</svg>
