<svg width="185" height="39" viewBox="0 0 185 39" fill="none" xmlns="http://www.w3.org/2000/svg">
<path fill-rule="evenodd" clip-rule="evenodd" d="M0 3.9C0 1.77272 1.77272 0 3.9 0H35.0493C37.1766 0 38.9493 1.77272 38.9493 3.9V11.7H0V3.9ZM0 27.3001H18.487V39.0001H3.9C1.82337 39.0001 0 37.278 0 35.2014V27.3001ZM38.9494 27.3001H20.4624V39.0001H35.0494C37.126 39.0001 38.9494 37.1767 38.9494 35.1001V27.3001ZM38.9493 13.6751H0V25.3751H38.9493V13.6751ZM65.7426 10.636H63.0581V28.4139H65.7426V10.636ZM55.157 28.5661C53.2323 28.5661 51.6622 27.9584 50.5479 26.8441C49.4336 25.7298 48.8765 24.109 48.8765 22.1337C48.8765 20.1077 49.4336 18.4363 50.4466 17.2714C51.4596 16.1064 52.8778 15.4986 54.7011 15.4986C56.3726 15.4986 57.6894 16.0051 58.6518 17.0181C59.6141 18.0311 60.1206 19.3986 60.1206 21.222V22.6908H51.7128C51.7635 23.9064 52.118 24.8181 52.6752 25.5272C53.2829 26.1856 54.1946 26.4895 55.3089 26.4895C56.018 26.4895 56.7778 26.4389 57.3855 26.2869C57.8698 26.1659 58.4183 25.9805 59.0056 25.7821L59.0061 25.7819L59.0069 25.7816C59.1563 25.7311 59.3082 25.6798 59.4622 25.6285V27.8064C58.8544 28.1103 58.1453 28.3636 57.4868 28.4649C56.8285 28.5661 55.9675 28.5661 55.1572 28.5661H55.157ZM54.5998 17.5752C53.7388 17.5752 53.0297 17.8791 52.5739 18.3856C52.0674 18.9428 51.7635 19.7025 51.6622 20.7662H57.3855C57.3855 19.7532 57.1323 18.8921 56.6764 18.3856C56.17 17.8791 55.5115 17.5752 54.5998 17.5752ZM76.9364 26.6417L77.4936 28.4144V28.3638H79.2157V20.0067C79.2157 18.5378 78.8105 17.4235 78.0001 16.7144C77.1897 16.0054 75.9741 15.6508 74.3533 15.6508C73.6442 15.6508 72.8845 15.7521 72.0741 15.9547C71.2637 16.1573 70.504 16.4106 69.8455 16.7651L70.7066 18.6391C70.9386 18.5548 71.1706 18.4616 71.4062 18.367L71.4064 18.3669C71.7366 18.2344 72.074 18.0989 72.4286 17.9807C73.0364 17.7781 73.6949 17.6768 74.3027 17.6768C75.1131 17.6768 75.6702 17.8794 76.0754 18.2846C76.4806 18.6898 76.6832 19.2976 76.6832 20.108V20.7664L74.5053 20.817C72.53 20.8677 71.0611 21.2222 70.0988 21.8807C69.1364 22.5391 68.63 23.5015 68.63 24.8183C68.63 26.0339 68.9338 26.9963 69.6429 27.6547C70.4027 28.3131 71.365 28.6677 72.5806 28.6677C73.5429 28.6677 74.3533 28.4651 74.9611 28.2118C75.6196 27.9586 76.2273 27.4015 76.8351 26.6417H76.9364ZM75.8222 25.73C75.265 26.2365 74.4546 26.5404 73.4923 26.5404C72.8338 26.5404 72.2767 26.3885 71.9222 26.1352C71.5676 25.8313 71.4157 25.4261 71.4157 24.8183C71.4157 24.0079 71.6689 23.4508 72.2767 23.0456C72.8845 22.6911 73.7962 22.4885 75.0624 22.4378L76.6832 22.3872V23.4508C76.6832 24.4131 76.4299 25.1729 75.8222 25.73ZM91.6244 24.7674C91.6244 25.983 91.1686 26.9454 90.2569 27.6038C89.3452 28.2116 88.079 28.5661 86.4075 28.5661C84.6855 28.5661 83.3686 28.3129 82.3556 27.8064V25.4765C83.8244 26.135 85.2426 26.4895 86.5088 26.4895C88.1803 26.4895 88.9906 25.983 88.9906 24.97C88.9906 24.6155 88.8894 24.3623 88.6868 24.2103C88.6331 24.1701 88.5723 24.1192 88.5045 24.0623L88.5044 24.0623C88.316 23.9045 88.0729 23.7008 87.7751 23.5519C87.3192 23.2986 86.7621 23.0454 86.0023 22.7921C84.5335 22.1843 83.5712 21.6778 83.014 21.0701C82.4569 20.4623 82.2543 19.7532 82.2543 18.8921C82.2543 17.8285 82.7101 17.0181 83.5712 16.3597C84.4322 15.7519 85.5971 15.4986 87.1166 15.4986C88.5855 15.4986 90.0036 15.8025 91.3205 16.4103L90.4595 18.3856C89.092 17.7778 87.9777 17.5752 87.0153 17.5752C85.5972 17.5752 84.8881 17.9804 84.8881 18.7908C84.8881 19.196 85.0907 19.4999 85.4452 19.8038C85.7629 20.0761 86.4467 20.3485 87.4965 20.7666L87.4967 20.7666C87.6183 20.8151 87.7449 20.8655 87.8764 20.9181C88.8894 21.3233 89.6997 21.6778 90.1556 22.0324C90.6621 22.3869 90.966 22.7415 91.2192 23.1973C91.5231 23.6532 91.6244 24.1597 91.6244 24.7674ZM101.147 26.135C100.539 26.3376 99.8297 26.4389 99.222 26.4389C98.7155 26.4389 98.2596 26.3376 97.9557 26.0337C97.6012 25.7298 97.4492 25.2233 97.4492 24.6155V17.8285H101.045V15.8026H97.4492V12.9662H95.7778L94.8661 15.6506L92.9921 16.6129V17.7779H94.7142V24.6155C94.7142 27.2493 95.9804 28.6168 98.5129 28.6168C99.0194 28.6168 99.4752 28.5662 99.9817 28.4649C100.488 28.3636 100.843 28.2623 101.147 28.1103V26.135ZM103.527 12.4091C103.527 11.9026 103.679 11.5987 103.933 11.2949C104.186 10.991 104.54 10.8897 105.047 10.8897C105.553 10.8897 105.857 11.0416 106.161 11.2949C106.465 11.5481 106.566 11.9026 106.566 12.4091C106.566 12.865 106.414 13.2195 106.161 13.4728C105.908 13.726 105.553 13.878 105.047 13.878C104.54 13.878 104.186 13.726 103.933 13.4728C103.679 13.2702 103.527 12.865 103.527 12.4091ZM106.414 28.4143H103.73V15.8026H106.414V28.4143ZM110.973 26.8946C111.986 28.0089 113.455 28.5661 115.329 28.5661C115.983 28.5661 116.525 28.4534 116.986 28.3574C117.03 28.3482 117.073 28.3392 117.116 28.3304C117.145 28.3244 117.174 28.3185 117.203 28.3128C117.81 28.2115 118.266 28.0089 118.773 27.705V25.3752C117.709 25.9323 116.595 26.2362 115.379 26.2362C114.366 26.2362 113.556 25.8817 112.999 25.1726C112.492 24.4635 112.188 23.3998 112.188 21.9817C112.188 19.0946 113.252 17.6258 115.43 17.6258C116.24 17.6258 117.152 17.8284 118.266 18.2843L119.077 16.157C118.013 15.7011 116.797 15.4479 115.48 15.4479C113.556 15.4479 112.036 16.005 111.023 17.17C110.01 18.3349 109.453 19.9557 109.453 22.083C109.453 24.1596 110.01 25.7804 110.973 26.8946ZM136.348 24.7674C136.348 25.983 135.892 26.9454 134.98 27.6038C134.069 28.2116 132.802 28.5661 131.131 28.5661C129.409 28.5661 128.092 28.3129 127.079 27.8064V25.4765C128.548 26.135 129.966 26.4895 131.232 26.4895C132.904 26.4895 133.714 25.983 133.714 24.97C133.714 24.6155 133.613 24.3623 133.41 24.2103C133.208 24.0077 132.904 23.7545 132.498 23.5519C132.043 23.2986 131.485 23.0454 130.726 22.7921C129.257 22.1843 128.295 21.6778 127.737 21.0701C127.18 20.4623 126.978 19.7532 126.978 18.8921C126.978 17.8285 127.434 17.0181 128.295 16.3597C129.156 15.7519 130.321 15.4986 131.84 15.4986C133.309 15.4986 134.727 15.8025 136.044 16.4103L135.183 18.3856C133.815 17.7778 132.701 17.5752 131.739 17.5752C130.321 17.5752 129.611 17.9804 129.611 18.7908C129.611 19.196 129.814 19.4999 130.169 19.8038C130.486 20.0761 131.17 20.3485 132.22 20.7666L132.222 20.7673C132.343 20.8156 132.469 20.8657 132.6 20.9181C133.613 21.3233 134.423 21.6778 134.879 22.0324C135.385 22.3869 135.689 22.7415 135.943 23.1973C136.246 23.6532 136.348 24.1597 136.348 24.7674ZM145.87 26.135C145.262 26.3376 144.553 26.4389 143.945 26.4389C143.388 26.4389 143.034 26.3376 142.679 26.0337C142.325 25.7298 142.173 25.2233 142.173 24.6155V17.8285H145.769V15.8026H142.173V12.9662H140.501L139.589 15.6506L137.715 16.6129V17.7779H139.438V24.6155C139.438 27.2493 140.704 28.6168 143.236 28.6168C143.743 28.6168 144.199 28.5662 144.705 28.4649C145.212 28.3636 145.566 28.2623 145.87 28.1103V26.135ZM156.304 28.4144L155.747 26.6417H155.646C155.038 27.4015 154.43 27.9586 153.772 28.2118C153.164 28.4651 152.353 28.6677 151.391 28.6677C150.175 28.6677 149.213 28.3131 148.453 27.6547C147.744 26.9963 147.44 26.0339 147.44 24.8183C147.44 23.5015 147.947 22.5391 148.909 21.8807C149.872 21.2729 151.34 20.8677 153.316 20.817L155.494 20.7664V20.108C155.494 19.2976 155.291 18.6898 154.886 18.2846C154.481 17.8794 153.923 17.6768 153.113 17.6768C152.505 17.6768 151.847 17.7781 151.239 17.9807C150.884 18.0989 150.547 18.2344 150.217 18.367L150.216 18.3671L150.216 18.3671C149.981 18.4617 149.749 18.5548 149.517 18.6391L148.656 16.7651C149.314 16.4106 150.074 16.1573 150.885 15.9547C151.695 15.7521 152.455 15.6508 153.164 15.6508C154.785 15.6508 156 16.0054 156.81 16.7144C157.621 17.4235 158.026 18.5378 158.026 20.0067V28.3638H156.304V28.4144ZM152.303 26.5404C153.265 26.5404 154.075 26.2365 154.633 25.73C155.19 25.2235 155.494 24.4131 155.494 23.4508V22.3872L153.873 22.4378C152.607 22.4885 151.695 22.6911 151.087 23.0456C150.479 23.4508 150.226 24.0079 150.226 24.8183C150.226 25.4261 150.378 25.8313 150.733 26.1352C151.087 26.3885 151.644 26.5404 152.303 26.5404ZM162.685 26.8946C163.698 28.0089 165.167 28.5661 167.041 28.5661C167.72 28.5661 168.221 28.4594 168.664 28.3653C168.749 28.347 168.833 28.3293 168.915 28.3128C169.523 28.2115 169.979 28.0089 170.485 27.705V25.3752C169.422 25.9323 168.307 26.2362 167.092 26.2362C166.079 26.2362 165.268 25.8817 164.711 25.1726C164.205 24.4635 163.901 23.3998 163.901 21.9817C163.901 19.0946 164.965 17.6258 167.142 17.6258C167.953 17.6258 168.865 17.8284 169.979 18.2843L170.789 16.157C169.726 15.7011 168.51 15.4479 167.193 15.4479C165.268 15.4479 163.749 16.005 162.736 17.17C161.723 18.3349 161.166 19.9557 161.166 22.083C161.166 24.1596 161.723 25.7804 162.685 26.8946ZM176.108 21.7282L177.627 19.8035L181.426 15.8022H184.516L179.451 21.1711L184.87 28.4139H181.73L177.678 22.8425L176.209 24.0581V28.4139H173.525V10.636H176.209V19.2971L176.057 21.7282H176.108Z" fill="white"/>
</svg>
