<svg width="190" height="32" viewBox="0 0 190 32" fill="none" xmlns="http://www.w3.org/2000/svg">
<path fill-rule="evenodd" clip-rule="evenodd" d="M30.2083 7.11698C30.0191 6.51128 29.5648 6.01915 28.9969 5.7163L17.4508 0.189281C17.1479 0.0378563 16.8072 0 16.5044 0C16.2015 0 15.8608 0 15.558 0.0757126L4.0118 5.64059C3.44395 5.90558 3.02753 6.39771 2.87611 7.04127L0.0368856 19.496C-0.0766833 20.1395 0.0747419 20.7831 0.453305 21.3131L8.44098 31.1936C8.89526 31.6479 9.53881 31.9507 10.1824 31.9886H22.9021C23.5835 32.0643 24.2271 31.7614 24.6435 31.1936L32.6311 21.3131C33.0097 20.7831 33.1611 20.1395 33.0854 19.496L30.2083 7.11698ZM28.4291 19.004C28.3913 19.004 28.3534 19.004 28.3534 18.9661C28.3534 18.9283 28.2777 18.9283 28.202 18.9283C28.0506 18.8904 27.8991 18.8904 27.7477 18.8904C27.672 18.8904 27.5963 18.8904 27.5206 18.8526H27.4827C27.0663 18.8147 26.612 18.739 26.1956 18.6254C26.082 18.5876 25.9685 18.474 25.9306 18.3604L25.6278 18.2847C25.7792 17.1869 25.7035 16.0512 25.4763 14.9534C25.2113 13.8555 24.7571 12.7956 24.1514 11.8492L24.3785 11.622V11.5842C24.3785 11.4706 24.4164 11.3192 24.4921 11.2435C24.8328 10.9406 25.1735 10.7135 25.552 10.4863L25.7792 10.3728C25.8549 10.3349 25.9211 10.297 25.9874 10.2592C26.0536 10.2213 26.1199 10.1835 26.1956 10.1456C26.2145 10.1267 26.2335 10.1172 26.2524 10.1078C26.2713 10.0983 26.2902 10.0888 26.3092 10.0699C26.3326 10.0465 26.327 10.0376 26.3194 10.0252C26.3147 10.0176 26.3092 10.0087 26.3092 9.9942C26.6499 9.7292 26.7256 9.27493 26.4606 8.93422C26.347 8.7828 26.1199 8.66923 25.9306 8.66923C25.7413 8.66923 25.552 8.74494 25.4006 8.85851L25.3628 8.89637C25.3249 8.93422 25.287 8.97208 25.2492 8.97208C25.1356 9.08565 25.0221 9.19922 24.9463 9.31278C24.92 9.36557 24.8752 9.39996 24.8376 9.42877C24.8213 9.44129 24.8064 9.45275 24.7949 9.46421C24.5299 9.76706 24.1892 10.0699 23.8485 10.297C23.7728 10.3349 23.6971 10.3728 23.6214 10.3728C23.5835 10.3728 23.5078 10.3728 23.4699 10.3349H23.4321L23.1292 10.5242C22.9778 10.3728 22.8169 10.2213 22.656 10.0699C22.4951 9.91848 22.3343 9.76706 22.1828 9.61563C20.7822 8.5178 19.0408 7.83639 17.2615 7.64711L17.2237 7.34426V7.38211C17.1101 7.3064 17.0722 7.19283 17.0344 7.07926C17.0344 6.66284 17.0344 6.24643 17.1101 5.79215V5.75429C17.1101 5.71644 17.1196 5.67858 17.129 5.64072C17.1385 5.60287 17.1479 5.56501 17.1479 5.52716C17.1669 5.45144 17.1763 5.37573 17.1858 5.30002C17.1953 5.22431 17.2047 5.14859 17.2237 5.07288V4.84574C17.2615 4.46718 16.9587 4.08862 16.5801 4.05076C16.353 4.0129 16.1258 4.12647 15.9365 4.31575C15.7851 4.46718 15.7094 4.65646 15.7094 4.84574V5.03502C15.7094 5.18645 15.7473 5.33787 15.7851 5.4893C15.823 5.56501 15.823 5.64072 15.823 5.71644V5.75429C15.8987 6.17071 15.8987 6.58713 15.8987 7.04141C15.8608 7.15498 15.823 7.26854 15.7094 7.34426V7.41997L15.6716 7.72282C15.3152 7.75521 14.9589 7.81532 14.5789 7.87943L14.3844 7.9121C12.6052 8.29066 10.9774 9.23707 9.72812 10.562L9.50098 10.4106H9.46312C9.44744 10.4106 9.43176 10.4171 9.41339 10.4247C9.38741 10.4355 9.35605 10.4485 9.3117 10.4485C9.23599 10.4485 9.16027 10.4106 9.08456 10.3728C8.74386 10.1078 8.40315 9.80492 8.13815 9.50207C8.11176 9.44928 8.06696 9.41489 8.02943 9.38608C8.01312 9.37357 7.99819 9.3621 7.98673 9.35064C7.92995 9.29386 7.88262 9.23707 7.8353 9.18029C7.78798 9.1235 7.74066 9.06672 7.68388 9.00993C7.66495 8.99101 7.64602 8.98154 7.6271 8.97208C7.60817 8.96261 7.58924 8.95315 7.57031 8.93422L7.53245 8.89637C7.38103 8.7828 7.19175 8.70708 7.00247 8.70708C6.77533 8.70708 6.58605 8.7828 6.47248 8.97208C6.24534 9.31279 6.32105 9.76706 6.6239 10.0321C6.66176 10.0321 6.66176 10.0699 6.66176 10.0699C6.66176 10.0699 6.73747 10.1456 6.77533 10.1456C6.8889 10.2213 7.04032 10.297 7.19175 10.3728L7.41889 10.4863C7.79745 10.7135 8.17601 10.9406 8.47886 11.2435C8.54798 11.3126 8.61709 11.4448 8.59981 11.5537L8.59243 11.5463V11.5842C8.59573 11.5743 8.59816 11.5641 8.59981 11.5537L8.81957 11.7734C8.80064 11.8113 8.78171 11.8397 8.76279 11.8681L8.76278 11.8681L8.76278 11.8681C8.74385 11.8965 8.72493 11.9249 8.706 11.9627C7.53245 13.8177 7.04032 16.0133 7.38103 18.1712L7.07818 18.2469C7.07818 18.2847 7.04032 18.2847 7.04032 18.2847C7.00247 18.3983 6.8889 18.474 6.77533 18.5497C6.35891 18.6633 5.94249 18.739 5.48821 18.7769C5.4125 18.7769 5.33679 18.7769 5.26108 18.8147C5.18536 18.8147 5.10965 18.8242 5.03394 18.8336C4.95823 18.8431 4.88251 18.8526 4.8068 18.8526C4.79112 18.8526 4.77544 18.8591 4.75707 18.8667C4.73109 18.8774 4.69973 18.8904 4.65538 18.8904C4.63929 18.8904 4.63004 18.8904 4.62181 18.8933C4.61068 18.8973 4.60143 18.9065 4.57966 18.9283C4.16324 19.004 3.89825 19.3826 3.97396 19.799C4.04968 20.1397 4.39038 20.3668 4.73109 20.329C4.8068 20.329 4.84466 20.329 4.92037 20.2911C4.9393 20.2911 4.94876 20.2911 4.9535 20.2864C4.95823 20.2816 4.95823 20.2722 4.95823 20.2533C4.95823 20.2269 5.01343 20.2373 5.0597 20.246C5.07979 20.2498 5.09819 20.2533 5.10965 20.2533C5.2047 20.2295 5.29976 20.1908 5.38545 20.1559L5.3855 20.1559C5.4363 20.1352 5.48381 20.1159 5.52607 20.1018C5.60178 20.064 5.6775 20.0261 5.75321 20.0261H5.79106C6.20748 19.8747 6.58605 19.7611 7.04032 19.6854H7.07818C7.19175 19.6854 7.30532 19.7233 7.38103 19.799C7.41889 19.799 7.41889 19.8368 7.41889 19.8368L7.75959 19.799C8.32744 21.5404 9.38741 23.0925 10.8638 24.2282C11.2045 24.4932 11.5074 24.7203 11.8859 24.9096L11.6966 25.1746C11.6966 25.2124 11.7345 25.2124 11.7345 25.2124C11.8102 25.326 11.8102 25.4774 11.7724 25.591C11.6209 25.9695 11.3938 26.3481 11.1667 26.6888V26.7267C11.1288 26.8024 11.0909 26.8402 11.0152 26.916C10.9727 26.9585 10.9302 27.0249 10.881 27.1017C10.8425 27.1617 10.8 27.2281 10.7502 27.2945C10.7313 27.3134 10.7218 27.3324 10.7124 27.3513C10.7029 27.3702 10.6935 27.3892 10.6745 27.4081C10.6745 27.4081 10.6745 27.4459 10.6367 27.4459C10.4474 27.8245 10.5988 28.2788 10.9395 28.4681C11.0152 28.5059 11.1288 28.5438 11.2045 28.5438C11.5074 28.5438 11.7724 28.3545 11.9238 28.0895C11.9238 28.0895 11.9238 28.0516 11.9616 28.0516C11.9616 28.0138 11.9995 27.9759 12.0374 27.9381C12.0563 27.8624 12.0847 27.7961 12.1131 27.7299C12.1415 27.6636 12.1698 27.5974 12.1888 27.5217L12.2645 27.2945C12.3781 26.8781 12.5673 26.4995 12.7566 26.121C12.8323 26.0074 12.9459 25.9317 13.0595 25.8938C13.0784 25.8938 13.0879 25.8938 13.0926 25.8891C13.0973 25.8844 13.0973 25.8749 13.0973 25.856L13.2488 25.5531C14.3087 25.9696 15.4066 26.1588 16.5422 26.1588C17.2237 26.1588 17.9051 26.0831 18.5865 25.8938C18.8969 25.8374 19.2074 25.7389 19.5021 25.6453L19.5022 25.6453L19.5022 25.6453C19.6028 25.6134 19.7016 25.582 19.7979 25.5531L19.9493 25.8181C19.9872 25.8181 19.9872 25.8181 19.9872 25.856C20.1007 25.8938 20.2143 25.9696 20.29 26.0831C20.4793 26.4617 20.6686 26.8402 20.7822 27.2567V27.2945L20.8579 27.5217C20.8957 27.6731 20.9336 27.8245 21.0093 27.9381C21.0282 27.957 21.0377 27.9759 21.0471 27.9949C21.0566 28.0138 21.0661 28.0327 21.085 28.0516C21.085 28.0516 21.085 28.0895 21.1229 28.0895C21.2743 28.3545 21.5393 28.5438 21.8421 28.5438C21.932 28.5438 21.9981 28.5201 22.0781 28.4914C22.0992 28.4839 22.1213 28.476 22.145 28.4681C22.2964 28.3924 22.4478 28.2409 22.4857 28.0516C22.5235 27.8624 22.5235 27.6731 22.4478 27.4838C22.4478 27.4459 22.41 27.4459 22.41 27.4459C22.41 27.4081 22.3721 27.3702 22.3343 27.3324C22.2585 27.181 22.1828 27.0674 22.0693 26.9538C22.0314 26.8781 21.9936 26.8402 21.9179 26.7645L21.9178 26.7645V26.6888C21.6528 26.3481 21.4636 25.9695 21.3121 25.591C21.2743 25.4774 21.2743 25.326 21.35 25.2124C21.35 25.1746 21.3879 25.1746 21.3879 25.1746L21.2743 24.8717C23.205 23.6982 24.6814 21.8811 25.3628 19.7233L25.6656 19.7611C25.7035 19.7611 25.7035 19.7233 25.7035 19.7233C25.7792 19.6476 25.8927 19.6097 26.0063 19.6097H26.0442C26.4606 19.6854 26.877 19.799 27.2556 19.9504H27.2934C27.3691 19.9883 27.4449 20.0261 27.5206 20.0261C27.5597 20.0457 27.5963 20.0652 27.6316 20.0841L27.6317 20.0841C27.7332 20.1384 27.8247 20.1873 27.937 20.2154C27.9527 20.2154 27.9684 20.2219 27.9867 20.2295C28.0127 20.2403 28.0441 20.2533 28.0884 20.2533C28.1263 20.2533 28.1263 20.2533 28.1641 20.2911C28.2398 20.329 28.2777 20.329 28.3534 20.329C28.6941 20.329 28.997 20.1018 29.1105 19.799C29.0727 19.3826 28.7698 19.0797 28.4291 19.004ZM17.4887 17.8304L16.4665 18.3226L15.4444 17.8304L15.1794 16.7326L15.8987 15.8241H17.0344L17.7537 16.7326L17.4887 17.8304ZM23.6592 15.3698C23.8485 16.1648 23.8864 16.9598 23.8107 17.7547L20.2143 16.7326C19.8736 16.6569 19.6843 16.3162 19.76 15.9755C19.7979 15.8619 19.8357 15.7862 19.9115 15.7105L22.7507 13.1363C23.1671 13.8177 23.4699 14.5748 23.6592 15.3698ZM21.615 11.7356L18.5108 13.9313C18.2458 14.0827 17.8672 14.0448 17.6779 13.7798C17.6022 13.7041 17.5644 13.6284 17.5644 13.5148L17.3372 9.69135C19.0029 9.88063 20.4793 10.5999 21.615 11.7356ZM14.763 9.80492L15.5201 9.65349L15.3308 13.4391C15.3308 13.7798 15.028 14.0448 14.6873 14.0448C14.5974 14.0448 14.5313 14.0211 14.4513 13.9925L14.4513 13.9925C14.4302 13.9849 14.4081 13.977 14.3844 13.9691L11.2424 11.7356C12.2266 10.7892 13.438 10.1078 14.763 9.80492ZM10.1445 13.1363L12.9459 15.6348C13.2109 15.8619 13.2488 16.2405 13.0216 16.5055C12.9459 16.619 12.8702 16.6569 12.7188 16.6948L9.0467 17.7547C8.93314 16.1648 9.3117 14.537 10.1445 13.1363ZM9.50098 19.534L13.2488 18.8904C13.5516 18.8904 13.8545 19.0797 13.8923 19.3826C13.9302 19.4961 13.9302 19.6476 13.8545 19.7611L12.4159 23.2439C11.0909 22.3732 10.031 21.0482 9.50098 19.534ZM18.0944 24.2282C17.5644 24.3417 17.0344 24.4174 16.4665 24.4174C15.6716 24.4174 14.8387 24.266 14.0816 24.0389L15.9365 20.6697C16.1258 20.4425 16.4287 20.3668 16.6937 20.5182C16.8072 20.594 16.883 20.6697 16.9965 20.7832L18.8136 24.0767C18.5865 24.1146 18.3593 24.1524 18.0944 24.2282ZM22.7128 20.9347C22.145 21.8432 21.35 22.6382 20.4414 23.206L18.9651 19.6476C18.8893 19.3447 19.0408 19.0419 19.3058 18.9283C19.4193 18.8904 19.5329 18.8526 19.6465 18.8526L23.4321 19.4961C23.2428 20.0261 23.0157 20.5182 22.7128 20.9347ZM185.194 24.073C184.699 24.2683 184.128 24.3465 183.595 24.3074C183.093 24.3074 182.608 24.2734 182.117 24.2391C181.863 24.2213 181.609 24.2035 181.349 24.1902C180.626 24.0339 179.903 23.7995 179.218 23.526L178.533 26.964C179.104 27.1593 179.675 27.3547 180.284 27.5109C181.349 27.7844 182.415 27.9016 183.519 27.8625C185.498 27.8625 187.021 27.4719 188.086 26.7296C189.19 25.9873 189.799 24.6981 189.723 23.3698C189.723 22.8228 189.647 22.2759 189.495 21.7289C189.343 21.221 189.114 20.7913 188.772 20.4397C188.391 19.9709 187.934 19.6193 187.401 19.3458C186.716 18.9551 185.955 18.6035 185.194 18.33C184.737 18.1738 184.356 18.0175 184.09 17.8612C184.013 17.8162 183.94 17.7745 183.87 17.7351C183.698 17.6375 183.551 17.554 183.443 17.4706C183.291 17.3534 183.176 17.2361 183.1 17.0799L183.1 17.0797C183.062 16.9235 183.024 16.7673 183.024 16.6111C183.024 15.8688 183.671 15.5172 184.965 15.5172C185.574 15.5172 186.221 15.5562 186.83 15.7125C186.988 15.7589 187.143 15.8018 187.297 15.8443C187.66 15.9452 188.016 16.0439 188.391 16.1813L189.114 12.8606C188.467 12.6262 187.82 12.4699 187.173 12.3527C186.336 12.1574 185.46 12.0792 184.623 12.0792C182.872 12.0792 181.502 12.4699 180.474 13.2903C179.484 14.0717 178.913 15.3218 178.951 16.6111C178.951 17.2361 179.027 17.8612 179.256 18.4472C179.446 18.9551 179.713 19.3849 180.093 19.7755C180.512 20.1662 180.931 20.4788 181.425 20.7132C181.958 20.9866 182.529 21.2601 183.176 21.4945C183.823 21.6899 184.47 22.0024 185.041 22.354C185.384 22.4712 185.612 22.8228 185.65 23.2135C185.688 23.5651 185.498 23.9167 185.194 24.073ZM163.193 16.572C162.813 17.6659 162.584 18.8379 162.622 20.01C162.622 21.0257 162.775 22.0805 163.041 23.1354C163.346 24.0339 163.802 24.8934 164.449 25.5966C165.135 26.2998 165.934 26.8468 166.847 27.1984C167.951 27.6281 169.093 27.8235 170.273 27.7844C170.806 27.7844 171.339 27.7453 171.834 27.7063C172.366 27.6281 172.823 27.55 173.28 27.4719C173.699 27.4328 174.117 27.3156 174.536 27.1984C174.627 27.1633 174.719 27.1317 174.809 27.1004C175.02 27.0274 175.225 26.9562 175.412 26.8468L174.841 23.4088C174.27 23.6823 173.661 23.8776 173.052 23.9949C172.328 24.1121 171.567 24.1902 170.844 24.1902C169.854 24.2293 168.865 23.9558 168.027 23.4088C167.342 22.94 166.923 22.1587 166.847 21.3383H176.135C176.135 21.2295 176.143 21.1207 176.152 21.0041C176.162 20.8694 176.173 20.7244 176.173 20.5569C176.211 20.2445 176.211 19.9711 176.211 19.7368V19.7365C176.211 17.2361 175.602 15.3218 174.422 14.0326C173.242 12.7434 171.605 12.0792 169.55 12.0792C168.674 12.0792 167.799 12.2355 166.962 12.5871C166.124 12.8996 165.401 13.4075 164.754 14.0717C164.069 14.814 163.536 15.6344 163.193 16.572ZM172.062 17.3534C172.176 17.705 172.252 18.0566 172.252 18.4082H166.847C166.885 18.0566 166.962 17.705 167.076 17.3534C167.19 17.0017 167.38 16.6892 167.609 16.4157C167.837 16.1423 168.142 15.9469 168.446 15.7906C168.827 15.5953 169.207 15.5172 169.626 15.5172C170.045 15.5172 170.425 15.5953 170.806 15.7906C171.11 15.9469 171.377 16.1813 171.605 16.4548C171.796 16.7283 171.986 17.0017 172.062 17.3534ZM155.581 8.05526L151.47 8.71941V21.2601C151.432 22.1196 151.508 23.0182 151.698 23.8776C151.889 24.6199 152.193 25.3231 152.65 25.9092C153.107 26.4561 153.716 26.9249 154.401 27.1984C155.276 27.55 156.228 27.7063 157.179 27.6672C157.941 27.6672 158.702 27.5891 159.425 27.4328C159.996 27.2765 160.567 27.1203 161.1 26.8859L160.529 23.6042C160.11 23.7604 159.692 23.8776 159.235 23.9558C158.816 24.0339 158.359 24.073 157.903 24.073C156.951 24.073 156.342 23.7995 156.038 23.2916C155.695 22.6665 155.543 21.9243 155.581 21.182V15.9469H160.529V12.4308H155.581V8.05526ZM135.407 16.572C135.027 17.6659 134.798 18.8379 134.837 20.01C134.798 21.0257 134.951 22.0805 135.255 23.1354C135.56 24.0339 136.016 24.8934 136.664 25.5966C137.349 26.2998 138.148 26.8468 139.062 27.1984C140.165 27.6281 141.307 27.8235 142.487 27.7844C143.02 27.7844 143.553 27.7453 144.048 27.7063C144.581 27.6281 145.037 27.55 145.494 27.4719C145.913 27.4328 146.332 27.3156 146.75 27.1984C146.841 27.1633 146.933 27.1317 147.023 27.1004C147.234 27.0274 147.439 26.9562 147.626 26.8468L147.055 23.4088C146.446 23.6823 145.837 23.8776 145.228 23.9949C144.505 24.1121 143.743 24.1902 143.02 24.1902C142.03 24.2293 141.041 23.9558 140.203 23.4088C139.518 22.94 139.1 22.1587 139.023 21.3383H148.349C148.349 21.1038 148.349 20.8694 148.387 20.5569C148.425 20.2444 148.425 19.9709 148.425 19.7365C148.425 17.2361 147.816 15.3218 146.636 14.0326C145.456 12.7434 143.819 12.0792 141.764 12.0792C140.889 12.0792 140.013 12.2355 139.176 12.5871C138.338 12.8996 137.615 13.4075 136.968 14.0717C136.283 14.814 135.75 15.6344 135.407 16.572ZM144.276 17.3534C144.39 17.705 144.466 18.0566 144.466 18.4082H139.1C139.138 18.0566 139.214 17.705 139.328 17.3534C139.442 17.0017 139.632 16.6892 139.861 16.4157C140.089 16.1423 140.356 15.9469 140.66 15.7906C141.041 15.5953 141.421 15.5172 141.84 15.5172C142.259 15.5172 142.639 15.5953 143.02 15.7906C143.325 15.9469 143.591 16.1813 143.819 16.4548C144.01 16.7283 144.2 17.0017 144.276 17.3534ZM121.933 12.3527C121.02 12.509 120.106 12.7043 119.231 12.9387V27.2765H123.342V15.7906C123.608 15.7516 123.874 15.7125 124.217 15.7125C124.56 15.6734 124.864 15.6734 125.169 15.6734C126.12 15.6734 126.767 15.986 127.11 16.5329C127.452 17.1189 127.643 18.0566 127.643 19.4239V27.2765H131.715V18.877C131.715 17.9394 131.639 17.0017 131.411 16.1032C131.221 15.3218 130.878 14.5796 130.383 13.9545C129.888 13.3294 129.203 12.8606 128.442 12.5871C127.452 12.2355 126.425 12.0402 125.397 12.0792C124.255 12.0792 123.075 12.1574 121.933 12.3527ZM115.926 16.0891C116.069 16.1224 116.206 16.1542 116.338 16.1813L117.023 12.6652C116.757 12.548 116.49 12.4699 116.224 12.4308C115.881 12.3527 115.577 12.3136 115.272 12.2746C114.93 12.1964 114.625 12.1574 114.321 12.1574C114.187 12.1574 114.054 12.1476 113.921 12.1378C113.788 12.1281 113.655 12.1183 113.521 12.1183C112.418 12.0792 111.276 12.1964 110.172 12.4699C109.296 12.6652 108.421 12.8996 107.584 13.2122V27.3547H111.694V15.986C111.961 15.9079 112.227 15.8688 112.494 15.8297C112.528 15.8258 112.562 15.8218 112.596 15.8179C112.898 15.7832 113.171 15.7516 113.445 15.7516C113.978 15.7516 114.511 15.7906 115.044 15.9079C115.367 15.9589 115.657 16.0265 115.926 16.0891ZM91.3688 16.572C90.9882 17.6659 90.7598 18.8379 90.7978 20.01C90.7978 21.0648 90.9501 22.0805 91.1785 23.1354C91.483 24.0339 91.9397 24.8934 92.5868 25.5966C93.2719 26.2998 94.0712 26.8468 94.9848 27.1984C96.0886 27.6281 97.2305 27.8235 98.4104 27.7844C98.9433 27.7844 99.4762 27.7453 99.971 27.7063C100.504 27.6281 100.961 27.55 101.417 27.4719C101.836 27.4328 102.255 27.3156 102.673 27.1984C102.765 27.1633 102.856 27.1317 102.946 27.1004C103.157 27.0274 103.362 26.9562 103.549 26.8468L102.978 23.4088C102.407 23.6432 101.798 23.8386 101.189 23.9558C100.466 24.073 99.7045 24.1511 98.9813 24.1511C97.9917 24.1902 97.0021 23.9167 96.1647 23.3698C95.4796 22.901 95.0609 22.1196 94.9848 21.2992H104.31C104.31 21.0648 104.31 20.8304 104.348 20.5178C104.386 20.2054 104.386 19.932 104.386 19.6977V19.6974C104.386 17.2361 103.777 15.3218 102.597 14.0326C101.417 12.7434 99.7807 12.0792 97.7253 12.0792C96.8498 12.0792 95.9744 12.2355 95.137 12.5871C94.2996 12.8996 93.5764 13.4075 92.9294 14.0717C92.2442 14.814 91.7113 15.6344 91.3688 16.572ZM100.275 17.3534C100.39 17.705 100.466 18.0566 100.466 18.4082H95.0609C95.0989 18.0566 95.1751 17.705 95.2893 17.3534C95.4034 17.0017 95.5938 16.6892 95.8221 16.4157C96.0505 16.1423 96.355 15.9469 96.6595 15.7906C97.0401 15.5953 97.4208 15.5172 97.8395 15.5172C98.2582 15.5172 98.6388 15.5953 99.0194 15.7906C99.3239 15.9469 99.5904 16.1813 99.8187 16.4548C100.009 16.7283 100.199 17.0017 100.275 17.3534ZM81.206 15.7125C83.1472 15.7125 84.1368 17.0408 84.1368 19.7755C84.1749 20.9085 83.8704 22.0024 83.2995 22.94C82.6905 23.7604 81.7389 24.1902 80.7493 24.1121C80.3686 24.1121 80.0261 24.1121 79.7216 24.073C79.4171 24.0339 79.1506 23.9948 78.9603 23.9558V16.2985C79.2648 16.1032 79.6074 15.9469 79.9499 15.8688C80.3686 15.7516 80.7873 15.7125 81.206 15.7125ZM87.7909 23.1744C88.1715 22.1196 88.3238 21.0257 88.3238 19.9318C88.3238 18.8379 88.2096 17.744 87.9812 16.7673C87.7528 15.8688 87.3341 15.0484 86.7632 14.3061C86.2303 13.6419 85.5452 13.095 84.7839 12.7434C83.9085 12.3136 82.995 12.1574 82.0434 12.1574C81.5105 12.1574 80.9776 12.1964 80.4448 12.3136C79.9499 12.4308 79.4551 12.5871 78.9984 12.7824V5.35959L74.8876 6.02374V26.9249C75.2301 27.0812 75.6488 27.1984 76.1436 27.2765C76.6385 27.3937 77.1333 27.4719 77.6281 27.55C77.8945 27.5695 78.161 27.5988 78.4274 27.6281C78.6939 27.6574 78.9603 27.6867 79.2267 27.7063L79.2268 27.7063C79.7597 27.7453 80.2925 27.7844 80.7873 27.7844C81.8911 27.7844 82.9569 27.6281 83.9846 27.2375C84.86 26.8859 85.6594 26.3389 86.3445 25.6357C86.9916 24.9325 87.4864 24.1121 87.7909 23.1744ZM68.2646 27.3547C69.1781 27.2375 70.0917 27.0421 70.9671 26.8077V12.4308H66.8563V23.8776C66.6682 23.9328 66.48 23.949 66.265 23.9676C66.1756 23.9753 66.0815 23.9834 65.9809 23.9949C65.6383 24.0339 65.3338 24.0339 65.0293 24.0339C64.0777 24.0339 63.4307 23.7214 63.0881 23.1354C62.7455 22.5493 62.5552 21.5727 62.5552 20.2053V12.4308H58.4444V20.6741C58.4444 21.6117 58.5206 22.5884 58.7489 23.487C58.9393 24.3074 59.2818 25.0497 59.7766 25.7138C60.3095 26.3389 60.9566 26.8077 61.7178 27.1203C62.7075 27.4719 63.7352 27.6672 64.8009 27.6281C65.9428 27.6281 67.1228 27.55 68.2646 27.3547ZM47.3978 17.3534C47.2624 17.5096 47.1271 17.6659 46.9875 17.8222V5.35959L42.8767 6.02374V27.4328H46.9875V20.9085C47.4823 21.2992 47.9391 21.768 48.3578 22.2759C48.8526 22.8228 49.3094 23.4088 49.728 23.9949C49.9673 24.3877 50.2215 24.7651 50.4719 25.1367C50.6199 25.3565 50.7666 25.5742 50.908 25.792C51.0056 25.9423 51.1008 26.0875 51.1934 26.2289C51.4619 26.6386 51.7093 27.0161 51.9357 27.3937H56.6555C56.351 26.7687 55.9704 26.0654 55.5136 25.3231C55.0568 24.5809 54.524 23.7995 53.9911 23.0572C53.4201 22.2759 52.8492 21.5727 52.2783 20.8694C51.7454 20.2053 51.1744 19.6193 50.5654 19.0333C51.6693 17.9394 52.6589 16.8455 53.6105 15.7906C54.0031 15.3373 54.4028 14.8694 54.8095 14.3934C55.349 13.7619 55.9009 13.1159 56.4652 12.4699H51.5931C51.5366 12.5362 51.4766 12.6061 51.4139 12.6791C51.1812 12.9501 50.9114 13.2643 50.6416 13.6029C50.4448 13.8497 50.2354 14.0966 50.0135 14.3583C49.8491 14.5521 49.6778 14.7541 49.4997 14.9702C49.081 15.439 48.6623 15.9078 48.2436 16.4157C47.9391 16.7283 47.6684 17.0408 47.3978 17.3534Z" fill="white"/>
</svg>
