<svg width="123" height="40" viewBox="0 0 123 40" fill="none" xmlns="http://www.w3.org/2000/svg">
<path fill-rule="evenodd" clip-rule="evenodd" d="M7.70427 3.11284H12.2957V12.2957H7.70427C5.16849 12.2957 3.11284 10.2401 3.11284 7.70427C3.11284 5.16849 5.16849 3.11284 7.70427 3.11284ZM15.4085 0H12.2957H7.70427C3.44931 0 0 3.4493 0 7.70427C0 10.2152 1.20121 12.4456 3.06035 13.8522C1.20121 15.2587 0 17.4891 0 20C0 22.5109 1.20118 24.7413 3.06029 26.1478C1.20118 27.5544 0 29.7846 0 32.2957C0 36.5507 3.44931 40 7.70427 40C11.9592 40 15.4085 36.5507 15.4085 32.2957V27.7043V26.1873C16.6908 27.1404 18.2796 27.7043 20 27.7043C24.2551 27.7043 27.7041 24.255 27.7041 20C27.7041 17.4891 26.5032 15.2587 24.6439 13.8521C26.5032 12.4456 27.7041 10.2152 27.7041 7.70427C27.7041 3.4493 24.2551 0 20 0H15.4085ZM20 12.2957H15.4085V3.11284H20C22.5359 3.11284 24.5913 5.16849 24.5913 7.70427C24.5913 10.2401 22.5359 12.2957 20 12.2957ZM12.2957 24.5914H7.70427L7.68606 24.5914C5.15866 24.5816 3.11284 22.5297 3.11284 20C3.11284 17.4642 5.16849 15.4086 7.70427 15.4086H12.2957V19.9882V20V20.0118V24.5914ZM7.68606 27.7043C5.15866 27.7141 3.11284 29.7659 3.11284 32.2957C3.11284 34.8314 5.16849 36.8872 7.70427 36.8872C10.2401 36.8872 12.2957 34.8314 12.2957 32.2957V27.7043H7.70427L7.68606 27.7043ZM20 15.4086C17.4673 15.4086 15.4135 17.4593 15.4085 19.9909V20.0092C15.4135 22.5407 17.4673 24.5914 20 24.5914C22.5359 24.5914 24.5913 22.5358 24.5913 20C24.5913 17.4642 22.5359 15.4086 20 15.4086ZM34.274 3.97344V28.8529L37.4442 28.8651V17.023H45.1037V13.8886H37.4442V7.10777H47.4148V3.97344H34.274ZM53.1382 9.02251C54.2877 9.02251 55.2074 8.08343 55.2074 6.93702C55.2074 5.79062 54.2756 4.85154 53.1382 4.85154C51.9887 4.85154 51.0691 5.79062 51.0691 6.93702C51.0691 8.08343 52.0008 9.02251 53.1382 9.02251ZM51.5289 12.1568V28.8529H54.6991V12.1568H51.5289ZM66.473 11.6695C62.25 11.6695 59.3097 15.2672 59.3097 19.5358C59.3097 23.8043 62.25 27.4021 66.473 27.4021C68.409 27.4021 69.9942 26.6459 71.1558 25.4264V27.6338C71.1558 30.4023 69.0019 32.7073 66.1826 32.7073C65.1662 32.7073 64.1619 32.317 63.3632 31.756L61.766 34.5367C63.0365 35.366 64.5491 35.8416 66.1705 35.8416C70.6718 35.8416 74.3139 32.1707 74.3139 27.6338V12.1573H71.1558V13.6452C69.9942 12.4256 68.409 11.6695 66.473 11.6695ZM62.492 19.5358C62.492 16.8893 64.5007 14.8038 66.8239 14.8038C69.1472 14.8038 71.1558 16.8893 71.1558 19.5358C71.1558 22.1823 69.1472 24.2678 66.8239 24.2678C64.5007 24.2678 62.492 22.1823 62.492 19.5358ZM82.3726 18.304C82.3726 16.4136 83.8972 14.8038 85.7727 14.8038C87.6483 14.8038 89.1729 16.4014 89.185 18.2918V28.8534H92.3553V18.2918C92.3553 16.4014 93.8799 14.7916 95.7554 14.7916C97.631 14.7916 99.1556 16.4014 99.1556 18.2918V28.8534H102.326V18.243C102.314 14.6087 100.063 11.6695 96.4451 11.6695C94.2792 11.6695 92.4884 12.8403 91.3872 14.4867C90.395 12.7793 88.6889 11.6695 86.4625 11.6695C84.6716 11.6695 83.3043 12.4744 82.3726 13.6818V12.1573H79.2023V28.8534H82.3726V18.304ZM119.242 14.0477C117.826 12.572 115.89 11.6695 113.652 11.6695C108.933 11.6695 105.569 15.7063 105.569 20.5114C105.569 25.3166 108.92 29.3534 113.652 29.3534C115.89 29.3534 117.826 28.4387 119.242 26.9752V28.8534H122.412V12.1573H119.242V14.0477ZM108.751 20.5114C108.751 17.3283 111.171 14.8038 114.003 14.8038C116.822 14.8038 119.254 17.3161 119.254 20.5114C119.254 23.6946 116.834 26.2191 114.003 26.2191C111.171 26.2069 108.751 23.6946 108.751 20.5114Z" fill="white"/>
</svg>
