<svg width="102" height="40" viewBox="0 0 102 40" fill="none" xmlns="http://www.w3.org/2000/svg">
<path d="M13.4187 35.6684C11.703 34.3263 9.89042 33.0395 8.63129 31.2131C6.01619 27.9891 3.98222 24.3363 2.6124 20.4067C1.78221 17.8746 1.49164 15.1627 0.412388 12.7274C-0.708372 10.9564 0.6061 9.01924 2.54322 8.46578C3.40108 8.29974 4.9231 7.48339 3.09668 8.06452C1.45013 9.2683 1.29793 6.97144 2.98598 6.81924C4.13442 6.66703 4.56335 5.72615 4.16209 4.88212C2.93064 4.0796 7.15078 3.19406 5.01996 1.99028C2.80611 -0.403438 8.11934 -0.860044 6.80487 1.85192C6.48663 3.94124 10.5131 1.46449 9.58601 3.87205C10.5407 5.03432 13.142 4.13495 13.0728 5.75382C14.4565 5.85068 14.9269 7.01295 16.2276 7.09597C17.5697 7.70477 20.0049 8.18905 20.4615 9.69724C19.1332 10.7488 16.0338 7.51106 15.8955 10.4444C16.2967 14.7614 16.1999 19.2168 17.7772 23.3262C18.5244 25.8168 20.337 27.7816 21.9697 29.7187C23.5332 31.6143 25.6502 32.9565 27.8226 34.0772C29.732 34.9489 31.7522 35.5854 33.8276 35.9313C34.6717 35.2948 36.1522 32.9011 37.4528 33.9112C37.522 35.0458 34.8515 36.2772 37.3283 36.1527C38.7811 35.7099 39.7912 37.2735 40.9811 35.8621C42.0881 37.1628 45.561 35.0319 44.7723 37.6886C43.7208 38.3665 42.1711 37.9653 41.1057 38.8923C39.3623 38.0206 37.9648 39.681 36.0276 39.4596C33.8691 39.8332 31.6968 40.0131 29.5106 39.9993C25.9408 39.7225 22.288 39.598 18.8842 38.3527C16.9747 37.8546 15.1068 36.7615 13.4187 35.6684ZM16.4489 36.9829C18.3169 37.7854 20.1571 38.6433 22.2049 38.9062C25.4565 39.3628 28.8188 40.0546 32.0842 39.4181C30.6037 38.754 29.0817 39.681 27.6012 38.9338C25.8301 39.3213 23.9345 38.837 22.1496 38.6018C20.1018 37.6886 17.9018 37.0659 15.9923 35.8898C13.5986 35.0181 17.2238 37.0106 17.8741 37.1766C19.3685 38.0206 16.2276 36.7477 15.7848 36.3879C14.5395 35.6823 14.3735 35.8345 15.6603 36.5401C15.9232 36.6923 16.1722 36.8445 16.4489 36.9829ZM12.8791 34.4646C14.6917 35.1426 12.8653 33.1917 12.0351 33.3024C11.6615 32.6659 10.6238 32.2646 11.3571 31.9187C10.0426 32.3753 9.97344 30.1753 9.36463 30.4936C7.96714 30.0508 8.825 28.4873 7.16462 27.5325C7.01242 26.5225 5.51807 25.6508 5.03379 24.1287C4.82625 23.3539 3.34573 21.1124 4.24511 23.1879C5.01996 25.1942 6.38977 26.9099 7.52437 28.6256C8.40991 30.2583 9.44765 31.9602 11.0527 32.9841C11.5923 33.5099 12.1181 34.2986 12.8791 34.4646ZM7.66274 28.7225C7.99481 29.3174 7.71808 28.4457 7.66274 28.7225ZM15.0514 35.2672C15.4527 35.0873 14.4841 35.0458 15.0514 35.2672ZM16.0338 35.6269C15.937 35.1288 15.5911 35.9036 16.0338 35.6269ZM17.2653 36.1389C17.8603 35.5854 16.3659 35.7791 17.2653 36.1389ZM19.3823 37.315C19.742 36.7892 18.2477 37.1213 19.3823 37.315ZM15.3282 34.4923C16.2414 33.8973 14.1521 34.4785 15.3282 34.4923ZM16.2552 34.9489C16.2276 34.6307 15.9231 35.0873 16.2552 34.9489ZM20.8766 37.8269C21.6238 38.2974 25.2075 38.8508 22.966 38.0206C22.5785 38.1037 18.7873 36.9552 20.8766 37.8269ZM13.5433 32.1263C13.4741 31.808 12.381 31.7804 13.5433 32.1263ZM15.6879 33.3716C16.2552 32.9841 14.5257 33.0672 15.6879 33.3716ZM17.5005 34.4785C18.303 34.1741 16.1999 34.1741 17.5005 34.4785ZM12.6577 31.1577C13.5294 31.8219 16.1722 31.2407 13.986 30.7565C12.9898 30.2307 10.7621 29.8709 12.2841 31.0747L12.6577 31.1577ZM18.7181 34.8521C19.0917 34.2433 17.1961 34.5062 18.7181 34.8521ZM16.8779 33.3992C19.0087 34.008 15.0791 32.0571 16.3521 33.1778L16.6288 33.3024L16.8779 33.3992ZM20.5722 35.5301C22.5924 35.5439 18.7458 35.2533 20.5722 35.5301ZM11.8829 29.9954C11.8137 29.6219 11.3848 30.037 11.8829 29.9954ZM23.9899 37.4533C24.0452 36.7753 23.3257 37.9514 23.9899 37.4533ZM15.3282 32.0986C15.2036 31.7527 14.7055 32.0986 15.3282 32.0986ZM12.0766 29.7602C13.2389 29.691 10.4854 29.2483 12.0766 29.7602ZM8.23003 27.2696C8.07783 26.7162 6.97091 26.2734 8.23003 27.2696ZM18.3445 33.6898C18.2477 33.7451 18.1232 33.4546 18.3445 33.6898ZM24.6402 37.564C24.6125 37.1904 24.2943 37.7024 24.6402 37.564ZM17.7911 33.1225C17.9018 32.6382 16.7949 32.9703 17.7911 33.1225ZM13.1005 30.1476C13.9584 30.0508 11.7168 29.5665 13.1005 30.1476ZM21.0288 35.0735C22.371 34.5477 19.7144 34.8106 21.0288 35.0735ZM16.9055 32.2785C18.4552 32.4722 15.0653 31.2269 16.5596 32.1678L16.9055 32.2785ZM22.288 35.5854C23.727 34.7275 23.2565 37.6055 24.737 35.8345C26.2037 34.769 23.4779 37.1489 25.2767 36.0282C26.5773 35.1565 28.5144 36.4433 29.7182 36.8584C30.5899 36.8169 31.4478 37.6194 32.3471 37.1351C34.0767 36.6647 28.971 36.4433 30.3132 35.6131C28.7358 36.0697 27.5597 35.0596 26.7848 34.0495C25.0138 33.6344 22.966 32.7351 22.0804 31.1715C21.7207 30.5766 22.6062 31.2546 21.776 30.286C20.7106 29.3313 20.171 28.252 19.4515 27.1036C18.5936 26.647 18.4967 25.3049 18.4137 27.0621C18.4137 25.9552 17.376 25.208 17.1269 25.5124C17.1269 24.447 18.2339 24.9728 17.459 24.1979C17.293 23.091 16.7395 21.9426 16.5735 20.6835C16.3106 20.0746 16.532 18.7878 15.6879 20.1577C15.3835 21.5967 15.5772 18.3866 16.0615 19.452C16.698 18.3727 15.8401 18.4973 15.7986 18.6495C16.2137 17.7363 16.0615 16.4495 15.6879 16.9337C15.9093 15.9652 16.0338 13.3778 15.3559 13.8344C15.7709 12.8243 16.1307 9.21296 14.3596 10.5828C13.6401 10.5966 12.3948 10.8457 11.8137 11.1362C13.654 12.1463 11.6338 11.496 10.8728 11.3438C10.776 12.2847 10.0288 11.8834 9.10174 11.8834C10.5822 12.0633 8.38224 13.4054 7.52437 12.8796C6.41745 13.4054 8.47909 14.7199 7.55204 15.135C7.66274 15.7438 5.86399 14.9136 6.00235 16.3249C4.9231 15.8683 5.85015 18.013 6.38977 17.2935C8.2162 17.7916 7.67657 18.9124 7.71808 19.9778C7.39984 20.6004 6.23757 18.5111 7.44135 18.608C6.48663 17.0583 6.38977 18.0545 5.60109 18.7602C5.42122 18.8155 7.62123 19.7841 6.23757 20.2684C7.45519 20.4621 7.48286 21.5136 7.73192 22.1916C8.46526 22.9526 8.31305 21.3476 9.18476 22.2608C8.63129 21.4445 6.25141 19.9639 8.16085 20.4344C8.14701 19.618 7.81494 18.9539 8.39607 18.9677C8.97721 17.9161 7.78726 21.5552 9.10174 20.2268C9.46149 20.0746 9.55834 19.1753 10.2087 20.3099C11.1495 21.2369 10.5546 21.9149 9.21243 21.0709C9.44765 21.8872 10.9973 22.164 10.7068 23.4369C11.0112 24.5438 11.4401 24.1426 11.8137 24.0734C12.1043 25.1527 12.2703 24.364 12.2841 23.8382C13.6401 24.1287 13.3219 24.9313 13.737 25.4847C14.664 25.8998 12.4087 22.6344 13.9999 24.5023C15.6741 26.0244 14.6364 26.647 13.1282 26.4118C14.0829 26.3288 14.3873 27.6986 15.5911 27.6571C16.6842 28.169 17.4175 30.1615 15.5357 29.3313C14.8854 28.7502 12.5885 28.0168 14.4565 29.1376C16.1999 29.9401 17.5697 30.4244 19.2439 31.4344C20.4477 32.2923 20.9597 33.2747 21.4163 33.4684C20.4062 33.9527 18.3861 33.081 19.8804 32.8181C18.9395 32.6521 17.8879 32.1678 18.7873 33.3439C19.5483 33.9804 21.4993 33.9112 21.8452 33.9804C21.5546 34.6307 21.0427 34.686 21.859 34.7414C20.9873 35.2395 22.1911 35.3087 22.288 35.5854ZM20.4339 30.3275C19.8804 29.7464 19.742 28.6671 20.337 29.608C20.6414 29.7325 21.3056 31.3791 20.4339 30.3275ZM26.4804 34.1741C26.8263 34.1602 26.4943 34.437 26.4804 34.1741ZM19.5483 28.9024C19.742 29.5803 19.5207 28.0307 19.5483 28.9024ZM18.9534 28.0998C19.8251 28.4734 18.2477 26.7577 18.9534 28.0998ZM11.6615 23.0633C12.0628 22.9526 11.8552 23.769 11.6615 23.0633ZM17.4728 26.2042C17.7496 27.0067 17.7081 25.2633 17.4728 26.2042ZM13.3496 23.3539C13.9584 23.852 13.059 22.8419 13.3496 23.3539ZM16.8779 24.4747C16.2137 22.9942 17.3483 23.6721 17.0301 24.7237L16.8779 24.4747ZM10.8036 20.4344C10.5131 19.9501 10.0288 18.5249 10.181 18.096C10.3194 18.8017 11.6892 21.1401 10.8451 19.0646C9.91809 17.3212 11.9521 19.6319 12.1596 20.0608C12.2565 20.4897 11.5923 19.9363 12.0489 20.9602C11.2187 19.8117 11.5508 21.5967 10.8036 20.4344ZM8.92186 19.1338C9.35079 19.9224 9.00488 18.013 8.92186 19.1338ZM9.76589 19.4243C10.4577 20.6281 10.1671 18.5803 9.76589 19.4243ZM7.74575 17.8608C7.05393 17.169 6.54198 16.5325 7.77343 17.4319C8.24387 17.4457 6.70801 15.979 7.88412 16.9614C9.11557 17.1966 8.49293 18.9954 7.74575 17.8608ZM8.81117 17.8331C9.21243 17.4319 9.01872 18.2344 8.81117 17.8331ZM9.46149 18.0545C10.2087 18.525 8.85268 16.8922 9.46149 18.0545ZM8.16085 16.8092C6.12688 14.9966 10.7068 17.7501 8.49293 17.1413L8.16085 16.8092ZM13.9722 20.1853C13.0867 19.6595 13.737 16.4771 14.0414 18.6495C14.8992 18.3727 13.9999 19.7702 14.6364 19.7564C14.5395 20.6419 14.2489 20.9602 13.9722 20.1853ZM16.1307 21.4583C16.3106 22.1086 16.2137 20.4897 16.1307 21.4583ZM15.7571 21.0847C15.854 20.6696 15.7709 21.569 15.7571 21.0847ZM8.56211 16.2004C7.26148 14.4017 12.3533 18.0268 9.3923 16.657C9.0879 16.5878 8.71431 16.5602 8.56211 16.2004ZM12.6992 18.4004C12.976 18.6495 12.5885 16.8784 12.6992 18.4004ZM15.854 20.4206C16.0892 19.5627 15.8678 21.0017 15.854 20.4206ZM8.75582 15.5224C9.53067 15.3564 11.9659 16.8784 9.72438 15.9514C9.48916 15.6746 8.94953 15.813 8.75582 15.5224ZM15.4112 18.8432C15.4942 17.2935 15.8816 17.9161 15.4112 19.0646V18.8432ZM9.32312 14.9828C9.64136 14.5124 8.47909 12.8935 9.48916 14.4017C9.91809 14.7476 10.7483 14.9828 10.0149 15.1212C11.1772 16.1312 9.75205 15.3979 9.32312 14.9828ZM15.0791 18.3589C15.3005 16.5878 15.2728 19.3967 15.0791 18.3589ZM8.6728 13.3501C8.92186 13.2532 8.79733 13.6683 8.6728 13.3501ZM10.181 14.2495C10.8866 15.1488 10.5546 13.4331 10.181 14.2495ZM14.415 16.6017C14.4842 17.0583 14.4011 16.2834 14.415 16.6017ZM14.1659 16.0482C14.7055 16.8231 13.5709 14.6092 14.1659 16.0482ZM13.8062 15.1073C14.1382 15.8545 13.7093 14.4985 13.8062 15.1073ZM14.3873 14.1526C13.986 13.4469 14.8992 11.0255 14.9961 12.5199C14.5672 13.696 14.8716 14.3463 15.176 12.7828C15.7294 11.5375 15.0653 15.2042 14.3873 14.1526ZM14.9961 10.5551C15.1621 10.3337 15.0376 10.818 14.9961 10.5551ZM13.986 30.3967C14.0137 30.5351 13.7508 30.1892 13.986 30.3967ZM16.0615 31.4483C17.2099 31.7388 17.2099 31.2684 16.1722 31.13C15.6049 30.6043 13.8338 30.0508 15.425 31.0609C15.5219 31.3376 15.8678 31.3237 16.0615 31.4483ZM11.9659 28.7225C12.6024 29.1929 14.3596 30.0646 12.8653 28.9024C13.3634 28.3212 11.8967 28.003 12.3948 27.6156C11.1634 26.8545 11.4263 26.9237 12.2841 26.9514C10.8036 26.2872 12.5055 26.3426 12.4225 25.9967C11.8552 25.886 9.58601 24.9866 10.9143 26.0659C9.55834 25.374 10.5961 26.3288 10.181 26.2181C8.79733 25.8445 11.4124 27.2696 9.9596 26.9237C10.7621 27.5602 12.1043 28.5426 10.2917 27.5879C10.0703 27.9476 11.5923 28.4734 11.9659 28.7225ZM14.1382 29.9678C16.7672 30.8256 12.8376 28.9439 14.1382 29.9678ZM25.249 36.7062C25.2767 36.1804 24.8754 37.1489 25.249 36.7062ZM26.3836 37.1904C26.9924 36.5955 26.4112 38.1313 27.3936 37.0521C27.4075 36.2772 27.366 35.8206 26.2591 36.7615C25.9546 36.9275 25.8163 37.647 26.3836 37.1904ZM8.25771 25.803C8.064 25.0696 6.94324 25.0696 8.25771 25.803ZM9.47532 26.6055C9.01872 25.8583 7.85645 25.9275 9.47532 26.6055ZM16.4074 30.7841C17.0854 31.3929 19.5207 31.2269 17.2238 30.8533C16.8917 30.3552 15.0791 30.4797 16.4074 30.7841ZM25.9546 36.6785C26.9924 35.8068 24.9446 37.0659 25.9546 36.6785ZM28.127 38.1728C28.127 37.8823 27.6704 38.2835 28.127 38.1728ZM28.127 37.7716C29.2754 36.554 27.0062 37.8408 28.127 37.7716ZM5.25518 23.2986C4.27278 21.9011 4.64637 21.2646 3.69165 20.1162C3.51177 19.2444 2.05894 17.252 2.94447 19.3551C3.74699 20.5866 3.99605 22.496 5.25518 23.2986ZM27.7534 37.3842C29.8842 36.0143 26.8817 36.7892 27.7534 37.3842ZM29.3861 38.0206C30.4377 37.1074 28.7081 37.8269 29.3861 38.0206ZM7.89796 24.2533C8.20236 23.7967 7.10927 24.1979 7.89796 24.2533ZM29.0402 37.5917C30.0641 36.9275 28.805 37.0244 28.8465 37.647L29.0402 37.5917ZM15.0653 28.7778C15.0376 28.3351 14.5257 28.8193 15.0653 28.7778ZM15.937 29.2759C15.6603 28.7225 15.5081 29.359 15.937 29.2759ZM30.6867 38.0345C32.0012 37.0797 29.8842 37.8546 30.41 38.2143L30.6867 38.0345ZM30.1886 37.7854C31.2679 36.886 29.054 38.1867 30.1886 37.7854ZM32.7622 39.515C33.4956 39.0307 31.8905 39.3489 32.7622 39.515ZM8.54827 23.9212C9.51683 24.1426 12.4087 26.3011 10.7068 24.0734C9.83507 23.8105 10.3609 21.6797 9.46149 22.0533C10.0565 23.0495 9.9596 23.4784 8.70048 22.8558C7.12311 22.0809 7.81494 23.2432 8.11934 23.5614C7.70425 23.6445 8.6728 23.9212 8.54827 23.9212ZM4.14825 20.4482C4.31429 19.7287 2.55705 16.5048 3.31806 18.8294C3.59479 19.3136 3.56712 20.2407 4.14825 20.4482ZM12.2426 25.4294C12.215 25.374 11.7445 25.0143 12.2426 25.4294ZM13.4602 25.72C13.4602 24.9589 12.1043 25.4155 13.4602 25.72ZM24.0867 32.4168C23.893 31.891 23.298 32.403 24.0867 32.4168ZM24.5987 32.7904C24.5295 32.4999 24.3081 32.8458 24.5987 32.7904ZM28.8188 35.447C29.2201 35.1426 28.3069 35.4055 28.8188 35.447ZM6.34826 21.0017C7.51053 20.5589 5.10298 20.6834 6.34826 21.0017ZM23.1597 31.5866C23.1458 30.8395 22.4125 31.7804 23.1597 31.5866ZM5.89166 19.9363C6.63883 19.6872 5.19983 19.7702 5.89166 19.9363ZM8.05016 20.9879C8.03632 20.7388 7.82878 21.0847 8.05016 20.9879ZM34.4088 37.1489C35.3635 36.9552 37.5497 37.6332 37.8956 36.8999C36.7333 36.8722 33.8691 36.0835 33.7446 37.0936L33.9937 37.1351L34.4088 37.1489ZM8.74199 21.1539C8.75582 20.3929 8.14702 21.1262 8.74199 21.1539ZM3.05517 17.2243C2.80611 15.7715 2.07277 17.0029 3.05517 17.2243ZM4.41115 17.5564C4.42499 17.0998 3.1797 17.1413 4.41115 17.5564ZM5.18599 17.9438C5.01996 18.1652 4.96461 17.7639 5.18599 17.9438ZM10.0565 21.0709C10.2917 20.8495 9.51683 20.9048 10.0565 21.0709ZM4.67404 17.086C4.53568 15.9929 3.09668 16.9199 4.67404 17.086ZM1.8929 15.2872C1.85139 14.7752 1.63 15.4671 1.8929 15.2872ZM2.30799 14.969C2.23881 14.374 1.94824 15.052 2.30799 14.969ZM4.59102 16.3388C5.55958 15.9652 2.83378 15.5501 4.39731 16.2696L4.59102 16.3388ZM35.1421 35.198C35.7648 34.6307 34.3534 35.0319 35.1421 35.198ZM38.8365 37.1213C39.0855 36.3879 38.2 37.2043 38.8365 37.1213ZM4.82625 15.135C4.9231 14.4293 4.06524 15.2734 4.82625 15.135ZM1.57466 12.9627C1.39478 11.9664 1.42246 10.2092 3.09668 10.8042C0.868994 11.2469 4.63253 13.5715 4.16209 11.7312C5.10298 11.7727 5.98851 11.1777 5.50423 12.091C7.34449 11.8834 8.63129 10.2922 10.4162 10.5136C11.7999 10.3337 13.3219 10.1954 14.8162 9.62805C16.0477 9.54503 17.2238 8.21673 16.5596 7.42804C14.8854 7.28968 13.1282 7.49723 11.2741 7.87081C9.22626 8.29975 7.34449 9.1161 5.28285 9.46202C3.26272 9.73875 5.68411 10.2092 5.11681 10.3199C4.06524 10.6796 6.37594 10.9287 4.97845 11.3161C4.12058 11.1501 3.22121 10.8595 3.59479 9.94629C1.65768 10.1954 -0.0442186 10.9979 1.49164 12.9765H1.57466V12.9627ZM6.23757 10.5828C6.69418 8.90855 8.6728 11.9664 6.98474 10.8042C6.7772 10.652 6.45896 10.5274 6.23757 10.5828ZM6.33443 9.76642C6.98474 9.28214 6.68034 10.0432 6.33443 9.76642ZM7.16462 9.78025C7.21997 9.00541 9.07406 10.1815 7.46902 10.057L7.16462 9.78025ZM8.29922 9.32365C8.71431 8.83937 8.42374 9.76642 8.29922 9.32365ZM8.58978 9.12994C9.28161 8.29975 12.5055 8.60415 10.1395 9.04692C9.51683 8.57648 9.03255 9.33749 8.58978 9.12994ZM12.7961 8.47962C14.8992 9.29598 12.6992 6.21043 12.7961 8.47962ZM13.9999 8.47962C14.4288 7.33119 15.6879 8.02301 14.2074 8.2444C14.2351 8.36893 14.1521 8.83937 13.9999 8.47962ZM4.3558 14.5539C5.65644 13.7513 2.97215 13.862 4.3558 14.5539ZM5.32436 14.8168C5.78097 14.3325 4.32813 14.623 5.32436 14.8168ZM2.47403 12.7966C3.22121 12.2293 1.58849 12.5752 2.47403 12.7966ZM41.0088 36.8999C41.0365 36.2357 40.4415 37.2043 41.0088 36.8999ZM37.0931 34.2294C37.2038 33.4684 36.5949 34.2986 37.0931 34.2294ZM42.0881 37.1628C43.1258 37.1628 45.2428 36.8445 42.9736 36.8445C42.6138 36.8999 40.8981 36.886 42.0881 37.1628ZM6.16839 14.3463C7.01242 14.291 7.48286 13.4193 6.00235 13.4608C3.70549 13.2256 8.03632 14.2495 5.71178 13.9589C5.39354 14.1664 6.15455 14.4017 6.16839 14.3463ZM6.91556 14.7199C6.81871 14.1803 6.65267 15.0105 6.91556 14.7199ZM7.78726 12.3677C8.16085 11.9249 7.28915 12.257 7.78726 12.3677ZM4.99228 7.6771C6.50047 7.16515 8.56211 6.58401 9.26777 7.92616C8.54827 7.05446 8.97721 6.19659 9.6552 7.46955C10.6238 8.75635 11.108 6.88842 10.4716 6.44565C11.1911 7.33119 12.0074 7.76012 10.9558 6.50099C12.1043 5.13118 8.6728 6.68087 7.88412 6.66703C7.51053 6.84691 4.00989 7.58024 4.99228 7.6771ZM5.86399 5.98904C6.72185 5.33873 8.83884 6.37647 7.48286 5.33873C7.35833 5.22803 4.52184 6.12741 5.86399 5.98904ZM9.00488 6.11357C10.0149 6.14124 8.57595 4.75759 9.76589 5.39407C9.57218 4.75759 8.3684 4.63306 7.78726 4.37017C7.45519 4.96514 8.45142 6.12741 9.00488 6.11357ZM6.41745 3.27708C6.76336 2.80664 5.80864 3.5123 6.41745 3.27708ZM7.69041 3.58149C9.30928 3.37394 7.27531 2.88966 7.35833 3.56765L7.69041 3.58149ZM5.31052 1.71355C4.17593 0.219207 7.45519 1.96261 6.29292 0.399082C5.31052 -0.375765 4.38348 1.28462 5.31052 1.71355ZM19.9496 9.60038C20.4754 8.67333 17.7911 8.35509 19.5898 9.2683C19.7559 9.32365 19.7144 9.65573 19.9496 9.60038Z" fill="white"/>
<path d="M44.6337 3.20791C44.4539 3.94124 44.3293 5.18653 44.2878 6.92994C44.2878 7.27585 44.1356 7.44189 43.8312 7.44189C43.5407 7.45572 43.2778 7.27585 43.1947 6.99912C42.8627 6.1966 42.5444 5.6293 42.2539 5.31106C41.8803 4.92364 41.3822 4.68842 40.8564 4.63307C40.2337 4.53621 38.6702 4.48087 36.1658 4.48087C35.5985 4.48087 35.2249 4.53621 35.045 4.66074C34.9343 4.72993 34.879 4.9098 34.879 5.15886V12.6444C34.879 12.8935 35.0312 13.018 35.3633 13.0042C36.3457 12.9903 37.757 12.9212 39.6249 12.8105C39.9847 12.769 40.2337 12.6444 40.3583 12.4507C40.4828 12.257 40.6073 11.7589 40.7318 10.9564C40.8149 10.5136 41.0639 10.3476 41.5067 10.4444C41.8803 10.5274 42.0463 10.6935 41.991 10.9564C41.6866 12.4507 41.5759 14.4017 41.7004 16.7954C41.7142 17.086 41.5344 17.2382 41.1608 17.252C40.8564 17.2797 40.6627 17.1136 40.5796 16.7539C40.2891 15.3841 39.7633 14.6369 38.9884 14.5539C38.2136 14.457 36.9545 14.4155 35.1972 14.4155C35.0035 14.4155 34.9067 14.4847 34.9067 14.6231V22.0533C34.9067 22.6067 35.1142 22.9803 35.5155 23.174C35.8337 23.3401 36.5255 23.4923 37.5771 23.6168C38.1167 23.6721 38.352 23.9074 38.2828 24.3225C38.2136 24.6822 37.7293 24.8344 36.8299 24.7514C34.2287 24.5439 32.0702 24.5577 30.3683 24.7791C29.8978 24.8483 29.6626 24.6545 29.6626 24.1979C29.6626 23.9074 29.8978 23.7413 30.3683 23.6998C31.4475 23.5753 31.9871 22.6344 31.9871 20.8633V6.75006C31.9871 6.03056 31.8626 5.46326 31.5997 5.07584C31.3368 4.68842 30.8525 4.32867 30.1607 4.01043C29.7179 3.81671 29.5519 3.53998 29.6626 3.19407C29.7179 2.98652 29.801 2.87583 29.9255 2.84816C30.05 2.82048 30.3268 2.83432 30.7972 2.91734C31.489 3.02803 33.1217 3.08338 35.6953 3.08338C38.7394 3.08338 41.3545 3.0142 43.5683 2.88967C44.3017 2.84816 44.6752 2.9035 44.6752 3.06954C44.6476 3.11105 44.6476 3.15256 44.6337 3.20791Z" fill="white"/>
<path d="M55.3712 24.1839C55.3712 24.6267 55.1221 24.8204 54.624 24.7651C53.102 24.6267 51.2202 24.6405 48.9787 24.8342C48.5221 24.8757 48.2454 24.8619 48.1485 24.8066C48.0378 24.7374 47.9963 24.5575 47.9963 24.2669C47.9963 24.004 48.3007 23.7827 48.8957 23.6028C49.4907 23.4229 49.7951 22.8833 49.7951 21.9701V7.02661C49.7951 6.14107 49.6705 5.47692 49.4076 5.06182C49.1448 4.64673 48.702 4.31465 48.0378 4.09326C47.6919 3.96874 47.5259 3.8027 47.5259 3.58131C47.5259 3.24924 47.7749 3.00018 48.2731 2.83414C49.0894 2.55741 49.8781 2.18382 50.5976 1.71338C51.2617 1.31212 51.6768 1.11841 51.8567 1.11841C52.258 1.11841 52.4655 1.39514 52.4655 1.96244C52.4655 1.92093 52.4379 2.47439 52.3963 3.60899C52.3687 4.70207 52.3548 5.76749 52.3687 6.8329L52.4379 21.5827C52.4379 22.2606 52.6039 22.7449 52.936 23.0493C53.268 23.3537 53.8353 23.5474 54.6379 23.6581C55.1221 23.6858 55.3712 23.8657 55.3712 24.1839Z" fill="white"/>
<path d="M70.4251 23.0771C70.4251 23.3123 70.01 23.6582 69.166 24.1287C68.3219 24.5991 67.644 24.8344 67.1458 24.8344C66.7169 24.8344 66.3433 24.6268 66.0112 24.2117C65.6792 23.7966 65.4439 23.5891 65.3194 23.5891C65.2226 23.5891 64.6968 23.8104 63.7559 24.2671C62.8704 24.7098 61.888 24.9312 60.9056 24.945C60.0062 24.945 59.2452 24.6821 58.6364 24.1564C57.9722 23.5752 57.6401 22.7865 57.6401 21.7765C57.6401 19.867 59.8263 18.5111 64.171 17.6809C64.9182 17.5425 65.3056 17.2381 65.3056 16.7676L65.3332 15.7161C65.4024 13.9173 64.5999 13.0041 62.9395 13.0041C62.4691 13.0041 62.0125 13.433 61.5974 14.2771C61.1685 15.1211 60.5597 15.5777 59.771 15.6469C58.8716 15.7299 58.415 15.3563 58.415 14.5123C58.415 13.9865 59.093 13.3639 60.4351 12.6582C61.8464 11.9249 63.2024 11.5513 64.4892 11.5513C66.7169 11.5513 67.8238 12.6167 67.81 14.7337L67.7408 21.5413C67.727 22.2608 68.0314 22.6205 68.654 22.6205C68.8892 22.6067 69.1106 22.579 69.3458 22.5375C69.6918 22.4821 69.8855 22.4545 69.9408 22.4545C70.2729 22.4268 70.4251 22.6482 70.4251 23.0771ZM65.3332 19.3136C65.3471 19.0368 65.2779 18.857 65.1395 18.7739C65.0012 18.6909 64.7798 18.6633 64.4892 18.7186C61.8326 19.189 60.5043 20.0607 60.5043 21.306C60.5043 22.5513 61.1961 23.2016 62.5659 23.2155C63.1471 23.2155 63.7282 23.1048 64.2678 22.8972C64.9458 22.662 65.2917 22.3576 65.2917 22.0255L65.3332 19.3136Z" fill="white"/>
<path d="M82.7399 21.1124C82.7399 22.2747 82.2971 23.2017 81.3977 23.8936C80.4984 24.5854 79.2807 24.9313 77.7311 24.9313C76.6933 24.9313 75.6417 24.8206 74.6317 24.5992C73.7323 24.4055 73.2203 24.2256 73.082 24.0596C72.9851 23.9074 72.9436 23.1464 72.9436 21.8042C72.9436 21.2231 73.082 20.9187 73.3449 20.891C73.6078 20.8634 73.8291 21.0156 74.0229 21.32C74.8531 22.759 76.1814 23.4785 78.0216 23.4785C79.5713 23.4785 80.3462 22.9388 80.3462 21.8596C80.36 21.403 80.1663 20.974 79.8204 20.6696C79.4329 20.3099 78.6858 19.881 77.5788 19.3967C75.9738 18.6772 74.8946 18.0545 74.3549 17.5149C73.7738 16.9476 73.4832 16.1728 73.4832 15.2042C73.4832 14.0143 73.9398 13.0872 74.8531 12.4369C75.6971 11.8004 76.8317 11.4822 78.2568 11.4822C79.0732 11.4822 79.8896 11.5514 80.7059 11.6897C81.4946 11.8281 81.9097 12.008 81.9512 12.2155C82.0481 12.8382 82.2279 13.7237 82.4908 14.886C82.5185 15.0243 82.3663 15.1489 82.0342 15.2319C81.6745 15.3149 81.4254 15.2457 81.3147 15.052C80.443 13.6268 79.3499 12.9212 78.0078 12.9212C76.4996 12.9212 75.7524 13.4055 75.7524 14.374C75.7386 14.8721 75.96 15.3564 76.3612 15.6608C76.721 15.9375 77.5788 16.3665 78.921 16.9476C80.3323 17.5564 81.287 18.096 81.799 18.5803C82.4078 19.2168 82.7399 20.0608 82.7399 21.1124Z" fill="white"/>
<path d="M101.89 24.0871C101.89 24.4745 101.627 24.6821 101.115 24.6959C100.34 24.7097 99.3299 24.7651 98.0984 24.8619C97.4758 24.9865 97.0469 24.9034 96.784 24.6267C95.0959 22.828 93.6154 20.8632 92.3563 18.7462C92.2871 18.594 92.1487 18.4971 91.9827 18.4833C91.8028 18.4833 91.4707 18.6493 91.0141 18.9814C90.5022 19.272 90.2393 19.6732 90.2393 20.199C90.2393 20.5726 90.2531 21.1122 90.267 21.8179C90.2808 22.5236 90.4607 22.9802 90.7927 23.2015C91.028 23.3537 91.5538 23.4783 92.3978 23.5613C92.9097 23.6305 93.1726 23.8242 93.1726 24.1424C93.1726 24.3915 93.1311 24.5575 93.0481 24.6129C92.9651 24.6682 92.7437 24.6821 92.3978 24.6544C91.2909 24.5575 89.4368 24.6129 86.8217 24.8204C86.1575 24.8758 85.7978 24.7927 85.7424 24.5714C85.7147 24.4607 85.7009 24.35 85.7147 24.2393C85.7147 23.8934 86.0468 23.6443 86.7248 23.4644C87.3336 23.3122 87.638 22.5927 87.638 21.3336V6.91594C87.638 6.01656 87.555 5.38008 87.3751 5.03417C87.1399 4.57756 86.628 4.23165 85.8531 3.98259C85.4934 3.85806 85.3135 3.69202 85.3135 3.47064C85.3135 3.1524 85.5764 2.90334 86.0883 2.72346C86.9185 2.44673 87.7072 2.05931 88.4544 1.58887C89.0632 1.18761 89.4368 0.993896 89.5751 0.993896C90.0317 0.993896 90.2531 1.28447 90.2531 1.85176C90.2531 1.76874 90.2531 2.3222 90.2393 3.48447C90.2254 4.28699 90.2254 5.36624 90.2254 6.72223L90.2531 17.0581C90.2531 17.3487 90.3361 17.4871 90.4883 17.4871C90.6405 17.4871 90.9034 17.3487 91.2494 17.0581C92.1626 16.3386 93.2833 15.4116 94.6116 14.2493C94.8745 13.9726 95.0129 13.7512 95.0129 13.5851C95.0129 13.2807 94.5701 13.0732 93.6708 12.9625C93.2833 12.921 93.1034 12.6996 93.1311 12.3122C93.1588 11.9248 93.3525 11.7587 93.7123 11.8141C94.8607 11.9524 96.023 12.0078 97.1852 12.0078C98.2368 12.0216 99.2884 12.0216 100.34 12.0216C100.686 12.0355 100.852 12.2292 100.852 12.6304C100.852 13.004 100.575 13.2116 100.049 13.2392C99.2192 13.2669 98.4028 13.4606 97.6557 13.8204C96.6041 14.2908 95.4972 15.121 94.3072 16.3109C94.2242 16.3663 94.1689 16.4631 94.1689 16.56C94.1689 16.7122 94.3626 17.0858 94.7362 17.6669C96.106 19.7562 97.4066 21.3336 98.6381 22.399C99.4267 23.077 100.146 23.4091 100.838 23.4091C101.35 23.4091 101.654 23.4506 101.779 23.5198C101.834 23.589 101.89 23.7827 101.89 24.0871Z" fill="white"/>
</svg>
