<svg width="134" height="40" viewBox="0 0 134 40" fill="none" xmlns="http://www.w3.org/2000/svg">
<mask id="mask0_337_265" style="mask-type:luminance" maskUnits="userSpaceOnUse" x="0" y="0" width="32" height="40">
<path d="M31.937 18.2492L21.2913 28.8987L31.937 39.5482H19.7722L15.207 34.983L9.12268 28.8987L19.7722 18.2492H31.937ZM19.7722 0L0 19.7722L6.08432 25.8565L31.937 0H19.7722V0Z" fill="white"/>
</mask>
<g mask="url(#mask0_337_265)">
<path d="M15.207 34.9831L31.937 18.2493H19.7721L9.12646 28.8988L15.207 34.9831Z" fill="white"/>
</g>
<mask id="mask1_337_265" style="mask-type:luminance" maskUnits="userSpaceOnUse" x="0" y="0" width="32" height="40">
<path d="M31.937 18.2492L21.2913 28.8987L31.937 39.5482H19.7722L15.207 34.983L9.12268 28.8987L19.7722 18.2492H31.937ZM19.7722 0L0 19.7722L6.08432 25.8565L31.937 0H19.7722V0Z" fill="white"/>
</mask>
<g mask="url(#mask1_337_265)">
<path d="M0 19.7722L19.7722 0H31.937L6.08432 25.8565L0 19.7722Z" fill="white"/>
</g>
<mask id="mask2_337_265" style="mask-type:luminance" maskUnits="userSpaceOnUse" x="0" y="0" width="32" height="40">
<path d="M31.937 18.2492L21.2913 28.8987L31.937 39.5482H19.7722L15.207 34.983L9.12268 28.8987L19.7722 18.2492H31.937ZM19.7722 0L0 19.7722L6.08432 25.8565L31.937 0H19.7722V0Z" fill="white"/>
</mask>
<g mask="url(#mask2_337_265)">
<path d="M19.7722 39.5444H31.937L21.2914 28.8987L15.207 34.983L19.7722 39.5444Z" fill="#AAAAAA"/>
</g>
<path d="M9.12646 28.8949L15.2108 22.8105L21.2951 28.8949L15.2108 34.983L9.12646 28.8949Z" fill="#DADADA"/>
<path d="M41 8H54.4138V10.555H43.8105V18.4756H53.3918V21.0306H43.8105V30.9951H41.1278V8H41Z" fill="white"/>
<path d="M57.6077 8H60.2904V31.1229H57.6077V8Z" fill="white"/>
<path d="M70.3828 31.6339C68.3388 31.6339 66.9335 30.9952 65.7837 29.8454C64.7617 28.6956 64.2507 27.0349 64.2507 24.9909V14.6431H66.9335V24.6076C66.9335 26.1406 67.3168 27.2904 67.9555 28.0569C68.722 28.8234 69.6163 29.2066 70.8938 29.2066C71.788 29.2066 72.6823 28.9511 73.321 28.4401C74.0875 27.9291 74.5985 27.2904 74.9818 26.5239C75.365 25.7574 75.6205 24.8631 75.6205 23.9689V14.6431H78.3033V31.1229H75.7483V28.6956H75.6205C75.1095 29.4621 74.4708 30.2286 73.4488 30.7397C72.5545 31.3784 71.5325 31.6339 70.3828 31.6339Z" fill="white"/>
<path d="M89.0344 31.3786C88.3957 31.3786 87.7569 31.2508 87.1182 30.9953C86.6072 30.7398 86.0962 30.4843 85.7129 30.101C85.3297 29.7178 84.9464 29.2068 84.6909 28.6958C84.4354 28.1848 84.3077 27.546 84.3077 26.7795V17.0705H81.3694V14.6432H84.3077V10.0442H86.9904V14.6432H90.9507V17.0705H86.9904V26.013C86.9904 26.9073 87.1182 27.546 87.5014 28.057C87.8847 28.568 88.5234 28.8235 89.2899 28.8235C89.9287 28.8235 90.5674 28.6958 91.0784 28.3125V30.9953C90.6952 31.123 90.4397 31.2508 90.0564 31.3786C90.0564 31.3786 89.5454 31.3786 89.0344 31.3786Z" fill="white"/>
<path d="M100.66 31.3786C100.021 31.3786 99.382 31.2508 98.7433 30.9953C98.2323 30.7398 97.7213 30.4843 97.338 30.101C96.9548 29.7178 96.5715 29.2068 96.316 28.6958C96.0605 28.1848 95.9328 27.546 95.9328 26.7795V17.0705H93.25V14.6432H96.1883V10.0442H98.871V14.6432H102.831V17.0705H98.871V26.013C98.871 26.9073 98.9988 27.546 99.382 28.057C99.7653 28.568 100.404 28.8235 101.171 28.8235C101.809 28.8235 102.448 28.6958 102.959 28.3125V30.9953C102.576 31.123 102.32 31.2508 101.937 31.3786C101.682 31.3786 101.171 31.3786 100.66 31.3786Z" fill="white"/>
<path d="M112.796 31.6341C111.263 31.6341 109.858 31.2508 108.581 30.4843C107.303 29.7178 106.409 28.6958 105.642 27.4183C105.004 26.1408 104.62 24.6078 104.62 22.9471C104.62 21.414 105.004 19.881 105.642 18.6035C106.281 17.326 107.303 16.1763 108.453 15.4098C109.603 14.6433 111.008 14.26 112.669 14.26C114.329 14.26 115.735 14.6433 116.884 15.4098C118.034 16.1763 118.928 17.0705 119.567 18.348C120.206 19.6255 120.589 21.0308 120.589 22.6916C120.589 23.0748 120.589 23.3303 120.461 23.5858H107.303C107.431 24.8633 107.686 25.8853 108.197 26.7796C108.708 27.6738 109.475 28.3126 110.241 28.6958C111.136 29.0791 111.902 29.3346 112.796 29.3346C114.968 29.3346 116.501 28.3126 117.651 26.3963L119.95 27.5461C119.184 28.8236 118.29 29.9733 117.012 30.7398C115.99 31.2508 114.585 31.6341 112.796 31.6341ZM117.523 21.1585C117.523 20.5198 117.268 19.7533 116.884 19.1145C116.501 18.4758 115.99 17.837 115.224 17.326C114.457 16.815 113.563 16.5595 112.413 16.5595C111.136 16.5595 109.986 16.9428 109.092 17.837C108.197 18.6035 107.686 19.7533 107.303 21.1585H117.523Z" fill="white"/>
<path d="M123.655 14.6433H126.21V17.326H126.337C126.721 16.4318 127.232 15.6653 128.254 15.1543C129.148 14.5155 130.17 14.26 131.192 14.26C131.958 14.26 132.597 14.3878 133.108 14.6433V17.5815C132.469 17.1983 131.703 17.0705 130.809 17.0705C130.042 17.0705 129.276 17.326 128.637 17.7093C127.998 18.2203 127.487 18.7313 126.976 19.4978C126.593 20.2643 126.337 21.0308 126.337 21.9251V31.1231H123.655V14.6433Z" fill="white"/>
</svg>
