<svg width="97" height="41" viewBox="0 0 97 41" fill="none" xmlns="http://www.w3.org/2000/svg">
<path fill-rule="evenodd" clip-rule="evenodd" d="M54.4181 17.5136C54.4181 14.9753 56.0011 13.9216 58.1273 13.9216C60.3311 13.9216 61.6464 15.132 61.6464 17.4353C61.6464 19.4644 60.1798 20.7531 58.0148 20.7531C55.4618 20.7531 54.4181 19.4252 54.4181 17.5136ZM52.87 33.9069C52.87 33.1235 53.3705 32.4615 53.8749 31.8387L59.5163 32.2265L59.5809 32.2306C61.4049 32.346 62.8414 32.4369 62.8414 33.6719C62.8414 35.7793 59.7879 35.936 57.5453 35.936C54.841 35.936 52.87 35.466 52.87 33.9069ZM66.7486 17.9798C66.7486 16.1857 66.0114 14.9361 65.3169 14.0391L68.8748 13.7688V10.451H61.336C60.4475 10.212 59.4426 10.0593 57.7781 10.0593C51.8651 10.0593 48.928 13.1382 48.928 17.6272C48.928 20.5181 50.3597 22.5472 52.2531 23.4834C51.3219 24.3412 50.5498 25.0855 49.8553 25.8258C49.1569 26.5662 48.734 27.3496 48.734 28.2075C48.734 29.2612 49.1569 30.2366 50.4334 30.781C49.0793 32.0698 48.3072 33.0021 48.3072 34.7609C48.3072 37.8437 50.9766 39.6377 57.9721 39.6377C64.6999 39.6377 68.6032 37.1033 68.6032 32.6143C68.6032 27.485 64.7474 27.237 58.1919 26.8154L57.9721 26.8012L54.1853 26.5662L55.4618 24.4979C56.1563 24.6899 57.2776 24.8465 58.5153 24.8465C63.3846 24.8465 66.7486 22.3121 66.7486 17.9798ZM72.1999 3.43535C72.1999 5.6603 73.4764 6.94904 75.6802 6.94904C77.9228 6.94904 79.1954 5.6603 79.1993 3.43535C79.1993 1.2104 77.9228 0 75.6802 0C73.4764 0 72.1999 1.21432 72.1999 3.43535ZM70.6906 27.3183V30.4011L81.7057 30.4089V27.3261L79.7347 27.0519C79.1566 26.9696 79.1178 26.8952 79.1178 26.2685V10.071H71.1135L70.6867 13.2322L72.7741 13.9725C73.1621 14.09 73.2785 14.3642 73.2785 14.7912V26.2606C73.2785 26.8482 73.2048 26.9657 72.6616 27.0441L70.6906 27.3183ZM90.6955 30.4481C92.8993 30.4481 95.3321 29.7077 96.9966 28.8891L95.9529 25.4537C95.0256 25.8023 93.9042 26.0765 92.8217 26.0765C90.7382 26.0765 90.195 25.1795 90.195 22.8762V13.5495H95.9567V9.64797H90.5054C90.195 9.64797 90.195 9.52653 90.195 9.25625V3.71347H86.5207C86.0978 7.9675 84.7437 9.68322 81.341 10.0749V13.5495H84.0453C84.3557 13.5495 84.3557 13.7061 84.3557 13.9412V24.165C84.3557 28.5757 86.0939 30.4481 90.6955 30.4481ZM22.04 0.803018L39.717 18.6457C40.7374 19.6759 40.7374 21.3446 39.7209 22.367L22.1254 40.1274C21.1088 41.1537 19.456 41.1537 18.4394 40.1274L0.762408 22.2847C-0.254136 21.2584 -0.254136 19.5936 0.762408 18.5634L12.8795 6.33013L17.4694 10.9641C16.9961 12.1001 17.2172 13.4633 18.1368 14.3877C18.4355 14.6893 18.7847 14.9165 19.1533 15.0693V26.292C18.7809 26.4447 18.4355 26.6719 18.1368 26.9736C16.9262 28.1957 16.9262 30.1778 18.1368 31.4039C19.3473 32.626 21.3145 32.626 22.525 31.4039C23.7355 30.1778 23.7355 28.1957 22.525 26.9736C22.2806 26.7268 22.0012 26.5309 21.7063 26.3821V15.2652L25.8928 19.4918C25.4311 20.6278 25.6561 21.9792 26.5679 22.8997C27.7823 24.1219 29.7456 24.1219 30.9561 22.8997C32.1666 21.6736 32.1666 19.6916 30.9561 18.4694C30.0909 17.592 28.8377 17.3491 27.7513 17.7251L23.2622 13.193C23.6347 12.0962 23.3902 10.8349 22.525 9.95742C21.6636 9.08781 20.4221 8.84103 19.3396 9.20924L14.6836 4.50865L18.3541 0.803018C19.3706 -0.223278 21.0235 -0.223278 22.04 0.803018Z" fill="white"/>
</svg>
