<svg width="122" height="40" viewBox="0 0 122 40" fill="none" xmlns="http://www.w3.org/2000/svg">
<path d="M14.301 0.048397C10.8527 0.275263 8.42523 1.3075 5.55537 3.73497C2.68552 6.18512 0.859254 9.2478 0.178657 12.7642C-0.0595522 14.0347 -0.0595522 16.6663 0.178657 18.0275C1.35836 24.6406 6.90523 29.9947 13.541 30.8908C15.5602 31.1744 18.101 31.0042 20.2563 30.4484C21.833 30.04 22.8085 29.609 24.1697 28.6902C26.4497 27.1589 28.2646 24.9583 29.3309 22.3947C30.1022 20.5571 30.5333 17.1994 30.2724 15.1917L30.1249 14.0574L29.2175 14.0233C28.7184 14.0006 25.4855 14.012 22.0485 14.0574L15.7757 14.1368V16.2126V18.2997L16.3769 18.3565C16.6945 18.3905 18.6002 18.4359 20.6079 18.4699C24.5327 18.538 25.3608 18.6287 25.5422 19.0371C25.7805 19.5475 24.7028 22.0657 23.75 23.2454C21.7763 25.6842 18.4527 26.8299 14.4145 26.4783C12.8604 26.3535 12.0778 26.1153 10.6712 25.3893C8.00552 24.0168 6.06582 21.6687 5.15836 18.6968C4.86343 17.7553 4.84075 17.5511 4.84075 15.5887C4.84075 13.7738 4.87478 13.3768 5.0903 12.6054C5.98642 9.40661 8.07358 6.85437 11.0115 5.37974C12.1912 4.77855 12.8604 4.6084 14.3918 4.46094C17.704 4.16601 19.6324 4.64243 22.3434 6.44601C23.2622 7.04721 23.3076 7.06989 23.6139 6.91109C24.4193 6.49138 26.0981 4.63109 26.0981 4.15467C26.0981 3.46273 22.6043 1.25079 20.4378 0.570188C18.9291 0.0937702 16.6037 -0.0990657 14.301 0.048397Z" fill="white"/>
<path d="M96.8118 1.21687C96.7891 1.29628 96.7437 7.8527 96.7324 15.793C96.7097 27.556 96.7324 30.233 96.8572 30.3578C97.05 30.5393 101.031 30.5393 101.213 30.3578C101.338 30.233 101.36 1.37568 101.236 1.1715C101.202 1.11478 100.203 1.06941 99.0237 1.06941C97.3449 1.06941 96.8572 1.10344 96.8118 1.21687Z" fill="white"/>
<path d="M39.5966 11.0969C36.273 11.8002 33.6754 13.8647 32.2688 16.8933C31.781 17.9596 31.6562 18.765 31.6562 21.045C31.6562 23.359 31.7697 23.9829 32.4163 25.31C33.4258 27.3518 35.1727 29.1214 37.1351 30.0742C38.8479 30.9136 39.0634 30.959 41.4682 30.959C43.3966 30.959 43.7142 30.925 44.4742 30.6981C45.5745 30.3578 47.2533 29.473 48.1154 28.7811C49.5106 27.6694 51.0079 25.3894 51.4503 23.6993C51.6545 22.9053 51.6885 19.2527 51.4957 18.4247C51.3482 17.7667 50.6222 16.2241 50.0664 15.396C48.7506 13.4109 46.6521 11.9136 44.2473 11.2557C43.147 10.9608 40.6742 10.87 39.5966 11.0969ZM43.5213 15.4867C47.1852 16.8479 48.2401 22.2814 45.4157 25.242C43.4306 27.3178 39.8801 27.3405 37.8157 25.276C35.4449 22.9053 35.7625 18.039 38.4055 16.2127C39.8007 15.2485 42.0127 14.9309 43.5213 15.4867Z" fill="white"/>
<path d="M61.5459 11.0514C60.162 11.2783 58.7555 11.7887 57.6552 12.492C56.7704 13.0592 55.2731 14.5678 54.6379 15.5547C52.9023 18.2544 52.6528 22.1565 54.014 25.2078C55.2958 28.055 57.9388 30.2443 60.8313 30.8341C62.0791 31.095 64.6426 31.0723 65.9811 30.8001C67.7167 30.4371 68.7376 29.8699 70.3256 28.3499C71.8229 26.9093 72.6964 25.5368 73.1955 23.7899C73.4223 23.0299 73.4564 22.6556 73.445 21.0902C73.445 19.4568 73.411 19.1732 73.1388 18.2771C72.0271 14.6586 69.5089 12.1631 66.0832 11.2783C65.0397 11.006 62.6349 10.8813 61.5459 11.0514ZM64.7334 15.4072C65.6182 15.6454 66.4122 16.1219 67.0928 16.8365C68.1477 17.9481 68.6241 19.2526 68.6355 21.0562C68.6355 22.8257 68.1817 23.9487 66.9794 25.1398C65.9811 26.1266 65.2098 26.535 64.0188 26.7051C62.2832 26.9547 60.9107 26.5123 59.7877 25.344C57.5191 22.9959 57.3489 19.3547 59.4134 17.0634C60.7859 15.532 62.8277 14.8968 64.7334 15.4072Z" fill="white"/>
<path d="M82.429 11.1876C81.737 11.3124 80.4325 11.9023 79.5704 12.4808C77.5627 13.8193 75.986 15.9631 75.26 18.3679C74.9878 19.264 74.9537 19.593 74.9424 20.9769C74.9424 22.2927 74.9764 22.7124 75.1919 23.4497C76.2469 27.1249 79.0713 29.9721 82.531 30.8455C83.5066 31.0951 85.3555 31.1291 86.2176 30.9136C87.0003 30.7208 88.2367 30.1649 89.0875 29.6205C89.8021 29.1667 89.9609 29.11 89.9609 29.3709C89.9609 29.9154 89.5752 32.116 89.3937 32.6718C88.543 35.1333 86.3764 36.3017 83.5973 35.7799C82.2475 35.5303 81.6349 35.0879 79.854 33.0575C79.3663 32.513 79.3322 32.513 77.8576 33.1369C76.6212 33.6587 75.8952 34.1351 75.8952 34.4073C75.8952 34.9064 77.6875 37.1864 78.7084 37.9918C79.491 38.6157 81.374 39.5685 82.3042 39.8067C83.8128 40.2038 86.7621 39.9655 88.4976 39.3076C90.3579 38.6043 92.377 36.6646 93.2051 34.8157C93.9084 33.2276 94.1239 31.39 94.226 26.3082C94.294 22.5196 94.1125 12.5715 93.9537 12.0157L93.8516 11.6754H92.014C89.9949 11.6754 89.9609 11.6867 89.9609 12.3787C89.9609 12.8664 89.734 12.8664 89.0534 12.4014C88.1687 11.8115 87.2385 11.3805 86.4558 11.2103C85.6164 11.0402 83.291 11.0175 82.429 11.1876ZM86.7848 15.4527C88.146 15.9858 89.2576 17.2223 89.7454 18.7423C90.0857 19.8085 90.1651 21.6348 89.9155 22.6217C89.269 25.1512 87.6809 26.6258 85.4236 26.7733C83.6313 26.8981 82.3269 26.467 81.2379 25.3781C80.0015 24.1303 79.6385 23.1775 79.6385 21.0903C79.6385 19.0372 80.0922 17.7554 81.2152 16.6891C81.9525 15.9858 82.7579 15.4867 83.4839 15.2825C84.2666 15.067 86.0134 15.1578 86.7848 15.4527Z" fill="white"/>
<path d="M110.22 11.1762C108.825 11.4598 107.067 12.5487 105.762 13.9213C100.635 19.3547 103.108 28.6335 110.231 30.698C111.003 30.9249 111.366 30.9589 113.101 30.9476C114.928 30.9476 115.166 30.9249 116.107 30.6299C116.674 30.4598 117.457 30.1195 117.865 29.8813C119.272 29.0419 121.382 27.1816 121.382 26.7732C121.382 26.6825 121.166 26.4216 120.905 26.1947C120.282 25.6616 118.297 24.3231 118.138 24.3231C118.07 24.3231 117.684 24.6407 117.287 25.0377C116.017 26.2855 114.326 26.9094 112.455 26.7846C111.252 26.7165 110.572 26.3876 109.54 25.4234C108.553 24.4932 108.553 24.3344 109.562 23.858C111.162 23.098 112.137 22.667 115.824 21.0676C121.529 18.6061 121.609 18.5607 121.609 18.1977C121.609 18.0389 121.382 17.4604 121.11 16.9159C119.658 14.0801 117.605 12.061 115.483 11.369C114.871 11.1762 114.406 11.1308 112.761 11.0968C111.672 11.0741 110.526 11.1082 110.22 11.1762ZM114.633 15.532C115.075 15.7362 115.608 16.0992 115.824 16.3261C116.209 16.7231 116.209 16.7458 116.005 16.9046C115.778 17.0634 112.035 18.6741 109.71 19.6156C109.006 19.8992 108.303 20.1261 108.144 20.1261C107.861 20.1261 107.861 20.1147 107.906 19.4568C107.974 18.5267 108.53 17.4264 109.358 16.621C110.957 15.0443 112.84 14.6473 114.633 15.532Z" fill="white"/>
</svg>
