<svg width="165" height="38" viewBox="0 0 165 38" fill="none" xmlns="http://www.w3.org/2000/svg">
<path fill-rule="evenodd" clip-rule="evenodd" d="M35.3784 16.6777L35.3926 16.8064C35.4609 17.2788 35.4609 17.7512 35.1885 18.5613C35.1885 18.6963 35.0522 18.8313 34.916 18.8313C34.7803 18.8987 34.644 18.7637 34.5762 18.6287C34.5283 18.3921 34.4473 18.1223 34.356 17.8193C34.3169 17.6902 34.2764 17.5549 34.2358 17.4138C34.188 17.2241 34.1064 17.0342 34.0151 16.8213C33.9761 16.731 33.936 16.6367 33.8955 16.5364C33.8799 16.5051 33.8677 16.4778 33.8574 16.4529L33.8398 16.4077C33.8174 16.3499 33.8013 16.3081 33.7593 16.2664C33.7334 16.2151 33.7173 16.1733 33.7036 16.1377C33.6812 16.0798 33.665 16.0381 33.623 15.9963C33.5972 15.9451 33.5811 15.9033 33.5674 15.8677C33.5454 15.8101 33.5293 15.7683 33.4868 15.7263C33.4868 15.6926 33.4697 15.6758 33.4531 15.6589C33.436 15.6421 33.4189 15.6252 33.4189 15.5913C33.4189 15.5576 33.4019 15.5408 33.3848 15.5239C33.3677 15.5071 33.3506 15.4902 33.3506 15.4563C33.0107 14.7815 32.5342 14.0391 31.9897 13.364C31.7173 12.959 31.4448 12.6216 31.105 12.2842C31.0908 12.2705 31.0747 12.2568 31.0566 12.2427L31.0283 12.2212C30.9604 12.1697 30.8799 12.1084 30.8325 12.0142C30.7983 11.9468 30.7476 11.9128 30.6963 11.8792C30.6455 11.8455 30.5942 11.8118 30.5601 11.7441C30.5127 11.6499 30.4321 11.5886 30.3647 11.5374C30.3354 11.5149 30.3086 11.4946 30.2881 11.4741L30.1519 11.3391L30.0156 11.2041C29.2671 10.5293 28.3823 9.92188 27.3613 9.44946C26.3403 8.97681 25.2515 8.57202 24.0942 8.36938C23.4814 8.23438 22.8691 8.16699 22.2568 8.16699H21.3037H21.0996H21.0312H20.8955H20.623H20.5552H20.4868H20.3506H20.1465H19.8745C19.8062 8.23438 19.6704 8.23438 19.6021 8.23438C19.4658 8.302 19.3979 8.302 19.3296 8.302H19.1938H19.0576C18.9214 8.36938 18.8535 8.36938 18.7852 8.36938C18.6494 8.43701 18.5811 8.43701 18.5132 8.43701C18.4556 8.43701 18.4097 8.44922 18.3711 8.46313L18.3301 8.47925C18.2974 8.49292 18.269 8.50439 18.2407 8.50439C18.1987 8.52539 18.1499 8.53979 18.0986 8.55176C18.0674 8.55908 18.0352 8.56543 18.0029 8.57202C17.9448 8.5835 17.8872 8.59497 17.8345 8.61182C17.8096 8.61963 17.7861 8.62866 17.7642 8.6394C17.7305 8.6394 17.6963 8.65625 17.6626 8.6731C17.6284 8.68994 17.5942 8.70679 17.5601 8.70679C17.5264 8.70679 17.4922 8.72388 17.458 8.74072C17.4238 8.75757 17.3901 8.77441 17.356 8.77441C17.2197 8.8418 17.0669 8.89258 16.9136 8.94312C16.7607 8.99365 16.6074 9.04443 16.4712 9.11182C16.437 9.11182 16.4033 9.12866 16.3691 9.14551C16.335 9.1626 16.3013 9.17944 16.2671 9.17944C16.2329 9.17944 16.1992 9.19629 16.165 9.21313C16.1309 9.22998 16.0967 9.24683 16.063 9.24683L15.6543 9.44946C15.3823 9.58423 15.1099 9.71924 14.8379 9.92188C14.5654 10.0569 14.293 10.2593 14.021 10.4619C13.75 10.6633 13.4795 10.9319 13.2754 11.1338L13.2725 11.1367C12.3193 12.0142 11.5703 13.1621 10.958 14.4446C10.6855 15.1194 10.4136 15.7942 10.2095 16.469C10.0923 16.759 10.0254 17.0994 9.96582 17.4036L9.93701 17.5488C9.90332 17.718 9.86914 17.9038 9.83496 18.0898C9.80078 18.2751 9.76709 18.4602 9.73291 18.6287C9.73291 18.7976 9.71582 18.9832 9.69873 19.1687L9.69727 19.187C9.68115 19.3667 9.66504 19.5454 9.66504 19.7085V19.9788V20.0461V20.1812V20.2488V20.6536V20.7886V20.856V20.9912C9.66504 21.666 9.80127 22.4084 10.0054 23.0835C10.2095 23.7583 10.4819 24.4333 10.8218 25.1084C11.0942 25.7832 11.5024 26.3906 11.979 26.9307C12.9321 28.0781 14.0889 29.0229 15.3823 29.698C15.9946 30.0354 16.7437 30.3054 17.4238 30.5078C18.105 30.7104 18.8535 30.8455 19.6021 30.9128H20.1465H20.2148H20.3506H20.4868H20.5552H20.623C20.793 30.8792 20.9629 30.8623 21.1328 30.8455C21.3032 30.8286 21.4736 30.8118 21.644 30.7778C22.3247 30.6428 23.0054 30.4404 23.6177 30.1704C24.9111 29.6304 26 28.6855 26.8169 27.6057C27.2251 26.9983 27.5654 26.3906 27.8379 25.7832C27.9736 25.5132 28.1099 25.1758 28.1782 24.8384C28.2461 24.7034 28.314 24.5007 28.314 24.3657C28.314 24.2983 28.3311 24.2141 28.3481 24.1296C28.3569 24.0854 28.3657 24.0413 28.3726 23.9998C28.3784 23.9617 28.3823 23.9255 28.3823 23.8933C28.4502 23.6909 28.4502 23.5559 28.4502 23.3535V23.0835V22.9485V22.8135V22.6785V22.5435V22.4084V22.2737C28.4502 22.2083 28.4341 22.127 28.418 22.0454L28.4165 22.0374C28.3994 21.9529 28.3823 21.8684 28.3823 21.801C28.2461 21.1936 28.042 20.5859 27.7695 20.0461C27.1572 18.9663 26.2725 18.0212 25.1831 17.4138C24.6387 17.0764 24.0942 16.8738 23.4814 16.739C23.2095 16.6714 22.8691 16.604 22.5972 16.604H22.4609H22.3926H22.2568H22.1885H21.7803C21.5078 16.604 21.2358 16.6714 20.9634 16.739C20.9155 16.7546 20.8633 16.7708 20.8086 16.7876C20.6938 16.8228 20.5664 16.8618 20.4346 16.9128C20.3623 16.9409 20.2886 16.9724 20.2148 17.0088C20.1523 17.0503 20.083 17.0916 20.0112 17.1328L19.8745 17.2112L19.7451 17.2852C19.6709 17.3281 19.5991 17.3708 19.5342 17.4138C19.4321 17.5149 19.3301 17.5994 19.228 17.6838C19.1255 17.7683 19.0234 17.8525 18.9214 17.9539C18.105 18.7637 17.6284 19.7085 17.4238 20.7209C17.356 20.856 17.356 20.9912 17.356 21.1262V21.1936V21.261V21.4634C17.356 21.6045 17.356 21.7783 17.3789 21.9392C17.3892 22.0093 17.4033 22.0771 17.4238 22.1387C17.4922 22.6108 17.6963 23.0835 17.9004 23.4209C18.105 23.7583 18.377 24.1633 18.7173 24.4333C19.0576 24.7034 19.3979 24.9734 19.8062 25.1084C20.0283 25.2183 20.2305 25.2886 20.4341 25.3406C20.605 25.3843 20.7769 25.415 20.9634 25.4458H21.0996H21.1675H21.2358H21.3716H21.5078H21.644H21.7803H22.0522C22.1201 25.4121 22.2051 25.3953 22.2905 25.3784C22.3755 25.3613 22.4609 25.3445 22.5288 25.3108C22.7319 25.2437 22.8677 25.1763 23.0034 25.1094C23.0239 25.1084 23.0371 25.1033 23.0483 25.0959C23.0576 25.0898 23.0654 25.0823 23.0732 25.0747C23.0903 25.0576 23.1074 25.0408 23.1416 25.0408C23.2007 24.9819 23.2729 24.9617 23.3472 24.9685C23.4429 24.9775 23.541 25.0322 23.6177 25.1084C23.7539 25.2434 23.7539 25.5132 23.5498 25.6482C23.5239 25.6741 23.5078 25.6997 23.4941 25.7217C23.4717 25.7573 23.4556 25.7832 23.4136 25.7832C23.3765 25.8079 23.3413 25.8325 23.3076 25.8569L23.2451 25.9026C23.1221 25.9929 23.0122 26.0735 22.8691 26.1208C22.6655 26.2556 22.4614 26.323 22.2578 26.3904C22.1904 26.3906 22.1406 26.4067 22.0908 26.4229L22.0864 26.4243C22.0352 26.4414 21.9844 26.458 21.916 26.458C21.8481 26.5256 21.7803 26.5256 21.7119 26.5256H21.5078H21.4399H21.3716H21.3037H21.1675H21.0996H21.0312H20.8271C20.5674 26.5256 20.3232 26.5103 20.0801 26.4797C19.813 26.446 19.5464 26.3938 19.2617 26.3232C18.7173 26.1882 18.1729 25.9182 17.6963 25.5808C17.2197 25.2434 16.7437 24.8384 16.335 24.2983C15.9946 23.7583 15.6543 23.1509 15.4502 22.4758C15.417 22.3101 15.3833 22.1274 15.3496 21.9448L15.3481 21.936C15.3267 21.8198 15.3057 21.7036 15.2842 21.5913L15.2461 21.396V21.1262V20.9912V20.856V20.3162C15.314 19.5735 15.4502 18.8313 15.7227 18.0889C15.9946 17.3462 16.4033 16.604 16.9478 15.9963C17.4922 15.3889 18.1729 14.8491 18.9214 14.3765C19.6704 13.9041 20.5552 13.5667 21.4399 13.4316C21.542 13.4316 21.6611 13.4148 21.7798 13.3977L21.7944 13.3955C21.9092 13.3796 22.022 13.364 22.1206 13.364H22.3247H22.4609H22.5288H22.5972H22.665H22.8013C23.2778 13.364 23.686 13.364 24.1626 13.4316C25.1152 13.5667 26 13.769 26.8848 14.1741C27.7695 14.5791 28.5864 15.0515 29.335 15.7263C30.084 16.4014 30.6963 17.1438 31.2407 18.0212C31.5332 18.4922 31.7666 18.9827 31.9624 19.4927C32.1313 19.9329 32.272 20.3872 32.3979 20.856C32.417 20.9119 32.4307 20.9729 32.4419 21.0376C32.4521 21.0974 32.4604 21.1602 32.4692 21.2251C32.4849 21.345 32.502 21.4717 32.5342 21.5984V21.801V22.0034V22.2061V22.4084V22.6108V22.7458V22.8135V22.8809V22.9485V23.2859V24.0283V24.4333H32.6021C32.8745 24.6357 34.2358 25.7832 34.644 28.1458C34.644 28.1458 33.0786 29.698 30.7642 29.563C30.7642 29.698 30.6963 29.7654 30.6284 29.833C30.0156 30.7104 29.335 31.5203 28.5186 32.2627L28.5156 32.2649C28.1079 32.6018 27.7007 32.9385 27.293 33.2078V33.2754V33.3428C27.293 33.8152 27.2251 35.9075 25.1831 38C25.1831 38 22.3926 37.6624 20.7593 35.3677H20.623H20.4868H20.4189H20.2827H19.4658C18.897 35.3325 18.3281 35.2788 17.7686 35.197C17.2573 35.1223 16.7544 35.0242 16.2671 34.8953C16.0967 34.8274 15.9263 34.7769 15.7559 34.7263C15.5859 34.6755 15.416 34.625 15.2461 34.5576C14.7695 34.9626 12.5234 36.5825 9.12061 36.4475C9.12061 36.4475 7.89551 33.8152 8.98438 30.6428C8.86328 30.4829 8.71875 30.2993 8.56445 30.1201C8.45801 29.9968 8.34668 29.8755 8.23584 29.7654C7.62305 29.0229 7.14648 28.2805 6.67041 27.4707C6.67041 27.4707 3.06299 27.2683 0 23.7583C0 23.7583 1.08887 20.0461 4.76416 18.2239C4.76416 18.1562 4.78125 18.0889 4.79834 18.0212C4.81543 17.9539 4.83252 17.8862 4.83252 17.8188C4.96875 16.8064 5.24072 15.7939 5.51318 14.8491C5.53369 14.769 5.55957 14.689 5.58838 14.6089C5.60791 14.554 5.62842 14.499 5.64941 14.4441L5.65381 14.4331C5.70312 14.3018 5.75244 14.1704 5.78516 14.0391C5.37695 13.5667 3.47119 10.8667 3.81152 6.68213C3.81152 6.68213 7.35059 4.85962 11.3667 6.34448C11.3667 6.34448 11.3667 6.41211 11.4346 6.41211C11.8428 6.14209 12.2515 5.87207 12.6597 5.66968C12.8301 5.58496 13.0127 5.50024 13.1978 5.41577L13.3062 5.36597C13.5273 5.26465 13.7485 5.16333 13.9531 5.06226C14.2251 4.92725 14.4292 4.85962 14.6333 4.79224C14.9058 4.72461 15.1099 4.65723 15.314 4.5896C15.3491 4.57227 15.3887 4.55957 15.4302 4.54883C15.4692 4.53882 15.5107 4.53052 15.5522 4.52222C15.6377 4.50537 15.7227 4.48853 15.7905 4.45459V4.31982C15.7905 4.31982 16.335 1.82227 19.1938 0C19.1938 0 21.7803 1.21484 22.665 4.0498H22.8691C23.2085 4.11694 23.6157 4.18433 24.0229 4.25171C24.2305 4.31958 24.4175 4.37036 24.605 4.4209L24.6167 4.42383C24.7998 4.47363 24.9829 4.52344 25.1831 4.5896C25.5918 4.72461 25.9321 4.85962 26.2725 4.99463C26.3242 5.02051 26.3662 5.04614 26.4023 5.06812C26.4292 5.08447 26.4526 5.09888 26.4741 5.10962C26.4995 5.12207 26.522 5.12964 26.5444 5.12964C27.021 4.72461 28.3823 3.98218 30.4243 4.11719C30.4243 4.11719 31.6494 5.9397 31.105 8.09937C31.5132 8.43701 31.8535 8.8418 32.126 9.17944C32.8745 10.1243 33.4868 11.0693 33.9634 12.0142C34.4399 12.959 34.7803 13.8364 34.9844 14.6465C35.1348 15.093 35.2227 15.519 35.2827 15.9133C35.3242 16.1843 35.3525 16.4404 35.3784 16.6777ZM68.542 20.519C68.27 27.1335 63.0293 32.3306 56.4268 32.3306C49.4844 32.3306 44.3799 26.7959 44.3799 20.0464C44.3799 13.2969 49.9609 7.69482 56.7671 7.69482C59.8301 7.69482 62.8247 8.97729 65.4111 11.3396L63.4375 13.7693C61.4639 12.082 59.1494 10.9346 56.8354 10.9346C51.8667 10.9346 47.7827 14.9844 47.7827 19.979C47.7827 25.041 51.6626 28.9558 56.563 28.9558C60.9873 28.9558 64.4585 25.7837 65.1392 21.5989H55.1338V18.6965H68.6782L68.542 20.519ZM78.2759 18.8989H80.1133L81.4746 15.7942H77.9355C76.3701 15.7942 74.9409 16.2666 74.0557 17.144V15.7942H71.3335V32.1279H74.6001V22.5437C74.6001 20.5188 76.2339 18.8989 78.2759 18.8989ZM98.0806 32.1272H95.29V30.0349C93.1123 32.1272 89.709 33.1399 86.2378 31.6548C83.6514 30.5073 81.7456 28.2124 81.269 25.4453C80.248 20.2483 84.332 15.5234 89.5728 15.5234C91.7505 15.5234 93.7925 16.4009 95.2217 17.8184V15.7258H98.0806V32.1272ZM94.6777 25.1753C95.4263 21.8682 92.9077 18.8308 89.6406 18.8308C86.7822 18.8308 84.4683 21.1255 84.4683 23.9604C84.4683 27.1328 87.2588 29.6299 90.5938 29.0227C92.5674 28.6851 94.2012 27.1328 94.6777 25.1753ZM104.683 15.7937V14.8486C104.683 13.4314 105.841 12.3513 107.27 12.3513H109.924L111.218 9.24658H107.27C104.003 9.24658 101.417 11.4065 101.417 14.9836V32.1951H104.683V18.696H109.924V15.7937H104.683ZM127.416 32.1272H124.626V30.0349C122.448 32.1272 119.045 33.1399 115.573 31.6548C112.987 30.5073 111.081 28.2124 110.605 25.4453C109.584 20.2483 113.736 15.5234 118.977 15.5234C121.155 15.5234 123.197 16.4009 124.626 17.8184V15.7258H127.485L127.416 32.1272ZM124.081 25.1753C124.83 21.8682 122.312 18.8308 119.045 18.8308C116.186 18.8308 113.872 21.1255 113.872 23.9604C113.872 27.1328 116.663 29.6299 119.998 29.0227C121.971 28.6851 123.605 27.1328 124.081 25.1753ZM145.045 32.1272V22.4753C145.045 18.6282 142.05 15.5234 138.239 15.5234C136.605 15.5234 134.972 16.1309 133.815 17.2107V15.7935H131.092V32.1272H134.359V22.4753C134.359 20.4504 135.993 18.8308 138.103 18.8308C140.076 18.8308 141.778 20.4504 141.778 22.4753V32.1272H145.045ZM164.441 32.1272H161.651V30.0349C159.473 32.1272 156.07 33.1399 152.598 31.6548C150.012 30.5073 148.106 28.2124 147.63 25.4453C146.609 20.2483 150.761 15.5234 156.001 15.5234C158.179 15.5234 160.221 16.4009 161.651 17.8184V15.7258H164.509L164.441 32.1272ZM161.106 25.1753C161.855 21.8682 159.336 18.8308 156.07 18.8308C153.211 18.8308 150.897 21.1255 150.897 23.9604C150.897 27.1328 153.687 29.6299 157.022 29.0227C158.928 28.6851 160.63 27.1328 161.106 25.1753Z" fill="white"/>
</svg>
