<svg width="171" height="40" viewBox="0 0 171 40" fill="none" xmlns="http://www.w3.org/2000/svg">
<path fill-rule="evenodd" clip-rule="evenodd" d="M82.1314 27.4181H73.4389C72.7392 27.4181 72.0395 27.979 71.878 28.7003C71.7434 29.3681 72.174 29.9291 72.8468 29.9558H81.5662L82.1314 27.4181ZM163.674 20.9081H156.515L154.443 30.0894H161.629C162.678 30.0894 163.728 29.2346 163.97 28.1927L165.154 22.8127C165.396 21.7655 164.723 20.9081 163.674 20.9081ZM143.705 20.9081H137.408C136.358 20.9081 135.309 21.7629 135.067 22.8074L133.856 28.1927C133.64 29.2346 134.313 30.0894 135.363 30.0894H141.66C142.71 30.0894 143.759 29.2346 144.001 28.1927L145.212 22.8074C145.428 21.7629 144.755 20.9081 143.705 20.9081ZM122.687 20.9081H116.39C115.34 20.9081 114.291 21.7629 114.049 22.8074L112.838 28.1927C112.622 29.2346 113.268 30.0894 114.345 30.0894H120.642C121.692 30.0894 122.741 29.2346 122.983 28.1927L124.167 22.8074C124.41 21.7629 123.737 20.9081 122.687 20.9081ZM103.58 20.7745H96.4215C95.3719 20.7745 94.3224 21.624 94.0802 22.6685L92.8691 28.0592C92.6538 29.101 93.2997 29.9558 94.3493 29.9558H101.535L103.58 20.7745ZM130.68 20.4085C131.111 18.4344 133.102 16.8183 135.094 16.8183V16.8209H147.85C149.841 16.8209 151.106 18.4371 150.649 20.4112L148.388 30.5969C147.957 32.5737 145.966 34.1765 143.974 34.1765H131.218C129.227 34.1765 127.962 32.5737 128.393 30.5969L130.68 20.4085ZM109.662 20.4085C110.093 18.4344 112.084 16.8183 114.076 16.8183H126.832C128.823 16.8183 130.088 18.4344 129.631 20.4085L127.37 30.5969C126.939 32.5737 124.948 34.1765 122.956 34.1765H110.2C108.209 34.1765 106.944 32.5737 107.375 30.5969L109.662 20.4085ZM149.303 31.1045L152.505 16.8183H167.818C169.783 16.8183 171.075 18.4397 170.617 20.4165L168.356 30.5969C167.899 32.5737 165.934 34.1765 163.943 34.1765H153.555L152.236 40H147.338L148.63 34.1765L149.303 31.1045ZM68.541 20.7718L69.456 16.6874V16.6954H85.899C87.8366 16.7354 89.0746 18.3356 88.644 20.2856L88.3211 21.672L87.9443 23.355H87.9712L86.0336 31.986L85.5761 34.0429H69.2137C67.2223 34.0429 65.9574 32.4402 66.388 30.4634L67.0608 27.4982L67.1684 26.9372C67.626 24.9604 69.6174 23.347 71.6089 23.347H83.0464L83.2078 22.5937C83.3962 21.6079 82.7772 20.8119 81.7815 20.7718H68.541ZM48.8416 19.7567L50.833 10.8746H55.731L54.4123 16.8183H64.8271C66.8186 16.8183 68.0835 18.4397 67.626 20.4165L65.9843 27.8455H65.9574L64.5849 34.0429H59.6601L61.0595 27.8455L62.1898 22.8127C62.4051 21.7655 61.7323 20.9081 60.6827 20.9081H53.5242L53.0936 22.786V22.8127L51.9903 27.792H51.9633L50.5639 34.0429H45.666L47.0654 27.792L48.707 20.4165C48.7339 20.3123 48.7608 20.2082 48.7878 20.1067L48.8685 19.7567H48.8416ZM104.495 16.6927L105.787 10.8746V10.8826H110.712L109.42 16.7007L105.518 34.0429H90.2318C88.2403 34.0429 86.9755 32.4402 87.4061 30.4634L89.6936 20.283C90.1241 18.3062 92.1156 16.6927 94.1071 16.6927H104.495ZM30.0034 0.0252481C30.1188 0.00477533 30.2361 -0.00328527 30.3532 0.00120617C32.2909 0.0882913 34.1747 0.926553 35.9778 2.44119C36.3274 2.72293 36.6456 2.99219 36.9459 3.24628C37.4315 3.65712 37.8702 4.02831 38.3191 4.34852C38.3859 4.39712 38.4489 4.4507 38.5075 4.5088C38.5534 4.52986 38.5983 4.55304 38.642 4.57825C38.7131 4.62055 38.7841 4.6621 38.8512 4.70134C38.9111 4.73645 38.968 4.7697 39.0188 4.79997H39.0457C39.6378 5.14457 40.3375 5.58267 40.8757 6.36002C41.2525 6.87025 41.5485 7.40184 41.8176 7.93878C41.8445 7.9361 42.0329 7.86665 42.006 7.86665H42.0329C42.0889 7.81938 42.1709 7.71295 42.2866 7.56263C42.5044 7.2797 42.8419 6.84129 43.3516 6.34934C43.7822 5.93795 44.4281 5.70288 44.9663 5.72959C45.5045 5.75363 45.9082 5.93528 46.2311 6.12762C46.8501 6.50962 47.2269 6.91566 47.496 7.56746C47.5052 7.58245 47.5142 7.59759 47.5229 7.61287C48.5456 10.0865 48.9492 13.3909 48.6532 15.8886C48.3841 18.6508 47.0923 21.7094 44.3473 23.2455H44.3204C42.4904 24.2659 40.5528 24.3594 38.7497 24.1163C38.7306 24.1788 38.7115 24.2377 38.6924 24.2965C38.6577 24.4036 38.623 24.5106 38.5882 24.6399C37.9962 26.5365 36.3276 27.6318 34.3631 27.6051C33.4212 27.5783 32.6946 27.2044 32.1025 26.8037C32.3178 27.3914 32.5062 28.0058 32.5331 28.7537L32.5869 30.8106C32.7484 31.2648 32.856 31.7723 32.8022 32.1997C32.7484 32.8409 32.56 33.7224 31.7796 34.2567C31.1064 34.7175 30.5534 34.7013 30.1032 34.6882C30.0315 34.6861 29.9623 34.6841 29.8957 34.6841C29.4113 34.6841 28.0388 34.6574 27.4468 34.6039C27.4288 34.6042 27.4109 34.6042 27.393 34.6039C26.9085 34.5772 26.5049 34.5238 26.0205 34.3101C25.9072 34.385 25.8204 34.46 25.7229 34.5442C25.6814 34.58 25.6381 34.6175 25.5899 34.6574C25.3161 34.8612 25.0423 35.0842 24.7849 35.2939C24.7387 35.3315 24.693 35.3687 24.648 35.4053C24.5679 35.4689 24.4879 35.523 24.4135 35.5733C24.3628 35.6075 24.3148 35.64 24.2712 35.6725C24.2502 35.7072 24.2274 35.7495 24.2012 35.7982C24.0258 36.1243 23.6979 36.7337 22.7426 37.2218C21.5181 37.8629 19.9465 37.489 19.1364 36.7944C18.3837 36.1759 17.9449 35.4657 17.5806 34.8761C17.5516 34.8291 17.523 34.7829 17.4948 34.7375C17.4753 34.7057 17.4534 34.6706 17.4293 34.6321C17.231 34.3144 16.8925 33.7722 16.6525 33.0813C16.5179 32.6806 16.3888 32.2532 16.4507 31.6388C16.462 31.5264 16.5195 31.401 16.5789 31.2716C16.6043 31.2164 16.6299 31.1604 16.6525 31.1045C16.5381 31.0911 16.4231 31.0845 16.308 31.0778C16.193 31.0711 16.0779 31.0644 15.9636 31.0511C15.8828 31.6388 15.7375 32.2264 15.4199 32.734C15.3316 32.8802 15.2564 33.0017 15.1876 33.1128C15.0303 33.367 14.9068 33.5666 14.7364 33.8827C14.7391 34.3635 14.7122 34.8443 14.5588 35.3786C14.2896 36.3403 13.3477 36.8211 12.7611 36.9547C12.1744 37.0615 11.6873 37.0348 11.2136 36.9814C10.2663 36.8745 9.39171 36.6341 9.03917 36.5273H9.01226C8.96503 36.5154 8.9084 36.5023 8.84362 36.4873C8.47282 36.4015 7.83507 36.254 7.16611 35.9129C6.7732 35.6992 6.31032 35.4053 5.96047 34.8176C5.61062 34.2299 5.55949 33.3484 5.80707 32.7073C5.32266 32.6271 4.90284 32.4936 4.54491 32.3333C3.64875 31.8792 2.99749 31.3449 2.55883 30.8908C1.75955 30.0894 1.15942 29.101 0.997952 27.9523C0.952202 27.6318 0.884923 27.0975 1.16211 26.5365C1.38219 26.0868 1.57804 25.9289 1.71917 25.8152C1.75408 25.787 1.78563 25.7616 1.81338 25.7351C1.88077 25.6659 1.94808 25.5967 2.01532 25.5276C2.33737 25.1965 2.65759 24.8673 2.97596 24.5491C2.99748 24.4939 3.01869 24.4393 3.03991 24.3847C3.08238 24.2755 3.12486 24.1662 3.16973 24.0522C3.25034 23.8474 3.37212 23.6611 3.52765 23.5046C3.5022 23.3791 3.47417 23.2535 3.44612 23.1279C3.37925 22.8286 3.31229 22.5288 3.28006 22.2277C3.16973 21.1645 3.15358 20.2456 3.21817 19.4041C2.45388 19.3507 1.40701 18.8565 0.976423 17.9643C0.753679 17.4986 0.638107 17.0786 0.522864 16.6598L0.513541 16.6259C0.195983 16.113 -0.024693 15.5387 0.0022187 14.9911C0.0345128 14.2458 0.322468 13.6527 0.642717 13.1719C1.28052 12.2076 2.09326 11.5878 2.7822 11.1764C2.9996 11.0466 3.24452 10.9689 3.49749 10.9495C3.75046 10.9301 4.0045 10.9696 4.2394 11.0648C4.4743 11.1599 4.68359 11.3082 4.85062 11.4978C5.01765 11.6874 5.13782 11.913 5.20156 12.1568C5.39802 12.3732 5.56218 12.6082 5.64829 12.8273C5.68913 12.9033 5.69339 12.959 5.6978 13.0167C5.70037 13.0503 5.70299 13.0845 5.71288 13.1238C6.23228 12.4026 6.81088 11.7134 7.51866 11.099C9.89765 9.026 12.3816 8.09638 15.6998 7.59685C15.9273 7.56329 16.1593 7.57785 16.3807 7.63959C16.4942 7.515 16.6061 7.39026 16.718 7.26562C17.0811 6.86112 17.4434 6.45763 17.8528 6.06351C18.3937 5.53993 18.9642 5.13121 19.5805 4.91751C19.8132 4.83466 20.0173 4.79429 20.2198 4.75425C20.2327 4.75168 20.2457 4.74912 20.2587 4.74654C20.2675 4.73754 20.2765 4.72863 20.2856 4.71983C21.3244 3.40554 22.3066 2.29427 24.2443 1.46349C26.2896 0.581952 28.1196 0.0172341 30.0034 0.0252481ZM34.9282 3.67534C33.3135 2.31831 31.8334 1.68788 30.2725 1.61843V1.62911H30.2456C28.6578 1.56233 26.9624 2.05652 24.8902 2.94874C23.1947 3.67534 22.6054 4.40729 21.5693 5.71891H21.6016C22.6538 5.69219 23.706 5.65479 24.7825 5.55596C23.6522 5.8124 22.5919 6.02077 21.4966 6.18639C21.3769 6.2043 21.2655 6.22015 21.1609 6.23503C20.2044 6.3711 19.8216 6.42556 18.9992 7.22019C17.9729 8.21124 17.0485 9.28061 16.1347 10.3377C15.5485 11.0159 14.9666 11.689 14.365 12.3331C13.4987 13.2603 13.0549 14.1875 12.5529 15.2365C12.5371 15.2694 12.5213 15.3025 12.5054 15.3357C11.9833 16.4176 12.056 16.8289 12.753 17.7639C12.9056 17.9692 13.0453 18.1503 13.1736 18.3166C13.6445 18.9274 13.9612 19.338 14.1981 20.0078C14.7829 19.1143 15.4551 18.3325 16.1717 17.4989C16.4214 17.2085 16.6764 16.9118 16.9351 16.6019C16.1169 17.9001 15.3715 19.1289 14.6987 20.4486C14.2789 21.2713 14.0824 21.6907 14.0824 22.5963C14.8736 23.5019 15.3688 23.9827 16.1008 24.1831C16.8893 24.3968 17.6348 24.3621 18.3479 23.9961C18.7239 23.8024 19.096 23.5964 19.4677 23.3905C20.8499 22.6252 22.2281 21.8621 23.7868 21.7442C24.7825 19.9437 24.5134 17.6838 24.1366 15.6349C23.8406 13.9359 23.9213 12.4346 24.325 10.7303C24.4327 12.3865 24.5672 13.9252 24.8902 15.5494C25.3746 17.9269 25.4822 19.9811 24.4596 22.4414C22.7266 22.482 21.2365 23.3003 19.722 24.1321C19.3431 24.3401 18.9628 24.549 18.5767 24.7467C17.7074 25.1742 16.8947 25.2276 15.9232 24.9872C14.9328 24.7735 14.1766 24.0014 13.154 22.8955C13.2562 22.0567 13.3666 21.5358 13.6653 20.9214C13.3489 19.9745 12.9672 19.4734 12.3228 18.6275C12.2273 18.5021 12.126 18.3691 12.0183 18.226C11.0522 16.9358 11.036 16.3775 11.7653 14.9109C12.2928 13.8477 12.788 12.8674 13.6195 11.895C13.7869 11.6994 13.9515 11.5065 14.1139 11.3162C14.748 10.573 15.3492 9.86842 15.9555 9.1943C12.788 9.67246 10.7669 10.4284 8.6032 12.3144C6.99657 13.7115 5.99815 15.4479 5.2823 17.454C4.83287 18.7176 4.70369 19.9918 4.9163 22.0621C5.1908 24.72 6.61712 27.7386 8.15377 29.9291C7.96539 31.2915 7.72319 32.3333 7.33835 33.295C6.94982 34.3011 8.30116 34.6627 9.18793 34.9001C9.29005 34.9274 9.38601 34.9531 9.47245 34.9779C10.1533 35.1649 12.7315 35.8594 12.9871 34.9512C13.1405 34.4169 13.1405 34.0162 13.1028 33.4553C13.4327 32.8042 13.598 32.5512 13.7862 32.2633C13.8605 32.1496 13.9383 32.0304 14.0313 31.8792C14.3811 31.3182 14.4134 31.0778 14.4134 30.4099C14.4134 30.2038 14.412 29.9611 14.4104 29.7028C14.4053 28.8564 14.3991 27.8416 14.4403 27.3913C14.5588 27.8989 14.7014 28.6202 14.8198 29.288C16.6525 29.6085 18.4744 29.5818 20.3071 29.2079C20.334 29.0743 20.3717 28.9407 20.4201 28.7804C20.482 28.5667 20.5742 28.353 20.6664 28.1393C20.7585 27.9256 20.8507 27.7119 20.9126 27.4982C20.8776 27.9256 20.8453 28.3263 20.813 28.7537C20.7781 29.1811 20.7754 29.5284 20.84 29.9558L20.9288 30.6771C20.8674 30.5796 20.7914 30.4821 20.7155 30.3846C20.625 30.2684 20.5344 30.1522 20.4686 30.036C19.6531 30.5702 19.2037 30.8641 18.4018 31.2915C17.5567 31.7456 18.5282 33.3217 18.8781 33.8827L18.8813 33.8877C19.6477 35.0888 20.5648 36.5262 21.9918 35.7793C22.3307 35.6053 22.5681 35.2494 22.7917 34.9142C22.8771 34.7862 22.9605 34.6612 23.0467 34.5505C23.2554 34.4302 23.9185 33.9023 24.573 33.3812C25.2271 32.8605 25.8725 32.3466 26.0474 32.2532C26.5587 31.9593 28.3349 29.0476 28.5771 28.2996C28.7121 27.8764 28.8527 27.4793 28.9895 27.0929C29.371 26.0157 29.7231 25.0215 29.8419 23.7771C28.6847 23.3016 28.1196 22.7726 27.3122 21.8136C28.4694 22.6631 29.4652 23.1172 30.7031 23.5046C30.8241 23.6098 30.9451 23.7153 31.0666 23.8212C31.4045 24.1157 31.7462 24.4135 32.1025 24.72C32.1203 24.7362 32.138 24.7525 32.1557 24.7687C32.8096 25.3665 33.4475 25.9495 34.4169 25.9755C35.4934 26.0023 36.7044 25.1742 37.0273 24.1537C37.0946 23.9574 37.1552 23.7617 37.2157 23.5661C37.2763 23.3704 37.3368 23.1747 37.4041 22.9783C37.1888 22.9276 36.9735 22.8715 36.7582 22.81C36.6194 23.1545 36.5813 23.3624 36.5429 23.5718C36.5217 23.6872 36.5004 23.8032 36.4622 23.9427C36.2738 24.6132 35.3319 25.094 34.3631 24.8536C34.0132 24.7735 33.7979 24.72 33.6903 24.6399C33.7979 24.8803 33.9863 25.1207 34.3362 25.1742C34.7129 25.2543 35.009 25.281 35.601 25.1474C34.8744 25.5214 34.6591 25.5481 34.1478 25.4146C32.8291 25.1474 33.2866 23.5607 33.5826 22.5963C33.771 21.9899 33.7172 21.3461 33.5557 20.7371C33.6301 20.7825 33.7022 20.8273 33.7729 20.8711C34.1879 21.1286 34.5529 21.355 35.0359 21.5171C37.7001 22.4067 40.8488 23.3149 43.54 21.8297C45.6391 20.665 46.7963 18.0818 47.0385 15.715C47.2807 13.6047 46.877 10.3136 46.0159 8.22194C45.8006 7.7411 44.9932 7.01717 44.4819 7.50869C44.2632 7.72121 44.0691 7.97136 43.8744 8.22235C43.6138 8.55817 43.3521 8.8955 43.0287 9.14621C42.779 9.34446 42.4673 9.45445 42.1709 9.55905C41.5727 9.77015 41.0367 9.95929 41.1987 10.8078C41.3601 11.7321 41.414 12.7632 41.2256 13.626C41.1785 13.8064 41.1327 14.0036 41.0855 14.2072C40.9164 14.9355 40.7278 15.7477 40.3913 16.1798C40.5259 15.7123 40.7412 14.4862 40.795 13.6607C40.8219 13.2093 40.7681 12.6643 40.6873 12.1141H40.3913C40.0415 12.1141 39.4763 12.6189 39.3148 12.9315C39.1314 13.3261 39.0202 13.7074 38.9105 14.0836C38.7788 14.535 38.6494 14.9789 38.3998 15.4292C38.5936 14.9552 38.6308 14.5046 38.6688 14.0442C38.7046 13.6094 38.7412 13.1658 38.9112 12.6857C39.0457 12.3358 39.3418 12.0339 39.7185 11.8523C39.5638 11.8311 39.4229 11.8707 39.2461 11.9205C39.1768 11.9399 39.1021 11.961 39.0188 11.9805C38.1588 12.1815 37.8952 12.6915 37.5848 13.2922C37.4289 13.5937 37.2613 13.9181 37.0004 14.2378C37.2327 13.8113 37.3575 13.429 37.4672 13.0932C37.7134 12.3393 37.8831 11.8198 39.0188 11.5611C39.557 11.4382 39.9607 11.3901 40.3106 11.6733H40.3375C40.3778 11.6733 40.4249 11.6666 40.472 11.6599C40.5191 11.6533 40.5662 11.6466 40.6066 11.6466C40.5797 11.3901 40.5259 11.1417 40.472 10.9066C39.7185 10.8078 39.0188 10.8265 38.2384 10.944C38.4268 10.8719 38.5882 10.8051 38.7228 10.749C38.9919 10.6582 39.2072 10.5887 39.4494 10.5487C39.4763 10.5006 39.5032 10.4498 39.5032 10.3937C39.5301 10.1346 39.3418 9.90487 39.0726 9.87816C38.8035 9.85144 38.5882 10.0438 38.5613 10.3029C38.5613 10.3938 38.5841 10.4961 38.6296 10.5867C38.6295 10.5866 38.6293 10.5864 38.6291 10.5862C38.6222 10.5797 38.6151 10.5731 38.6151 10.5593C38.5075 10.3697 38.4537 10.1506 38.4806 9.92357C38.5075 9.74993 38.5613 9.59232 38.642 9.45074C38.6286 9.45074 38.6151 9.45742 38.6017 9.4641C38.5882 9.47078 38.5748 9.47746 38.5613 9.47746C38.3729 9.54958 37.9962 9.52554 37.8078 9.47746C38.1576 9.42136 38.669 9.23704 39.0188 9.07676L39.0457 9.05005C39.2341 8.92449 39.5032 8.85771 39.7454 8.88442C39.88 8.88442 40.0145 8.93251 40.1222 8.98326C40.2237 9.01181 40.3252 9.04776 40.4401 9.08844C40.508 9.11246 40.5805 9.13813 40.6604 9.16491C40.3375 8.50777 39.9876 7.91206 39.557 7.31636C39.169 6.77455 38.8307 6.57337 38.2792 6.24541C38.257 6.23218 38.2344 6.21875 38.2115 6.20509C38.077 6.1277 37.9426 6.04764 37.8082 5.96759L37.8078 5.96734C37.3772 5.8872 36.8659 5.80439 36.4353 5.8872C36.7851 5.74829 37.0543 5.69486 37.3772 5.66815C36.803 5.26382 36.2886 4.82505 35.7542 4.36926C35.4872 4.14148 35.2152 3.90945 34.9282 3.67534ZM38.642 10.6101C38.6377 10.6024 38.6336 10.5946 38.6296 10.5867C38.636 10.5927 38.642 10.5987 38.642 10.6101ZM31.0799 7.29499C28.8193 7.85329 28.3887 8.7936 28.6847 10.2361C28.9269 9.15156 29.3844 8.1044 31.0799 7.29499ZM21.6661 7.69836C22.5784 7.61287 23.4908 7.51938 24.4058 7.41787C23.5984 7.73041 22.8529 7.96549 22.0644 8.16317C22.012 8.23158 21.9611 8.29758 21.9116 8.36166C21.2833 9.17585 20.8953 9.67878 20.7431 10.8452L20.7399 10.825C20.5462 9.60582 20.5093 9.37356 21.0633 8.45434C20.9018 8.53448 20.7511 8.64668 20.5385 8.82833C19.8718 9.39366 19.0297 11.3864 18.5504 12.5207C18.4726 12.7049 18.4043 12.8665 18.3479 12.9956C18.6036 11.8843 19.4056 9.10347 20.2317 8.29139C20.7514 7.7832 20.8874 7.77059 21.5685 7.70746C21.5998 7.70455 21.6324 7.70153 21.6661 7.69836ZM42.8941 9.98768C43.9975 9.45074 44.8048 8.57188 45.3162 7.52205C44.9932 8.7749 44.3473 9.84076 43.0287 10.3136C42.4767 10.5021 42.1058 10.3813 41.6189 10.2226C41.5123 10.1879 41.4002 10.1514 41.2794 10.1159C41.3698 10.1245 41.455 10.1338 41.5362 10.1427C42.035 10.1974 42.3849 10.2358 42.8941 9.98768ZM40.7289 9.35651C40.7083 9.30643 40.6879 9.2567 40.6604 9.20765V9.21567H40.4451C40.5528 9.31985 40.6335 9.4454 40.6873 9.58431C40.7017 9.56861 40.7238 9.55368 40.7453 9.5391C40.7641 9.52639 40.7824 9.51394 40.795 9.5015C40.7686 9.45307 40.7487 9.40463 40.7289 9.35651ZM32.9575 10.3139C33.3064 10.2482 33.66 10.1816 33.9863 10.0304C33.7441 10.2548 33.4212 10.4365 33.0982 10.6101C33.4481 10.741 33.7441 11.0081 33.9325 11.3768C34.0132 11.5317 34.0671 11.6947 34.0671 11.8603C34.5784 11.6973 35.0628 11.6279 35.4665 11.6279C33.9863 12.0366 32.4254 12.9902 31.3759 14.2538C31.4835 13.9252 31.645 13.626 31.8603 13.3616C32.0756 13.057 32.3716 12.7979 32.6676 12.5762C32.6676 12.5598 32.6606 12.5441 32.6538 12.5288C32.6472 12.5141 32.6407 12.4997 32.6407 12.4854C32.4793 12.1621 32.1025 12.0393 31.7796 12.1889C31.4566 12.3358 31.3221 12.7124 31.4835 13.025C31.5104 13.0891 31.5643 13.1452 31.6181 13.1933C31.4297 13.057 31.2952 12.8834 31.1875 12.675C31.0799 12.472 31.0529 12.2556 31.0529 12.0419C30.6762 12.3278 30.2994 12.6002 29.8688 12.7578C30.1231 12.5331 30.4209 12.171 30.7207 11.8066C31.0872 11.3611 31.4566 10.912 31.7526 10.7063C32.1084 10.4738 32.5295 10.3945 32.9575 10.3139ZM3.32043 13.3348C3.3904 13.0971 3.49267 12.8647 3.6353 12.5602C2.64764 13.1505 0.831099 14.8014 2.04482 16.0489C2.17668 16.5217 2.27895 16.8877 2.45926 17.2617C2.83064 18.031 3.79946 17.8334 4.53684 17.5235C4.55009 17.4919 4.55812 17.4604 4.56607 17.4291C4.57427 17.3969 4.58238 17.365 4.59605 17.3338C4.71715 16.9518 4.84632 16.5832 4.98627 16.2225C4.69562 16.487 4.3673 16.7087 3.969 16.8663C3.07395 17.2236 2.97035 17.0027 2.6678 16.3576C2.62195 16.2598 2.57152 16.1523 2.51308 16.0356C3.1323 15.5452 3.15825 14.9803 3.18681 14.3588C3.20181 14.0322 3.21753 13.69 3.32043 13.3348ZM4.23274 13.8825C4.20583 13.5272 4.13855 13.2627 3.88827 13.1185C3.87665 13.1454 3.87061 13.1729 3.86449 13.2007C3.85786 13.2309 3.85114 13.2615 3.83714 13.2921C3.82052 13.3566 3.80984 13.4236 3.79891 13.4922C3.79036 13.5458 3.78166 13.6003 3.76986 13.6554C3.96362 13.6287 4.08203 13.7329 4.23274 13.8825ZM33.7979 19.8475C33.9863 19.8121 34.1747 19.7767 34.3093 19.754C34.1694 19.8276 33.9787 19.9149 33.79 20.0012C33.6156 20.0811 33.4428 20.1601 33.3135 20.2269C33.2848 20.2431 33.2577 20.2582 33.2321 20.2726C32.9456 20.4325 32.8428 20.49 32.6946 20.8333C32.5331 21.1859 32.3447 21.616 32.2101 21.9873C32.2371 21.823 32.2707 21.6394 32.3043 21.4557C32.338 21.2721 32.3716 21.0884 32.3985 20.9241C32.5062 20.2295 32.5869 20.0612 33.2866 19.941C33.4212 19.9183 33.6096 19.8829 33.7979 19.8475ZM7.27107 30.0092C6.21344 28.4332 5.26346 26.5365 4.70369 24.6399C4.65121 24.7735 4.5994 24.9071 4.54758 25.0406C4.49579 25.1742 4.44399 25.3077 4.39152 25.4413C4.15612 25.6816 3.92005 25.922 3.68399 26.1623C3.44775 26.4028 3.21152 26.6433 2.97596 26.8838C2.93906 26.9204 2.90527 26.9532 2.87443 26.9831C2.61291 27.2367 2.56352 27.2846 2.62611 27.7386C2.72299 28.4332 3.12936 29.1544 3.73756 29.7688C4.29194 30.3298 6.21344 31.799 6.96697 30.8106C7.12575 30.5969 7.20379 30.3298 7.27107 30.0627V30.0092ZM30.4609 27.0174C30.2994 26.6167 30.1918 26.2694 30.0841 25.8954C29.9495 26.3853 29.7816 26.8588 29.6083 27.3478C29.4697 27.7387 29.3275 28.1395 29.196 28.5667C28.9 29.5017 27.393 32.1463 26.5049 32.7874C26.6932 32.8943 27.0162 32.9477 27.5544 33.0011C27.9581 33.0278 29.519 33.0546 29.9227 33.0546C30.7838 33.0813 31.1068 33.0011 31.1875 32.0395C31.2413 31.5586 31.1875 31.4518 30.9722 31.0511L30.8915 28.8072C30.8646 28.0859 30.73 27.6852 30.4609 27.0174ZM69.924 12.7184H69.0502L69.7174 11.397L69.924 12.7184ZM68.6068 13.5707H70.0574L70.1951 14.4746H71.1464L70.3759 10.2391H69.3859L67.1175 14.4746H68.1463L68.6068 13.5707ZM74.7362 11.0914H75.2527C75.4809 11.0914 75.6401 11.2205 75.6401 11.4787C75.6401 11.8618 75.3905 12.0684 75.0806 12.0684H74.5641L74.7362 11.0914ZM75.356 10.2391H74.0002L73.2512 14.4746H74.1336L74.4091 12.925H74.9945C75.9199 12.925 76.5656 12.3095 76.5656 11.3927C76.5656 10.6609 76.0663 10.2391 75.356 10.2391ZM80.4438 12.7184H79.57L80.2372 11.397L80.4438 12.7184ZM79.131 13.5707H80.5815L80.7193 14.4746H81.6705L80.9 10.2391H79.91L77.6417 14.4746H78.6704L79.131 13.5707ZM85.355 14.5434C85.6865 14.5434 86.0179 14.4617 86.3149 14.3239L86.4311 13.3167C86.1901 13.519 85.8285 13.661 85.454 13.661C84.8428 13.661 84.4554 13.179 84.4554 12.5634C84.4554 11.7542 85.1441 11.0569 85.9146 11.0569C86.2891 11.0569 86.5904 11.199 86.7755 11.4056L86.9003 10.3897C86.6507 10.252 86.345 10.1702 86.0093 10.1702C84.662 10.1702 83.53 11.3023 83.53 12.6495C83.53 13.7041 84.2359 14.5434 85.355 14.5434ZM89.8789 12.7657H91.7212L91.4242 14.4703H92.3066L93.0555 10.2348H92.1688L91.8718 11.9092H90.0296L90.3266 10.2348H89.4442L88.6952 14.4703H89.5776L89.8789 12.7657ZM95.7113 10.2391L94.9666 14.4746L97.3039 14.4703L97.4545 13.618H95.9911L96.1417 12.7657H97.489L97.6396 11.9135H96.2967L96.4473 11.0914H97.9108L98.0615 10.2391H95.7113Z" fill="white"/>
</svg>
