<svg width="116" height="39" viewBox="0 0 116 39" fill="none" xmlns="http://www.w3.org/2000/svg">
<path fill-rule="evenodd" clip-rule="evenodd" d="M84.4262 34.9092L81.3138 0H115.514L112.398 34.9037L98.3928 38.7864L84.4262 34.9092ZM92.7484 15.8019H98.414V15.8027H107.197H108.351L108.247 16.9524L107.241 28.2241L107.176 28.9474L98.4142 31.3758V31.3763L98.3945 31.3818L89.6243 28.9471L89.0244 22.2246H91.0053H93.3224L93.6272 25.6392L98.3955 26.9268L98.399 26.9258V26.9257L103.174 25.6369L103.671 20.0841H98.399V20.0833H88.8328L87.7805 8.28473L87.6781 7.13607H98.3991H98.414V7.13617H109.124L109.022 8.28483L108.827 10.4553L108.741 11.4177H108.727H98.399V11.4176H92.3572L92.7484 15.8019ZM0 11.1453H5.9635V17.0372H11.4187V11.1453H17.3824V28.9874H11.4189V23.0128H5.96376V28.9874H0.000258275L0 11.1453ZM25.2238 17.062H19.9738V11.1453H36.4401V17.062H31.1878V28.9875H25.224L25.2238 17.062ZM45.2734 11.1453H39.0551V28.9875H44.8902V20.1439L48.9959 26.4878H49.0985L53.2014 20.1439V28.9875H59.1403V11.1453H52.9197L49.0985 17.4145L45.2734 11.1453ZM62.1077 11.1453H68.073V23.0899H76.4594V28.9875H62.1077V11.1453Z" fill="white"/>
</svg>
