<svg width="49" height="31" viewBox="0 0 49 31" fill="none" xmlns="http://www.w3.org/2000/svg">
<path fill-rule="evenodd" clip-rule="evenodd" d="M18.3482 0.00670194C17.5986 -0.00404025 16.8491 -0.0147824 16.1062 0.0933719C13.3921 0.685169 10.8276 2.19616 9.16285 4.44298C6.65699 7.55455 5.64649 11.6493 5.69703 15.5922C5.72242 19.7318 6.87306 24.0426 9.74317 27.1385C11.7544 29.2804 14.5759 30.92 17.5899 30.7894C17.8745 30.7838 18.1594 30.7865 18.4443 30.7892C19.0545 30.795 19.6646 30.8006 20.271 30.7252C23.0925 30.2733 25.6919 28.661 27.3975 26.3732C29.0601 24.3951 30.0203 21.9339 30.5889 19.4376C30.7402 18.7704 30.7859 18.0904 30.8318 17.4103C30.8613 16.9708 30.8909 16.5311 30.949 16.0946C31.04 15.4693 30.971 14.8473 30.9016 14.2242C30.8584 13.8363 30.8152 13.4481 30.8108 13.0589C30.544 10.0079 29.6191 6.92565 27.7383 4.46837L27.7361 4.46544C26.6187 3.24376 25.4649 1.98156 23.957 1.23619C22.5901 0.543079 21.1006 -0.047009 19.541 0.00572538C19.1441 0.0179324 18.7461 0.0123172 18.3482 0.00670194ZM9.58155 5.82946C11.1763 3.48717 13.7056 1.78527 16.4976 1.26549C18.2617 1.12902 20.1172 0.998645 21.8054 1.63781C23.4214 2.19274 24.9131 3.12731 26.1065 4.34996C28.2795 6.78942 29.364 10.0372 29.6504 13.254C29.6697 14.7435 29.6873 16.2372 29.6387 17.7264C29.2395 21.4764 27.6272 25.3026 24.5139 27.5807C23.0847 28.6984 21.3303 29.3817 19.5332 29.5919C19.3425 29.5965 19.1509 29.6026 18.9587 29.6088C17.5859 29.6515 16.1868 29.6952 14.8836 29.2084C12.0134 28.3068 9.77223 25.9916 8.5066 23.3163C7.25074 20.4073 6.69972 17.2023 6.90821 14.0423C7.2002 11.1644 7.87965 8.22618 9.58155 5.82946ZM41.5354 0.00377225C39.3936 -0.0682492 37.3667 1.05699 35.9356 2.59142C34.3914 4.3048 33.7664 6.77574 34.2825 9.02062C34.658 10.555 35.6394 11.9044 36.9246 12.8116C38.1968 13.8263 39.6672 14.4891 41.1384 15.1525C42.4258 15.7328 43.7139 16.3136 44.8706 17.1305C45.9258 17.8194 46.7808 18.7992 47.2949 19.9557C48.5293 22.9425 47.4465 26.7237 44.738 28.5267C42.3374 30.1256 39.1987 30.0531 36.5545 29.1478C35.6336 28.8343 34.8528 28.2386 33.9766 27.8336C33.8667 28.0047 33.7688 28.1818 33.6836 28.3649C33.6148 28.513 33.554 28.6649 33.5017 28.8207C35.4155 30.349 37.9546 30.9352 40.3691 30.7911C43.3774 31.0306 46.2942 29.3016 47.8926 26.8114C49.0745 24.7142 49.2598 22.1341 48.5762 19.8463C48.1538 18.4779 47.0808 17.4652 46.0586 16.5228C44.7744 15.4691 43.271 14.7877 41.7676 14.1063C40.2598 13.4227 38.752 12.7394 37.4658 11.6805C36.239 10.6835 35.4038 9.20177 35.2986 7.61486C35.1526 5.71642 36.0252 3.78502 37.5088 2.60314C38.6382 1.63927 40.1157 1.21276 41.5606 1.01427C43.4553 0.833118 45.301 1.45812 46.9658 2.30699C47.0772 2.08556 47.1755 1.85802 47.2554 1.62291C47.2957 1.5045 47.3311 1.38414 47.3611 1.26158C46.6116 0.84679 45.8345 0.476917 45.011 0.235462C43.8836 -0.103405 42.6936 0.032825 41.5354 0.00377225ZM1.99366 2.22155C1.6316 1.82824 1.04932 1.65294 0.533456 1.79894C-0.144279 2.18248 -0.228019 3.54161 0.583993 3.81017C0.998788 4.05553 1.46998 3.76354 1.7815 3.48522C2.10914 3.20665 2.05421 2.73815 2.00758 2.34313L1.99366 2.22155ZM1.5984 9.17443C1.22657 9.14928 0.8545 9.14928 0.480721 9.17443L0.472176 9.34069C0.454598 9.6715 0.437264 10.0033 0.443856 10.3351C0.463875 13.3458 0.458749 16.3568 0.453622 19.3675C0.447518 23.0397 0.44117 26.7115 0.480721 30.3824C0.74659 30.399 1.01344 30.4037 1.27979 30.3966C1.38624 30.3937 1.49244 30.389 1.5984 30.3824L1.60719 30.2154C1.62452 29.8851 1.6421 29.5536 1.63551 29.2237C1.61622 26.2235 1.62086 23.2233 1.6255 20.2233C1.63136 16.5394 1.63697 12.8563 1.5984 9.17443Z" fill="#D9D9D9"/>
</svg>
