<svg width="128" height="40" viewBox="0 0 128 40" fill="none" xmlns="http://www.w3.org/2000/svg">
<path fill-rule="evenodd" clip-rule="evenodd" d="M12.4494 0.552043C13.3769 0.210792 14.4806 0.0232925 15.6087 0.00204245C17.4887 -0.03327 19.4369 0.38798 20.735 1.36954C21.6066 2.02892 22.9669 3.37642 23.4794 4.41267C24.0419 5.54986 24.3372 6.99829 24.4291 8.53048C24.4521 8.552 24.4752 8.57352 24.4984 8.59511C24.5882 8.67855 24.6794 8.76325 24.7687 8.85485C27.3919 11.5374 29.0134 15.2455 29.0131 19.333C29.0134 22.037 28.2869 24.5642 27.0469 26.7477C27.3378 26.9089 27.5981 27.1445 27.77 27.512C28.0762 28.1658 28.4241 29.237 28.5816 29.907C28.7016 30.4167 28.6356 31.1464 28.4228 31.8111C28.21 32.4755 27.8503 33.0883 27.2909 33.2711C26.4153 33.5567 25.4097 33.5364 24.3806 33.3299L24.3419 33.322L24.3116 33.297C24.1928 33.1983 24.0884 33.0417 23.9947 32.8839C23.34 32.8642 22.7416 32.9342 22.2369 33.1777C22.2272 33.408 22.1534 33.597 22.0187 33.7064C21.9029 33.8003 21.7726 33.8405 21.6466 33.8793C21.6304 33.8843 21.6144 33.8892 21.5984 33.8942C21.5091 34.3302 21.6078 34.8542 21.7359 35.3911C21.7462 35.4341 21.7566 35.4771 21.767 35.5202C21.8923 36.0387 22.0176 36.5573 21.9244 37.027C21.8484 37.4089 21.5619 37.6395 21.2484 37.7708C21.0141 37.8697 20.7639 37.9178 20.5309 37.9627C20.4952 37.9696 20.4598 37.9764 20.425 37.9833C20.4206 38.2745 20.4462 38.5383 20.4819 38.8083L20.4856 38.8392L20.4775 38.8689C20.3972 39.1649 20.18 39.388 19.9187 39.5424C19.6572 39.6967 19.3478 39.788 19.0447 39.8245C17.1612 40.0511 14.3166 40.162 12.4634 39.4958L12.3984 39.472L12.3725 39.4086C11.9725 38.4274 11.6422 37.2886 11.316 36.1636C11.2382 35.8955 11.1607 35.6281 11.0825 35.3639C9.63828 35.4723 8.42055 34.8658 7.31646 34.3158C7.08031 34.1982 6.84936 34.0832 6.6225 33.9783C6.50536 33.924 6.37111 33.8748 6.23278 33.8241C6.11538 33.781 5.99503 33.7369 5.87969 33.6877C5.62812 33.5805 5.38531 33.448 5.27031 33.2024C5.16656 32.982 5.1475 32.708 5.13812 32.4055C5.13473 32.2922 5.13357 32.1749 5.1324 32.056C5.13044 31.8577 5.12844 31.6549 5.11594 31.4586C5.09656 31.1586 5.07656 30.862 5.05594 30.5652C4.77812 30.3233 4.50406 30.0758 4.24437 29.8102C1.62125 27.1277 0 23.4202 0 19.3327C0 15.2452 1.62125 11.5374 4.24437 8.85454C4.56344 8.52829 4.90312 8.22704 5.24906 7.93517C5.27781 7.23361 5.38469 6.58392 5.61844 6.04454C5.85 5.51017 6.21687 5.08954 6.72469 4.84017C6.97875 3.90517 7.52625 3.2561 8.20375 2.75048C8.67986 2.39495 9.21542 2.10019 9.75791 1.80161C10.007 1.66454 10.2575 1.52666 10.5044 1.38173C11.0449 1.06428 11.6266 0.852232 12.2193 0.636171C12.2958 0.608274 12.3725 0.580309 12.4494 0.552043ZM20.5484 1.61673C19.3369 0.699855 17.4437 0.27798 15.615 0.312355C14.5178 0.332667 13.4431 0.516417 12.5559 0.84298C12.4865 0.868492 12.4175 0.893706 12.3489 0.918776C11.7482 1.13815 11.1773 1.34663 10.6619 1.64923C10.4051 1.79998 10.147 1.94219 9.8931 2.08212C9.35587 2.37817 8.83723 2.66396 8.38906 2.99861C7.72906 3.49142 7.22125 4.07986 6.99625 4.97767L6.97812 5.05079L6.90937 5.08173C6.44469 5.29017 6.12219 5.66267 5.90312 6.16829C5.68406 6.67392 5.57469 7.31017 5.55187 8.01454L5.54938 8.08423L5.49625 8.1286C5.13781 8.42892 4.79062 8.73923 4.46594 9.07142C1.89812 11.6977 0.309687 15.3267 0.309687 19.333C0.309687 23.3383 1.89812 26.967 4.46594 29.5933C4.73561 29.8661 5.01648 30.1275 5.30781 30.377L5.35625 30.4186L5.36031 30.483C5.38263 30.8017 5.40409 31.1204 5.42469 31.4392C5.43825 31.6513 5.44048 31.8642 5.4426 32.0661C5.4438 32.1805 5.44496 32.2913 5.44812 32.3964C5.45687 32.687 5.48687 32.9339 5.55125 33.0705C5.60906 33.1939 5.77312 33.3049 6.00125 33.4024C6.10012 33.4447 6.20836 33.4843 6.31939 33.5249C6.46417 33.5779 6.61371 33.6326 6.75344 33.6974C6.99753 33.8103 7.24262 33.9326 7.4903 34.0563C8.61689 34.6187 9.79731 35.2079 11.1837 35.0599L11.3122 35.0464L11.3484 35.1702C11.4325 35.4527 11.5157 35.7385 11.599 36.0247C11.9235 37.1397 12.2497 38.2602 12.6347 39.2189C14.3847 39.8239 17.1703 39.738 19.0072 39.517C19.2731 39.4845 19.5472 39.4017 19.7612 39.2752C19.9712 39.1511 20.1144 38.9892 20.1706 38.797C20.1683 38.7792 20.1659 38.7614 20.1635 38.7435C20.1273 38.4721 20.0899 38.1915 20.1075 37.8564L20.1144 37.737L20.2312 37.713C20.28 37.7029 20.3299 37.693 20.3803 37.6829C20.6374 37.6317 20.9087 37.5777 21.1284 37.4852C21.3916 37.3749 21.5675 37.2311 21.6203 36.9661C21.6988 36.5725 21.573 36.0446 21.4405 35.4886L21.4344 35.463C21.2997 34.898 21.1622 34.3027 21.3006 33.7536L21.3212 33.6708L21.4028 33.6445L21.4152 33.6405C21.584 33.5859 21.7356 33.5369 21.8237 33.4655C21.9141 33.3924 21.9659 33.3092 21.9425 33.0774L21.9322 32.9724L22.0253 32.9239C22.6322 32.6083 23.3366 32.5427 24.0722 32.5708L24.1625 32.5745L24.2044 32.6552C24.2778 32.7952 24.374 32.922 24.4891 33.0305C25.4656 33.2211 26.4041 33.2349 27.1953 32.9767C27.5872 32.8489 27.9303 32.3336 28.1278 31.7164C28.3256 31.0995 28.3778 30.3939 28.2797 29.9783C28.1291 29.3367 27.7778 28.2595 27.4891 27.6427C27.3178 27.2767 27.0781 27.0664 26.7869 26.9408L26.6275 26.8717L26.715 26.7205C28.0196 24.4772 28.7057 21.928 28.7034 19.333C28.7034 15.327 27.1153 11.6977 24.5472 9.07142C24.4621 8.98431 24.3714 8.89972 24.2789 8.81347C24.245 8.78183 24.2108 8.74996 24.1766 8.71767L24.1309 8.67517L24.1272 8.6136C24.0419 7.08454 23.7456 5.64798 23.2022 4.54954C22.7409 3.61704 21.3797 2.24517 20.5484 1.61673ZM13.8825 1.43673C14.4294 1.16392 15.0775 1.04454 15.7606 1.03767C17.2634 1.02267 18.9347 1.55267 20.0662 2.19142C20.8823 2.65175 21.514 3.48349 22.0996 4.25448C22.1926 4.37692 22.2844 4.49783 22.3756 4.61548C21.4425 4.33861 20.6484 4.81423 20.7931 5.58392C21.5744 4.86798 22.9081 5.57611 23.3025 6.36736C23.6304 7.02485 23.6718 7.95732 23.715 8.92835C23.7215 9.07512 23.728 9.22276 23.7356 9.37048C23.8762 12.0983 23.2362 14.9127 21.8656 16.8845C21.7901 16.9932 21.7171 17.1039 21.6442 17.2144C21.3637 17.6395 21.0855 18.0612 20.6762 18.3489C19.4341 19.2211 17.5462 20.012 15.9297 19.4699C13.8628 18.776 12.8874 17.421 11.762 15.8577C11.7242 15.8052 11.6863 15.7525 11.6481 15.6995C11.68 16.5949 12.3097 17.3295 12.9312 18.0145C13.4728 18.6117 14.1256 19.2861 14.8281 19.5642C14.2419 19.4267 13.3422 19.3833 13.0978 19.9095C11.7306 19.8186 10.4603 19.6789 9.81344 18.752C9.30375 18.0214 8.78531 16.7789 8.55312 15.8195C8.50562 15.6224 8.42469 15.202 8.44469 15.0945C8.47408 14.9341 8.60236 14.8084 8.73221 14.6811C8.93926 14.4782 9.15031 14.2714 8.97094 13.9136C8.68664 13.911 8.51861 14.0479 8.35049 14.1849C8.2004 14.3072 8.05023 14.4295 7.81719 14.4527C6.53844 14.5789 5.63594 12.7574 5.69406 11.6583C5.74312 10.7239 6.53312 9.82954 7.61375 9.94767C8.3775 10.0314 8.63688 10.8649 8.785 11.6064C9.22531 11.6299 9.86187 11.5877 10.07 11.2442C10.0557 10.8441 9.95957 10.4818 9.8659 10.1287C9.7633 9.74189 9.66361 9.36611 9.6775 8.9636C9.69525 8.4561 9.8037 7.96589 9.9108 7.48179C10.1091 6.58544 10.3028 5.71002 9.9075 4.78454C10.5591 3.30736 12.4691 2.14142 13.8825 1.43673ZM11.81 1.76861C11.8305 1.76277 11.8521 1.76159 11.8731 1.76517C11.9347 1.77485 11.9909 1.82235 12.0456 1.88079C12.0384 2.06904 11.8976 2.11344 11.757 2.15778C11.71 2.17262 11.6629 2.18745 11.6209 2.20767C11.4881 2.37078 11.3242 2.48972 11.1533 2.61365C10.989 2.73287 10.8183 2.8567 10.6628 3.02892C10.5468 3.15723 10.4258 3.36293 10.2985 3.57928C10.0693 3.96889 9.81978 4.39301 9.5425 4.46173C9.41355 4.49378 9.27383 4.47416 9.14221 4.45569C9.05309 4.44317 8.9677 4.43118 8.89187 4.43611C8.62381 4.45326 8.39856 4.53494 8.16901 4.61817C7.97201 4.68961 7.77184 4.76219 7.53875 4.79611C8.19062 3.37111 10.2237 2.21829 11.81 1.76861ZM14.7447 4.86861C14.6912 4.86048 14.6375 4.85704 14.5828 4.85704C13.7656 4.85798 12.8344 5.73204 12.5916 6.39892C12.4928 6.66986 12.3375 7.20236 12.7284 7.29673C13.1666 6.32048 13.8844 5.3786 15.3297 5.71548C15.6072 5.25923 15.1112 4.92392 14.7447 4.86861ZM6.79625 6.24329C7.44281 5.53142 8.33469 5.08767 9.41906 5.00548C9.71662 5.76286 9.58355 6.59618 9.44806 7.44463C9.32913 8.18938 9.20834 8.94577 9.37531 9.67267C9.39701 9.76717 9.42931 9.87201 9.46242 9.97948C9.59618 10.4136 9.7432 10.8909 9.25875 10.9039C9.27437 9.5486 7.59406 8.68954 6.3275 9.4861C6.32463 9.4513 6.32169 9.41601 6.31871 9.38029C6.23381 8.36152 6.11936 6.98811 6.79625 6.24329ZM22.4403 7.36423L22.3719 7.36111C22.3353 7.97833 22.5091 8.40136 22.6828 8.82405C22.7288 8.93596 22.7748 9.04784 22.8169 9.16329C22.6304 9.28092 22.3493 9.29613 22.0681 9.31133C21.825 9.32447 21.5819 9.33762 21.4 9.41704C21.3719 10.5714 23.1853 10.003 23.4612 9.36017C23.1536 8.91276 22.9182 8.39876 22.6827 7.88457C22.6028 7.71028 22.523 7.53597 22.4403 7.36423ZM16.3424 7.97906C16.2614 7.78108 16.1784 7.57819 16.0697 7.37892C15.8553 7.98829 16.4378 9.02173 16.7647 9.54423C16.4615 9.83874 15.9859 9.74934 15.5316 9.66394C15.3482 9.62946 15.1682 9.59562 15.0044 9.58798C14.4609 10.4464 16.0653 10.608 16.7537 10.4049C16.9422 10.3492 17.2694 10.0664 17.3141 9.93985C17.48 9.47337 17.2113 9.23403 17.0076 9.05268C16.9766 9.02507 16.9472 8.99881 16.9209 8.97329C16.6351 8.6946 16.4922 8.34522 16.3424 7.97906ZM19.5549 8.3418C19.5236 8.19045 19.4755 7.958 19.3403 7.94017C19.2987 7.93454 19.2491 7.94985 19.1891 7.99329C19.1525 9.3426 20.0956 10.4728 20.8682 11.3987C20.9152 11.455 20.9615 11.5104 21.0069 11.5652C21.0717 11.6432 21.1388 11.7157 21.2035 11.7856C21.5257 12.1336 21.7899 12.419 21.4319 13.0227C21.2571 13.0891 21.0552 13.1868 20.8354 13.2931C20.183 13.6086 19.3734 14.0002 18.6525 13.8767C18.3081 13.8178 18.2477 13.5356 18.1889 13.2611C18.1604 13.1279 18.1322 12.9964 18.0722 12.8933C17.7197 13.357 17.8581 14.0595 18.2212 14.3752C19.92 14.5433 21.0766 13.8183 22.1131 13.1527C22.0956 13.0405 22.1508 12.8898 22.2118 12.7233C22.2931 12.5016 22.3846 12.252 22.3284 12.0277C22.3076 11.9456 22.186 11.8411 22.0519 11.7259C21.9653 11.6515 21.8735 11.5726 21.8003 11.4924C21.0394 10.663 19.9972 9.42392 19.5831 8.45485C19.5739 8.43329 19.5653 8.39201 19.5549 8.3418ZM4.97406 9.56704C5.13428 9.40434 5.29882 9.24595 5.4675 9.09204C5.51656 9.31517 5.56594 9.54079 5.52812 9.72954C5.5086 9.82753 5.41969 9.94228 5.34366 10.0404C5.29554 10.1025 5.25258 10.158 5.23562 10.1983C4.68094 11.5214 5.12562 13.2611 5.76687 14.2011C6.15437 14.7695 6.79625 15.2733 7.64281 15.407C7.67656 15.9139 7.79875 16.3505 8.03281 16.8639C8.07249 16.9512 8.14142 17.057 8.2171 17.1733C8.42333 17.4901 8.67968 17.8839 8.53062 18.187C8.45179 18.3478 7.90043 18.6536 7.51413 18.8678C7.39818 18.9321 7.29709 18.9881 7.22812 19.0295C6.93955 19.2026 6.67368 19.3566 6.41932 19.5039C5.78426 19.8715 5.221 20.1977 4.55562 20.6767C4.39317 20.7937 4.20603 20.8832 4.02221 20.9711C3.52391 21.2093 3.05 21.4358 3.15844 22.167C3.22676 22.627 3.42697 23.162 3.61724 23.6704C3.70635 23.9085 3.79327 24.1407 3.86344 24.3567C3.96189 24.6589 4.07786 24.9507 4.19388 25.2425C4.35848 25.6566 4.52319 26.0709 4.63812 26.5158C4.87563 27.4367 5.0075 28.3283 5.09812 29.2167C5.07894 29.1975 5.0592 29.179 5.03946 29.1604C5.01739 29.1397 4.99534 29.119 4.97406 29.0974C2.53187 26.5989 1.02031 23.1489 1.02031 19.3327C1.02031 15.5161 2.53187 12.0661 4.97406 9.56704ZM23.6372 14.5845C24.0428 13.1583 24.2816 11.4914 24.3059 9.85267C26.59 12.3258 27.9941 15.658 27.9941 19.333C27.9974 21.9168 27.2836 24.4508 25.9322 26.653C24.9725 26.6999 23.8703 27.2086 23.1337 27.5749C23.7575 25.9333 24.2947 24.2308 24.845 22.3895C24.8787 22.2766 24.919 22.1541 24.9614 22.0257C25.1259 21.5263 25.3197 20.9382 25.2616 20.4833C25.2101 20.0755 24.7143 19.6515 24.2854 19.2847C24.1494 19.1683 24.02 19.0577 23.9137 18.9552C23.852 18.8957 23.7333 18.7962 23.5893 18.6753C23.1609 18.316 22.508 17.7684 22.4584 17.5252C22.4128 17.3023 22.6662 16.8797 22.8784 16.5256C22.9656 16.3802 23.0459 16.2464 23.0956 16.1427C23.3341 15.6459 23.507 15.0405 23.6279 14.6172L23.6372 14.5845ZM8.44344 12.4511C8.6675 11.3727 7.90969 10.6274 7.25469 10.6174C6.86187 10.6114 6.50531 10.8708 6.42156 11.4808C6.46876 11.4499 6.5135 11.4034 6.55992 11.3553C6.68467 11.2259 6.8215 11.0839 7.05062 11.1964C6.775 11.7352 6.84125 12.7839 7.21656 13.1245C7.21629 13.0452 7.21452 12.9588 7.21266 12.8685C7.19956 12.2313 7.1824 11.3962 7.66 11.4252C7.87129 11.4382 7.98919 11.6948 8.10763 11.9527C8.20291 12.1601 8.29855 12.3684 8.44344 12.4511ZM20.1919 15.7895C21.6078 15.7602 22.2906 14.7486 22.7734 13.8299C22.5417 13.9355 22.3225 14.0547 22.1032 14.1739C21.5382 14.4811 20.973 14.7883 20.1931 14.8633C20.1403 15.0417 20.1631 15.493 20.1919 15.7895ZM19.7794 14.9161C18.5516 14.952 16.8909 14.9011 15.9878 14.4261C16.4016 15.5339 18.2678 15.9245 19.8459 15.8458C19.8458 15.8259 19.8456 15.806 19.8455 15.786C19.8434 15.4775 19.8413 15.1685 19.7794 14.9161ZM20.0151 16.6665C18.2958 16.7159 16.3974 16.7705 15.8166 15.3117C15.1782 15.3125 15.481 15.5967 15.6969 15.7993C15.7509 15.8501 15.7995 15.8957 15.8266 15.9305C15.8921 16.0146 15.9602 16.1126 16.0326 16.2169C16.2699 16.5583 16.5539 16.9669 16.9453 17.1752C17.7506 17.6027 19.3512 17.4239 19.9312 17.1877C20.1462 17.1008 20.3184 16.8595 20.3981 16.6561C20.2719 16.6591 20.144 16.6628 20.0151 16.6665ZM21.2962 18.8707C21.4976 18.7174 21.71 18.5557 21.8425 18.3602C22.2028 18.6502 22.4803 18.9304 22.7661 19.219C22.9723 19.4273 23.1829 19.6399 23.4322 19.8639C23.5111 19.9346 23.6087 20.0087 23.712 20.0872C24.0312 20.3297 24.4053 20.6138 24.4537 20.967C24.4829 21.1787 24.3829 21.6387 24.3127 21.9619C24.2963 22.0376 24.2815 22.1057 24.2703 22.1614C24.0097 23.4492 23.4237 25.1511 22.8659 26.5008C22.8307 26.5861 22.7957 26.675 22.7606 26.7644C22.5936 27.1893 22.4231 27.6233 22.2016 27.7111C21.8626 27.8453 21.49 27.8493 21.1259 27.8532C20.7028 27.8578 20.291 27.8622 19.9562 28.0705C20.3327 27.4173 20.7241 26.7804 21.1155 26.1436C21.5946 25.3641 22.0736 24.5848 22.525 23.7758C22.4681 23.6429 22.3737 23.5447 22.2793 23.4466C22.1664 23.3292 22.0535 23.2119 22.005 23.0352C22.5812 21.947 22.3162 18.5695 20.8456 19.2824C20.9431 19.1395 21.1152 19.0085 21.2962 18.8707ZM4.01656 22.1667C5.49094 21.0283 7.14094 19.8252 8.90656 19.1283L8.90562 19.1289C8.99105 19.0952 9.41979 19.6007 9.75597 19.9971C9.94615 20.2213 10.1067 20.4106 10.1587 20.4477C10.8678 20.951 11.7306 21.3598 12.5633 21.7544C12.6591 21.7998 12.7546 21.845 12.8494 21.8902C12.9053 22.3117 13.0359 22.8577 13.2641 23.5883C13.2878 23.6643 13.3112 23.7432 13.3349 23.8234C13.5631 24.5943 13.8248 25.4785 14.7903 24.952C14.7501 25.135 14.6325 25.2903 14.5155 25.4449C14.3379 25.6794 14.1618 25.9121 14.2603 26.2361C14.3362 26.4856 14.9693 26.7789 15.4369 26.9956C15.6007 27.0715 15.7442 27.138 15.8362 27.1899C16.3202 27.4627 16.773 27.6452 17.1792 27.8089C17.3225 27.8667 17.4599 27.9221 17.5909 27.9783C15.4021 28.0382 13.2181 28.2172 11.0487 28.5145C10.8633 28.2274 10.8682 27.8263 10.8737 27.3869C10.8757 27.2266 10.8777 27.0613 10.8706 26.8945C10.8601 26.6511 10.8897 26.2979 10.9196 25.9408C10.973 25.3039 11.0275 24.6547 10.8569 24.5942C10.5556 24.4867 10.4997 25.0974 10.4891 25.2317C10.4699 25.4757 10.5033 25.8125 10.5401 26.1844C10.6114 26.904 10.6957 27.7551 10.4378 28.3195C10.2093 28.2549 10.0427 28.1331 9.87617 28.0113C9.73021 27.9046 9.58424 27.7978 9.39656 27.7295C9.30624 28.0141 9.42681 28.1434 9.53678 28.2614C9.61857 28.3491 9.6945 28.4305 9.67344 28.5649C9.64414 28.7507 9.47053 28.7841 9.28769 28.8193C9.06098 28.8629 8.82008 28.9093 8.8225 29.2524C9.02771 29.2851 9.27674 29.2662 9.53684 29.2464C9.92792 29.2167 10.344 29.1852 10.6737 29.3242C10.8109 30.9309 11.027 32.4574 11.2664 34.1476C11.2779 34.2293 11.2896 34.3114 11.3012 34.3939C9.64018 34.3079 8.42422 33.6601 7.22936 33.0235C6.85202 32.8224 6.47679 32.6225 6.09031 32.4417C5.99 28.8792 5.42281 25.1836 4.01656 22.1667ZM19.5469 20.6207C20.0104 20.3059 20.5776 19.9206 21.0241 19.9424C21.1203 19.9457 21.2143 19.9729 21.2978 20.0208C21.6178 20.207 21.7537 21.2717 21.7787 21.7895C21.7994 22.2189 21.74 22.6527 21.565 22.8802C20.6653 22.8536 19.8525 22.7467 19.1406 22.5458C19.1633 22.4095 19.1555 22.2743 19.1483 22.1475C19.14 22.003 19.1323 21.8694 19.1709 21.7574C19.3301 21.6428 19.5754 21.6218 19.8211 21.6007C19.8818 21.5954 19.9425 21.5902 20.0019 21.5836C19.7425 21.4561 19.3781 21.4058 19.0791 21.4795C19.074 21.3373 19.0281 21.2331 18.9822 21.1287C18.9626 21.0843 18.943 21.0398 18.9266 20.9924C19.0808 20.9374 19.299 20.7891 19.5469 20.6207ZM18.5236 20.1528C18.8326 20.0787 19.1336 20.0066 19.4116 19.9817C19.1932 20.1243 18.9936 20.2872 18.7939 20.4501C18.6484 20.5689 18.5028 20.6877 18.35 20.7986C17.5459 20.8386 17.1075 20.7433 16.5169 20.2817C16.5214 20.2645 16.5364 20.2588 16.5515 20.2531C16.5689 20.2465 16.5863 20.2399 16.5875 20.2155C17.1729 20.4765 17.8664 20.3103 18.5236 20.1528ZM12.7759 21.1324C12.2197 21.0983 10.4728 20.463 10.9322 19.997C11.2323 20.2053 11.7196 20.24 12.207 20.2747C12.4489 20.292 12.6909 20.3092 12.91 20.3477C12.9277 20.4556 12.8916 20.5809 12.8524 20.7169C12.8148 20.8475 12.7744 20.9879 12.7759 21.1324ZM13.3499 22.1619C13.3143 21.3879 13.2592 20.1889 13.9625 20.1745C14.0145 20.1739 14.0665 20.1788 14.1175 20.1889C14.8319 20.3252 15.6628 20.6539 16.2159 20.9561C16.3024 21.0035 16.3796 21.0537 16.4552 21.1029C16.6748 21.2458 16.8809 21.3799 17.2622 21.4092C17.2597 21.4774 17.2575 21.5455 17.2544 21.6142C17.1018 21.7145 16.8984 21.7597 16.6949 21.8049C16.5238 21.8429 16.3527 21.8809 16.2119 21.9517C16.6659 21.9717 17.0244 22.0814 17.3337 22.2358C17.3314 22.2945 17.329 22.353 17.3266 22.4116C17.322 22.5243 17.3174 22.637 17.3131 22.7499C17.1047 22.8925 16.9036 23.0634 16.6978 23.2383C16.3952 23.4955 16.0825 23.7613 15.7216 23.9583C15.435 24.1145 14.4291 24.5167 14.1241 24.4458C13.9891 24.4142 13.9503 24.2758 13.9067 24.1202C13.8947 24.0773 13.8823 24.0331 13.8675 23.9895C13.8327 23.8874 13.7872 23.7709 13.7377 23.6439C13.5777 23.234 13.3752 22.7151 13.3525 22.2183C13.3517 22.1998 13.3508 22.181 13.3499 22.1619ZM17.6397 21.4236C17.8075 21.3117 17.9559 21.2583 18.0841 21.248C18.1245 21.2447 18.1652 21.246 18.2053 21.2517C18.8644 21.3489 18.8169 22.7158 17.7741 22.3895C17.7489 22.2467 17.7225 22.1364 17.6994 22.0398C17.6501 21.8337 17.6156 21.6896 17.6397 21.4236ZM18.2849 22.917C18.4188 22.8513 18.5471 22.7885 18.6841 22.8033C18.8447 22.8203 18.9912 22.9243 19.1479 23.0355C19.3598 23.1859 19.5905 23.3496 19.9003 23.3299C19.8804 23.6525 19.8675 23.9754 19.8546 24.2971C19.8114 25.3762 19.7687 26.4411 19.4666 27.433C19.1977 26.9399 18.9696 26.4092 18.7414 25.8786C18.3496 24.9672 17.9577 24.0558 17.3597 23.3349C17.4153 23.2759 17.4676 23.2132 17.5198 23.1505C17.5615 23.1005 17.6032 23.0505 17.6466 23.0024C17.8971 23.107 18.0966 23.0092 18.2849 22.917ZM20.3097 23.3805C20.4807 23.2979 20.6676 23.2534 20.8575 23.2502C21.3778 23.2464 21.8034 23.5861 22.0378 23.9624C21.9232 24.1587 21.8094 24.3558 21.6956 24.553C21.0815 25.6167 20.4674 26.6803 19.7337 27.6149C20.0981 26.5427 20.2544 24.7483 20.3097 23.3805ZM18.9081 23.6533H18.8937C18.8171 23.6552 18.7439 23.6873 18.6908 23.7425C18.6376 23.7978 18.6083 23.8717 18.6092 23.9484C18.6102 24.0251 18.6413 24.0983 18.6959 24.1522C18.7505 24.2061 18.8241 24.2363 18.9008 24.2363C18.9775 24.2363 19.0511 24.2061 19.1056 24.1522C19.1602 24.0983 19.1914 24.0251 19.1923 23.9484C19.1933 23.8717 19.164 23.7978 19.1108 23.7425C19.0576 23.6873 18.9848 23.6552 18.9081 23.6533ZM16.6793 23.8739C16.7526 23.8254 16.8258 23.777 16.8984 23.7283C17.6487 24.6804 18.1444 25.8671 18.6402 27.0541C18.7186 27.2416 18.7969 27.4292 18.8762 27.6158C17.5022 27.2014 16.0981 26.5292 14.8937 25.848C15.1099 24.912 15.9022 24.3879 16.6793 23.8739ZM19.2 25.0058H19.185C19.0309 25.0136 18.9081 25.1408 18.9081 25.297C18.9081 25.3547 18.9251 25.4111 18.9571 25.4591C18.9891 25.5071 19.0346 25.5445 19.0878 25.5666C19.1411 25.5887 19.1997 25.5946 19.2563 25.5834C19.3128 25.5722 19.3648 25.5445 19.4056 25.5037C19.4464 25.463 19.4743 25.4111 19.4856 25.3545C19.4969 25.298 19.4912 25.2394 19.4692 25.1861C19.4472 25.1328 19.4098 25.0872 19.3619 25.0551C19.314 25.023 19.2577 25.0059 19.2 25.0058ZM25.6781 27.4674C25.7882 27.3964 25.9173 27.3608 26.0481 27.3652C26.425 27.3745 26.8 27.6805 26.9644 27.9289C27.2413 28.3475 27.5013 29.5267 27.6609 30.2505C27.672 30.301 27.6827 30.3492 27.6928 30.3949C27.9244 31.4361 27.4041 32.4502 26.5759 32.6514C25.9734 32.7977 25.0487 32.8358 24.6541 32.6452C24.9407 32.4885 25.3126 32.4245 25.6845 32.3604C25.9393 32.3165 26.1942 32.2726 26.4216 32.1989C25.9129 31.9798 25.2492 32.031 24.5859 32.0821C24.2049 32.1115 23.8239 32.1408 23.4725 32.1189C23.4558 31.9483 23.4397 31.7757 23.4236 31.6024C23.3272 30.5671 23.2283 29.5062 22.9869 28.702C23.3064 28.3626 23.8832 28.1696 24.463 27.9756C24.9033 27.8283 25.3454 27.6804 25.6781 27.4674ZM24.9953 28.9366C25.3036 28.7442 25.6192 28.5473 25.9825 28.4745C24.9956 28.5033 24.2244 28.7649 23.7844 29.3852C24.2305 29.4137 24.6072 29.1787 24.9953 28.9366ZM21.7164 28.7321C21.8401 28.7225 21.9689 28.7126 22.0941 28.718C22.1631 28.7204 22.2319 28.7291 22.2994 28.7439C22.8241 29.6458 22.9366 31.1461 22.9191 32.2352C22.7938 32.2594 22.6854 32.3018 22.5769 32.3443C22.4024 32.4126 22.2278 32.481 21.9828 32.4733C21.928 31.8018 21.8187 31.1117 21.7111 30.4325C21.6198 29.8566 21.5298 29.2885 21.4753 28.7461C21.5516 28.7448 21.6329 28.7386 21.7164 28.7321ZM11.0541 29.2689C12.4762 29.003 14.29 28.7592 16.0166 28.7311C17.0525 28.7142 18.0569 28.7755 18.9266 28.9564C19.0441 29.7213 19.0724 30.4802 19.1005 31.2351C19.1231 31.8431 19.1457 32.4484 19.2147 33.052C19.2999 33.7997 19.3233 34.591 19.3467 35.3816C19.3796 36.4952 19.4125 37.6074 19.6181 38.5942C17.7041 39.1877 15.0941 39.1308 12.9288 38.4733C11.9531 35.4836 11.4209 32.6452 11.0541 29.2689ZM20.5254 28.8506C20.5543 28.8503 20.5834 28.8501 20.6128 28.8499C20.8382 29.6637 20.9062 30.6232 20.9742 31.5826C21.0095 32.0809 21.0448 32.5792 21.1022 33.057C20.6038 33.1663 20.2347 33.2216 19.7112 33.3001L19.6503 33.3092C19.5394 31.8577 19.4556 30.4277 19.4753 28.978C19.8401 28.8556 20.1655 28.8532 20.5254 28.8506ZM26.3447 29.7589C26.0397 29.6536 25.5472 29.5564 25.1047 29.5624C24.7141 29.5674 24.3625 29.6524 24.2119 29.8824C24.7944 29.9304 25.4559 29.857 26.0547 29.7906C26.1533 29.7796 26.2501 29.7689 26.3447 29.7589ZM26.5769 30.8658C26.2719 30.7239 25.5753 30.5595 24.9925 30.5667C24.6428 30.5708 24.3341 30.6377 24.1756 30.8077C24.8903 30.8677 25.825 30.8824 26.5769 30.8658ZM20.1633 33.9588C20.2554 33.9337 20.3461 33.909 20.4284 33.8961C20.5016 33.8849 20.5678 33.8827 20.6228 33.897C20.6634 34.2517 20.7416 34.6082 20.8209 34.9698C20.9527 35.5712 21.0877 36.1868 21.0584 36.8324C20.9926 36.8546 20.9313 36.8763 20.8724 36.8972C20.5592 37.0082 20.3159 37.0944 19.8472 37.0939C19.8358 36.8389 19.8177 36.5448 19.7988 36.2353C19.7525 35.4783 19.7005 34.6292 19.7253 34.0345C19.8537 34.0431 20.0104 34.0005 20.1633 33.9588ZM92.0146 29.5447H86.5045C85.826 28.3228 85.2059 27.2885 84.6444 26.4419C84.0829 25.5874 83.5525 24.7967 83.0534 24.0699L82.3514 24.6809V27.2925C82.3514 27.58 82.3904 27.8156 82.4684 27.9993C82.5542 28.183 82.7141 28.3188 82.9481 28.4066C83.0885 28.4705 83.2523 28.5264 83.4394 28.5743C83.6266 28.6222 83.8138 28.6542 84.001 28.6702V29.5447H76.7594V28.6702C76.9544 28.6542 77.1494 28.6342 77.3444 28.6103C77.5394 28.5783 77.7109 28.5384 77.8591 28.4905C78.1087 28.4026 78.2764 28.2668 78.3622 28.0832C78.4558 27.8995 78.5026 27.6599 78.5026 27.3644V14.0069C78.5026 13.7433 78.4441 13.4718 78.3271 13.1922C78.2179 12.9047 78.0541 12.6891 77.8357 12.5453C77.6875 12.4495 77.4653 12.3696 77.1689 12.3057C76.8725 12.2418 76.6035 12.2019 76.3617 12.1859V11.3114L82.176 10.9999L82.3514 11.1916V23.5548C82.9286 23.0277 83.5759 22.4167 84.2934 21.7219C85.0188 21.027 85.5998 20.452 86.0366 19.9968C86.2939 19.7252 86.4343 19.5216 86.4577 19.3858C86.4889 19.242 86.5045 19.1542 86.5045 19.1222C86.5045 18.9785 86.3797 18.8587 86.1301 18.7629C85.8884 18.667 85.5218 18.5832 85.0305 18.5113V17.6607H90.9734V18.4873C90.1935 18.7109 89.5969 18.9226 89.1835 19.1222C88.778 19.3139 88.3334 19.5735 87.8499 19.9009C87.5301 20.1166 87.2181 20.3442 86.914 20.5838C86.6176 20.8154 86.2744 21.1069 85.8845 21.4583C86.6488 22.5924 87.3546 23.6426 88.002 24.609C88.6493 25.5754 89.3278 26.5977 90.0375 27.6758C90.2793 28.0512 90.5796 28.3028 90.9383 28.4306C91.2971 28.5584 91.6559 28.6382 92.0146 28.6702V29.5447ZM45.4419 13.4798C45.1299 13.5197 44.8647 13.5596 44.6464 13.5995C44.428 13.6395 44.1823 13.6954 43.9093 13.7673C43.5896 13.8551 43.3829 14.0109 43.2893 14.2345C43.2035 14.4581 43.1606 14.7137 43.1606 15.0012V24.3694C43.1606 25.232 42.989 26.0226 42.6459 26.7414C42.3105 27.4602 41.8465 28.0632 41.2537 28.5504C40.6532 29.0296 39.9825 29.389 39.2415 29.6286C38.5006 29.8761 37.709 29.9999 36.8667 29.9999C35.4082 29.9999 34.2306 29.6405 33.3337 28.9217C32.4446 28.203 32 27.2166 32 25.9627C32 25.22 32.2028 24.605 32.6083 24.1178C33.0217 23.6307 33.5871 23.3871 34.3047 23.3871C34.9832 23.3871 35.5213 23.5907 35.9191 23.998C36.3246 24.4053 36.5274 24.9085 36.5274 25.5075C36.5274 26.0186 36.3519 26.4938 36.001 26.9331C35.6578 27.3644 35.264 27.7637 34.8194 28.1311V28.2868C34.8896 28.4465 35.0417 28.5823 35.2757 28.6941C35.5096 28.8059 35.7475 28.8618 35.9893 28.8618C36.9252 28.8618 37.6583 28.5184 38.1886 27.8316C38.7268 27.1447 38.9959 26.1065 38.9959 24.7168V15.121C38.9959 14.8335 38.953 14.5939 38.8672 14.4022C38.7814 14.2105 38.5747 14.0428 38.2471 13.899C38.0132 13.7952 37.7285 13.7074 37.3931 13.6355C37.0656 13.5636 36.7926 13.5117 36.5742 13.4798V12.5453H45.4419V13.4798ZM59.3283 26.6815C59.0553 27.1367 58.7239 27.568 58.3339 27.9753C57.9517 28.3747 57.515 28.7181 57.0236 29.0056C56.5011 29.3091 55.9708 29.5367 55.4326 29.6885C54.9023 29.8482 54.29 29.928 53.5959 29.928C52.4416 29.928 51.4433 29.7603 50.601 29.4249C49.7665 29.0895 49.0763 28.6382 48.5303 28.0712C47.9844 27.5041 47.5749 26.8373 47.302 26.0705C47.0368 25.2959 46.9042 24.4573 46.9042 23.5548C46.9042 22.7402 47.0485 21.9615 47.3371 21.2187C47.6334 20.468 48.0507 19.8011 48.5888 19.2181C49.1192 18.651 49.786 18.1918 50.5893 17.8404C51.4004 17.489 52.3051 17.3133 53.3034 17.3133C54.3953 17.3133 55.2922 17.4491 55.9942 17.7206C56.6961 17.9922 57.2771 18.3675 57.7373 18.8467C58.1818 19.3019 58.5055 19.841 58.7083 20.464C58.911 21.079 59.0124 21.7259 59.0124 22.4047V23.1834H51.1041C51.1041 24.8207 51.4121 26.0666 52.0283 26.9211C52.6444 27.7757 53.6232 28.203 54.9647 28.203C55.6978 28.203 56.3568 27.9993 56.9417 27.592C57.5267 27.1767 58.0258 26.6536 58.4392 26.0226L59.3283 26.6815ZM54.8594 22.1292C54.8594 21.65 54.836 21.1588 54.7892 20.6557C54.7424 20.1525 54.6605 19.7412 54.5435 19.4217C54.4109 19.0464 54.2276 18.7629 53.9937 18.5712C53.7675 18.3795 53.4789 18.2837 53.128 18.2837C52.5274 18.2837 52.0478 18.5951 51.689 19.2181C51.3302 19.841 51.1353 20.8274 51.1041 22.1771L54.8594 22.1292ZM68.8628 29.5447H75.9054V28.6702C75.6715 28.6462 75.4609 28.6063 75.2737 28.5504C75.0943 28.4945 74.9422 28.4386 74.8175 28.3827C74.5835 28.2788 74.4236 28.1391 74.3378 27.9634C74.252 27.7877 74.2091 27.552 74.2091 27.2565V21.3864C74.2091 20.1645 73.8894 19.1861 73.2498 18.4514C72.6181 17.7086 71.6666 17.3373 70.3953 17.3373C69.865 17.3373 69.3658 17.4051 68.8979 17.5409C68.4299 17.6767 68.0517 17.8404 67.7631 18.0321C67.4979 18.2078 67.2094 18.4354 66.8974 18.7149C66.5854 18.9945 66.3203 19.2341 66.1019 19.4337H66.0551V17.6966L65.8796 17.517L60.2993 17.8284V18.703C60.5567 18.7269 60.7906 18.7708 61.0012 18.8347C61.2196 18.8986 61.399 18.9785 61.5394 19.0743C61.7421 19.2261 61.9059 19.4217 62.0307 19.6613C62.1555 19.9009 62.2179 20.1445 62.2179 20.3921V27.3644C62.2179 27.6599 62.1711 27.8995 62.0775 28.0832C61.9839 28.2668 61.8123 28.4026 61.5628 28.4905C61.4224 28.5384 61.2508 28.5783 61.048 28.6103C60.853 28.6342 60.6581 28.6542 60.4631 28.6702V29.5447H67.5759V28.6702C67.3965 28.6462 67.2133 28.6063 67.0261 28.5504C66.8389 28.4945 66.6829 28.4306 66.5581 28.3587C66.3787 28.2629 66.2501 28.1231 66.1721 27.9394C66.0941 27.7477 66.0551 27.5121 66.0551 27.2326V20.7994C66.1487 20.6716 66.2618 20.5239 66.3943 20.3562C66.5347 20.1885 66.718 20.0247 66.9442 19.865C67.2016 19.6813 67.4628 19.5415 67.728 19.4457C68.001 19.3499 68.2934 19.3019 68.6054 19.3019C69.1748 19.3019 69.6037 19.5096 69.8923 19.9249C70.1886 20.3322 70.3368 20.9432 70.3368 21.7578V27.3644C70.3368 27.6918 70.3017 27.9394 70.2315 28.1071C70.1613 28.2748 70.0444 28.4026 69.8806 28.4905C69.7714 28.5464 69.6115 28.5863 69.4009 28.6103C69.1903 28.6342 69.011 28.6542 68.8628 28.6702V29.5447ZM92.1433 29.5447H99.5369V28.6702C99.3341 28.6462 99.1392 28.6063 98.952 28.5504C98.7648 28.4945 98.5932 28.4306 98.4372 28.3587C98.2189 28.2629 98.0512 28.1191 97.9342 27.9274C97.8172 27.7278 97.7587 27.4882 97.7587 27.2086V17.6966L97.5832 17.517L91.8508 17.8284V18.703C92.0848 18.7269 92.3422 18.7828 92.623 18.8707C92.9115 18.9585 93.126 19.0504 93.2664 19.1462C93.4536 19.274 93.6096 19.4457 93.7343 19.6613C93.8591 19.869 93.9215 20.1126 93.9215 20.3921V27.3644C93.9215 27.6599 93.8708 27.8995 93.7694 28.0832C93.668 28.2589 93.4926 28.3946 93.243 28.4905C93.1026 28.5464 92.9349 28.5863 92.7399 28.6103C92.545 28.6342 92.3461 28.6542 92.1433 28.6702V29.5447ZM97.8289 13.2042C97.8289 13.8112 97.5988 14.3303 97.1387 14.7616C96.6863 15.1849 96.1482 15.3965 95.5243 15.3965C94.8925 15.3965 94.3466 15.1849 93.8864 14.7616C93.4341 14.3303 93.2079 13.8112 93.2079 13.2042C93.2079 12.5972 93.4341 12.0781 93.8864 11.6468C94.3466 11.2156 94.8925 10.9999 95.5243 10.9999C96.156 10.9999 96.698 11.2156 97.1504 11.6468C97.6027 12.0781 97.8289 12.5972 97.8289 13.2042ZM109.013 29.5447H116.056V28.6702C115.822 28.6462 115.611 28.6063 115.424 28.5504C115.244 28.4945 115.092 28.4386 114.968 28.3827C114.734 28.2788 114.574 28.1391 114.488 27.9634C114.402 27.7877 114.359 27.552 114.359 27.2565V21.3864C114.359 20.1645 114.039 19.1861 113.4 18.4514C112.768 17.7086 111.817 17.3373 110.545 17.3373C110.015 17.3373 109.516 17.4051 109.048 17.5409C108.58 17.6767 108.202 17.8404 107.913 18.0321C107.648 18.2078 107.359 18.4354 107.048 18.7149C106.736 18.9945 106.47 19.2341 106.252 19.4337H106.205V17.6966L106.03 17.517L100.449 17.8284V18.703C100.707 18.7269 100.941 18.7708 101.151 18.8347C101.37 18.8986 101.549 18.9785 101.689 19.0743C101.892 19.2261 102.056 19.4217 102.181 19.6613C102.306 19.9009 102.368 20.1445 102.368 20.3921V27.3644C102.368 27.6599 102.321 27.8995 102.228 28.0832C102.134 28.2668 101.962 28.4026 101.713 28.4905C101.573 28.5384 101.401 28.5783 101.198 28.6103C101.003 28.6342 100.808 28.6542 100.613 28.6702V29.5447H107.726V28.6702C107.547 28.6462 107.363 28.6063 107.176 28.5504C106.989 28.4945 106.833 28.4306 106.708 28.3587C106.529 28.2629 106.4 28.1231 106.322 27.9394C106.244 27.7477 106.205 27.5121 106.205 27.2326V20.7994C106.299 20.6716 106.412 20.5239 106.544 20.3562C106.685 20.1885 106.868 20.0247 107.094 19.865C107.352 19.6813 107.613 19.5415 107.878 19.4457C108.151 19.3499 108.444 19.3019 108.756 19.3019C109.325 19.3019 109.754 19.5096 110.042 19.9249C110.339 20.3322 110.487 20.9432 110.487 21.7578V27.3644C110.487 27.6918 110.452 27.9394 110.382 28.1071C110.311 28.2748 110.194 28.4026 110.031 28.4905C109.922 28.5464 109.762 28.5863 109.551 28.6103C109.34 28.6342 109.161 28.6542 109.013 28.6702V29.5447ZM122.572 29.952C121.815 29.952 121.074 29.8362 120.349 29.6046C119.631 29.381 119.074 29.1414 118.676 28.8858L118.325 29.7004H117.413L117.261 25.232H118.115C118.232 25.5914 118.427 25.9987 118.699 26.4539C118.972 26.9011 119.284 27.3045 119.635 27.6639C120.002 28.0233 120.419 28.3267 120.887 28.5743C121.363 28.8219 121.87 28.9457 122.408 28.9457C123.118 28.9457 123.644 28.8059 123.987 28.5264C124.338 28.2389 124.514 27.7996 124.514 27.2086C124.514 26.8892 124.436 26.6256 124.28 26.418C124.124 26.2103 123.909 26.0306 123.636 25.8789C123.332 25.7191 122.997 25.5834 122.63 25.4716C122.272 25.3597 121.827 25.224 121.297 25.0642C120.766 24.9045 120.31 24.7448 119.928 24.585C119.553 24.4173 119.164 24.1578 118.758 23.8064C118.407 23.4949 118.126 23.1195 117.916 22.6803C117.705 22.241 117.6 21.7179 117.6 21.1109C117.6 19.9848 118.06 19.0743 118.98 18.3795C119.908 17.6847 121.121 17.3373 122.619 17.3373C123.328 17.3373 123.98 17.4131 124.572 17.5649C125.173 17.7086 125.676 17.8684 126.081 18.0441L126.327 17.3373H127.216L127.403 21.4224H126.573C126.3 20.5918 125.832 19.877 125.169 19.278C124.506 18.671 123.792 18.3675 123.028 18.3675C122.427 18.3675 121.956 18.4953 121.612 18.7509C121.269 19.0064 121.098 19.3618 121.098 19.8171C121.098 20.4241 121.347 20.8633 121.846 21.1349C122.353 21.4064 123.059 21.662 123.964 21.9016C125.36 22.2689 126.382 22.7721 127.029 23.411C127.676 24.042 128 24.8486 128 25.8309C128 27.1407 127.497 28.155 126.491 28.8738C125.493 29.5926 124.186 29.952 122.572 29.952Z" fill="white"/>
</svg>
