<svg width="109" height="40" viewBox="0 0 109 40" fill="none" xmlns="http://www.w3.org/2000/svg">
<path fill-rule="evenodd" clip-rule="evenodd" d="M92.111 10.7403L92.0711 0H86.082L86.122 10.7403L79.7736 2.03626L74.9425 5.54982L81.2509 14.2538L71.0297 10.9399L69.193 16.6095L79.4143 19.9634L69.193 23.2773L71.0297 28.9469L81.2509 25.633L74.9425 34.337L79.7736 37.8505L86.122 29.1465V39.9267H92.111V29.1465L98.4194 37.8505L103.251 34.337L96.9421 25.633L107.163 28.9469L109 23.2773L98.7788 19.9634L109 16.6095L107.163 10.9399L96.9421 14.2538L103.251 5.54982L98.4194 2.03626L92.111 10.7403ZM92.111 10.7403V15.811L96.9421 14.2538L93.9476 18.3663L98.7788 19.9634L93.9476 21.5205L96.9421 25.633L92.111 24.0758V29.1465L89.1165 25.0341L86.122 29.1465V24.0758L81.2509 25.633L84.2454 21.5205L79.4143 19.9634L84.2454 18.3663L81.2509 14.2538L86.122 15.811L86.122 10.7403L89.1165 14.8527L92.111 10.7403ZM5.58974 10.1813V24.1557C5.58974 27.23 3.07436 29.7454 0 29.7454V26.9506C1.55714 26.9506 2.79487 25.7128 2.79487 24.1557V10.1813H5.58974ZM56.6161 12.9762H62.9245V10.1813H47.5527V12.9762H53.8212V29.7454H56.6161V12.9762ZM39.1282 10.1813V24.1557C39.1282 25.7128 37.8905 26.9506 36.3333 26.9506C34.7762 26.9506 33.5385 25.7128 33.5385 24.1557V15.7711C33.5385 12.6967 31.0231 10.1813 27.9487 10.1813C24.8744 10.1813 22.359 12.6967 22.359 15.7711V24.1557C22.359 25.7128 21.1212 26.9506 19.5641 26.9506C18.007 26.9506 16.7692 25.7128 16.7692 24.1557V10.1813H13.9744V24.1557C13.9744 27.23 16.4897 29.7454 19.5641 29.7454C22.6385 29.7454 25.1538 27.23 25.1538 24.1557V15.7711C25.1538 14.2139 26.3916 12.9762 27.9487 12.9762C29.5059 12.9762 30.7436 14.2139 30.7436 15.7711V24.1557C30.7436 27.23 33.259 29.7454 36.3333 29.7454C39.4077 29.7454 41.9231 27.23 41.9231 24.1557V10.1813H39.1282Z" fill="white"/>
</svg>
