<svg width="113" height="40" viewBox="0 0 113 40" fill="none" xmlns="http://www.w3.org/2000/svg">
<path fill-rule="evenodd" clip-rule="evenodd" d="M6.78384 2.84146C7.46811 2.84146 8.08193 3.11508 8.52437 3.55923H8.52952C8.97238 4.00037 9.24257 4.61591 9.24257 5.29589C9.24257 5.97973 8.97238 6.5914 8.52952 7.02825L8.52437 7.04028C8.08193 7.48057 7.46811 7.75032 6.78384 7.75032C6.10129 7.75032 5.49219 7.48057 5.05534 7.04028L5.04417 7.02825C4.60303 6.5914 4.32941 5.97973 4.32941 5.29589C4.32941 4.61591 4.60303 4.00037 5.04417 3.55923H5.05534C5.49219 3.11508 6.10129 2.84146 6.78384 2.84146ZM8.52437 36.4436C8.08193 36.8796 7.46811 37.1584 6.78384 37.1584C6.10129 37.1584 5.49219 36.8796 5.05534 36.4436L5.04417 36.4308C4.60303 35.9956 4.32941 35.3801 4.32941 34.7036C4.32941 34.0197 4.60303 33.4072 5.04417 32.9639H5.05534C5.49219 32.5154 6.10129 32.2444 6.78384 32.2444C7.46811 32.2444 8.08193 32.5154 8.52437 32.9639H8.52952C8.97238 33.4072 9.24257 34.0197 9.24257 34.7036C9.24257 35.3801 8.97238 35.9956 8.52952 36.4308L8.52437 36.4436ZM21.6513 28.5816C21.315 29.1718 20.7647 29.5619 20.1569 29.7217C19.541 29.881 18.8777 29.8205 18.291 29.4833H18.2875C17.7021 29.1413 17.3108 28.5945 17.1437 27.9893C16.9817 27.3742 17.0522 26.7058 17.3907 26.1242C17.7248 25.5392 18.2734 25.1328 18.8838 24.9803C19.4843 24.8167 20.1372 24.8854 20.7111 25.2007L20.7458 25.2239C21.3348 25.5619 21.7291 26.1049 21.8902 26.717C22.0499 27.2904 21.9954 27.9365 21.6964 28.4953L21.6513 28.5816ZM6.78384 16.4392C7.76793 16.4392 8.65709 16.8421 9.30142 17.4847C9.94402 18.1265 10.3392 19.0118 10.3392 19.9959C10.3392 20.9799 9.94402 21.8691 9.30142 22.5182C8.65709 23.1569 7.76793 23.5559 6.78384 23.5559C5.80104 23.5559 4.91445 23.1569 4.27142 22.5182C3.63053 21.8691 3.23535 20.9799 3.23535 19.9959C3.23535 19.0118 3.63053 18.1265 4.27142 17.4847C4.91445 16.8421 5.80104 16.4392 6.78384 16.4392ZM11.5776 15.2085C10.5969 14.221 9.3143 13.5368 7.88563 13.3014V10.4818C8.90366 10.2619 9.81516 9.75287 10.5291 9.0424L10.5329 9.03467C11.49 8.07334 12.0827 6.75506 12.0827 5.29589C12.0827 3.84445 11.49 2.51457 10.5329 1.55711H10.5291V1.55324C9.56516 0.592346 8.24301 0 6.78384 0C5.3324 0 4.00682 0.592346 3.04506 1.55324L3.04119 1.55711C2.0833 2.51457 1.48924 3.84445 1.48924 5.29589C1.48924 6.75506 2.0833 8.07334 3.04119 9.03467V9.0424H3.04506C3.75854 9.75287 4.67176 10.2619 5.68592 10.4818V13.3014C4.25767 13.5368 2.97719 14.221 1.99825 15.2085H1.98794C0.765453 16.4358 0 18.1265 0 19.9959C0 21.8691 0.765453 23.5598 1.98794 24.7866L1.99825 24.7943C2.97719 25.7784 4.25767 26.4623 5.68592 26.6899V29.5215C4.67176 29.7341 3.75854 30.2431 3.04506 30.9575H3.04119V30.9648C2.0833 31.9175 1.48924 33.2448 1.48924 34.7036C1.48924 36.158 2.0833 37.4776 3.04119 38.435V38.4501H3.04506C4.00682 39.4071 5.3324 39.9999 6.78384 39.9999C8.24301 39.9999 9.56516 39.4071 10.5291 38.4501L10.5329 38.435C11.49 37.4776 12.0827 36.158 12.0827 34.7036C12.0827 33.2448 11.49 31.9175 10.5329 30.9648L10.5291 30.9575C9.81516 30.2431 8.90366 29.7341 7.88563 29.5215V26.6899C9.3143 26.4623 10.5969 25.7784 11.5776 24.7943L11.5849 24.7866C11.7408 24.6311 11.8924 24.4674 12.0338 24.2965L14.4843 25.7106C14.1549 26.7058 14.1394 27.7466 14.4044 28.7187C14.7537 30.0232 15.6012 31.1959 16.8718 31.9304V31.9403C18.1351 32.6671 19.5831 32.8144 20.891 32.4695C22.1664 32.1203 23.3218 31.2947 24.0546 30.076L24.0598 30.0833L24.104 29.9953C24.8338 28.7311 24.9816 27.2827 24.6337 25.9872C24.29 24.6955 23.4696 23.5521 22.2475 22.8111V22.8072L22.1664 22.7694C20.9013 22.0319 19.4538 21.8803 18.1475 22.2372C17.1742 22.4958 16.2816 23.0272 15.5823 23.8102L13.1351 22.4005C13.4165 21.6526 13.572 20.8391 13.572 19.9959C13.572 19.1484 13.4165 18.3464 13.1351 17.6024L15.5823 16.1888C16.2816 16.9598 17.1742 17.5036 18.1475 17.7613C19.3331 18.0736 20.6239 17.986 21.7978 17.4272H21.8317L22.1664 17.2296C23.4357 16.5006 24.2862 15.3224 24.6337 14.0157C24.9816 12.7125 24.8338 11.2649 24.104 10.0033V9.99943C23.3708 8.73098 22.193 7.87961 20.8872 7.52953C19.5981 7.18031 18.1698 7.32851 16.913 8.03941L16.8718 8.06561C15.6012 8.79885 14.7537 9.96893 14.4044 11.276C14.1394 12.2524 14.1549 13.2932 14.4843 14.2889L12.0338 15.7064C11.8924 15.5354 11.7408 15.364 11.5849 15.2085H11.5776ZM21.6303 11.3899L21.6513 11.4208C21.9877 12.0058 22.0525 12.6742 21.8902 13.2859C21.7312 13.8787 21.3498 14.4182 20.7772 14.7601L20.7458 14.7751C20.1642 15.1136 19.4894 15.1862 18.8838 15.0148C18.2811 14.8589 17.7412 14.4714 17.4023 13.8937L17.3907 13.8787C17.0522 13.2932 16.9817 12.6214 17.1437 12.0136C17.3082 11.401 17.7021 10.8547 18.291 10.5205H18.2875C18.8777 10.182 19.541 10.1133 20.1569 10.2769C20.7531 10.4406 21.2927 10.8203 21.6303 11.3899ZM36.6303 8.59841H32.693V31.0118H36.6303V22.7082L42.5492 31.0118H47.0574L40.1742 21.7158L47.0289 14.3822H42.308L36.6303 20.7121V8.59841ZM56.621 27.8306C53.0746 27.8306 51.6026 24.8315 51.6026 22.7687V22.7412C51.6026 20.166 53.408 17.564 56.5919 17.564C58.9663 17.564 60.4983 18.9261 61.1885 20.497C61.5212 21.2258 61.6691 22.0462 61.6418 22.8354C61.5812 23.6508 61.4006 24.4344 61.0085 25.1675C60.2595 26.678 58.8154 27.8306 56.621 27.8306ZM61.6085 31.0118H65.5476V14.3822H61.6085V16.8085C60.8879 15.4744 59.0553 13.8692 56.0501 13.8692C51.422 13.8692 47.6659 17.4424 47.6659 22.6808C47.6659 27.373 50.7602 31.5254 56.0501 31.5254C58.3651 31.5254 60.5601 30.5542 61.6085 28.6192V31.0118ZM67.9652 17.4424H70.0056V31.0118H73.9447V17.4424H76.5597V14.3822H73.9447V13.5656C73.9447 11.2279 75.5658 11.2279 76.5597 11.2279V8.17326C73.7332 8.2063 70.0056 8.50428 70.0056 13.4453V14.3822H67.9652V17.4424ZM83.1732 8.59841H79.2371V31.0118H83.1732V22.7082L89.0921 31.0118H93.6002L86.7183 21.7158L93.573 14.3822H88.8521L83.1732 20.7121V8.59841ZM103.165 27.8306C99.6181 27.8306 98.1467 24.8315 98.1467 22.7687V22.7412C98.1467 20.166 99.9514 17.564 103.136 17.564C105.51 17.564 107.042 18.9261 107.731 20.497C108.064 21.2258 108.212 22.0462 108.185 22.8354C108.125 23.6508 107.944 24.4344 107.551 25.1675C106.801 26.678 105.356 27.8306 103.165 27.8306ZM108.153 31.0118H112.09V14.3822H108.153V16.8085C107.432 15.4744 105.598 13.8692 102.594 13.8692C97.9673 13.8692 94.2125 17.4424 94.2125 22.6808C94.2125 27.373 97.3043 31.5254 102.594 31.5254C104.908 31.5254 107.101 30.5542 108.153 28.6192V31.0118Z" fill="white"/>
</svg>
