<svg width="126" height="40" viewBox="0 0 126 40" fill="none" xmlns="http://www.w3.org/2000/svg">
<path fill-rule="evenodd" clip-rule="evenodd" d="M23.0067 4.37833L21.19 7.70833H25.695L33.4233 16.8717L38.02 13.1133V10.725L36.4233 8.49167L37.6033 7.26833L28.3833 0L23.0067 4.37833ZM9.14667 22.9283H6.63L0 31.3117V40H7.11333L8.37 38.3733L13.855 31.295H21.7933L24.2367 27.565L15.6317 17.3883L9.14667 22.9283ZM14.7 32.9467L13.6 34.3367L16.0883 38.21L15.8283 40H26.3817L27.1117 38.21L22.8667 32.9467H14.7ZM20.4717 9.38333L16.655 16.0383L35.2717 37.9883L34.7433 40H43.2833L44.8283 32.86L24.905 9.37833L20.4717 9.38167V9.38333ZM83.3133 27.3867H77.1217V17.9267H83.3133V27.3867ZM73.9817 30.125C74.72 30.8917 75.615 31.17 77.3383 31.17L83.0967 31.1717C84.82 31.1717 85.715 30.8967 86.4533 30.125C87.5617 29.015 87.9917 27.505 87.9917 22.6933C87.9917 17.8817 87.5617 16.3717 86.4533 15.2317C85.7167 14.4917 84.8217 14.2133 83.0967 14.2133H77.3383C75.615 14.2133 74.6917 14.4917 73.9817 15.2317C72.875 16.3717 72.445 17.915 72.445 22.6933C72.445 27.475 72.875 29.015 73.9817 30.125ZM101.997 31.1667V19.5583L101.99 19.5517V17.9183H96.1983V31.1633H91.49V14.205H96.1833V16.3417L98.5583 14.205L102.698 14.1933C104.147 14.1933 105.073 14.485 105.72 15.13C106.43 15.8067 106.707 16.6983 106.707 19.185V31.1667H101.997ZM70.685 9.54H65.0767L58.6933 17.9233H57.18V9.54H52.13V31.1667H57.1767V22.155L58.6933 22.1633L65.0767 31.1667H71.025L62.6317 19.705L70.685 9.54ZM121.16 14.2133V14.2083L121.157 14.2133H121.16ZM121.16 16.345V14.2133H125.897V31.8133C125.897 34.7283 125.588 35.2233 124.822 36.0233C124.205 36.6667 123.22 36.9733 121.495 36.9733H115.012L112.87 34.605L112.863 33.6117L121.157 33.595L121.148 31.1683H115.173C113.355 31.1683 112.44 30.8417 111.67 30.105C110.69 29.0917 110.287 26.9033 110.287 22.725C110.287 18.5483 110.782 16.2667 111.798 15.2233C112.567 14.4883 113.56 14.1967 115.253 14.1967L118.787 14.2083L121.16 16.345ZM115 27.3683H121.188V17.9233H115V27.3683Z" fill="white"/>
</svg>
