<svg width="171" height="32" viewBox="0 0 171 32" fill="none" xmlns="http://www.w3.org/2000/svg">
<path fill-rule="evenodd" clip-rule="evenodd" d="M0 15.7927C0 7.07348 7.07349 0 15.7927 0C24.5119 0 31.5854 7.07348 31.5854 15.7927C31.5854 24.5119 24.5119 31.5854 15.7927 31.5854C7.07349 31.5854 0 24.5119 0 15.7927ZM14.9698 18.5462V28.4522L22.6763 13.0393H17.3751V3.13323L9.463 18.5462H14.9698ZM44.1973 2.05781V29.331H48.0148V16.7767H59.231V13.5495H48.0148V5.32429H60.6478V2.05781H44.1973ZM70.589 26.6923L70.0273 26.6942C68.5843 26.6942 67.443 26.4449 66.6034 25.9464C65.7638 25.4217 65.344 24.5034 65.344 23.1916C65.344 22.4832 65.5146 21.9191 65.8556 21.4993C66.1967 21.0533 66.6165 20.7122 67.115 20.4761C67.6397 20.2137 68.2038 20.0432 68.8073 19.9644C69.437 19.8857 70.0273 19.8464 70.5783 19.8464C71.4178 19.8464 72.1262 19.8989 72.7035 20.0038C73.3069 20.0825 73.7398 20.1875 74.0022 20.3186V26.4187C73.5561 26.5237 72.9921 26.6024 72.3099 26.6548C71.7997 26.6753 71.2261 26.6877 70.589 26.6923ZM73.2221 8.87349C72.2598 8.52759 71.0899 8.35465 69.7124 8.35465L69.3295 8.3578C68.189 8.37669 67.1229 8.48058 66.1311 8.66949C65.0292 8.85315 64.2421 9.04992 63.7698 9.25982L64.2027 12.2902C64.585 12.1328 65.1312 11.985 65.8412 11.8468L66.4424 11.7346C67.3062 11.5802 68.2913 11.5031 69.3976 11.5031C70.3421 11.5031 71.103 11.6474 71.6802 11.936C72.2837 12.1983 72.7559 12.5657 73.097 13.0379C73.4381 13.4839 73.6742 14.0087 73.8054 14.6121C73.9366 15.1893 74.0022 15.7797 74.0022 16.3831V17.4064C73.9628 17.3965 73.9124 17.3848 73.8509 17.3713L73.3156 17.2621C73.1757 17.2358 73.0227 17.2096 72.8565 17.1833L72.5067 17.1309C72.1656 17.0522 71.7983 16.9997 71.4047 16.9734C71.0112 16.921 70.6307 16.8947 70.2634 16.8947C69.109 16.8947 68.0071 17.0128 66.9576 17.2489C65.9081 17.4851 64.9898 17.8524 64.2027 18.3509C63.4156 18.8494 62.7859 19.5053 62.3137 20.3186C61.8676 21.132 61.6446 22.1027 61.6446 23.2309C61.6446 24.4116 61.8414 25.4217 62.235 26.2613C62.6285 27.1009 63.1795 27.783 63.8879 28.3078C64.5963 28.8063 65.4358 29.1736 66.4066 29.4097C67.3774 29.6458 68.44 29.7639 69.5944 29.7639C70.4077 29.7639 71.2211 29.7245 72.0344 29.6458C72.874 29.5934 73.648 29.5278 74.3564 29.4491C74.8877 29.39 75.3747 29.331 75.8174 29.272L76.2454 29.2129C76.4763 29.1709 76.6862 29.1332 76.8751 29.0996L77.5835 28.9768V16.1863C77.5835 15.0319 77.4523 13.9824 77.1899 13.0379C76.9276 12.0672 76.4816 11.2407 75.8519 10.5585L75.7284 10.4191C75.139 9.77919 74.3669 9.2878 73.4118 8.94498L73.2221 8.87349ZM91.6917 26.1039C90.9834 26.4974 89.8814 26.6942 88.3859 26.6942L88.1205 26.6926C86.7217 26.6751 85.5901 26.5183 84.7259 26.2219C84.1137 26.012 83.6123 25.8371 83.2216 25.6972L82.7188 25.5135L82.0497 28.662C82.3306 28.7823 82.8033 28.9411 83.4677 29.1382L84.292 29.377C85.3014 29.6612 86.6661 29.8033 88.3859 29.8033C90.9834 29.8033 92.9774 29.3179 94.3679 28.3471C95.7847 27.3764 96.4931 25.9464 96.4931 24.0574C96.4931 23.0866 96.3488 22.2733 96.0602 21.6174C95.7716 20.9352 95.3518 20.358 94.8008 19.8857C94.2761 19.4135 93.6333 19.0068 92.8724 18.6657C92.1115 18.2984 91.2457 17.9311 90.275 17.5638C89.5403 17.3014 88.9106 17.0522 88.3859 16.816C87.8612 16.5799 87.4151 16.3306 87.0478 16.0683C86.7067 15.7797 86.4444 15.4648 86.2607 15.1237C86.1033 14.7827 86.0246 14.3891 86.0246 13.9431C86.0246 13.0773 86.405 12.4476 87.1659 12.054C87.9268 11.6343 88.8188 11.4244 89.842 11.4244C91.0227 11.4244 92.0328 11.5424 92.8724 11.7786C93.712 11.9884 94.3286 12.1983 94.7221 12.4082L95.3911 9.25982C95.2337 9.20079 95.0246 9.13437 94.7639 9.06058L94.3245 8.94016C93.9936 8.85341 93.6145 8.77631 93.1872 8.70884C92.6887 8.6039 92.1509 8.52519 91.5737 8.47271C90.9965 8.394 90.4193 8.35465 89.842 8.35465C87.5332 8.35465 85.7097 8.8925 84.3717 9.96821C83.0336 11.0177 82.3646 12.4476 82.3646 14.2579C82.3646 15.1762 82.522 15.9502 82.8368 16.5799C83.1517 17.2096 83.5714 17.7474 84.0962 18.1935C84.6209 18.6395 85.2375 19.033 85.9459 19.3741C86.6805 19.689 87.4414 20.0038 88.2285 20.3186C89.8552 20.9746 91.0227 21.5649 91.7311 22.0896C92.4395 22.6144 92.7937 23.3228 92.7937 24.2148C92.7937 25.0806 92.4264 25.7103 91.6917 26.1039ZM112.326 8.86627H104.573V2.53007L100.913 3.15975V21.4206C100.913 22.7849 101.018 23.9918 101.228 25.0413C101.464 26.0645 101.858 26.9303 102.409 27.6387C102.96 28.3471 103.681 28.885 104.573 29.2523C105.491 29.5934 106.646 29.7639 108.036 29.7639C109.217 29.7639 110.267 29.6196 111.185 29.331C112.103 29.0686 112.746 28.8456 113.113 28.662L112.405 25.6316L110.988 26.1826C110.332 26.4187 109.453 26.5368 108.351 26.5368C107.722 26.5368 107.171 26.4581 106.698 26.3006C106.226 26.1432 105.833 25.8809 105.518 25.5135C105.203 25.12 104.967 24.5952 104.809 23.9393C104.652 23.2572 104.573 22.4045 104.573 21.3812V11.936H112.326V8.86627ZM134.182 25.8677C134.575 26.9959 134.995 28.1503 135.441 29.331H139.613C138.788 27.0634 138.004 24.9334 137.261 22.9412L136.386 20.6059C135.562 18.4099 134.749 16.3201 133.946 14.3366C133.08 12.1327 132.214 10.0338 131.348 8.03981L130.912 7.03187C130.18 5.35563 129.42 3.69761 128.633 2.05781H125.13C124.186 4.02557 123.28 6.01957 122.415 8.03981L122.126 8.70836C121.353 10.5015 120.571 12.3776 119.778 14.3366C119.085 16.0998 118.376 17.9468 117.65 19.8779L116.502 22.9412C116.029 24.209 115.54 25.5325 115.034 26.9119L114.15 29.331H118.125L120.604 22.3651H132.962C133.382 23.5458 133.788 24.7133 134.182 25.8677ZM129.341 12.605C130.181 14.7302 131.02 16.9341 131.86 19.2167H121.706C122.52 16.9341 123.333 14.7302 124.146 12.605C124.986 10.4536 125.865 8.394 126.783 6.42624C127.675 8.394 128.528 10.4536 129.341 12.605ZM159.171 3.87175C157.132 2.4788 154.248 1.78232 150.519 1.78232L150.184 1.78389C149.171 1.79334 148.063 1.84529 146.859 1.93974C145.547 2.01845 144.353 2.18899 143.277 2.45136V29.331H147.095V19.2167H150.125C152.04 19.2167 153.759 19.0593 155.281 18.7444C156.802 18.4296 158.088 17.9311 159.137 17.2489C160.213 16.5405 161.026 15.6354 161.577 14.5334C162.155 13.4052 162.443 12.054 162.443 10.4798C162.443 7.59378 161.407 5.42924 159.334 3.98621L159.171 3.87175ZM150.091 5.13046L150.833 5.12752C151.857 5.12752 152.827 5.20623 153.746 5.36365C154.664 5.52107 155.464 5.80967 156.146 6.22946C156.855 6.62302 157.406 7.16087 157.799 7.84303L157.876 7.97309C158.245 8.63413 158.429 9.45659 158.429 10.4405C158.429 11.5424 158.232 12.4476 157.839 13.156C157.445 13.8644 156.881 14.4285 156.146 14.8483C155.438 15.2418 154.559 15.5304 153.51 15.7141C152.46 15.8715 151.279 15.9502 149.968 15.9502H147.095V5.24558C147.824 5.1793 148.823 5.14093 150.091 5.13046ZM171 2.05781H167.182V29.331H171V2.05781Z" fill="white"/>
</svg>
