<svg width="148" height="41" viewBox="0 0 148 41" fill="none" xmlns="http://www.w3.org/2000/svg">
<path fill-rule="evenodd" clip-rule="evenodd" d="M0 20.145C0 31.261 9.07165 40.3327 20.1876 40.3327C31.3036 40.3327 40.3752 31.3036 40.3327 20.1876C40.3327 17.8026 39.9068 15.4601 39.0975 13.2455C38.842 12.5214 38.0754 12.1807 37.3514 12.4363C36.6273 12.6918 36.2866 13.4584 36.5422 14.1824C37.2662 16.099 37.6069 18.1433 37.6069 20.1876C37.6069 29.8129 29.7704 37.6495 20.145 37.6495C10.5197 37.6495 2.68317 29.8129 2.68317 20.1876C2.68317 10.5623 10.5197 2.72575 20.145 2.72575C22.4875 2.72575 24.7447 3.15165 26.8742 4.04604C27.5557 4.34417 28.3649 4.00345 28.663 3.32201C28.9611 2.64058 28.6204 1.83137 27.939 1.53324C25.4688 0.511079 22.8708 0 20.1876 0C9.07165 0 0 9.02906 0 20.145ZM131.645 9.71052C131.645 12.777 127.003 12.777 127.003 9.71052C127.003 6.64405 131.645 6.64405 131.645 9.71052ZM127.344 30.1537V14.1399H131.305V30.1537H127.344ZM120.018 9.71048V14.225H124.405V17.6322H119.976V24.5318C119.976 26.065 120.828 26.789 122.063 26.789C122.659 26.789 123.383 26.5761 123.979 26.3205L125.087 29.6852C123.937 30.1536 123 30.324 121.807 30.3666C118.357 30.4944 116.1 28.5352 116.1 24.5318V17.6322H113.119V14.225H116.1V10.1364L120.018 9.71048ZM88.8852 14.2249H92.6757V30.1535H88.9704L88.7574 27.8111C87.863 29.685 85.3502 30.5794 83.604 30.622C78.8766 30.6646 75.3842 27.7259 75.3842 22.1466C75.3842 16.6525 79.0469 13.7564 83.6892 13.799C85.8187 13.799 87.863 14.8211 88.7574 16.397L88.8852 14.2249ZM79.3451 22.1466C79.3451 25.1705 81.432 27.0019 84.0725 27.0019C90.2907 27.0019 90.2907 17.3339 84.0725 17.3339C81.432 17.3339 79.3451 19.1227 79.3451 22.1466ZM59.2 30.1535V21.6355C59.2 19.5486 58.0926 17.6321 55.9205 17.6321C53.791 17.6321 52.5133 19.5486 52.5133 21.6355V30.1535H48.5525V14.1823H52.2152L52.5133 16.1414C53.3651 14.523 55.1965 13.9268 56.7297 13.9268C58.6463 13.9268 60.5628 14.6934 61.4572 16.9081C62.8627 14.6508 64.7366 14.0119 66.781 14.0119C71.2955 14.0119 73.5527 16.7803 73.5527 21.5929V30.1961H69.5919V21.5504C69.5919 19.4634 68.7401 17.6747 66.568 17.6747C64.4385 17.6747 63.1182 19.506 63.1182 21.6355V30.1535H59.2ZM99.1493 22.5723V14.2247H95.1885V22.5723C95.1885 27.5127 97.9568 30.4089 101.79 30.4089C104.047 30.4089 105.538 29.6422 107.199 28.0238L107.454 30.1959H110.989V14.2247H107.071V22.3594C107.071 24.787 105.41 26.8313 102.982 26.8313C100.47 26.8313 99.1493 24.9999 99.1493 22.5723ZM148 28.1092C146.169 29.898 144.21 30.622 141.867 30.622C137.225 30.622 133.392 27.8536 133.392 22.1892C133.392 16.5247 137.225 13.7564 141.867 13.7564C144.124 13.7564 145.871 14.3952 147.617 16.0988L145.147 18.6968C144.21 17.845 143.06 17.4191 141.952 17.4191C139.312 17.4191 137.353 19.3783 137.353 22.1466C137.353 25.1705 139.439 26.7889 141.867 26.7889C143.145 26.7889 144.38 26.4482 145.359 25.4686L148 28.1092ZM29.0037 18.1008L25.8947 21.3802L27.6409 28.6631H31.5591L29.0037 18.1008ZM28.8336 9.54003L27.7263 8.47528L33.774 7.24018L32.6667 13.3731L31.6019 12.3084L20.1878 24.7446L14.8641 18.9098L12.5217 28.6629H8.5608L12.8198 11.0733L20.1878 18.6969L28.8336 9.54003Z" fill="white"/>
</svg>
