<svg width="186" height="40" viewBox="0 0 186 40" fill="none" xmlns="http://www.w3.org/2000/svg">
<path fill-rule="evenodd" clip-rule="evenodd" d="M15.818 4.87C17.1416 4.87 18.2146 3.77981 18.2146 2.435C18.2146 1.09019 17.1416 0 15.818 0C14.4944 0 13.4214 1.09019 13.4214 2.435C13.4214 3.77981 14.4944 4.87 15.818 4.87ZM2.3966 12.6621C3.72021 12.6621 4.7932 11.5719 4.7932 10.2271C4.7932 8.88232 3.72021 7.79213 2.3966 7.79213C1.07299 7.79213 0 8.88232 0 10.2271C0 11.5719 1.07299 12.6621 2.3966 12.6621ZM2.3966 19.4797C3.72021 19.4797 4.7932 18.3895 4.7932 17.0447C4.7932 15.6999 3.72021 14.6097 2.3966 14.6097C1.07299 14.6097 0 15.6999 0 17.0447C0 18.3895 1.07299 19.4797 2.3966 19.4797ZM11.5037 10.2271C11.5037 11.5719 10.4308 12.6621 9.10715 12.6621C7.78354 12.6621 6.71055 11.5719 6.71055 10.2271C6.71055 8.88232 7.78354 7.79213 9.10715 7.79213C10.4308 7.79213 11.5037 8.88232 11.5037 10.2271ZM9.10715 19.546C10.4308 19.546 11.5037 18.4558 11.5037 17.111C11.5037 15.7662 10.4308 14.676 9.10715 14.676C7.78354 14.676 6.71055 15.7662 6.71055 17.111C6.71055 18.4558 7.78354 19.546 9.10715 19.546ZM18.2146 10.2271C18.2146 11.5719 17.1416 12.6621 15.818 12.6621C14.4944 12.6621 13.4214 11.5719 13.4214 10.2271C13.4214 8.88232 14.4944 7.79213 15.818 7.79213C17.1416 7.79213 18.2146 8.88232 18.2146 10.2271ZM18.2146 17.111C18.2146 18.4558 17.1416 19.546 15.818 19.546C14.4944 19.546 13.4214 18.4558 13.4214 17.111C13.4214 15.7662 14.4944 14.676 15.818 14.676C17.1416 14.676 18.2146 15.7662 18.2146 17.111ZM22.5285 12.6621C23.8521 12.6621 24.9251 11.5719 24.9251 10.2271C24.9251 8.88232 23.8521 7.79213 22.5285 7.79213C21.2049 7.79213 20.1319 8.88232 20.1319 10.2271C20.1319 11.5719 21.2049 12.6621 22.5285 12.6621ZM31.636 10.2271C31.636 11.5719 30.563 12.6621 29.2394 12.6621C27.9158 12.6621 26.8428 11.5719 26.8428 10.2271C26.8428 8.88232 27.9158 7.79213 29.2394 7.79213C30.563 7.79213 31.636 8.88232 31.636 10.2271ZM22.5285 19.546C23.8521 19.546 24.9251 18.4558 24.9251 17.111C24.9251 15.7662 23.8521 14.676 22.5285 14.676C21.2049 14.676 20.1319 15.7662 20.1319 17.111C20.1319 18.4558 21.2049 19.546 22.5285 19.546ZM31.636 17.111C31.636 18.4558 30.563 19.546 29.2394 19.546C27.9158 19.546 26.8428 18.4558 26.8428 17.111C26.8428 15.7662 27.9158 14.676 29.2394 14.676C30.563 14.676 31.636 15.7662 31.636 17.111ZM2.3966 26.2976C3.72021 26.2976 4.7932 25.2074 4.7932 23.8626C4.7932 22.5178 3.72021 21.4276 2.3966 21.4276C1.07299 21.4276 0 22.5178 0 23.8626C0 25.2074 1.07299 26.2976 2.3966 26.2976ZM11.5037 23.9292C11.5037 25.274 10.4308 26.3642 9.10715 26.3642C7.78354 26.3642 6.71055 25.274 6.71055 23.9292C6.71055 22.5844 7.78354 21.4942 9.10715 21.4942C10.4308 21.4942 11.5037 22.5844 11.5037 23.9292ZM15.818 26.3642C17.1416 26.3642 18.2146 25.274 18.2146 23.9292C18.2146 22.5844 17.1416 21.4942 15.818 21.4942C14.4944 21.4942 13.4214 22.5844 13.4214 23.9292C13.4214 25.274 14.4944 26.3642 15.818 26.3642ZM24.9251 23.9292C24.9251 25.274 23.8521 26.3642 22.5285 26.3642C21.2049 26.3642 20.1319 25.274 20.1319 23.9292C20.1319 22.5844 21.2049 21.4942 22.5285 21.4942C23.8521 21.4942 24.9251 22.5844 24.9251 23.9292ZM29.2394 26.3642C30.563 26.3642 31.636 25.274 31.636 23.9292C31.636 22.5844 30.563 21.4942 29.2394 21.4942C27.9158 21.4942 26.8428 22.5844 26.8428 23.9292C26.8428 25.274 27.9158 26.3642 29.2394 26.3642ZM4.7932 30.6807C4.7932 32.0255 3.72021 33.1157 2.3966 33.1157C1.07299 33.1157 0 32.0255 0 30.6807C0 29.3359 1.07299 28.2457 2.3966 28.2457C3.72021 28.2457 4.7932 29.3359 4.7932 30.6807ZM9.10715 33.182C10.4308 33.182 11.5037 32.0918 11.5037 30.747C11.5037 29.4022 10.4308 28.312 9.10715 28.312C7.78354 28.312 6.71055 29.4022 6.71055 30.747C6.71055 32.0918 7.78354 33.182 9.10715 33.182ZM18.2146 30.747C18.2146 32.0918 17.1416 33.182 15.818 33.182C14.4944 33.182 13.4214 32.0918 13.4214 30.747C13.4214 29.4022 14.4944 28.312 15.818 28.312C17.1416 28.312 18.2146 29.4022 18.2146 30.747ZM15.818 39.9999C17.1416 39.9999 18.2146 38.9097 18.2146 37.5649C18.2146 36.2201 17.1416 35.1299 15.818 35.1299C14.4944 35.1299 13.4214 36.2201 13.4214 37.5649C13.4214 38.9097 14.4944 39.9999 15.818 39.9999ZM24.9251 30.747C24.9251 32.0918 23.8521 33.182 22.5285 33.182C21.2049 33.182 20.1319 32.0918 20.1319 30.747C20.1319 29.4022 21.2049 28.312 22.5285 28.312C23.8521 28.312 24.9251 29.4022 24.9251 30.747ZM29.2394 33.182C30.563 33.182 31.636 32.0918 31.636 30.747C31.636 29.4022 30.563 28.312 29.2394 28.312C27.9158 28.312 26.8428 29.4022 26.8428 30.747C26.8428 32.0918 27.9158 33.182 29.2394 33.182ZM53.6635 25.3513L53.1822 24.1948H53.2059L52.6801 23.0846L45.4338 9.72485C45.3567 9.58001 45.2603 9.44615 45.1472 9.3269C45.0569 9.22937 44.9451 9.15392 44.8205 9.10644C44.6942 9.05865 44.5614 9.02968 44.4265 9.02048L43.9081 9.00357H40.5018V33.076H44.4776V17.5322L44.4524 16.5572L44.3575 15.4828L51.7933 29.1831C51.9458 29.4753 52.1705 29.7243 52.4465 29.9068C52.7255 30.0849 53.0523 30.1751 53.3839 30.1655H54.0056C54.3372 30.1747 54.6638 30.0845 54.943 29.9068C55.2078 29.7178 55.4244 29.4699 55.5755 29.1831L62.9064 15.5301L62.828 16.5801L62.8028 17.5272V33.0715H66.7822V9.00019H63.3775C63.2042 8.9982 63.0314 9.00383 62.8591 9.0171C62.7239 9.02257 62.5907 9.0509 62.4651 9.10087C62.346 9.15286 62.2385 9.22779 62.1488 9.32133C62.0385 9.44138 61.9449 9.57556 61.8705 9.72027L54.6876 23.0555L54.1521 24.1698L53.6635 25.3513ZM81.5466 16.2416C80.5898 15.8887 79.5755 15.7144 78.5549 15.7273L78.5665 15.7327C77.3759 15.7148 76.1945 15.9427 75.0974 16.402C74.1142 16.8192 73.229 17.4342 72.4975 18.2081C71.7767 18.9832 71.2199 19.8939 70.8602 20.8863C70.4862 21.9424 70.2939 23.0535 70.2915 24.173C70.257 25.524 70.4707 26.87 70.9224 28.1451C71.3135 29.2121 71.9248 30.1864 72.7173 31.0055C73.4762 31.7726 74.3926 32.3685 75.4044 32.7527C76.4701 33.154 77.6019 33.3546 78.7418 33.3443C79.3686 33.3436 79.9946 33.2997 80.6153 33.2127C81.2606 33.1224 81.8951 32.9683 82.5095 32.7527C83.1369 32.5329 83.7365 32.2417 84.2964 31.885C84.8744 31.517 85.3942 31.0661 85.8389 30.5469L84.6319 29.0502C84.5465 28.9356 84.439 28.8389 84.3157 28.7659C84.1807 28.6979 84.0309 28.6641 83.8795 28.6674C83.5977 28.6741 83.3228 28.755 83.0828 28.9018L82.1283 29.4161C81.717 29.6204 81.2901 29.7923 80.8517 29.9305C80.2896 30.0983 79.7044 30.1774 79.1176 30.1649C78.5126 30.1881 77.9093 30.0889 77.3442 29.8734C76.7791 29.6579 76.2641 29.3306 75.8305 28.9113C74.9033 27.8364 74.397 26.4661 74.4043 25.0512H85.0382C85.1989 25.0557 85.3591 25.0295 85.5098 24.974C85.6348 24.9271 85.7395 24.8385 85.806 24.7235C85.8856 24.5725 85.9359 24.408 85.9542 24.2386C85.9863 23.982 86.0003 23.7235 85.9963 23.465C86.0156 22.3453 85.8287 21.2314 85.4447 20.1784C85.1093 19.269 84.5836 18.4404 83.9022 17.7471C83.2342 17.0843 82.431 16.571 81.5466 16.2416ZM77.1165 18.8749C77.6039 18.7002 78.1219 18.6253 78.6393 18.6546L78.6379 18.6522C79.1904 18.6375 79.7396 18.7415 80.2477 18.9572C80.686 19.15 81.075 19.438 81.386 19.8001C81.6933 20.164 81.9222 20.5867 82.0583 21.0419C82.2074 21.53 82.2823 22.0374 82.2805 22.5473H74.497C74.6088 21.4739 75.0669 20.465 75.8032 19.6708C76.1824 19.3202 76.6291 19.0495 77.1165 18.8749ZM93.1733 33.071C93.766 33.2878 94.3978 33.379 95.0281 33.3389L95.0634 33.3435C95.8899 33.3453 96.7113 33.2161 97.4966 32.9606C98.2564 32.718 98.9628 32.3342 99.5781 31.8299L98.3148 29.8314C98.2425 29.7293 98.1577 29.6365 98.0623 29.5552C97.9786 29.4888 97.8732 29.4553 97.7661 29.4611C97.6583 29.4649 97.5534 29.4974 97.4625 29.5552L97.119 29.7645C96.9723 29.8392 96.82 29.9028 96.6636 29.9547C96.4552 30.0237 96.2361 30.0556 96.0165 30.0489C95.8184 30.0537 95.6216 30.0158 95.4396 29.9378C95.2577 29.8598 95.095 29.7435 94.9628 29.597C94.663 29.2514 94.5118 28.8029 94.5416 28.3478V19.0955H99.0728V16.1668H94.5424V10.7898H92.395C92.171 10.79 91.9517 10.8532 91.7625 10.972C91.6786 11.0324 91.608 11.1091 91.5552 11.1976C91.5024 11.2861 91.4684 11.3844 91.4553 11.4864L90.5808 16.1447L87.8135 16.5966V18.224C87.8064 18.3399 87.8246 18.456 87.8668 18.5642C87.909 18.6725 87.9742 18.7705 88.0579 18.8516C88.215 18.9957 88.4216 19.0746 88.6355 19.0721H90.3801V28.6099C90.3053 29.8793 90.7391 31.1267 91.5871 32.0802C92.0403 32.5167 92.5806 32.8542 93.1733 33.071ZM113.984 33.0751H115.846L115.829 22.2688C115.84 21.3624 115.695 20.4607 115.401 19.6025C115.135 18.8281 114.708 18.1174 114.149 17.5159C113.587 16.9237 112.903 16.4582 112.144 16.1507C111.289 15.8103 110.374 15.6424 109.453 15.6569C106.801 15.6093 104.234 16.5834 102.29 18.3747L103.045 19.6879C103.169 19.8965 103.336 20.0774 103.534 20.2191C103.744 20.3675 103.996 20.4448 104.254 20.4396C104.576 20.4431 104.894 20.3622 105.175 20.2052L106.087 19.6827C106.459 19.4738 106.849 19.2989 107.252 19.1602C107.795 18.9896 108.363 18.9103 108.932 18.9258C109.325 18.8999 109.719 18.9608 110.085 19.104C110.452 19.2472 110.781 19.4691 111.051 19.7539C111.594 20.4932 111.853 21.401 111.78 22.3131V23.3211C110.127 23.2865 108.476 23.4543 106.864 23.8208C105.746 24.0718 104.676 24.4981 103.694 25.0839C102.99 25.5003 102.404 26.0865 101.99 26.7879C101.664 27.373 101.489 28.0293 101.48 28.698C101.454 29.39 101.581 30.0792 101.851 30.7178C102.104 31.265 102.462 31.7582 102.904 32.1703C103.364 32.5718 103.904 32.8722 104.488 33.052C105.14 33.2531 105.82 33.3523 106.503 33.3459C107.066 33.3538 107.629 33.3045 108.182 33.1988C108.673 33.102 109.151 32.9505 109.608 32.7469C110.063 32.5403 110.497 32.2926 110.906 32.007C111.354 31.6901 111.783 31.3481 112.192 30.9826L112.562 32.195C112.594 32.3399 112.655 32.4769 112.741 32.5983C112.827 32.7196 112.937 32.8227 113.063 32.9017C113.352 33.03 113.667 33.0894 113.984 33.0751ZM108.966 30.3975C108.58 30.4771 108.186 30.5158 107.792 30.5129L107.79 30.5342C107.193 30.5615 106.602 30.3975 106.106 30.0662C105.878 29.8783 105.7 29.6379 105.587 29.366C105.474 29.0941 105.43 28.7989 105.459 28.5062C105.457 28.1421 105.564 27.7856 105.766 27.4819C106.036 27.1205 106.398 26.8376 106.815 26.6627C107.439 26.3873 108.095 26.1927 108.769 26.0837C109.77 25.9192 110.783 25.8437 111.797 25.8581V28.6934C111.518 28.9793 111.219 29.2447 110.902 29.4878C110.615 29.7062 110.306 29.8953 109.981 30.052C109.658 30.2069 109.317 30.3228 108.966 30.3975ZM119.97 8.3386V33.0756L119.966 33.1087H122.696C122.932 33.1233 123.167 33.0591 123.362 32.9264C123.545 32.7668 123.667 32.5486 123.706 32.3096L123.889 31.1597C124.161 31.4818 124.456 31.7843 124.772 32.0649C125.075 32.334 125.411 32.5656 125.771 32.7549C126.153 32.9327 126.552 33.0726 126.961 33.1727C127.434 33.2824 127.919 33.335 128.405 33.3293C129.466 33.3472 130.515 33.1158 131.469 32.654C132.374 32.2049 133.169 31.5649 133.799 30.7789C134.468 29.9352 134.972 28.9747 135.286 27.9471C135.641 26.7985 135.816 25.6025 135.804 24.4012C135.82 23.1493 135.664 21.901 135.34 20.6909C135.084 19.712 134.641 18.791 134.035 17.9779C133.502 17.2746 132.812 16.7027 132.02 16.3065C131.219 15.9186 130.337 15.7224 129.446 15.7335C128.402 15.7091 127.368 15.9291 126.427 16.3756C125.561 16.8114 124.778 17.3937 124.113 18.0963V8.3386H119.97ZM125.818 19.466C126.491 19.0917 127.253 18.9053 128.024 18.9266L128.003 18.9503C128.511 18.9418 129.014 19.0421 129.478 19.2442C129.923 19.4562 130.302 19.7834 130.574 20.1913C130.912 20.7055 131.148 21.2791 131.27 21.8812C131.445 22.7156 131.527 23.5667 131.514 24.4191C131.538 25.2853 131.442 26.1507 131.228 26.9908C131.07 27.6372 130.794 28.2494 130.413 28.7969C130.089 29.2473 129.654 29.6075 129.15 29.8425C128.617 30.0816 128.038 30.2008 127.453 30.1915C126.835 30.1977 126.221 30.0819 125.648 29.8507C125.043 29.5825 124.516 29.1676 124.115 28.6441V20.9878C124.584 20.3818 125.162 19.8661 125.818 19.466ZM150.672 33.0766H152.534L152.516 22.2688C152.527 21.3624 152.383 20.4607 152.089 19.6025C151.822 18.8281 151.396 18.1174 150.837 17.5159C150.275 16.9237 149.591 16.4582 148.832 16.1507C147.975 15.8105 147.058 15.6426 146.135 15.6569C143.482 15.6089 140.915 16.5831 138.971 18.3747L139.726 19.6879C139.85 19.8965 140.016 20.0774 140.214 20.2191C140.424 20.3675 140.677 20.4448 140.935 20.4396C141.257 20.4412 141.574 20.3604 141.855 20.2052L142.767 19.6827C143.139 19.4738 143.529 19.2989 143.933 19.1602C144.476 18.9896 145.043 18.9103 145.612 18.9258C146.005 18.8999 146.399 18.9608 146.766 19.104C147.132 19.2472 147.462 19.4691 147.732 19.7539C148.275 20.4932 148.534 21.401 148.461 22.3131V23.3207C146.809 23.2873 145.159 23.4559 143.548 23.8226C142.43 24.0735 141.36 24.4999 140.377 25.0856C139.674 25.5021 139.088 26.0883 138.674 26.7897C138.348 27.3748 138.173 28.0311 138.164 28.6998C138.138 29.3918 138.265 30.081 138.534 30.7196C138.788 31.2668 139.146 31.76 139.588 32.1721C140.048 32.5736 140.587 32.874 141.172 33.0538C141.824 33.2549 142.504 33.354 143.186 33.3476C143.75 33.3558 144.312 33.3065 144.866 33.2006C145.356 33.1028 145.835 32.9513 146.292 32.7487C146.749 32.5443 147.185 32.2964 147.595 32.0086C148.042 31.6917 148.472 31.3497 148.88 30.9842L149.25 32.1966C149.283 32.3414 149.344 32.4785 149.43 32.5998C149.516 32.7211 149.625 32.8243 149.752 32.9033C150.041 33.0316 150.356 33.0909 150.672 33.0766ZM145.656 30.3985C145.27 30.4781 144.876 30.5168 144.482 30.5139L144.48 30.5351C143.883 30.5625 143.292 30.3985 142.796 30.0672C142.568 29.8793 142.39 29.6389 142.277 29.367C142.164 29.0951 142.12 28.7999 142.149 28.5072C142.147 28.1431 142.254 27.7866 142.456 27.4829C142.726 27.1215 143.088 26.8386 143.505 26.6637C144.129 26.3883 144.785 26.1937 145.459 26.0847C146.459 25.9202 147.473 25.8447 148.487 25.8591V28.6944C148.208 28.9803 147.909 29.2457 147.592 29.4887C147.305 29.7072 146.996 29.8963 146.671 30.053C146.348 30.2079 146.007 30.3238 145.656 30.3985ZM166.476 19.6974C166.621 19.6017 166.741 19.4736 166.827 19.3234L167.742 17.8756C167.04 17.2124 166.214 16.6928 165.309 16.3465C163.367 15.6256 161.238 15.5689 159.26 16.1855C158.515 16.4293 157.825 16.8149 157.229 17.3207C156.697 17.7745 156.276 18.341 155.994 18.9783C155.716 19.6084 155.574 20.289 155.575 20.9768C155.557 21.638 155.679 22.2957 155.934 22.9069C156.156 23.4161 156.481 23.8749 156.888 24.2551C157.291 24.6255 157.749 24.9309 158.247 25.1603C158.754 25.3999 159.275 25.6094 159.807 25.7878L161.366 26.2817C161.832 26.4151 162.286 26.5843 162.725 26.7879C163.081 26.9521 163.404 27.1788 163.679 27.4572C163.925 27.725 164.054 28.0778 164.04 28.4396C164.028 28.704 163.975 28.965 163.882 29.2134C163.782 29.4763 163.608 29.7056 163.381 29.8746C163.122 30.0824 162.825 30.2386 162.507 30.3346C162.096 30.458 161.667 30.5166 161.238 30.5081C160.712 30.5205 160.188 30.446 159.687 30.2876C159.317 30.1666 158.96 30.0098 158.621 29.8196L157.824 29.3517C157.608 29.209 157.355 29.1323 157.095 29.1312C156.872 29.1194 156.651 29.1704 156.457 29.2782C156.281 29.3888 156.132 29.5366 156.021 29.711L155.066 31.2745C155.424 31.593 155.814 31.8731 156.231 32.1102C156.687 32.3853 157.171 32.6097 157.675 32.7796C158.209 32.9532 158.753 33.0928 159.304 33.1974C160.863 33.4751 162.466 33.3834 163.982 32.93C164.772 32.6817 165.505 32.2801 166.138 31.7485C166.708 31.2538 167.16 30.6397 167.461 29.9506C167.772 29.2311 167.927 28.4552 167.917 27.6727C167.933 27.0656 167.811 26.4626 167.558 25.9092C167.328 25.4306 167.003 25.0026 166.604 24.6505C166.206 24.2898 165.75 23.9968 165.255 23.7834L163.713 23.1558L162.171 22.6665C161.709 22.5321 161.258 22.3628 160.822 22.1603C160.467 21.9975 160.144 21.7736 159.868 21.4989C159.749 21.3769 159.657 21.2326 159.595 21.0747C159.534 20.9167 159.505 20.7482 159.509 20.5789C159.505 20.3141 159.566 20.0523 159.689 19.817C159.811 19.5817 159.991 19.3802 160.211 19.2306C160.781 18.86 161.456 18.6798 162.136 18.7163C162.599 18.7088 163.06 18.7652 163.506 18.8838C163.867 18.9799 164.22 19.1057 164.56 19.2601L165.357 19.6363C165.557 19.7392 165.779 19.7957 166.004 19.8017C166.168 19.8097 166.331 19.7737 166.476 19.6974ZM181.378 16.2418C180.422 15.8889 179.407 15.7145 178.387 15.7275L178.405 15.7325C177.212 15.7169 176.028 15.9447 174.927 16.4018C173.944 16.8188 173.059 17.4337 172.327 18.2075C171.606 18.9826 171.049 19.8933 170.69 20.8857C170.316 21.9418 170.123 23.0529 170.121 24.1724C170.087 25.5235 170.301 26.8695 170.753 28.1445C171.144 29.2115 171.756 30.1858 172.548 31.0049C173.307 31.7723 174.224 32.3685 175.235 32.7529C176.301 33.1542 177.433 33.3548 178.573 33.3445C179.2 33.3438 179.826 33.2999 180.446 33.2129C181.092 33.1226 181.726 32.9685 182.341 32.7529C182.968 32.5331 183.568 32.2419 184.127 31.8852C184.705 31.5172 185.225 31.0662 185.67 30.5471L184.463 29.0504C184.378 28.9358 184.27 28.8391 184.147 28.7661C184.012 28.6981 183.862 28.6643 183.711 28.6676C183.429 28.6743 183.154 28.7552 182.914 28.902L181.959 29.4163C181.548 29.6205 181.121 29.7925 180.683 29.9307C180.121 30.0985 179.535 30.1776 178.949 30.1651C178.344 30.1882 177.74 30.0891 177.175 29.8736C176.61 29.6581 176.095 29.3308 175.662 28.9115C174.734 27.8366 174.228 26.4663 174.235 25.0514H184.872C185.033 25.0559 185.193 25.0297 185.344 24.9742C185.469 24.9273 185.574 24.8387 185.64 24.7237C185.72 24.5727 185.77 24.4082 185.788 24.2388C185.82 23.9822 185.834 23.7237 185.83 23.4652C185.849 22.3453 185.661 21.2315 185.276 20.1785C184.941 19.2692 184.415 18.4405 183.734 17.7473C183.066 17.0845 182.263 16.5712 181.378 16.2418ZM176.948 18.8751C177.436 18.7004 177.954 18.6255 178.471 18.6548L178.47 18.6524C179.022 18.6373 179.572 18.7413 180.08 18.9574C180.517 19.1513 180.906 19.4392 181.218 19.8003C181.525 20.1642 181.754 20.5869 181.89 21.0421C182.039 21.5302 182.114 22.0376 182.112 22.5475H174.329C174.441 21.4741 174.899 20.4652 175.635 19.671C176.014 19.3204 176.461 19.0497 176.948 18.8751Z" fill="white"/>
</svg>
