<svg width="163" height="42" viewBox="0 0 163 42" fill="none" xmlns="http://www.w3.org/2000/svg">
<path d="M12.1769 4.23678C10.5815 2.34378 9.2073 0.421106 8.92676 0.0222598C8.89709 -0.00741993 8.85277 -0.00741993 8.8235 0.0222598C8.54296 0.421513 7.16875 2.34419 5.57336 4.23678C-8.12077 21.7019 7.73023 33.4884 7.73023 33.4884L7.86317 33.577C7.98149 35.396 8.27666 38.0135 8.27666 38.0135H8.86741H9.45815C9.45815 38.0135 9.75373 35.4106 9.87164 33.577L10.0046 33.4737C10.0192 33.4884 25.8702 21.7019 12.1761 4.23678H12.1769ZM8.86781 33.2221C8.86781 33.2221 8.15875 32.6159 7.96644 32.3052V32.2756L8.8235 13.2578C8.8235 13.1988 8.91213 13.1988 8.91213 13.2578L9.76877 32.2756V32.3052C9.57687 32.6155 8.86781 33.2221 8.86781 33.2221Z" fill="white"/>
<path d="M38.5317 29.3415L31.9265 13.2087L31.9115 13.164H26.7724V14.2483H27.6018C27.8535 14.2483 28.0905 14.3524 28.2682 14.5305C28.4459 14.7085 28.5345 14.9464 28.5345 15.1989L28.3865 31.4353C28.3865 31.9403 27.9718 32.3562 27.4681 32.3712L26.624 32.3863V33.456H31.6297V32.3863L31.1114 32.3712C30.608 32.3562 30.1929 31.9403 30.1929 31.4353V16.1344L37.3908 33.4551C37.4941 33.7076 37.7311 33.8711 37.9979 33.8711C38.2646 33.8711 38.5012 33.7076 38.6053 33.4551L45.6402 16.5206L45.7439 31.4353C45.7439 31.9553 45.3292 32.3712 44.8108 32.3859H44.2774V33.4556H50.1421V32.3859H49.3424C48.8391 32.3859 48.424 31.9549 48.4093 31.4499L48.365 15.2135C48.365 14.6935 48.7797 14.2776 49.2835 14.2629L50.1421 14.2479V13.1636H45.1364L38.5313 29.3406L38.5317 29.3415Z" fill="white"/>
<path d="M84.5874 32.1041C84.4239 31.9402 84.3349 31.7174 84.3349 31.4495V23.4734C84.3349 21.9556 83.8893 20.7652 82.9985 19.9171C82.1227 19.069 80.9051 18.6372 79.3906 18.6372C77.2671 18.6372 75.5891 19.5004 74.4162 21.197C74.4011 21.2267 74.3568 21.2417 74.3121 21.2417C74.2674 21.2417 74.2381 21.2116 74.2381 21.1673L73.6884 19.0393H72.7679L70.407 20.3932V21.1372H71.016C71.2982 21.1372 71.5356 21.2116 71.6991 21.3604C71.8621 21.5092 71.9515 21.7324 71.9515 22.0447V31.4344C71.9515 31.7024 71.8625 31.9256 71.6991 32.089C71.5356 32.2529 71.3132 32.3419 71.0457 32.3419H70.4517V33.4283H75.8863V32.3419H75.2923C75.0248 32.3419 74.8024 32.2525 74.639 32.089C74.476 31.9252 74.3865 31.7024 74.3865 31.4344V25.2143C74.3865 24.4256 74.5646 23.6368 74.8915 22.8631C75.233 22.1044 75.7375 21.4645 76.4059 20.9734C77.0739 20.4822 77.8757 20.244 78.7966 20.244C79.8358 20.244 80.6229 20.5713 81.1128 21.2263C81.6027 21.8808 81.8552 22.7289 81.8552 23.7409V31.4194C81.8552 31.6873 81.7662 31.9101 81.6027 32.074C81.4397 32.2378 81.2169 32.3269 80.9494 32.3269H80.3554V33.4132H85.7896V32.3269H85.1956C84.9728 32.357 84.7646 32.2675 84.5866 32.1037L84.5874 32.1041Z" fill="white"/>
<path d="M134.238 14.3789C132.736 13.5792 131.057 13.1641 129.246 13.1641H122.177V14.2455H122.869C123.134 14.2455 123.369 14.3492 123.605 14.5862C123.826 14.8082 123.944 15.0603 123.944 15.327V31.2658C123.944 31.5321 123.826 31.7842 123.605 32.0062C123.384 32.2282 123.134 32.3469 122.869 32.3469H122.177V33.4284H129.246C131.057 33.4284 132.736 33.0137 134.238 32.2136C135.74 31.4138 136.963 30.2287 137.847 28.7179C138.73 27.207 139.187 25.3848 139.187 23.3113C139.187 21.2374 138.73 19.4301 137.847 17.9047C136.948 16.3642 135.741 15.1941 134.238 14.3793V14.3789ZM136.344 23.2816C136.344 25.1778 136.006 26.7773 135.343 28.0661C134.68 29.355 133.797 30.3177 132.707 30.9398C131.617 31.5618 130.409 31.8729 129.113 31.8729H127.685C127.42 31.8729 127.184 31.7692 126.948 31.5321C126.728 31.3102 126.61 31.0581 126.61 30.7918V15.7568C126.61 15.4901 126.713 15.253 126.948 15.016C127.169 14.794 127.42 14.6753 127.685 14.6753H129.113C130.41 14.6753 131.617 14.9863 132.707 15.6088C133.797 16.2308 134.68 17.1936 135.343 18.4824C136.006 19.7863 136.344 21.4008 136.344 23.282V23.2816Z" fill="white"/>
<path d="M155.896 24.3631C155.242 23.6077 153.98 22.9706 152.497 22.6299C154.546 21.6077 155.599 20.1709 155.599 18.3194C155.599 17.3119 155.333 16.4085 154.797 15.638C154.263 14.8676 153.506 14.2455 152.542 13.8158C151.576 13.3865 150.447 13.1641 149.171 13.1641H141.168V14.2455H141.807C142.074 14.2455 142.311 14.3492 142.549 14.5862C142.772 14.8082 142.891 15.0603 142.891 15.327V31.2658C142.891 31.5321 142.772 31.7842 142.549 32.0062C142.326 32.2282 142.074 32.3469 141.807 32.3469H141.109V33.4284H149.795C151.116 33.4284 152.348 33.206 153.461 32.7616C154.575 32.3172 155.466 31.6655 156.104 30.8064C156.757 29.9473 157.083 28.8955 157.083 27.6811C157.069 26.3776 156.682 25.2665 155.896 24.3631H155.896ZM145.934 31.5472C145.712 31.3252 145.593 31.0731 145.593 30.8064V23.652H149.721C151.175 23.652 152.289 24.0224 153.061 24.7627C153.833 25.5035 154.219 26.4663 154.219 27.6514C154.219 28.3625 154.04 29.0586 153.714 29.6957C153.373 30.3474 152.867 30.8658 152.185 31.2658C151.517 31.6659 150.685 31.8733 149.721 31.8733H146.676C146.409 31.8733 146.172 31.7696 145.934 31.5472ZM145.608 22.1261V15.7714C145.608 15.5047 145.712 15.2681 145.949 15.0306C146.172 14.8086 146.424 14.6899 146.691 14.6899H148.651C150.061 14.6899 151.101 15.0457 151.754 15.7267C152.407 16.4227 152.733 17.3115 152.733 18.408C152.733 19.5338 152.421 20.4372 151.813 21.1186C151.204 21.7854 150.284 22.1261 149.067 22.1261H145.607H145.608Z" fill="white"/>
<path d="M63.8985 19.5821C62.7642 18.9621 61.4969 18.6372 60.1268 18.6372C58.7566 18.6372 57.4747 18.9474 56.355 19.5821C55.2207 20.2021 54.3217 21.1022 53.659 22.239C52.9959 23.3758 52.6572 24.7045 52.6572 26.1807C52.6572 27.657 52.9959 28.9857 53.659 30.1224C54.3217 31.2592 55.2207 32.1598 56.355 32.7798C57.4897 33.3998 58.7566 33.7247 60.1268 33.7247C61.4969 33.7247 62.7788 33.4149 63.8985 32.7798C65.0333 32.1598 65.9318 31.2592 66.5945 30.1224C67.2576 28.9857 67.5963 27.657 67.5963 26.1807C67.5963 24.7045 67.2576 23.3758 66.5945 22.239C65.9318 21.1022 65.0329 20.2017 63.8985 19.5821ZM64.9889 26.1807C64.9889 27.9965 64.547 29.4727 63.6627 30.5355C62.7935 31.5983 61.6002 32.1447 60.1268 32.1447C58.6537 32.1447 57.4601 31.5987 56.5908 30.5355C55.7069 29.4727 55.265 27.9965 55.265 26.1807C55.265 24.365 55.7069 22.8887 56.5908 21.8259C57.4601 20.7632 58.6537 20.2167 60.1268 20.2167C61.6002 20.2167 62.7935 20.7632 63.6627 21.8259C64.547 22.8887 64.9889 24.365 64.9889 26.1807Z" fill="white"/>
<path d="M116.112 19.5821C114.978 18.9621 113.71 18.6372 112.341 18.6372C110.97 18.6372 109.688 18.9474 108.569 19.5821C107.434 20.2021 106.536 21.1022 105.872 22.239C105.21 23.3758 104.871 24.7045 104.871 26.1807C104.871 27.657 105.209 28.9857 105.872 30.1224C106.536 31.2592 107.434 32.1598 108.569 32.7798C109.704 33.3998 110.97 33.7247 112.341 33.7247C113.711 33.7247 114.992 33.4149 116.112 32.7798C117.247 32.1598 118.145 31.2592 118.808 30.1224C119.471 28.9857 119.81 27.657 119.81 26.1807C119.81 24.7045 119.471 23.3758 118.808 22.239C118.145 21.1022 117.232 20.2017 116.112 19.5821ZM117.202 26.1807C117.202 27.9965 116.76 29.4727 115.876 30.5355C115.007 31.5983 113.814 32.1447 112.34 32.1447C110.867 32.1447 109.673 31.5987 108.804 30.5355C107.92 29.4727 107.478 27.9965 107.478 26.1807C107.478 24.3503 107.92 22.8887 108.804 21.8259C109.673 20.7632 110.867 20.2167 112.34 20.2167C113.813 20.2167 115.007 20.7632 115.876 21.8259C116.745 22.8887 117.202 24.365 117.202 26.1807Z" fill="white"/>
<path d="M95.0552 18.6367C93.868 18.6367 92.7849 18.8888 91.8059 19.3929C90.8264 19.8971 90.0548 20.5793 89.5059 21.4543C88.957 22.3146 88.6749 23.2785 88.6749 24.3019C88.6749 25.2215 88.8826 26.0668 89.3128 26.823C89.7283 27.5496 90.2922 28.1578 91.0041 28.662L88.8822 31.5393C88.6151 31.8954 88.5854 32.3699 88.7781 32.7553C88.9859 33.1558 89.3717 33.3932 89.8169 33.3932H90.4252C89.8316 33.7937 89.3567 34.2682 89.0302 34.8317C88.6444 35.4692 88.4517 36.1368 88.4517 36.819C88.4517 38.0944 89.0156 39.1474 90.1284 39.9337C91.2265 40.7196 92.7694 41.1201 94.7133 41.1201C96.0635 41.1201 97.3544 40.8977 98.5265 40.4676C99.7137 40.0374 100.678 39.3999 101.39 38.5693C102.117 37.7387 102.488 36.7304 102.488 35.5737C102.488 34.3576 102.043 33.4973 101.004 32.6671C100.114 31.9698 98.7192 31.5994 96.9831 31.5994H91.048C91.033 31.5994 91.0183 31.5844 91.0183 31.5844C91.0183 31.5844 91.0033 31.5547 91.0183 31.5401L92.5613 29.4637C92.9768 29.6564 93.3622 29.7751 93.7037 29.8491C94.0599 29.9231 94.4604 29.9528 94.9056 29.9528C96.1521 29.9528 97.2795 29.7007 98.259 29.1966C99.2384 28.6924 100.025 28.0102 100.589 27.1353C101.153 26.275 101.434 25.3114 101.434 24.2881C101.434 23.1907 100.9 21.1884 99.4462 20.165C99.4462 20.15 99.4612 20.15 99.4612 20.15L102.651 20.5057V19.0376H97.5471C96.7457 18.7855 95.9151 18.6371 95.0544 18.6371L95.0552 18.6367ZM96.8356 27.9208C96.2717 28.2172 95.6634 28.3806 95.0552 28.3806C94.0611 28.3806 93.1854 28.0245 92.4438 27.3276C91.7018 26.6303 91.331 25.6074 91.331 24.3019C91.331 22.9968 91.7022 21.9735 92.4438 21.2766C93.1858 20.5797 94.0611 20.2236 95.0552 20.2236C95.6785 20.2236 96.2717 20.372 96.8356 20.6834C97.3995 20.9802 97.8593 21.4396 98.2305 22.0479C98.5867 22.6561 98.7794 23.4123 98.7794 24.3019C98.7794 25.2065 98.6013 25.9627 98.2305 26.5563C97.8744 27.1646 97.3995 27.624 96.8356 27.9208ZM92.8146 33.3782H96.8356C97.9484 33.3782 98.6607 33.6006 99.1355 34.0755C99.6104 34.5499 99.8479 35.1878 99.8479 35.929C99.8479 37.0117 99.4177 37.9013 98.557 38.5689C97.6963 39.2361 96.5388 39.5776 95.1145 39.5776C93.868 39.5776 92.8296 39.2958 92.0726 38.7616C91.316 38.2278 90.9301 37.4122 90.9301 36.3742C90.9301 35.7217 91.1082 35.1134 91.4643 34.5796C91.8205 34.0454 92.2507 33.6599 92.8146 33.3782Z" fill="white"/>
<path d="M160.094 33.1807C159.801 33.0205 159.581 32.7876 159.404 32.5111C159.243 32.22 159.155 31.9142 159.155 31.5796C159.155 31.2446 159.243 30.9242 159.404 30.6478C159.566 30.3567 159.801 30.1383 160.094 29.9782C160.388 29.818 160.711 29.731 161.077 29.731C161.444 29.731 161.767 29.8184 162.061 29.9782C162.354 30.1383 162.574 30.3713 162.75 30.6478C162.912 30.9389 163 31.2446 163 31.5796C163 31.9147 162.912 32.2346 162.75 32.5111C162.589 32.8022 162.354 33.0205 162.061 33.1807C161.767 33.3409 161.444 33.4283 161.077 33.4283C160.725 33.4283 160.388 33.3555 160.094 33.1807ZM161.9 32.977C162.148 32.8461 162.326 32.642 162.472 32.4094C162.604 32.1618 162.678 31.8854 162.678 31.5796C162.678 31.2739 162.604 30.997 162.472 30.7498C162.339 30.5022 162.148 30.3132 161.9 30.1823C161.65 30.0513 161.385 29.9782 161.077 29.9782C160.77 29.9782 160.505 30.0509 160.255 30.1823C160.007 30.3132 159.829 30.5173 159.683 30.7498C159.551 30.9974 159.477 31.2739 159.477 31.5796C159.477 31.8854 159.551 32.1618 159.683 32.4094C159.815 32.6571 160.007 32.8461 160.255 32.977C160.505 33.1079 160.77 33.1807 161.077 33.1807C161.385 33.1807 161.665 33.1079 161.9 32.977ZM160.285 32.4676V32.3367L160.314 32.3224H160.403C160.431 32.3224 160.461 32.3078 160.475 32.2932C160.505 32.2639 160.505 32.2497 160.505 32.2204V30.8665C160.505 30.8372 160.49 30.8084 160.475 30.7937C160.446 30.7645 160.431 30.7645 160.403 30.7645H160.314L160.285 30.7498V30.6189L160.314 30.6047H161.077C161.298 30.6047 161.459 30.6482 161.591 30.7502C161.723 30.8523 161.781 30.9832 161.781 31.158C161.781 31.2889 161.738 31.4199 161.635 31.5073C161.533 31.6093 161.415 31.6675 161.268 31.6821L161.444 31.7406L161.782 32.2793C161.811 32.3233 161.841 32.3375 161.885 32.3375H161.973L161.987 32.3521V32.483L161.973 32.4977H161.519L161.489 32.483L161.019 31.6967H160.902V32.2208C160.902 32.2501 160.916 32.2789 160.932 32.2936C160.961 32.3228 160.976 32.3228 161.004 32.3228H161.093L161.123 32.3371V32.468L161.093 32.4826H160.315L160.285 32.468L160.285 32.4676ZM161.033 31.5069C161.151 31.5069 161.253 31.4776 161.312 31.4052C161.37 31.3467 161.415 31.245 161.415 31.1283C161.415 31.0117 161.385 30.9247 161.327 30.8519C161.268 30.7791 161.179 30.7498 161.077 30.7498H161.018C160.988 30.7498 160.96 30.7645 160.946 30.7791C160.916 30.808 160.916 30.8226 160.916 30.8519V31.5069H161.033Z" fill="white"/>
</svg>
