<svg width="60" height="41" viewBox="0 0 60 41" fill="none" xmlns="http://www.w3.org/2000/svg">
<path fill-rule="evenodd" clip-rule="evenodd" d="M57.4365 18.4036C56.1295 18.3683 55.1051 18.5096 54.222 18.8629C54.1581 18.8903 54.0846 18.9106 54.0103 18.9312C53.7974 18.9901 53.5771 19.0511 53.5509 19.2867C53.6245 19.3603 53.6597 19.4531 53.6966 19.55C53.7305 19.6392 53.7658 19.732 53.8335 19.8166C54.0454 20.1345 54.3633 20.5937 54.6812 20.841C54.8579 20.9646 55.0345 21.0971 55.2111 21.2295C55.3877 21.362 55.5643 21.4945 55.741 21.6181C56.0589 21.8124 56.4033 21.9713 56.7477 22.1303C57.0921 22.2893 57.4365 22.4482 57.7544 22.6425C57.931 22.7661 58.1163 22.8985 58.3017 23.0309L58.3019 23.031C58.4873 23.1635 58.6728 23.296 58.8495 23.4196C58.9083 23.4667 58.9593 23.5217 59.0104 23.5766C59.1124 23.6865 59.2145 23.7964 59.3793 23.8435V23.8082C59.3224 23.7323 59.2859 23.6361 59.2478 23.5359C59.215 23.4495 59.1811 23.3601 59.132 23.2783L58.6375 22.7838C58.143 22.148 57.5778 21.5828 56.9066 21.1236C56.7779 21.0377 56.6115 20.9435 56.4305 20.841C55.8665 20.5216 55.1596 20.1213 54.9992 19.64L54.9638 19.6047C55.2676 19.5743 55.6236 19.4655 55.9421 19.3683C55.9939 19.3524 56.0447 19.3369 56.0942 19.3221C56.3797 19.2507 56.6472 19.2244 56.9194 19.1976C57.1861 19.1714 57.4573 19.1447 57.7544 19.0748C58.037 19.0041 58.2843 18.9335 58.5669 18.8275V18.6862C58.4256 18.545 58.2931 18.3684 58.1607 18.1918L58.1606 18.1917L58.1606 18.1916C58.0281 18.015 57.8957 17.8384 57.7544 17.6972C56.9066 16.9554 55.9882 16.2489 55.0345 15.6484C54.7166 15.4576 54.3605 15.305 54.0044 15.1524C53.7671 15.0507 53.5297 14.949 53.3036 14.8359C53.233 14.8006 53.1505 14.7731 53.0681 14.7457C52.9033 14.6907 52.7384 14.6358 52.6678 14.518C52.4654 14.265 52.3174 13.9396 52.1718 13.6195C52.1141 13.4927 52.0568 13.3667 51.9966 13.2464C51.5021 12.328 51.0429 11.3389 50.6543 10.3851C50.5662 10.1867 50.4849 9.98836 50.404 9.79104L50.404 9.79099C50.2257 9.35594 50.0496 8.9261 49.8066 8.51298C48.111 5.68708 46.2389 3.99154 43.413 2.33132C42.8732 2.01383 42.2193 1.86755 41.5283 1.71296C41.4505 1.69555 41.3722 1.67804 41.2935 1.66017C40.9001 1.66017 40.5371 1.62973 40.148 1.59711L40.0572 1.58952C39.8936 1.52818 39.7419 1.39582 39.5951 1.26781C39.4883 1.17468 39.3842 1.08384 39.2801 1.02434C38.3263 0.423833 35.9243 -0.847823 35.2178 0.847719C34.8506 1.69513 35.4999 2.54254 35.9554 3.13708L35.9554 3.13715C36.0695 3.28607 36.1715 3.41912 36.2422 3.53233C36.3093 3.62456 36.3804 3.71879 36.4526 3.81453L36.4527 3.81468C36.6846 4.12224 36.9284 4.44545 37.09 4.76866C37.1348 4.88813 37.167 5.0076 37.1999 5.12974C37.2448 5.29651 37.291 5.46825 37.3726 5.65175C37.4053 5.74993 37.438 5.84935 37.471 5.94951C37.6872 6.60613 37.9139 7.29483 38.2204 7.87715C38.397 8.23039 38.6089 8.58363 38.8209 8.90154C38.8649 8.95656 38.9157 9.00129 38.967 9.04641L38.9671 9.04643C39.0805 9.14617 39.1961 9.24784 39.2447 9.46672C39.0852 9.67187 39.0286 9.95055 38.9706 10.2363L38.9705 10.2364C38.9386 10.3935 38.9063 10.5527 38.8562 10.7031C38.2557 12.5752 38.5029 14.8713 39.3507 16.2489C39.598 16.6728 40.2338 17.5559 41.0816 17.238C41.609 17.037 41.6722 16.4967 41.7408 15.9092C41.7687 15.6705 41.7975 15.4239 41.8587 15.1892C41.8697 15.1231 41.8739 15.0674 41.8776 15.0177C41.8857 14.9078 41.8917 14.8272 41.9647 14.73V14.7653C42.2119 15.2245 42.4239 15.6837 42.6358 16.1429C43.1657 16.9554 44.0488 17.8031 44.7906 18.3683C44.9359 18.474 45.0714 18.6143 45.2099 18.7578C45.4417 18.9979 45.6821 19.2468 45.9916 19.3574V19.1808H45.9563C45.8791 19.0778 45.7831 19.0124 45.6821 18.9435C45.6444 18.9178 45.6061 18.8916 45.5677 18.8629C45.2851 18.5803 44.9319 18.1917 44.7199 17.8738C44.0135 16.9554 43.413 15.931 42.8831 14.8713C42.6005 14.3414 42.3886 13.8116 42.1767 13.2818L42.1766 13.2817C42.1344 13.1972 42.109 13.1015 42.0847 13.0102C42.0482 12.8725 42.0143 12.7449 41.9294 12.6812C41.8513 12.7927 41.7627 12.9007 41.6724 13.0107C41.4767 13.2492 41.2731 13.4973 41.1522 13.8116C40.8923 14.3892 40.8213 15.0849 40.7461 15.8215L40.7461 15.8218C40.7293 15.986 40.7123 16.1522 40.693 16.3195C40.6577 16.3195 40.6489 16.3195 40.6445 16.324C40.643 16.3254 40.642 16.3274 40.6407 16.33C40.6381 16.3352 40.6341 16.3431 40.6224 16.3549C40.1522 16.2295 39.9601 15.7981 39.7748 15.3817C39.7512 15.3288 39.7278 15.2762 39.704 15.2245C39.2094 14.0588 39.1388 12.1513 39.5627 10.809C39.5868 10.7287 39.6309 10.61 39.6828 10.4709C39.8588 9.99797 40.123 9.28846 39.9865 9.04284C39.9202 8.84395 39.771 8.70036 39.6253 8.56017C39.5381 8.47628 39.4522 8.39361 39.386 8.30104C39.1741 7.98312 38.9268 7.59456 38.7855 7.24132C38.6063 6.81772 38.4647 6.37157 38.3225 5.92368L38.3225 5.92361L38.3224 5.92358C38.1564 5.40042 37.9895 4.87488 37.7611 4.3801C37.5492 3.95621 37.2313 3.497 36.9487 3.10844C36.8292 2.93586 36.7048 2.78323 36.5828 2.63369L36.5828 2.63365C36.3802 2.3853 36.1846 2.14544 36.0303 1.83678L36.0177 1.80549C35.9445 1.62464 35.8263 1.33226 35.9596 1.16563C35.995 1.02434 36.0656 0.989014 36.2069 0.95369C36.4188 0.777071 37.0193 0.989014 37.2313 1.09499C37.8318 1.34225 38.3617 1.58952 38.8562 1.90743C38.9393 1.96677 39.0223 2.04206 39.1067 2.11855C39.2736 2.26976 39.4457 2.4257 39.6333 2.47261H39.9865C40.2268 2.52066 40.4816 2.5324 40.7344 2.54405C41.0392 2.55809 41.3411 2.572 41.6114 2.64923C42.4945 2.93182 43.2717 3.35571 43.9781 3.77959C46.1329 5.15722 47.9344 7.10003 49.1354 9.4314C49.2582 9.65655 49.3336 9.86984 49.4096 10.085C49.4648 10.2412 49.5203 10.3984 49.5946 10.5618C49.7712 10.968 49.9655 11.3742 50.1598 11.7804C50.3541 12.1867 50.5484 12.5929 50.725 12.9991C50.7731 13.1049 50.8205 13.2107 50.8678 13.3162L50.8678 13.3163C51.1681 13.9859 51.4635 14.6447 51.8907 15.2245C52.0682 15.4782 52.6284 15.6408 53.1002 15.7777C53.2853 15.8314 53.4568 15.8812 53.5862 15.931C53.7068 15.9846 53.8578 16.0382 54.0143 16.0937L54.0144 16.0937C54.2705 16.1845 54.5412 16.2806 54.7166 16.3902C55.2817 16.7434 55.8469 17.132 56.3768 17.5205C56.4178 17.5479 56.4812 17.5844 56.5571 17.6282C56.8738 17.8108 57.408 18.1187 57.4365 18.4036ZM40.5873 4.02708C40.3048 4.02708 40.0928 4.0624 39.9162 4.09773V4.13305H39.9515C40.0564 4.31653 40.2001 4.48056 40.3395 4.63957C40.3879 4.69485 40.4358 4.74953 40.4814 4.8042C40.552 4.92783 40.6138 5.06029 40.6756 5.19275C40.7375 5.32522 40.7993 5.45769 40.8699 5.58133L40.9053 5.546C41.1525 5.36938 41.2585 5.12212 41.2585 4.73355C41.2055 4.68057 41.179 4.61875 41.1525 4.55694C41.126 4.49512 41.0995 4.4333 41.0466 4.38032C40.9889 4.30345 40.8999 4.24749 40.808 4.18969C40.7309 4.14125 40.6518 4.09151 40.5873 4.02708ZM14.2708 36.6663H11.9748C11.9041 32.816 11.6569 29.1776 11.3036 25.7512H11.2683L7.77123 36.6663H6.04037L2.57864 25.7512H2.54331C2.29605 29.0363 2.11943 32.6394 2.04878 36.6663H0C0.141295 31.7916 0.459209 27.2348 1.02439 22.996H3.85029L7.17073 33.0632H7.20605L10.5265 22.996H13.2464C13.8116 27.9766 14.1648 32.5334 14.2708 36.6663ZM20.5582 37.5843C22.0771 35.2882 23.3134 31.6146 24.2318 26.5633H22.0771C21.6532 29.6718 20.9821 32.533 19.993 35.1823C20.0636 34.6524 19.887 33.734 19.4985 32.3917L17.6969 26.5633H15.4362L17.9442 34.3345C18.3328 35.5002 18.5094 36.2773 18.5094 36.6659C18.5094 37.1957 18.2621 37.6903 17.7676 38.1495C17.379 38.538 16.8492 38.7146 16.178 38.7146C15.8248 38.7146 15.5069 38.6793 15.2243 38.644V39.8803C15.7895 40.1276 16.2487 40.2336 16.6372 40.2336C18.0502 40.2336 19.3572 39.3505 20.5582 37.5843ZM46.4859 36.9836L43.9779 35.7473C44.1899 35.5706 44.4018 35.3587 44.6137 35.1467C45.6735 33.8751 46.2033 32.0383 46.2033 29.5656C46.2033 25.0441 44.4371 22.7834 40.8694 22.7834C39.1386 22.7834 37.7609 23.3486 36.8072 24.5143C35.7475 25.7859 35.2176 27.6228 35.2176 30.0601C35.2176 32.4621 35.6768 34.2283 36.6306 35.3587C37.4783 36.3831 38.7853 36.8776 40.5515 36.8776C41.1873 36.8776 41.7878 36.807 42.353 36.6303L45.6381 38.5378L46.4859 36.9836ZM38.3614 33.9104C37.7963 33.0273 37.5137 31.579 37.5137 29.6009C37.5137 26.1392 38.5734 24.4436 40.6575 24.4436C41.7525 24.4436 42.565 24.8675 43.0595 25.68C43.6247 26.5631 43.9073 27.976 43.9073 29.9542C43.9073 33.4159 42.8476 35.1821 40.7635 35.1821C39.6684 35.1468 38.856 34.7582 38.3614 33.9104ZM54.7164 36.6663H48.1815V22.996H50.3716V34.9707H54.7164V36.6663ZM32.9923 35.7476C33.8401 35.0058 34.264 34.052 34.264 32.8863C34.264 31.544 33.6988 30.7316 32.7098 30.0957C32.7098 30.0957 30.7669 28.9654 29.7779 28.4355C28.6828 27.835 28.1177 27.1285 28.1177 26.3161C28.1177 25.7862 28.3296 25.3624 28.7182 25.0091C29.1067 24.6912 29.6366 24.5146 30.3431 24.5146C31.2261 24.5146 32.1092 24.6912 32.9923 25.0798L33.5222 23.9141C32.4978 23.2429 31.3321 22.8897 30.0605 22.8897C28.8241 22.8897 27.8351 23.2429 27.0579 23.9141C26.2808 24.5852 25.8923 25.5037 25.8923 26.5987C25.8923 27.941 26.4221 28.7534 27.4465 29.4952C27.4465 29.4952 29.354 30.5903 30.3077 31.1201C31.3321 31.6853 31.8973 32.3918 31.8973 33.2042C31.8973 33.8401 31.6147 34.3699 31.1555 34.7232C30.6963 35.0764 30.0251 35.253 29.2127 35.253C28.3296 35.253 27.3759 34.9704 26.2808 34.4406L25.6803 35.6063C26.9166 36.454 28.2236 36.8779 29.5659 36.8779C31.0142 36.8779 32.1446 36.4894 32.9923 35.7476ZM59.0261 36.6661H59.3793V35.0059H58.8494L58.4255 36.1363L57.9663 35.0059H57.4718V36.6661H57.7897V35.3945H57.825L58.3196 36.6661H58.5668L59.0261 35.3945V36.6661ZM56.2708 36.6661H56.624V35.2885H57.0832V35.0059H55.7409V35.2885H56.2355V36.6661H56.2708Z" fill="white"/>
</svg>
