<svg width="148" height="40" viewBox="0 0 148 40" fill="none" xmlns="http://www.w3.org/2000/svg">
<path fill-rule="evenodd" clip-rule="evenodd" d="M68 16C64.2723 16 61.14 13.4503 60.252 10H51.0827C49.1273 10 47.4587 11.4137 47.1373 13.3423L46.8083 15.3153C46.4963 17.1883 45.5487 18.8183 44.2087 20C45.5487 21.1817 46.4963 22.8117 46.8083 24.6847L47.1373 26.6577C47.4587 28.5863 49.1273 30 51.0827 30H52.252C53.14 26.5497 56.2723 24 60 24C64.4183 24 68 27.5817 68 32C68 36.4183 64.4183 40 60 40C56.2723 40 53.14 37.4503 52.252 34H51.0827C47.172 34 43.8347 31.1727 43.1917 27.3153L42.8627 25.3423C42.5413 23.4137 40.8727 22 38.9173 22H35.748C34.86 25.4503 31.7277 28 28 28C24.2723 28 21.14 25.4503 20.252 22H15.748C14.86 25.4503 11.7277 28 8 28C3.58173 28 0 24.4183 0 20C0 15.5817 3.58173 12 8 12C11.7277 12 14.86 14.5497 15.748 18H20.252C21.14 14.5497 24.2723 12 28 12C31.7277 12 34.86 14.5497 35.748 18H38.9173C40.8727 18 42.5413 16.5863 42.8627 14.6577L43.1917 12.6847C43.8347 8.82733 47.172 6 51.0827 6H60.252C61.14 2.54967 64.2723 0 68 0C72.4183 0 76 3.58167 76 8C76 12.4183 72.4183 16 68 16ZM68 12C70.209 12 72 10.209 72 8C72 5.791 70.209 4 68 4C65.791 4 64 5.791 64 8C64 10.209 65.791 12 68 12ZM8 24C10.209 24 12 22.209 12 20C12 17.791 10.209 16 8 16C5.79087 16 4 17.791 4 20C4 22.209 5.79087 24 8 24ZM32 20C32 22.209 30.209 24 28 24C25.791 24 24 22.209 24 20C24 17.791 25.791 16 28 16C30.209 16 32 17.791 32 20ZM64 32C64 34.209 62.209 36 60 36C57.791 36 56 34.209 56 32C56 29.791 57.791 28 60 28C62.209 28 64 29.791 64 32Z" fill="white"/>
<path fill-rule="evenodd" clip-rule="evenodd" d="M124.006 17.2957V17.1054C125.402 16.4064 126.797 15.1991 126.797 12.8164C126.797 9.38507 123.974 7.32007 120.073 7.32007C116.076 7.32007 113.222 9.51207 113.222 12.8797C113.222 15.1674 114.554 16.4064 116.013 17.1054V17.2957C114.395 17.8677 112.46 19.5834 112.46 22.4427C112.46 25.9054 115.315 28.3201 120.041 28.3201C124.767 28.3201 127.527 25.9054 127.527 22.4427C127.527 19.5834 125.624 17.8994 124.006 17.2957ZM120.041 10.2431C121.627 10.2431 122.801 11.2594 122.801 12.9751C122.801 14.6907 121.595 15.7074 120.041 15.7074C118.487 15.7074 117.186 14.6907 117.186 12.9751C117.186 11.2277 118.424 10.2431 120.041 10.2431ZM120.041 25.2701C118.201 25.2701 116.711 24.0947 116.711 22.0931C116.711 20.2824 117.948 18.9161 120.009 18.9161C122.04 18.9161 123.277 20.2504 123.277 22.1567C123.277 24.0947 121.849 25.2701 120.041 25.2701Z" fill="white"/>
<path d="M132.42 28.0022H136.48V19.3926C136.48 16.5649 138.193 15.3259 140.128 15.3259C142.031 15.3259 143.522 16.5969 143.522 19.2019V28.0022H147.582V18.3759C147.582 14.2139 145.171 11.7996 141.397 11.7996C139.018 11.7996 137.685 12.7526 136.734 13.9916H136.48L136.131 12.1172H132.42V28.0022Z" fill="white"/>
<path d="M96.4799 28.0022H92.4199V12.1172H96.1309L96.4799 13.9916H96.7336C97.6852 12.7526 99.0176 11.7996 101.397 11.7996C105.171 11.7996 107.582 14.2139 107.582 18.3759V28.0022H103.522V19.2019C103.522 16.5969 102.031 15.3259 100.128 15.3259C98.1929 15.3259 96.4799 16.5649 96.4799 19.3926V28.0022Z" fill="white"/>
</svg>
