<svg width="106" height="40" viewBox="0 0 106 40" fill="none" xmlns="http://www.w3.org/2000/svg">
<path fill-rule="evenodd" clip-rule="evenodd" d="M21.9748 0C21.7049 0 21.4543 0.0622257 21.223 0.14519C21.7145 0.497794 21.9844 0.96448 22.1193 1.49339C22.129 1.56598 22.1482 1.61784 22.1579 1.69043C22.1676 1.75265 22.1772 1.81488 22.1772 1.8771C22.2157 2.78973 21.9555 2.9038 21.7724 3.44308C21.4929 4.13792 21.57 4.88462 21.9073 5.48612C21.9362 5.55871 21.9748 5.64168 22.023 5.71427C21.6567 3.09048 23.6903 2.69639 24.0662 1.8771C24.0951 1.16152 23.5458 0.684468 23.1121 0.352604C22.6976 0.0829658 22.3217 0 21.9748 0ZM25.0397 0.591132C25.0011 0.829658 25.03 0.767434 25.0204 0.891884C25.0108 0.974848 25.0108 1.07856 25.0011 1.16152C24.9819 1.24449 24.9626 1.32745 24.9337 1.41042C24.9144 1.49339 24.8855 1.57635 24.8566 1.65932C24.818 1.74229 24.7891 1.81488 24.7506 1.89784C24.7216 1.93934 24.7024 1.98081 24.6735 2.02229C24.6542 2.0534 24.6349 2.08452 24.6156 2.11563C24.5674 2.18823 24.5192 2.26082 24.4711 2.32304C24.4132 2.38527 24.365 2.45786 24.2976 2.50972C24.2976 2.5201 24.2976 2.5201 24.2976 2.5201C24.2397 2.57196 24.1819 2.63418 24.1144 2.68603C23.912 2.85196 23.6807 2.97642 23.4687 3.13198C23.4012 3.18383 23.3338 3.22531 23.2759 3.28754C23.2085 3.33939 23.1506 3.39124 23.0928 3.45347C23.0253 3.51569 22.9771 3.57792 22.9193 3.65051C22.8711 3.71274 22.8133 3.78533 22.7748 3.85793C22.7266 3.93052 22.6784 4.00312 22.6398 4.07571C22.6012 4.15868 22.5724 4.23127 22.5338 4.31424C22.5049 4.3972 22.476 4.4698 22.4567 4.55276C22.4278 4.6461 22.4085 4.72907 22.3892 4.81204C22.3796 4.85354 22.3796 4.90537 22.37 4.94686C22.3603 4.98836 22.3603 5.02982 22.3507 5.07131C22.3507 5.15427 22.3411 5.24761 22.3411 5.33057C22.3411 5.3928 22.3411 5.45502 22.3507 5.51725C22.3507 5.60021 22.3604 5.68318 22.3796 5.77651C22.3893 5.85948 22.4085 5.94244 22.4278 6.02541C22.4567 6.10838 22.476 6.19134 22.5049 6.27431C22.5242 6.32617 22.5531 6.37802 22.5724 6.4195L20.3556 5.4965C19.9797 5.38242 19.6135 5.27872 19.2376 5.18538C19.0352 5.13353 18.8328 5.08167 18.6304 5.02982C18.0521 4.90537 17.4642 4.81204 16.8763 4.74981C16.857 4.74981 16.8474 4.73943 16.8281 4.73943C16.2498 4.67721 15.6812 4.64609 15.1029 4.64609C14.6788 4.64609 14.2547 4.66682 13.8403 4.69794C13.2524 4.73944 12.6644 4.82239 12.0765 4.9261C11.9319 4.94682 11.7874 4.97796 11.6428 5.00907C11.344 5.07129 11.0549 5.14389 10.7754 5.21648C10.6308 5.25798 10.4862 5.29945 10.3416 5.34093C10.1971 5.40315 10.0621 5.47575 9.92721 5.53798C9.82119 5.58983 9.71517 5.64168 9.60916 5.69354C9.58989 5.70392 9.57059 5.70392 9.56097 5.71426C9.46458 5.76612 9.37784 5.80759 9.2911 5.85945C9.26219 5.86984 9.24291 5.88018 9.22363 5.89056C9.11761 5.94242 9.0116 6.00464 8.92485 6.05649C8.85738 6.08761 8.78992 6.12909 8.73209 6.16021C8.70318 6.18093 8.66462 6.2017 8.64535 6.21206C8.5586 6.26391 8.47186 6.31576 8.39476 6.36762C8.30801 6.41947 8.23091 6.47132 8.16344 6.52318C8.09598 6.57503 8.02851 6.61651 7.97068 6.66836C7.96102 6.67875 7.95142 6.67875 7.94177 6.68909C7.88394 6.73059 7.81647 6.78243 7.75864 6.83429C7.75864 6.83429 7.74899 6.84467 7.73938 6.85501C7.69119 6.89651 7.643 6.93798 7.59481 6.97946C7.57555 6.98984 7.55624 7.01057 7.53698 7.02096C7.48879 7.06246 7.4406 7.11429 7.39241 7.15578C7.38276 7.1765 7.3635 7.18689 7.35385 7.19728C7.29602 7.2595 7.23819 7.31135 7.18036 7.37358C7.1707 7.37358 7.1707 7.38397 7.1611 7.3943C7.10327 7.44616 7.04544 7.50838 6.98761 7.57061C6.97796 7.581 6.97796 7.59133 6.96835 7.59133C6.92016 7.64318 6.87197 7.69504 6.82378 7.75726C6.80452 7.77799 6.77559 7.79876 6.75631 7.81949C6.70812 7.88171 6.6503 7.94394 6.59247 8.00616C6.58281 8.02689 6.56355 8.03727 6.5539 8.05801C6.47679 8.14098 6.40933 8.22395 6.33222 8.30691C6.32257 8.3173 6.31296 8.32764 6.30331 8.33803C6.1491 8.51433 5.98525 8.69063 5.81177 8.84619C5.63828 9.01212 5.45516 9.16768 5.27203 9.3025C5.07927 9.4477 4.89615 9.57214 4.69375 9.69659C4.50099 9.81066 4.29858 9.91438 4.08655 10.0077C3.88415 10.101 3.67211 10.184 3.46007 10.2566C3.05527 10.3499 2.64083 10.5262 2.28422 10.5574C2.20712 10.5574 2.12038 10.5781 2.04327 10.5885C1.95653 10.6092 1.87943 10.63 1.80232 10.6507C1.72522 10.6818 1.64811 10.7129 1.57101 10.744C1.4939 10.7751 1.4168 10.8166 1.3397 10.8581C1.27223 10.91 1.19512 10.9514 1.12765 11.0033C1.06019 11.0552 0.992721 11.1174 0.934893 11.1796C0.867429 11.2315 0.79996 11.3041 0.742131 11.3663C0.684302 11.4389 0.626473 11.5011 0.578284 11.5737C0.530095 11.6567 0.472266 11.7293 0.433712 11.8122C0.385522 11.8848 0.337333 11.9678 0.298779 12.0507C0.260211 12.1441 0.221675 12.227 0.192761 12.3204C0.163846 12.4034 0.134932 12.4967 0.106018 12.59C0.0867564 12.673 0.0674499 12.756 0.0578283 12.8389C0.0578283 12.8493 0.0481755 12.8596 0.0481755 12.87C0.0289142 12.9634 0.0289143 13.0878 0.019261 13.1501C0.00960821 13.2226 0 13.2849 0 13.3575C0 13.399 4.19154e-08 13.4508 0.00965282 13.4923C0.0193056 13.5649 0.0289137 13.6271 0.0482205 13.6893C0.0674816 13.7515 0.086788 13.8138 0.115684 13.876C0.115684 13.8864 0.115684 13.8864 0.115684 13.8864C0.144599 13.9486 0.183153 14.0108 0.221703 14.0731C0.26027 14.1353 0.298811 14.1975 0.347 14.2597C0.395189 14.3116 0.453018 14.3738 0.510847 14.4257C0.568676 14.4879 0.626505 14.5397 0.693969 14.5916C0.925285 14.8094 0.983114 14.882 1.28189 15.0479C1.33008 15.079 1.37828 15.0998 1.43611 15.1309C1.44576 15.1309 1.45537 15.1413 1.46502 15.1413C1.46502 15.162 1.46502 15.1724 1.47467 15.1931C1.48433 15.2761 1.50359 15.3591 1.52286 15.442C1.54212 15.5354 1.57106 15.6183 1.59997 15.6909C1.62889 15.7531 1.64816 15.8154 1.67707 15.8776C1.68673 15.8983 1.69634 15.9191 1.70599 15.9294C1.74456 16.0124 1.78309 16.085 1.82164 16.1576C1.86984 16.2302 1.91803 16.3028 1.96621 16.3754C2.0144 16.4376 2.07223 16.5102 2.13006 16.5724C2.18789 16.6347 2.24572 16.6865 2.31319 16.7487C2.31319 16.7487 2.32284 16.7591 2.33245 16.7591C2.39028 16.811 2.44811 16.8628 2.50594 16.9043C2.5734 16.9562 2.64087 16.9976 2.71797 17.0391C2.78544 17.0806 2.86255 17.1221 2.93965 17.1532C2.99748 17.1843 3.06494 17.2051 3.13241 17.2258C3.14206 17.2362 3.15167 17.2362 3.17098 17.2465C3.20955 17.2569 3.25772 17.2673 3.29627 17.2776C3.26736 17.8377 3.2577 18.3666 3.33484 18.5532C3.42158 18.7607 3.84565 18.128 4.26973 17.4021C4.2119 18.1177 4.17335 18.9577 4.26973 19.2066C4.37575 19.4659 4.95404 18.6569 5.45522 17.7651C12.2886 16.0643 18.5245 21.1459 19.1799 28.3225C19.0546 27.2024 17.7727 26.5802 17.1848 26.7358C16.8956 27.5032 16.4041 28.4884 15.6138 29.1003C15.6812 28.4158 15.6523 27.7106 15.5174 27.0261C15.3053 27.9802 14.8909 28.8721 14.3223 29.6396C13.4066 29.7121 12.491 29.2351 12.0091 28.5195C11.9705 28.4884 11.9609 28.4262 11.932 28.3847C11.9031 28.3121 11.8742 28.2395 11.8549 28.1669C11.826 28.0943 11.8067 28.0217 11.7971 27.9491C11.7874 27.8765 11.7874 27.8039 11.7874 27.721C11.7874 27.6691 11.7874 27.6173 11.7874 27.5654C11.7971 27.4928 11.8163 27.4202 11.8356 27.3476C11.8549 27.275 11.8742 27.2024 11.9031 27.1298C11.9416 27.0572 11.9705 26.9846 12.0187 26.9121C12.1826 26.4143 12.1826 26.0098 11.8838 25.7713C11.826 25.7298 11.7681 25.6987 11.7007 25.6676C11.6621 25.6572 11.6139 25.6364 11.5754 25.6261C11.5465 25.6157 11.5272 25.6053 11.4983 25.5949C11.4308 25.5742 11.3633 25.5534 11.2959 25.5431C11.2284 25.5224 11.1609 25.512 11.0935 25.512C11.026 25.5016 10.9489 25.4913 10.8814 25.4913C10.8333 25.4913 10.7851 25.5016 10.7369 25.5016C10.6598 25.5016 10.5923 25.512 10.5248 25.5328C10.4574 25.5431 10.3899 25.5535 10.3224 25.5743C10.255 25.595 10.1875 25.6158 10.12 25.6469C10.0526 25.678 9.99474 25.7091 9.92727 25.7402C9.86944 25.7713 9.81161 25.8128 9.74414 25.8439C7.49847 27.4202 8.83817 31.1122 10.3706 32.1804C9.79233 32.2945 9.20441 32.4293 9.04057 32.5641C9.03091 32.5745 9.02131 32.5849 9.02131 32.5849C9.43574 32.8545 9.86946 33.0827 10.3224 33.2797C10.9393 33.4975 11.5947 33.6945 11.8838 33.7775V33.7879C12.6838 33.9642 13.4934 34.0264 14.3126 33.9746C18.5823 33.6531 22.0809 30.1581 22.717 25.5535C22.7363 25.6469 22.7556 25.7298 22.7749 25.8232C22.8038 26.0098 22.8423 26.2069 22.8616 26.4039C22.8616 26.4039 22.8616 26.4039 22.8616 26.4143C22.8809 26.5076 22.8905 26.601 22.9002 26.6839C22.9002 26.7047 22.9002 26.7151 22.9002 26.7254C22.9098 26.8188 22.9194 26.9121 22.9194 26.9951C22.9291 27.1092 22.9387 27.2232 22.9387 27.3373C22.9387 27.3892 22.9387 27.441 22.9387 27.5032C22.9387 27.5551 22.9483 27.6173 22.9483 27.6692C22.9483 27.7314 22.9387 27.7936 22.9387 27.8559C22.9387 27.9077 22.9387 27.9596 22.9387 28.001C22.9387 28.0736 22.929 28.1359 22.929 28.2085C22.929 28.25 22.929 28.2914 22.9194 28.3433C22.9194 28.4159 22.9097 28.4885 22.9097 28.5714C22.9001 28.6025 22.9001 28.6337 22.9001 28.6648C22.8904 28.7477 22.8808 28.8203 22.8712 28.9033C22.8712 28.9344 22.8712 28.9655 22.8615 28.9966C22.8518 29.1003 22.8326 29.1937 22.8229 29.2974V29.3078V29.3182C22.8037 29.4115 22.7844 29.5152 22.7651 29.6085C22.7651 29.6189 22.7651 29.6293 22.7651 29.6397C22.7458 29.733 22.7265 29.8263 22.7073 29.9197C22.7073 29.93 22.6976 29.9508 22.6976 29.9612C22.6784 30.0545 22.6591 30.1478 22.6302 30.2412C22.6302 30.2516 22.6302 30.2619 22.6302 30.2723C22.6012 30.376 22.5723 30.4693 22.5531 30.5627C22.5434 30.5731 22.5434 30.5834 22.5434 30.5834C22.5145 30.6871 22.4856 30.7908 22.4567 30.8945C22.4181 30.9982 22.3892 31.0916 22.3506 31.1953C22.3121 31.299 22.2832 31.4027 22.2446 31.496C22.2061 31.5997 22.1675 31.6931 22.129 31.7968H22.1193C22.0807 31.8901 22.0422 31.9938 21.994 32.0872C21.9844 32.1183 21.9748 32.139 21.9651 32.1597C21.9554 32.1701 21.9554 32.1805 21.9458 32.1909C21.3194 33.5494 20.3941 34.7421 19.2375 35.6754C19.1604 35.7273 19.0833 35.7895 19.0062 35.8517C18.987 35.8724 18.958 35.8828 18.9388 35.9036C18.8713 35.9554 18.8038 36.0073 18.7267 36.0591L18.7556 36.1214H18.7653C18.9002 36.1006 19.0351 36.0799 19.1701 36.0591H19.1797C19.4303 36.0176 19.6809 35.9658 19.9315 35.914C19.999 35.9036 20.0761 35.8828 20.1435 35.8621C20.1917 35.8517 20.2303 35.8414 20.2785 35.831C20.3459 35.8206 20.4134 35.7999 20.4809 35.7895C20.5387 35.7688 20.5965 35.7584 20.6544 35.7376C21.6182 35.4887 22.5531 35.1465 23.4494 34.742C21.917 36.9925 19.864 38.8074 17.4642 40C18.5725 39.917 19.6809 39.72 20.7507 39.3881C24.6349 38.154 27.9022 35.3435 29.8587 31.5582C29.4636 33.9539 28.5769 36.2354 27.2661 38.2266C28.201 37.5629 29.0588 36.7954 29.8395 35.9243C31.9984 33.4975 33.4152 30.4174 33.8971 27.1092C34.2248 28.7478 34.3212 30.4382 34.1766 32.1079C41.1353 21.6645 34.7549 10.8375 32.0851 7.98554C32.0755 7.96482 32.0659 7.95443 32.0659 7.93369C32.0562 7.94408 32.0562 7.94408 32.0562 7.95442C32.0562 7.94403 32.0562 7.94403 32.0466 7.93369C32.0466 8.05814 32.0369 8.18259 32.0273 8.30704C31.9984 8.54556 31.9695 8.77372 31.9309 9.00188C31.8827 9.23003 31.8249 9.45818 31.7671 9.68635C31.6996 9.90413 31.6225 10.1323 31.5358 10.3501C31.449 10.5575 31.3526 10.7753 31.2466 10.9827C31.1406 11.1797 31.0249 11.3871 30.8996 11.5738C30.7743 11.7709 30.6394 11.9575 30.5045 12.1338C30.3599 12.3205 30.2057 12.4864 30.0515 12.6524C29.9551 12.7457 29.8684 12.8287 29.772 12.9116C29.6949 12.9842 29.6274 13.0465 29.5503 13.1191C29.3768 13.2642 29.2033 13.3991 29.0106 13.5235C28.8275 13.648 28.6347 13.7724 28.4419 13.8761C28.2395 13.9798 28.0371 14.0732 27.8347 14.1665C27.6323 14.2495 27.4203 14.3221 27.2083 14.3843C26.9962 14.4465 26.7745 14.4984 26.5625 14.5398C26.3408 14.5813 26.1192 14.6021 25.9071 14.6228C25.7529 14.6332 25.5987 14.6435 25.4445 14.6435C25.2228 14.6435 25.0011 14.6228 24.7891 14.602C24.5674 14.5813 24.3457 14.5502 24.1337 14.4983C23.912 14.4568 23.7 14.3946 23.488 14.322H23.4783C23.6903 14.3013 23.9024 14.2805 24.1144 14.2391C24.3361 14.1976 24.5481 14.1457 24.7602 14.0835C24.9722 14.0213 25.1842 13.9487 25.3866 13.8657C25.5987 13.7827 25.8011 13.679 25.9938 13.5753C26.1962 13.4716 26.3794 13.3575 26.5721 13.2331C26.7552 13.0983 26.9384 12.9635 27.1119 12.8183C27.2853 12.6731 27.4492 12.5175 27.6034 12.3516C27.7673 12.196 27.9118 12.0197 28.0564 11.8434C28.201 11.6568 28.3359 11.4701 28.4612 11.2834C28.4805 11.2523 28.4998 11.2108 28.519 11.1797C28.6154 11.0138 28.7118 10.8478 28.7985 10.6819C28.9045 10.4745 29.0009 10.2671 29.0877 10.0493C29.1744 9.8315 29.2515 9.61371 29.319 9.38556C29.3864 9.16777 29.4346 8.93962 29.4828 8.71146C29.5214 8.47294 29.5599 8.24478 29.5792 8.01662C29.5985 7.7781 29.6178 7.53957 29.6178 7.31141C29.6178 7.14548 29.6081 6.97955 29.5985 6.81362C29.5793 6.57509 29.5503 6.34694 29.5214 6.11878C29.4828 5.88025 29.4347 5.6521 29.3768 5.42394C29.3094 5.20616 29.2419 4.978 29.1648 4.76022C29.0877 4.54243 28.9913 4.32464 28.8949 4.11723C28.7889 3.90981 28.6829 3.7024 28.5672 3.50536C28.4419 3.30831 28.3166 3.12164 28.1817 2.93496C28.0371 2.75866 27.8926 2.58236 27.7384 2.40606C27.6613 2.32309 27.5745 2.22976 27.4878 2.14679C27.0541 1.78381 26.6011 1.44158 26.1481 1.13046C26.0806 1.08896 26.0228 1.05786 25.9553 1.02675C25.6373 0.808965 25.3385 0.694836 25.0397 0.591132Z" fill="white"/>
<path d="M46.2206 27.0294C46.5039 26.8859 46.7706 26.7962 47.0206 26.7424C47.6374 26.6348 47.9874 26.5451 48.0874 26.4734C48.2541 26.3657 48.3708 26.2223 48.4208 26.0788C48.4875 25.8277 48.5208 25.3076 48.5208 24.4825V22.9222L48.5375 21.6487L48.4875 19.7476V18.6177C48.4875 17.8644 48.4375 17.2367 48.3208 16.7703C48.2875 16.591 48.1374 16.4116 47.9041 16.2323C47.5874 15.9812 47.0707 15.748 46.3206 15.5149L46.3039 14.654C46.4373 14.6181 46.5706 14.5822 46.6873 14.5643C46.804 14.5463 47.254 14.4208 48.0374 14.2056C48.6541 13.9724 49.0542 13.7931 49.2209 13.7034C49.2876 13.6676 49.3709 13.6137 49.5042 13.542C49.6376 13.4165 49.7876 13.3088 49.9543 13.1833C50.2876 12.9322 50.6877 12.4838 51.1544 11.874L52.0378 11.8022L52.0045 13.8289C51.9878 14.0262 51.9878 14.1876 51.9878 14.3132C51.9878 14.4208 51.9878 14.6898 52.0045 15.1382C52.9379 14.2773 53.7713 13.6854 54.5381 13.3447C55.5215 12.8963 56.4716 12.6811 57.355 12.6811C58.4051 12.6811 59.3385 12.968 60.1219 13.524C60.922 14.08 61.4387 14.7257 61.6721 15.4431C61.9221 16.1785 62.0388 17.6671 62.0388 19.8731L61.9721 25.7559C61.9721 26.0249 62.0221 26.2581 62.1054 26.4375C62.2221 26.5271 62.5388 26.6168 63.0388 26.7065L63.8556 26.8679C63.9556 27.0293 64.0056 27.2087 64.0056 27.4418C64.0056 27.5853 64.0056 27.7826 63.9889 28.0337L60.7053 27.7826L59.7385 27.8184H58.9718L56.7549 27.9978H56.1882C56.1715 27.8364 56.1715 27.7288 56.1715 27.6391C56.1715 27.4239 56.1882 27.1907 56.2048 26.9396C56.3548 26.9038 56.7548 26.8499 57.3716 26.7603C57.5382 26.7423 57.7216 26.6885 57.9383 26.6347C58.155 26.545 58.2883 26.4374 58.3217 26.3477C58.405 26.1325 58.455 25.7559 58.455 25.182C58.455 24.1596 58.4383 23.3884 58.4217 22.8504L58.4384 20.7699C58.4384 18.2231 58.305 16.6448 58.005 16.0349C57.5716 15.1202 56.9382 14.6719 56.0882 14.6719C55.4714 14.6719 54.8214 14.8512 54.1546 15.192C53.4712 15.5328 52.7878 16.0529 52.0711 16.7524L52.0378 17.0573L52.0711 18.1872L52.0544 19.3889L52.1211 22.2764L52.0878 22.7248C52.0878 24.6798 52.1545 25.7918 52.3045 26.0428C52.4545 26.2939 53.0046 26.563 53.9713 26.8679C54.0046 27.0652 54.0213 27.2266 54.0213 27.3163C54.0213 27.4597 53.9713 27.675 53.9046 27.9799C53.5546 27.9978 53.2546 27.9978 53.0212 27.9978C52.7879 27.9978 52.4212 27.962 51.9211 27.8902L50.1376 27.8544C49.2375 27.8544 47.9541 27.8902 46.2706 27.9799C46.2206 27.8544 46.2039 27.7288 46.2039 27.6033C46.2039 27.5136 46.2039 27.3163 46.2206 27.0294Z" fill="white"/>
<path d="M65.9057 18.4024C66.2057 17.38 66.4557 16.6985 66.6891 16.3757C67.3058 15.3892 67.9726 14.618 68.6726 14.062C69.3894 13.506 70.0228 13.1473 70.5895 12.968C71.3395 12.7348 71.9229 12.6272 72.3896 12.6272C73.4397 12.6272 74.2898 12.7169 74.9232 12.8962C75.5733 13.0576 76.1233 13.3087 76.5567 13.6316C77.1734 14.0979 77.6735 14.5821 78.0568 15.0485C78.4402 15.5327 78.7402 16.1066 78.9736 16.7523C79.2236 17.398 79.357 18.1871 79.3903 19.1018L77.5235 19.066C77.0067 19.066 75.89 19.0122 74.1398 18.9046C73.4897 18.8687 73.0564 18.8328 72.8063 18.8328C72.723 18.8328 72.123 18.8508 71.0062 18.8508H69.556C69.5393 19.0301 69.5227 19.1736 69.5227 19.2812C69.5227 19.9269 69.6061 20.5905 69.7394 21.3079C69.8894 22.0074 70.1061 22.6172 70.3895 23.1553C70.6895 23.6933 71.0395 24.1417 71.4729 24.5183C71.9063 24.9129 72.3563 25.1819 72.8064 25.3613L73.7731 25.7021C74.6399 25.7021 75.2066 25.6662 75.5066 25.6124C76.04 25.4868 76.5067 25.3434 76.9068 25.164C77.3235 24.9667 77.8069 24.6439 78.3902 24.1955C78.7903 24.5183 79.1236 24.7874 79.407 25.0564C78.4236 26.2043 77.3902 27.0652 76.34 27.5853C75.2899 28.1054 74.1065 28.3565 72.8064 28.3565C71.923 28.3565 71.2062 28.2847 70.6395 28.1054C69.9061 27.8902 69.2227 27.5673 68.6226 27.119C68.0226 26.6706 67.5059 26.1146 67.0725 25.4689C66.6391 24.8053 66.3058 24.1238 66.0891 23.4243C65.8224 22.5096 65.6724 21.7742 65.6724 21.2362C65.6724 20.178 65.7557 19.2453 65.9057 18.4024ZM75.64 17.6312C75.6233 16.9496 75.5066 16.3219 75.2733 15.6941C75.0399 15.0843 74.6732 14.618 74.1731 14.2772C73.6898 13.9365 73.1897 13.7571 72.6897 13.7571C71.9396 13.7571 71.2729 14.1158 70.6561 14.8153C70.0561 15.5327 69.7227 16.4833 69.6394 17.7029L73.4564 17.7209C73.7064 17.7209 74.0565 17.7029 74.4898 17.667C74.8232 17.6312 75.0566 17.6132 75.1899 17.6132C75.2899 17.6132 75.4399 17.6132 75.64 17.6312Z" fill="white"/>
<path d="M82.0408 22.9044C82.3741 22.8326 82.6242 22.7968 82.7742 22.7968C82.8575 22.7968 82.9742 22.7968 83.1242 22.8147L83.2742 22.9941C83.8909 24.1419 84.2743 24.8235 84.4743 25.0746C84.8577 25.5588 85.2411 25.9534 85.6244 26.2583C85.8745 26.4377 86.2745 26.6529 86.8246 26.8502C87.1913 26.9937 87.5913 27.0654 88.008 27.0654C88.7081 27.0654 89.3081 26.8322 89.8082 26.348C90.3082 25.8458 90.5583 25.3257 90.5583 24.7517C90.5583 24.3751 90.4582 24.0523 90.2749 23.7832C90.0915 23.5142 89.7082 23.2452 89.1415 22.9761C88.8581 22.8506 88.158 22.6354 87.0246 22.3305C85.9078 22.0256 85.2411 21.8283 85.0077 21.7386C84.4743 21.5234 84.0076 21.2185 83.6076 20.8418C83.1909 20.4473 82.8908 20.0168 82.6742 19.5326C82.3908 18.851 82.2408 18.2592 82.2408 17.7749C82.2408 16.8602 82.3741 16.1248 82.6075 15.533C82.8575 14.9591 83.2076 14.4389 83.6576 13.9905C83.9743 13.6498 84.4577 13.3449 85.1077 13.0758C85.7578 12.8068 86.4745 12.6633 87.2079 12.6633C88.2747 12.6633 89.2081 12.7351 90.0082 12.8965C90.8083 13.0579 91.4917 13.2911 92.0417 13.596C92.1251 13.865 92.2084 14.5107 92.3418 15.4971C92.4584 16.5015 92.5251 17.0934 92.5251 17.2727C92.5251 17.3624 92.5084 17.4521 92.4751 17.5417C92.1751 17.6314 91.9417 17.6852 91.7417 17.6852C91.6417 17.6852 91.475 17.6673 91.2583 17.6494C91.1583 17.488 91.025 17.2189 90.8583 16.8961C90.3249 15.82 89.7748 15.0667 89.2081 14.6362C88.6414 14.1879 88.008 13.9726 87.2579 13.9726C86.4912 13.9726 85.8411 14.2237 85.3244 14.6901C84.941 15.0488 84.7577 15.5151 84.7577 16.1249C84.7577 16.5194 84.9577 16.914 85.3578 17.3265C85.7411 17.7391 86.4245 18.0619 87.3913 18.2771C88.8581 18.6179 89.9415 18.9766 90.6249 19.3174C91.625 19.8195 92.3418 20.4293 92.7418 21.1109C93.1418 21.7924 93.3585 22.5816 93.3585 23.4783C93.3585 24.8773 92.8585 26.0431 91.875 26.9757C90.9083 27.8904 89.4915 28.3568 87.608 28.3568C87.3746 28.3568 86.7246 28.303 85.6911 28.1774C85.2244 28.1236 84.6744 27.9981 84.041 27.8187C83.8743 27.7649 83.4742 27.6035 82.8075 27.2986C82.6908 27.2268 82.6075 27.1372 82.5408 27.0475C82.5075 26.9399 82.4241 26.4377 82.3241 25.5409C82.1575 24.0702 82.0574 23.1913 82.0408 22.9044Z" fill="white"/>
<path d="M95.7754 14.2954C97.0922 13.7036 98.0423 13.1117 98.6257 12.5378C99.2257 11.9638 99.8425 11.0133 100.509 9.72192H101.459C101.559 10.0448 101.609 10.3676 101.609 10.7084C101.609 11.3361 101.593 11.8204 101.593 12.1791L101.543 13.2373C101.543 13.2911 101.543 13.4345 101.559 13.6498L101.943 13.6677C101.993 13.6677 102.526 13.6498 103.509 13.596C103.593 13.596 104.01 13.578 104.76 13.5601C104.826 13.883 104.876 14.1699 104.876 14.421C104.876 14.708 104.826 15.0308 104.743 15.3895C104.376 15.4433 104.11 15.4613 103.91 15.4613C103.826 15.4613 103.643 15.4613 103.376 15.4254H102.509L102.209 15.4075L101.409 15.4433L101.376 22.3305C101.359 23.6577 101.376 24.5007 101.443 24.8235C101.509 25.1643 101.643 25.4692 101.843 25.7741C102.093 25.8996 102.376 25.9713 102.693 25.9713C102.993 25.9713 103.209 25.9355 103.36 25.8817C103.51 25.8099 103.76 25.6485 104.093 25.3615C104.16 25.2898 104.276 25.2181 104.41 25.1105C104.676 25.3257 104.91 25.5588 105.076 25.792L105.143 26.0072C104.743 26.6708 104.193 27.191 103.476 27.5676C102.776 27.9442 102.026 28.1236 101.226 28.1236C100.176 28.1236 99.3425 27.7649 98.6924 27.0654C98.0424 26.348 97.7257 25.2539 97.7257 23.7653L97.7924 20.6087V15.4613L97.2757 15.4433L96.0589 15.4613L95.8422 15.4074C95.7755 15.2998 95.7422 15.2102 95.7422 15.1025C95.7422 15.0308 95.7588 14.7618 95.7754 14.2954Z" fill="white"/>
</svg>
