<svg width="68" height="40" viewBox="0 0 68 40" fill="none" xmlns="http://www.w3.org/2000/svg">
<path d="M16.0449 10.4324H28.8705V11.4265H17.2209V18.9072H28.1757V19.9012H17.2209V28.1144H29.004V29.1084H16.0449V10.4324ZM30.0193 10.4324H31.3822L37.4208 18.6456L43.593 10.4324L51.9882 0L38.1958 19.5088L45.3031 29.1084H43.8868L37.4208 20.372L30.9282 29.1084H29.5386L36.6993 19.5088L30.0193 10.4324ZM45.811 11.4265V10.4324H60.4262V11.4265H53.6932V29.108H52.5173V11.4265H45.811ZM0 10.4324H1.46972L21.7341 40L13.3597 29.1084L1.22891 11.8449L1.1755 29.1084H0V10.4324ZM60.3084 27.8142C60.0675 27.8142 59.8875 27.6328 59.8875 27.3985C59.8875 27.1638 60.0675 26.9823 60.3079 26.9823C60.551 26.9823 60.7283 27.1638 60.7283 27.3985C60.7283 27.6328 60.551 27.8142 60.3079 27.8142H60.3084ZM61.4631 26.7198H62.0926C62.1013 27.0522 62.3504 27.2753 62.716 27.2753C63.1249 27.2753 63.3565 27.0356 63.3565 26.5859V23.7386H63.9969V26.5886C63.9969 27.3985 63.5167 27.8648 62.7215 27.8648C61.9756 27.8648 61.4636 27.4124 61.4636 26.7198H61.4631ZM64.8345 26.684H65.4694C65.5238 27.0661 65.9068 27.3089 66.4589 27.3089C66.9732 27.3089 67.3508 27.0491 67.3508 26.6921C67.3508 26.3852 67.1109 26.2006 66.5643 26.0752L66.0325 25.9498C65.2866 25.7795 64.9459 25.4274 64.9459 24.8356C64.9459 24.118 65.5463 23.6405 66.4469 23.6405C67.2849 23.6405 67.8973 24.118 67.9342 24.7962H67.3107C67.2509 24.4253 66.9193 24.1933 66.4386 24.1933C65.9322 24.1933 65.5951 24.4307 65.5951 24.7935C65.5951 25.0811 65.8124 25.246 66.3502 25.3687L66.8047 25.4776C67.651 25.6702 68 26.0053 68 26.611C68 27.3815 67.3876 27.8648 66.4101 27.8648C65.4952 27.8648 64.8801 27.4043 64.8345 26.684Z" fill="white"/>
</svg>
