<svg width="36" height="39" viewBox="0 0 36 39" fill="none" xmlns="http://www.w3.org/2000/svg">
<path d="M17.9912 0C17.4437 0 16.8963 0.134297 16.4238 0.404297L1.55859 8.98535C0.598594 9.54035 0 10.5912 0 11.7012V27.2695C0 28.3945 0.598594 29.4304 1.55859 29.9854L5.46094 32.2354C7.35094 33.1654 8.02488 33.1641 8.87988 33.1641C11.6849 33.1641 13.2891 31.4693 13.2891 28.5293V12.4658C13.2891 12.2258 13.0955 12.0293 12.8555 12.0293H10.9805C10.7255 12.0293 10.5439 12.2258 10.5439 12.4658V28.5146C10.5439 29.8346 9.18059 31.1243 6.97559 30.0293L2.89453 27.6738C2.74453 27.5988 2.6543 27.4345 2.6543 27.2695V11.7158C2.6543 11.5358 2.74453 11.3839 2.89453 11.2939L17.7598 2.71582C17.8948 2.62582 18.0756 2.62582 18.2256 2.71582L33.0908 11.2939C33.2408 11.3839 33.3311 11.5362 33.3311 11.7012V27.2695C33.3311 27.4345 33.2405 27.5988 33.1055 27.6738L18.2256 36.2695C18.0906 36.3445 17.8948 36.3445 17.7598 36.2695L13.9336 34.0049C13.8286 33.9299 13.6812 33.9156 13.5762 33.9756C12.5112 34.5756 12.3162 34.6501 11.3262 34.9951C11.0862 35.0701 10.7109 35.2196 11.4609 35.6396L16.4238 38.5811C16.9038 38.8511 17.4454 39 17.9854 39C18.5404 39 19.0786 38.8511 19.5586 38.5811L34.4414 29.9854C35.4014 29.4304 36 28.3945 36 27.2695V11.7158C36 10.5908 35.4014 9.555 34.4414 9L19.5586 0.404297C19.0861 0.134297 18.5387 0 17.9912 0ZM21.9902 12.0088C17.7452 12.0088 15.2109 13.8076 15.2109 16.8076C15.2109 20.0626 17.7286 20.9612 21.8086 21.3662C26.6836 21.8462 27.0586 22.5683 27.0586 23.5283C27.0586 25.1783 25.7258 25.8838 22.5908 25.8838C18.6458 25.8838 17.7752 24.8924 17.4902 22.9424C17.4602 22.7324 17.2813 22.582 17.0713 22.582H15.1348C14.8948 22.582 14.7158 22.7789 14.7158 23.0039C14.7158 25.5089 16.0808 28.4912 22.5908 28.4912C27.3008 28.4912 30 26.6336 30 23.3936C30 20.1836 27.8246 19.3269 23.2646 18.7119C18.6296 18.1119 18.1641 17.7968 18.1641 16.7168C18.1641 15.8168 18.5702 14.6338 21.9902 14.6338C25.0352 14.6338 26.1746 15.2917 26.6396 17.3467C26.6846 17.5417 26.8486 17.6924 27.0586 17.6924H28.9951C29.1151 17.6924 29.2186 17.633 29.3086 17.543C29.3836 17.468 29.4291 17.3469 29.4141 17.2119C29.1141 13.6719 26.7602 12.0088 21.9902 12.0088Z" fill="white"/>
</svg>
