<svg width="162" height="40" viewBox="0 0 162 40" fill="none" xmlns="http://www.w3.org/2000/svg">
<path d="M115.533 15.555C113.173 15.555 111.45 16.395 110.612 17.925L110.169 18.765V15.95H106.282V32.9883H110.367V22.8633C110.367 20.445 111.696 19.0617 113.96 19.0617C116.124 19.0617 117.406 20.395 117.406 22.765V32.9883H121.49V22.025C121.49 17.975 119.274 15.555 115.533 15.555ZM95.7481 15.555C90.9233 15.555 87.9715 18.5683 87.9715 23.4067V25.7783C87.9715 30.47 90.9732 33.3333 95.8463 33.3333C99.0945 33.3333 101.359 32.1483 102.787 29.6783L100.277 28.1983C99.1944 29.63 97.5195 30.47 95.8463 30.47C93.3856 30.47 91.9089 28.9367 91.9089 26.37V25.6783H103.28V22.8633C103.28 18.47 100.325 15.555 95.7481 15.555ZM99.5873 23.0617H91.9089V22.6667C91.9089 19.8517 93.2874 18.3217 95.7481 18.3217C98.1605 18.3217 99.5873 19.8517 99.5873 22.42V23.0617ZM162 13.185V9.92667H147.874V13.185H152.843V29.7283H147.872V32.9883H162V29.7283H157.029V13.185H162ZM54.9438 9.43333C48.6439 9.43333 44.7048 13.3833 44.7048 19.705V23.1617C44.7048 29.5317 48.6439 33.4333 54.9438 33.4333C61.2436 33.4333 65.1827 29.4833 65.1827 23.1617V19.705C65.1827 13.385 61.2436 9.43333 54.9438 9.43333ZM60.9489 23.4083C60.9489 27.6067 58.783 30.025 54.9438 30.025C51.1046 30.025 48.9386 27.6567 48.9386 23.4083V19.5083C48.9386 15.31 51.1528 12.8917 54.9438 12.8917C58.733 12.8917 60.9489 15.31 60.9489 19.5083V23.4083ZM78.0289 15.5583C75.8629 15.5583 74.0415 16.4467 73.0576 17.9267L72.613 18.6183V15.9517H68.7256V38.8167H72.8112V30.5667L73.254 31.2083C74.188 32.5917 75.9611 33.3817 78.0772 33.3817C81.6217 33.3817 85.1662 31.06 85.1662 25.9233V23.01C85.1162 19.3067 82.9019 15.5533 78.0289 15.5533V15.5583ZM81.0306 25.73C81.0306 28.4967 79.4557 30.175 76.8468 30.175C74.4344 30.175 72.7612 28.3967 72.7612 25.78V23.2117C72.7612 20.595 74.4344 18.7667 76.8468 18.7667C79.4057 18.7667 80.9807 20.4467 80.9807 23.2117L81.0306 25.73ZM132.762 9.92833L124.542 32.99H128.678L130.253 28.0517H139.702V28.1017L141.277 32.99H145.413L137.143 9.92667L132.762 9.92833ZM131.286 24.7917L135.026 13.1383L138.718 24.7917H131.283H131.286ZM36.7317 16.345C37.172 14.996 37.325 13.5696 37.1807 12.1578C37.0365 10.746 36.5983 9.38016 35.8943 8.14833C33.73 4.345 29.348 2.42 25.066 3.30833C23.1963 1.185 20.4376 0 17.584 0C15.4558 0.00192921 13.3823 0.676017 11.659 1.92628C9.93573 3.17653 8.65039 4.93922 7.98605 6.96333C6.59838 7.25003 5.28782 7.82995 4.14197 8.66432C2.99612 9.4987 2.04138 10.5683 1.34155 11.8017C0.284138 13.6497 -0.166014 15.7838 0.054782 17.902C0.275578 20.0202 1.15614 22.0153 2.57189 23.605C2.13819 24.9572 1.99293 26.3855 2.1455 27.7975C2.29807 29.2094 2.74508 30.5736 3.4576 31.8017C4.51171 33.6583 6.13079 35.1292 8.07868 35.9998C10.0266 36.8705 12.2014 37.0954 14.2859 36.6417C15.2293 37.6939 16.3825 38.5364 17.6712 39.1149C18.96 39.6934 20.3555 39.9949 21.7679 40C23.8961 39.9981 25.9696 39.324 27.6929 38.0737C29.4162 36.8235 30.7015 35.0608 31.3658 33.0367C32.7535 32.75 34.0641 32.17 35.2099 31.3357C36.3558 30.5013 37.3105 29.4317 38.0103 28.1983C39.0722 26.3398 39.5204 24.1929 39.2908 22.0641C39.0611 19.9354 38.1655 17.9338 36.7317 16.345ZM21.7679 37.3833C20.0207 37.3992 18.326 36.7858 16.993 35.655C17.043 35.605 17.1911 35.555 17.2394 35.505L25.1642 30.9133C25.3606 30.7967 25.5231 30.6305 25.6353 30.4313C25.7474 30.2321 25.8055 30.007 25.8035 29.7783V18.5667L29.1499 20.4917C29.1998 20.4917 29.1998 20.5417 29.1998 20.5917V29.875C29.2111 30.8583 29.027 31.834 28.6584 32.7455C28.2897 33.657 27.7437 34.486 27.0523 35.1845C26.3608 35.8829 25.5375 36.4368 24.6303 36.814C23.7232 37.1912 22.7502 37.3858 21.7679 37.3833ZM5.72183 30.5167C4.83611 28.9867 4.53977 27.2083 4.83611 25.48C4.88606 25.53 4.98429 25.58 5.08252 25.6283L13.0073 30.22C13.1987 30.3408 13.4203 30.4049 13.6466 30.4049C13.8729 30.4049 14.0945 30.3408 14.2859 30.22L23.9838 24.5917V28.4917C23.9838 28.5417 23.9838 28.5917 23.9339 28.5917L15.9108 33.2333C12.3663 35.3067 7.7896 34.0717 5.72183 30.5167ZM3.65406 13.135C4.53922 11.6235 5.91026 10.4572 7.5432 9.82667V19.31C7.5432 19.7533 7.7896 20.1983 8.18251 20.4433L17.8804 26.0733L14.534 28C14.484 28 14.4341 28.05 14.4341 28L6.41108 23.3583C5.5547 22.8732 4.80312 22.2226 4.19998 21.4443C3.59685 20.6661 3.15417 19.7756 2.89767 18.8246C2.64117 17.8736 2.57595 16.8811 2.70579 15.9046C2.83564 14.9282 3.15797 13.9874 3.65406 13.1367V13.135ZM31.2193 19.555L21.5215 13.9267L24.8679 12C24.9178 12 24.9677 11.95 24.9677 12L32.9908 16.6417C36.5836 18.7167 37.7656 23.3083 35.6978 26.865C34.8244 28.375 33.4474 29.5287 31.8087 30.1233V20.69C31.8586 20.2467 31.6122 19.8017 31.2193 19.5567V19.555ZM34.5158 14.5183C34.4658 14.4683 34.3693 14.4183 34.271 14.37L26.3463 9.77833C26.1547 9.65719 25.9327 9.59289 25.7061 9.59289C25.4795 9.59289 25.2576 9.65719 25.066 9.77833L15.3698 15.4067V11.5067C15.3698 11.4567 15.3698 11.4067 15.4197 11.4067L23.4411 6.765C24.2902 6.27161 25.2287 5.95171 26.2021 5.82379C27.1756 5.69588 28.1647 5.7625 29.1123 6.0198C30.0599 6.2771 30.9471 6.71997 31.7225 7.32277C32.498 7.92558 33.1464 8.67636 33.6301 9.53167C34.5158 11.0117 34.8121 12.79 34.5158 14.5183ZM13.5484 21.4333L10.202 19.5083C10.152 19.5083 10.152 19.4583 10.152 19.4083V10.125C10.1505 9.14018 10.3429 8.16472 10.7181 7.25436C11.0934 6.344 11.6442 5.51661 12.339 4.81946C13.0339 4.12231 13.8592 3.56909 14.7677 3.19141C15.6762 2.81372 16.6502 2.61899 17.634 2.61833C19.4054 2.61833 21.0803 3.21167 22.4072 4.34667C22.3589 4.39667 22.2607 4.44667 22.1624 4.49667L14.2376 9.08833C14.0409 9.20478 13.8781 9.3709 13.7656 9.57008C13.6532 9.76927 13.5949 9.99453 13.5967 10.2233V21.4333H13.5484ZM15.3698 17.4833L19.7018 14.965L24.0321 17.4817V22.4717L19.7018 24.9883L15.3698 22.4717V17.4833Z" fill="white"/>
</svg>
