<svg width="192" height="40" viewBox="0 0 192 40" fill="none" xmlns="http://www.w3.org/2000/svg">
<path fill-rule="evenodd" clip-rule="evenodd" d="M20.1911 39.0862C20.9223 39.6882 21.7796 39.9449 22.705 39.9925C23.0878 40.0124 23.4815 39.9937 23.8581 39.9255C24.4555 39.8174 25.0512 39.6817 25.6323 39.5074C26.8156 39.152 27.8381 38.5378 28.6015 37.5458C29.0365 36.9803 29.3935 36.369 29.6228 35.693C29.8121 35.1353 29.9901 34.5719 30.1316 34.0011C30.2434 33.5514 30.2989 33.0871 30.3667 32.6277C30.412 32.3238 30.4393 32.0167 30.4674 31.71C30.5131 31.2124 30.5609 30.7156 30.5939 30.2168C30.6172 29.8699 30.6164 29.5213 30.6298 29.174C30.6343 29.068 30.6515 28.9628 30.6617 28.8575C30.6702 28.7596 30.72 28.7259 30.8204 28.7276C31.1729 28.7328 31.5263 28.7418 31.8784 28.7259C32.273 28.7085 32.6704 28.6914 33.0589 28.6268C33.6116 28.5347 34.16 28.4181 34.7024 28.2775C35.3422 28.1105 35.9294 27.8119 36.4949 27.4723C37.1527 27.0763 37.7533 26.612 38.2392 26.0136C38.6632 25.4928 38.8639 24.8892 38.7615 24.2307C38.613 23.274 37.8055 22.6472 36.8666 22.6046C36.5263 22.5891 36.1811 22.6249 35.8425 22.6675C35.4324 22.7195 35.0284 22.8114 34.6196 22.8719C34.3372 22.9141 34.0512 22.9328 33.7697 22.9621L33.7619 22.9255C34.2883 21.9355 34.8367 20.957 35.3345 19.9536C35.7168 19.1834 36.0432 18.386 36.3807 17.5938C36.9397 16.2826 37.3856 14.9311 37.7553 13.5568C38.1091 12.2415 38.4118 10.9119 38.5077 9.54701C38.5461 9.00227 38.5726 8.45509 38.5689 7.90953C38.5665 7.47406 38.5192 7.03819 38.4755 6.60434C38.4257 6.10713 38.2747 5.63591 38.0658 5.18257C37.7908 4.58461 37.3636 4.0943 36.9144 3.62877C36.5549 3.25586 36.1591 2.91626 35.767 2.57666C35.2076 2.09245 34.5784 1.70532 33.9255 1.36206C33.1855 0.970726 32.4015 0.668014 31.5899 0.460249C31.0954 0.336115 30.5977 0.224908 30.0974 0.126741C29.9195 0.0909935 29.7399 0 29.5608 0H26.1872C26.0652 0 25.9444 0.0796194 25.8216 0.0930247C25.0142 0.180762 24.217 0.344664 23.4407 0.582521C23.151 0.671484 22.8866 0.619487 22.6112 0.593895C22.3998 0.574397 22.1921 0.520369 21.9808 0.509808C21.1765 0.469998 20.3715 0.412314 19.5669 0.420845C18.7965 0.42897 18.0339 0.555711 17.2884 0.766133C16.6645 0.943246 16.0537 1.15814 15.4939 1.48514C15.2548 1.62488 15.0646 1.59848 14.8169 1.5278C13.9851 1.2852 13.1461 1.06791 12.301 0.876219C11.7742 0.758821 11.232 0.699513 10.6938 0.644267C10.1773 0.590857 9.65876 0.558738 9.13958 0.547992C8.6328 0.537024 8.12276 0.537431 7.61803 0.582115C6.81461 0.653204 6.0267 0.815692 5.26041 1.07811C4.41572 1.36562 3.62644 1.79437 2.92647 2.34593C2.21241 2.90854 1.63953 3.59465 1.17968 4.37906C0.694527 5.20654 0.361165 6.09251 0.1547 7.02235C0.0424911 7.52647 0.0837025 8.0448 0.00658428 8.55664C-0.0170816 8.71507 0.0306582 8.87431 0.0306582 9.03355V11.2617C0.0306582 11.4095 -0.0130012 11.5578 0.00576828 11.7065C0.051876 12.0636 0.0359625 12.4235 0.0967594 12.7781C0.192239 13.3395 0.278334 13.8989 0.394215 14.4562C0.556204 15.2349 0.710849 16.0128 0.890383 16.7879C1.02095 17.3521 1.16254 17.9131 1.318 18.4709C1.55466 19.3231 1.78561 20.1766 2.05368 21.0187C2.30299 21.8015 2.58698 22.5729 2.87057 23.3447C3.25914 24.412 3.73543 25.4455 4.2946 26.4348C4.7822 27.2924 5.33835 28.0955 6.08505 28.7556C6.57754 29.1911 7.12471 29.5254 7.76165 29.6927C8.25921 29.8243 8.7807 29.8388 9.28484 29.735C9.86924 29.6168 10.4152 29.3565 10.8741 28.9774C10.928 28.9339 10.9863 28.9002 11.0504 28.9806C11.2928 29.2861 11.6167 29.49 11.9558 29.6659C12.8706 30.1412 13.8675 30.2838 14.8798 30.3415C15.1254 30.3553 15.3727 30.3204 15.6195 30.3139C16.1014 30.3004 16.569 30.207 17.0289 30.0746C17.2704 30.0051 17.5059 29.9166 17.7515 29.8345C17.7642 30.0949 17.7805 30.3451 17.7886 30.5958L17.8225 31.9619C17.829 32.1699 17.8372 32.3779 17.8564 32.585C17.9062 33.1188 17.9547 33.6526 18.0188 34.1847C18.0628 34.5516 18.1094 34.9208 18.1959 35.2791C18.3698 36.0011 18.6076 36.7064 18.9067 37.3866C19.1929 38.0468 19.6333 38.6294 20.1911 39.0862ZM18.7259 32.2747C18.6969 31.6333 18.6753 30.9915 18.661 30.3496C18.6439 29.5607 18.6382 28.7714 18.6272 27.9825L18.6251 27.9525C18.2224 28.1934 17.8254 28.4566 17.4055 28.6739C16.913 28.9286 16.3785 29.0761 15.8248 29.1179C15.391 29.1504 14.9508 29.1801 14.5191 29.146C13.8107 29.0887 13.1024 28.9786 12.4683 28.6309C12.2112 28.4899 11.9428 28.3181 11.7653 28.0934C11.3405 27.5536 11.5441 26.8715 12.1847 26.5433C12.6274 26.3158 13.1106 26.2212 13.5904 26.1107C14.0081 26.0164 14.4214 25.9039 14.8292 25.7735C15.2315 25.6423 15.4853 25.3173 15.7362 24.9984L16.1337 24.4899L15.6559 24.4403C15.1817 24.3964 14.7292 24.266 14.2967 24.0751C13.927 23.9122 13.9213 23.8943 13.6496 24.1876C13.1966 24.6771 12.756 25.1788 12.3116 25.6768C11.9848 26.0432 11.6604 26.4117 11.3344 26.7793C11.0129 27.1429 10.7109 27.5268 10.3637 27.8647C9.84874 28.3668 9.22771 28.6687 8.48673 28.6345C8.01137 28.6126 7.57641 28.4469 7.1847 28.1759C6.3772 27.6161 5.83329 26.8321 5.33753 26.0095C4.70304 24.955 4.21544 23.8318 3.79884 22.6781C3.51036 21.8803 3.22025 21.0821 2.9689 20.2729C2.69511 19.3934 2.45478 18.5038 2.21853 17.6133C2.03981 16.9419 1.88149 16.2647 1.73052 15.5863C1.55672 14.8152 1.39593 14.0412 1.24823 13.2647C1.14989 12.7403 1.09318 12.2082 1.01361 11.6805C0.906297 10.9684 0.886711 10.2506 0.925882 9.53604C0.960565 8.89218 1.05319 8.25035 1.1454 7.61096C1.27312 6.72621 1.56609 5.89143 1.98717 5.10295C2.24693 4.62247 2.56529 4.17577 2.93503 3.77298C3.543 3.10312 4.27869 2.61931 5.0972 2.25575C5.66885 2.00186 6.27315 1.84953 6.88887 1.72969C7.80286 1.55258 8.72502 1.55989 9.64717 1.57858C10.0503 1.58711 10.4522 1.65982 10.8549 1.70004C11.7224 1.78575 12.5724 1.96774 13.4117 2.19156C14.0237 2.35486 14.6231 2.56691 15.2295 2.75052C15.2899 2.7688 15.3792 2.76718 15.4294 2.73509C16.2516 2.2005 17.1497 1.8479 18.1057 1.64601C18.4684 1.56964 18.843 1.53592 19.2139 1.51236C19.6644 1.48433 20.1193 1.45752 20.569 1.48393C21.1096 1.5148 21.6486 1.59401 22.186 1.66713C22.4472 1.70288 22.7018 1.79265 22.9629 1.81703C23.0886 1.82881 23.2212 1.73822 23.3534 1.70735C24.0283 1.55177 24.7003 1.37912 25.3813 1.25685C25.8881 1.16585 26.4063 1.1228 26.9212 1.09355C27.4966 1.06064 28.0752 1.03668 28.6497 1.0643C29.376 1.09923 30.097 1.20201 30.8086 1.36693C31.6907 1.57126 32.5362 1.86781 33.3404 2.27971C33.9414 2.58804 34.5123 2.9447 35.0268 3.38342C35.3638 3.67143 35.709 3.95538 36.013 4.27629C36.3884 4.67195 36.7711 5.0672 37.007 5.57376C37.1845 5.95602 37.311 6.35168 37.3461 6.76968C37.3893 7.29005 37.442 7.81204 37.4375 8.33322C37.433 8.83125 37.3644 9.32887 37.3163 9.82608C37.2057 10.9586 36.9588 12.0668 36.6581 13.1603C36.4072 14.0636 36.1229 14.9574 35.8057 15.8398C35.5164 16.6534 35.1823 17.4521 34.8448 18.2479C34.5961 18.8371 34.3261 19.4171 34.0353 19.9869C33.4828 21.0642 32.9083 22.1305 32.2436 23.1461C32.129 23.3212 32.02 23.5007 31.9082 23.6799C32.1983 23.8744 32.5268 23.9431 32.8573 23.9788C33.1719 24.0125 33.4926 24.0333 33.8068 24.0097C34.3099 23.9723 34.8114 23.9008 35.3116 23.8314C35.807 23.7623 36.2921 23.6222 36.8013 23.6591C37.3089 23.6961 37.6729 24.0804 37.6382 24.554C37.6162 24.8538 37.4779 25.111 37.2779 25.3307C36.3333 26.3682 35.1476 26.9971 33.7913 27.307C33.2759 27.4248 32.7447 27.4853 32.2171 27.5345C31.7666 27.5741 31.3139 27.5847 30.862 27.5662C30.5307 27.554 30.2022 27.4784 29.8636 27.4297C29.8293 27.738 29.7971 28.0593 29.7579 28.3794L29.6 29.6074C29.5522 29.9966 29.5151 30.3874 29.4657 30.7765C29.4176 31.1543 29.3576 31.5301 29.307 31.9075C29.2601 32.2588 29.2254 32.6123 29.1724 32.9632C29.092 33.5011 29.0149 34.0401 28.9092 34.5739C28.7827 35.2117 28.5893 35.8291 28.2722 36.4047C27.8862 37.1071 27.3391 37.6421 26.6421 38.0381C25.924 38.4464 25.1385 38.6589 24.3433 38.8368C23.7794 38.9631 23.1996 38.9834 22.6287 38.9318C21.6393 38.8429 20.7946 38.4216 20.1561 37.6575C19.5469 36.9284 19.1343 36.0932 18.987 35.1471C18.9177 34.6969 18.8638 34.2445 18.8255 33.7907C18.7813 33.2861 18.7481 32.7807 18.7259 32.2747ZM19.8382 25.7938C19.8443 26.131 19.8092 26.4682 19.8109 26.8053C19.8178 28.3746 19.8292 29.9442 19.8427 31.5138C19.8451 31.7702 19.8578 32.0273 19.8761 32.2832C19.9149 32.8194 19.9533 33.356 20.0055 33.8906C20.043 34.2704 20.094 34.649 20.154 35.026C20.2397 35.5594 20.4837 36.0347 20.7604 36.4892C20.9986 36.88 21.3092 37.2115 21.7176 37.4406C22.4121 37.8293 23.1592 37.8618 23.9124 37.7189C24.4212 37.6226 24.9215 37.467 25.4152 37.3065C25.9011 37.1514 26.3448 36.8872 26.7119 36.5343C27.0583 36.2004 27.304 35.793 27.4696 35.3433C27.7908 34.4715 27.8915 33.5531 28.0241 32.6423C28.0739 32.3011 28.1172 31.959 28.1625 31.6174C28.2143 31.2287 28.2665 30.8403 28.3163 30.4516C28.3538 30.1615 28.3873 29.8719 28.4228 29.5822C28.4738 29.1663 28.5273 28.7507 28.5758 28.3347C28.6129 28.013 28.6439 27.6901 28.6774 27.3675C28.7198 26.9552 28.7651 26.5441 28.8023 26.131C28.83 25.8182 28.8186 25.4993 28.8745 25.1918C28.9769 24.6284 29.2446 24.149 29.7465 23.8387C29.9562 23.7095 30.1937 23.6242 30.4262 23.5145L30.3862 23.454C30.1712 23.1761 29.9509 22.9028 29.7399 22.6216C29.4086 22.1805 29.1703 21.6886 28.9308 21.1942C28.7039 20.7254 28.4265 20.2818 28.1878 19.8183C27.7712 19.0099 27.3468 18.2036 26.9629 17.3802C26.4802 16.3443 26.0999 15.2727 25.9803 14.1255C25.9293 13.6405 25.9163 13.1555 26.0154 12.6749C26.1733 11.9072 26.5756 11.3068 27.253 10.8949C27.8813 10.513 28.5811 10.3895 29.298 10.3509C29.7428 10.327 30.1904 10.3465 30.6519 10.3465L30.6368 10.2689C30.3495 9.67091 30.0814 9.0628 29.7669 8.47946C29.3237 7.65565 28.7557 6.91307 28.1241 6.22371C27.658 5.71114 27.1458 5.24203 26.594 4.82225C26.048 4.41075 25.4727 4.04312 24.8586 3.74292C24.1291 3.38166 23.3587 3.1089 22.5639 2.93048C21.7947 2.76068 21.0215 2.65669 20.2324 2.64816C19.5599 2.64084 18.8916 2.67172 18.2363 2.82242C17.2472 3.05032 16.3426 3.45572 15.5563 4.11218C15.1208 4.47561 14.7317 4.89089 14.3979 5.34871C14.0033 5.88696 13.6859 6.46948 13.4141 7.07922C13.0412 7.91644 12.7854 8.78697 12.6099 9.68228C12.5226 10.1291 12.454 10.5788 12.3843 11.0285C12.3598 11.1865 12.3581 11.347 12.3435 11.5277L12.6421 11.373L12.9335 11.243C13.9197 10.7941 14.941 10.5053 16.0386 10.5382C16.5054 10.552 16.951 10.6442 17.3663 10.8477C18.162 11.2385 18.6272 11.9027 18.8295 12.7428C18.9691 13.3228 19.065 13.9143 19.158 14.5045C19.2306 14.9652 19.3053 15.4307 19.3135 15.8954C19.3253 16.5746 19.291 17.2555 19.2539 17.9343C19.2221 18.5115 19.1022 19.0805 18.8981 19.6217C18.5292 20.6031 18.1179 21.5687 17.734 22.5445C17.6071 22.867 17.5096 23.2005 17.39 23.5551L17.8747 23.5555C17.9335 23.5568 17.9935 23.5584 18.0502 23.5718C18.4913 23.6754 18.8744 23.8744 19.1882 24.2124C19.6077 24.6609 19.8272 25.1857 19.8382 25.7938ZM11.4135 21.1406C11.1635 20.5548 11.0127 19.9319 10.9672 19.2971C10.9247 18.6984 10.9961 18.1028 11.0581 17.5065C11.1177 16.9293 11.1683 16.3492 11.1855 15.7699C11.2144 14.8165 11.15 13.8655 11.1043 12.913C11.0769 12.3459 11.143 11.7719 11.1936 11.2036C11.2393 10.6917 11.2964 10.1787 11.394 9.67416C11.5568 8.82759 11.7734 7.99322 12.0815 7.18443C12.3732 6.41748 12.7095 5.67125 13.1828 4.99896C13.508 4.53749 13.876 4.1073 14.2298 3.6564L14.1245 3.61902C12.9726 3.25505 11.8016 2.96988 10.5967 2.84599C10.0275 2.78708 9.45581 2.75296 8.88497 2.71884C8.70951 2.70868 8.53161 2.73224 8.35575 2.7489C7.92038 2.79074 7.47929 2.80699 7.05086 2.88823C6.32171 3.02635 5.62193 3.25871 4.97438 3.6369C4.40131 3.97261 3.8989 4.41554 3.49486 4.94127C3.04316 5.52258 2.73836 6.17984 2.52007 6.88017C2.26219 7.70683 2.13896 8.55786 2.10591 9.41621C2.07694 10.1689 2.06266 10.9257 2.19323 11.6756C2.28993 12.2334 2.35481 12.7976 2.46172 13.3537C2.60543 14.112 2.76678 14.8668 2.94564 15.6176C3.20393 16.6916 3.46262 17.7665 3.76905 18.8275C4.06202 19.8435 4.39212 20.8505 4.75119 21.8458C5.04416 22.6578 5.38323 23.4548 5.74026 24.2408C5.97284 24.7531 6.25438 25.2462 6.5498 25.7256C6.86357 26.235 7.22101 26.7184 7.70494 27.088C8.31658 27.5544 8.78949 27.6271 9.41133 27.1149C9.67737 26.8959 9.90219 26.6245 10.134 26.3666C10.5016 25.9571 10.8566 25.5355 11.223 25.124C11.6894 24.6004 12.1615 24.082 12.6303 23.56C12.7295 23.4499 12.8253 23.3362 12.9216 23.2249L12.7613 23.0856C12.1832 22.5358 11.7245 21.8738 11.4135 21.1406ZM29.0981 5.54045C29.4816 5.98395 29.8453 6.44396 30.1884 6.91917C30.8458 7.83701 31.375 8.83952 31.7613 9.8992C31.9327 10.3684 32.0698 10.842 32.0086 11.3551C31.9662 11.7146 31.969 12.079 31.9376 12.4405C31.9111 12.7411 31.8629 13.0401 31.8242 13.3399C31.7654 13.7916 31.6805 14.2425 31.6552 14.6963C31.6307 15.1285 31.6565 15.5648 31.6838 15.9974C31.7111 16.4373 31.7707 16.8752 31.8111 17.314C31.8568 17.8124 31.9188 18.3096 31.9327 18.8089C31.9441 19.2183 31.9074 19.6298 31.8719 20.0393C31.8263 20.5299 31.7066 21.0109 31.5169 21.4659C31.3851 21.7885 31.228 22.1005 31.0799 22.423L31.1395 22.4856L31.2301 22.5554L31.3219 22.3929C32.0924 21.186 32.777 19.9267 33.3706 18.6244C33.7512 17.7838 34.1123 16.9346 34.4535 16.0774C34.9856 14.7449 35.4154 13.3742 35.7392 11.977C35.8861 11.3498 35.9987 10.7129 36.0983 10.0759C36.1762 9.57788 36.2407 9.07417 36.2554 8.57167C36.2705 8.03871 36.2411 7.50169 36.1917 6.97035C36.1546 6.569 36.055 6.16522 35.8029 5.83821C35.3965 5.31297 34.9583 4.81088 34.4192 4.41319C33.9651 4.07887 33.5122 3.7348 33.0254 3.45369C32.253 3.00726 31.4169 2.71071 30.5433 2.50842C29.6901 2.31059 28.8267 2.22528 27.9576 2.207C27.4451 2.19603 26.9302 2.25087 26.4189 2.29921C25.9554 2.34227 25.4948 2.4162 25.0284 2.47714C25.529 2.75743 26.0232 3.00685 26.4883 3.30055C27.4676 3.918 28.3457 4.66098 29.0981 5.54045ZM16.3756 22.8304C16.6919 21.823 17.1231 20.8603 17.5406 19.8927C17.8796 19.1074 18.0645 18.2808 18.1261 17.431C18.1567 17.0121 18.1485 16.588 18.1277 16.168C18.1074 15.7007 18.0644 15.2346 17.9988 14.7714C17.9111 14.1808 17.8115 13.5897 17.6711 13.01C17.5189 12.3828 17.1354 11.9457 16.4776 11.7845C16.0774 11.6866 15.6791 11.6906 15.2739 11.7544C14.2853 11.9092 13.3803 12.2719 12.5373 12.8033C12.3675 12.9101 12.2737 12.9966 12.3035 13.2383C12.3655 13.7518 12.379 14.2734 12.3765 14.7913C12.3732 15.5246 12.3418 16.2578 12.3141 16.9906C12.3051 17.2291 12.2704 17.4671 12.2443 17.7047C12.2051 18.0687 12.1288 18.4323 12.1313 18.7959C12.1337 19.1704 12.1721 19.5535 12.2635 19.9162C12.5536 21.0666 13.1673 22.0074 14.1739 22.6716C14.7929 23.0803 15.4776 23.2858 16.2296 23.3252C16.2793 23.1534 16.3254 22.9913 16.3756 22.8304ZM15.194 12.9637C15.0614 12.6871 15.1373 12.4576 15.4441 12.3512C15.5192 12.3256 15.5959 12.2971 15.6734 12.2898C15.7807 12.2793 15.8888 12.287 15.997 12.287C16.3866 12.2894 16.7612 12.3434 17.0823 12.5896C17.2888 12.748 17.3443 12.9572 17.2105 13.1733C17.0207 13.4792 16.7323 13.6328 16.3773 13.662C15.8187 13.7079 15.4265 13.4488 15.194 12.9637ZM30.689 12.8626L30.8159 11.7556C30.8343 11.6078 30.7563 11.5671 30.6315 11.5635C30.2385 11.5529 29.846 11.5387 29.4531 11.5322C29.0108 11.5241 28.5795 11.5948 28.1698 11.7621C27.7153 11.9486 27.3693 12.2468 27.2277 12.7395C27.1241 13.1026 27.0914 13.4821 27.1314 13.8574C27.1866 14.4382 27.3187 15.0091 27.5243 15.5554C27.7993 16.2838 28.0866 17.0117 28.4305 17.7096C28.8961 18.6541 29.4225 19.5689 29.917 20.4991C30.0488 20.7473 30.1606 21.0069 30.2981 21.2966C30.5758 20.7204 30.7274 20.092 30.7429 19.4531C30.7563 18.9246 30.7143 18.3949 30.6833 17.8664C30.6641 17.5431 30.618 17.2213 30.5866 16.8988C30.5429 16.4495 30.476 15.9998 30.4654 15.5493C30.4552 15.0911 30.4878 14.6305 30.527 14.1727C30.5637 13.7347 30.6364 13.2997 30.689 12.8626ZM29.804 12.5076C29.6579 12.9085 29.3462 13.1352 28.9414 13.2014C28.5644 13.2635 28.2339 13.125 27.9882 12.8252C27.8132 12.6119 27.8801 12.3597 28.1425 12.2151C28.4436 12.0493 28.7745 12.0075 29.165 11.9823C29.2715 12.0014 29.4306 12.0181 29.5824 12.0607C29.8024 12.1225 29.884 12.2882 29.804 12.5076ZM18.1351 24.8579C17.9196 24.6824 17.634 24.6723 17.4292 24.8648C17.1746 25.1045 16.9505 25.3783 16.7265 25.648C16.4683 25.96 16.2251 26.2841 15.8921 26.5258C15.407 26.8772 14.8402 27.0226 14.2714 27.1604C13.8193 27.27 13.3648 27.372 12.9114 27.4768L12.9057 27.5353C13.0404 27.597 13.1705 27.6746 13.3113 27.7189C14.0029 27.9366 14.7068 28.0455 15.438 27.9838C15.9652 27.9387 16.4678 27.8241 16.944 27.5995C17.5997 27.2903 18.1045 26.8 18.5333 26.2305C18.6051 26.1355 18.6378 25.9949 18.6459 25.8722C18.6749 25.4392 18.4542 25.1171 18.1351 24.8579ZM30.7616 24.6702C30.4226 24.7836 30.1467 24.9562 30.0647 25.3214C30.0088 25.5684 29.9884 25.8239 29.9668 26.077C29.9627 26.1216 30.0186 26.2037 30.061 26.2151C30.3222 26.2837 30.585 26.3646 30.8518 26.3885C31.1803 26.4182 31.5141 26.4088 31.8446 26.3926C32.2012 26.3747 32.5602 26.3516 32.912 26.2931C33.7399 26.1541 34.5417 25.9291 35.2533 25.4611C35.5103 25.2926 35.7641 25.1203 36.0195 24.9489L35.9983 24.9127C35.7262 24.953 35.4548 25.0021 35.1815 25.0309C34.6249 25.0903 34.0679 25.1528 33.5093 25.1849C33.2396 25.2003 32.9662 25.1488 32.6945 25.1268C32.2383 25.0898 31.7927 24.9891 31.4071 24.7462C31.1848 24.6064 30.9987 24.591 30.7616 24.6702Z" fill="white"/>
<path d="M48.4849 6.6275C50.1636 6.36033 51.8621 6.23064 53.5628 6.23975C56.176 6.23975 58.0923 6.8363 59.3083 7.91008C60.4331 8.86455 61.1019 10.3261 61.1019 12.1169C61.1019 13.9363 60.5535 15.368 59.5199 16.412C58.1215 17.8735 55.8416 18.6192 53.2576 18.6192C52.4672 18.6192 51.7376 18.5894 51.1308 18.4402V26.4947H48.4849V6.6275ZM51.1308 16.3214C51.7084 16.4705 52.438 16.5301 53.3196 16.5301C56.5104 16.5301 58.4571 15.0089 58.4571 12.235C58.4571 9.5804 56.5419 8.29783 53.6236 8.29783C52.4684 8.29783 51.5868 8.38731 51.1308 8.50662V16.3214ZM77.1225 19.1549C77.1225 24.494 73.3518 26.8217 69.795 26.8217C65.8127 26.8217 62.7423 23.9583 62.7423 19.3935C62.7423 14.5615 65.9647 11.728 70.0382 11.728C74.2649 11.7268 77.1225 14.7405 77.1225 19.1549ZM65.449 19.3041C65.449 22.4658 67.3034 24.8519 69.9178 24.8519C72.4713 24.8519 74.3854 22.4956 74.3854 19.2444C74.3854 16.7986 73.1401 13.6966 69.9774 13.6966C66.8147 13.6966 65.449 16.56 65.449 19.3041ZM80.1309 23.808C80.9213 24.315 82.3197 24.8519 83.6572 24.8519C85.6028 24.8519 86.5148 23.8975 86.5148 22.7044C86.5148 21.4516 85.756 20.7656 83.7788 20.0498C81.1341 19.1251 79.8877 17.6934 79.8877 15.9634C79.8877 13.6369 81.8029 11.728 84.9644 11.728C86.454 11.728 87.7624 12.1455 88.5832 12.6228L87.9144 14.5317C87.0096 13.9847 85.9675 13.6955 84.9048 13.6966C83.324 13.6966 82.4424 14.5914 82.4424 15.6651C82.4424 16.8582 83.3252 17.3951 85.2404 18.111C87.7939 19.0655 89.1011 20.3182 89.1011 22.4658C89.1011 25.0011 87.0947 26.7907 83.5988 26.7907C81.9876 26.7907 80.498 26.4029 79.4644 25.8064L80.1309 23.808ZM95.7575 7.90893V12.0549H99.5867V14.0533H95.7575V21.8382C95.7575 23.6279 96.2731 24.642 97.7638 24.642C98.2864 24.6494 98.8077 24.5892 99.3142 24.463L99.4358 26.4316C98.9202 26.6404 98.0982 26.7896 97.0658 26.7896C95.8194 26.7896 94.8151 26.4018 94.1767 25.6859C93.4179 24.9104 93.1431 23.6279 93.1431 21.9277V14.0533H90.8631V12.0549H93.1431V8.59496L95.7575 7.90893ZM115.092 12.0561C115.03 13.1 114.97 14.2633 114.97 16.0231V24.4045C114.97 27.7153 114.301 29.7436 112.872 30.9975C111.444 32.3099 109.377 32.7275 107.522 32.7275C105.759 32.7275 103.813 32.3099 102.627 31.5344L103.295 29.5359C104.268 30.1325 105.788 30.6694 107.612 30.6694C110.348 30.6694 112.355 29.2675 112.355 25.6286V24.0179H112.294C111.473 25.3601 109.892 26.4339 107.612 26.4339C103.964 26.4339 101.35 23.3915 101.35 19.3935C101.35 14.5019 104.603 11.728 107.977 11.728C110.532 11.728 111.93 13.0404 112.568 14.2334H112.629L112.751 12.0561H115.092ZM112.325 17.7531C112.325 17.3057 112.295 16.9179 112.173 16.56C111.687 15.0388 110.38 13.786 108.434 13.786C105.879 13.786 104.057 15.9038 104.057 19.2444C104.057 22.078 105.516 24.4344 108.404 24.4344C110.045 24.4344 111.535 23.4202 112.112 21.7499C112.264 21.3025 112.326 20.7954 112.326 20.348L112.325 17.7531ZM119.225 16.56C119.225 14.8598 119.194 13.3983 119.103 12.0561H121.445L121.535 14.8896H121.657C122.326 12.9509 123.937 11.728 125.73 11.728C126.034 11.728 126.246 11.7578 126.489 11.8174V14.2931C126.19 14.2292 125.884 14.1992 125.578 14.2036C123.694 14.2036 122.355 15.6055 121.991 17.5741C121.916 17.9777 121.875 18.3868 121.87 18.797V26.4924H119.225V16.56ZM130.352 19.7515C130.413 23.3009 132.722 24.7624 135.397 24.7624C137.314 24.7624 138.468 24.4344 139.471 24.0168L139.927 25.8959C138.985 26.3135 137.373 26.7907 135.033 26.7907C130.503 26.7907 127.798 23.8676 127.798 19.5129C127.798 15.1581 130.412 11.7268 134.698 11.7268C139.501 11.7268 140.778 15.8728 140.778 18.5274C140.778 19.0643 140.717 19.4819 140.687 19.7503L130.352 19.7515ZM138.195 17.8724C138.225 16.202 137.495 13.6071 134.487 13.6071C131.781 13.6071 130.595 16.0529 130.381 17.8724H138.195ZM143.818 23.3307C145.251 24.1754 146.889 24.6285 148.56 24.6431C151.266 24.6431 152.847 23.2413 152.847 21.213C152.847 19.3339 151.752 18.2601 148.986 17.2162C145.642 16.0529 143.575 14.3528 143.575 11.5192C143.575 8.38731 146.22 6.06079 150.202 6.06079C152.3 6.06079 153.82 6.53802 154.732 7.04508L154.002 9.16281C152.806 8.53202 151.469 8.20395 150.111 8.20834C147.314 8.20834 146.25 9.84885 146.25 11.2209C146.25 13.1 147.495 14.0247 150.324 15.0984C153.789 16.412 155.552 18.0513 155.552 21.0042C155.552 24.1063 153.212 26.7907 148.378 26.7907C146.402 26.7907 144.244 26.224 143.148 25.5081L143.818 23.3307ZM176.072 29.4453C173.429 28.7649 170.813 27.9888 168.229 27.1188C167.803 26.9697 167.378 26.8205 166.983 26.8205C162.119 26.6416 157.954 23.1219 157.954 16.6494C157.954 10.2068 161.967 6.06079 167.499 6.06079C173.063 6.06079 176.681 10.2963 176.681 16.2319C176.681 21.392 174.249 24.7028 170.845 25.8661V25.9854C172.881 26.4924 175.101 26.9697 176.833 27.2679L176.072 29.4453ZM173.883 16.3512C173.883 12.3245 171.757 8.17738 167.408 8.17738C162.94 8.17738 160.751 12.2339 160.781 16.5898C160.751 20.8551 163.152 24.7028 167.287 24.7028C171.513 24.7028 173.883 20.9446 173.883 16.3512ZM180.114 6.38889H182.76V24.315H191.515V26.4924H180.114V6.38889Z" fill="white"/>
</svg>
