<svg width="170" height="40" viewBox="0 0 170 40" fill="none" xmlns="http://www.w3.org/2000/svg">
<path d="M170 9.40696V30.8728H167.232V9.40696H170ZM152.758 28.7716C153.299 28.8667 154.095 28.8984 155.081 28.8984C157.944 28.8984 160.583 27.8474 160.583 24.7263C160.583 21.7965 158.071 20.5859 155.049 20.5859H152.758V28.7716ZM152.758 18.4838H155.271C158.198 18.4838 159.916 16.9552 159.916 14.8848C159.916 12.369 158.007 11.3818 155.208 11.3818C153.936 11.3818 153.204 11.4774 152.758 11.5725V18.4838ZM149.991 9.69328C151.2 9.43914 153.108 9.24748 155.049 9.24748C157.816 9.24748 159.598 9.72546 160.934 10.8082C162.047 11.6364 162.715 12.9104 162.715 14.598C162.715 16.6684 161.347 18.4838 159.089 19.312V19.3758C161.125 19.8851 163.51 21.5731 163.51 24.758C163.51 26.6056 162.779 28.0069 161.697 29.0579C160.202 30.427 157.785 31.0645 154.285 31.0645C152.377 31.0645 150.913 30.9367 149.991 30.8099V9.69328ZM132.75 20.2674C132.75 18.4521 132.718 16.8913 132.623 15.4583H135.072L135.167 18.4838H135.294C135.995 16.4138 137.68 15.1077 139.558 15.1077C139.875 15.1077 140.098 15.1398 140.353 15.2033V17.8468C140.066 17.7834 139.78 17.7512 139.399 17.7512C137.427 17.7512 136.027 19.2485 135.644 21.3502C135.581 21.7326 135.518 22.1784 135.518 22.6559V30.8728H132.75V20.2674ZM126.578 21.6687C126.61 19.8851 125.847 17.1142 122.697 17.1142C119.866 17.1142 118.626 19.726 118.403 21.6687H126.578ZM118.371 23.6753C118.435 27.465 120.853 29.0253 123.652 29.0253C125.656 29.0253 126.865 28.6751 127.915 28.2293L128.392 30.2358C127.405 30.6821 125.72 31.1913 123.27 31.1913C118.53 31.1913 115.699 28.0703 115.699 23.4206C115.699 18.7706 118.435 15.1077 122.921 15.1077C127.947 15.1077 129.282 19.5349 129.282 22.3696C129.282 22.9427 129.219 23.3889 129.187 23.6753H118.371ZM94.8311 15.4583L96.8669 23.2929C97.3127 25.0131 97.7258 26.6056 98.0122 28.1976H98.1077C98.4575 26.6368 98.9666 24.9814 99.4756 23.3251L101.989 15.4583H104.342L106.728 23.1656C107.301 25.0131 107.746 26.6368 108.096 28.1976H108.192C108.446 26.6368 108.86 25.0131 109.368 23.1973L111.564 15.4583H114.331L109.368 30.8728H106.823L104.47 23.5162C103.929 21.7965 103.484 20.2674 103.102 18.4521H103.038C102.656 20.2991 102.179 21.8921 101.639 23.5475L99.157 30.8728H96.6126L91.9681 15.4583H94.8311ZM78.1935 23.1973C78.1935 26.5739 80.1338 29.1213 82.8696 29.1213C85.5417 29.1213 87.5458 26.6056 87.5458 23.1339C87.5458 20.522 86.2417 17.2098 82.9334 17.2098C79.6252 17.2098 78.1935 20.2674 78.1935 23.1973ZM90.4088 23.0387C90.4088 28.7394 86.4643 31.2235 82.7425 31.2235C78.5754 31.2235 75.3626 28.1663 75.3626 23.2929C75.3626 18.1336 78.7342 15.1077 82.9968 15.1077C87.4182 15.1077 90.4088 18.3248 90.4088 23.0387ZM63.2102 20.0124C63.8147 20.1718 64.5781 20.2353 65.5008 20.2353C68.8407 20.2353 70.8765 18.6111 70.8765 15.6491C70.8765 12.8148 68.8728 11.4452 65.8189 11.4452C64.6102 11.4452 63.6876 11.5408 63.2102 11.6681V20.0124ZM60.4427 9.66157C61.7789 9.43914 63.5283 9.24748 65.7551 9.24748C68.4909 9.24748 70.495 9.88447 71.7675 11.0311C72.9444 12.0505 73.6445 13.6108 73.6445 15.5217C73.6445 17.4649 73.0716 18.9935 71.9901 20.1084C70.5267 21.6687 68.1411 22.4647 65.437 22.4647C64.6102 22.4647 63.8469 22.4335 63.2102 22.274V30.8728H60.4427V9.66157ZM38.8056 10.0384L4.84477 0.109584C4.59047 0.0354399 4.33663 0 4.08745 0C2.65573 0.000466315 1.40797 1.16299 1.40797 2.68924V18.7389H3.42096V2.68924C3.42096 2.27328 3.76701 2.01541 4.08792 2.01541C4.15126 2.01541 4.21553 2.0252 4.28074 2.04432L38.2416 11.9731C38.5262 12.0561 38.7251 12.3214 38.7251 12.618V23.3237V34.0293C38.7251 34.4453 38.3785 34.7031 38.0581 34.7031C37.9943 34.7031 37.931 34.6938 37.8648 34.6747L30.1198 32.4098V34.5091L37.3008 36.609C37.5551 36.6831 37.8094 36.7185 38.0581 36.7185C39.4898 36.7185 40.7376 35.5556 40.7376 34.0293V12.618C40.7376 11.4242 39.9505 10.3732 38.8056 10.0384ZM27.649 37.4511V15.7512C27.649 14.3434 26.5093 13.2018 25.1027 13.2018C23.6966 13.2018 22.5569 14.3434 22.5569 15.7512V37.4511C22.5569 38.8589 23.6966 40 25.1027 40C26.5093 40 27.649 38.8589 27.649 37.4511ZM20.1299 35.0645V18.4129C20.1299 17.0051 18.9902 15.8636 17.5836 15.8636C16.1775 15.8636 15.0378 17.0051 15.0378 18.4129V35.0645C15.0378 36.4723 16.1775 37.6134 17.5836 37.6134C18.9902 37.6134 20.1299 36.4723 20.1299 35.0645ZM12.6112 32.4863V20.8443C12.6112 19.4365 11.471 18.2954 10.0649 18.2954C8.65882 18.2954 7.51866 19.4365 7.51866 20.8443V32.4863C7.51866 33.8945 8.65882 35.0356 10.0649 35.0356C11.471 35.0356 12.6112 33.8945 12.6112 32.4863ZM2.54581 32.7325C1.1397 32.7325 0 31.5909 0 30.1831V23.4575C0 22.0497 1.1397 20.9086 2.54581 20.9086C3.95192 20.9086 5.09208 22.0497 5.09208 23.4575V30.1831C5.09208 31.5909 3.95192 32.7325 2.54581 32.7325Z" fill="white"/>
</svg>
