<svg width="151" height="40" viewBox="0 0 151 40" fill="none" xmlns="http://www.w3.org/2000/svg">
<path fill-rule="evenodd" clip-rule="evenodd" d="M110.873 29.1308H113.926V16.3843C113.926 14.7674 113.424 13.4144 112.419 12.3291C111.417 11.2434 110.107 10.6989 108.491 10.6989C106.176 10.6989 104.045 11.4103 102.094 12.8301V0L99.0408 0.961626V29.1308H102.094V15.0046C104.195 13.5282 105.946 12.79 107.345 12.79C108.494 12.79 109.389 13.2777 110.034 14.253C110.592 15.1149 110.873 16.1472 110.873 17.3463V29.1308ZM95.4397 29.3817C95.0757 29.4119 94.7416 29.4245 94.4342 29.4245C92.7073 29.4245 91.3615 29.0143 90.3992 28.1891C89.4403 27.3635 88.9598 26.2251 88.9598 24.772V12.7462H86.8683V10.8257H88.9598V5.72487L92.0092 4.63919V10.8257H95.4397V12.7462H92.0092V24.6884C92.0092 25.834 92.3166 26.6455 92.9311 27.1198C93.4592 27.5109 94.2974 27.7343 95.4397 27.7912V29.3817ZM82.4994 34.4821C83.1807 33.173 83.5214 30.8183 83.5214 27.4173V10.8256H80.4686V25.7473C78.8746 26.8062 77.375 27.347 75.9754 27.3772C74.5758 27.4039 73.4335 27.0499 72.5514 26.3114C71.67 25.5732 71.2289 24.5211 71.2289 23.1551V10.365L68.1761 11.4103V24.1174C68.1761 25.7038 68.8173 27.0129 70.0997 28.0451C71.2423 28.9944 72.5682 29.4649 74.0716 29.4649C76.3599 29.4649 78.5474 28.9944 80.6351 28.0451V28.8402C80.6351 31.2086 80.4151 32.8087 79.9672 33.6469C79.4096 34.6764 78.3942 35.4441 76.9144 35.9455C76.1625 36.1956 74.8667 36.4468 73.0261 36.697L73.5305 38.6206C75.3407 38.5644 77.0278 38.2299 78.5878 37.6154C80.5121 36.8368 81.8147 35.7916 82.4994 34.4821ZM63.0716 26.6254C64.2676 24.9523 64.8622 22.8478 64.8622 20.3125C64.8622 17.4698 64.2607 15.1452 63.0616 13.3313C61.7755 11.3535 59.9451 10.3785 57.5701 10.4083L57.527 10.3652C54.9279 10.3919 52.7199 10.9361 50.9028 11.9947C50.1211 12.4426 49.4762 12.9704 48.9755 13.5849V37.6156L52.0286 38.7043V27.8787C53.9159 29.048 55.7497 29.6056 57.53 29.5487C59.8916 29.4949 61.7391 28.5199 63.0716 26.6254ZM57.0825 12.4125C59.9286 12.5526 61.3515 15.115 61.3515 20.1055C61.3515 24.7587 59.858 27.1806 56.8751 27.3773C55.4656 27.4609 53.8491 26.9301 52.0286 25.7875V13.8758C52.3323 13.5684 52.9104 13.2644 53.7689 12.957C54.8446 12.5393 55.9502 12.359 57.0825 12.4125ZM133.497 19.6442C133.497 22.3735 132.799 24.6446 131.405 26.4585C129.873 28.4894 127.755 29.5082 125.052 29.5082C122.374 29.5082 120.286 28.4894 118.779 26.4585C117.413 24.6446 116.732 22.3735 116.732 19.6442C116.732 17.0791 117.47 14.9211 118.946 13.164C120.506 11.2997 122.557 10.3648 125.093 10.3648C127.628 10.3648 129.692 11.2997 131.282 13.164C132.758 14.9211 133.497 17.0791 133.497 19.6442ZM130.153 19.624C130.153 17.7069 129.789 16.1236 129.064 14.8707C128.202 13.3443 126.863 12.5393 125.052 12.4557C121.705 12.6496 120.035 15.0479 120.035 19.6442C120.035 21.7518 120.382 23.5123 121.084 24.9253C121.979 26.7258 123.322 27.6145 125.112 27.5843C128.473 27.5576 130.153 24.905 130.153 19.624ZM147.947 29.1308H151V15.1317C151 13.959 150.583 12.9569 149.744 12.1221C148.993 11.3671 148.017 10.8527 146.818 10.5755C146.177 10.435 145.495 10.3651 144.77 10.3651C143.711 10.3651 142.482 10.5453 141.09 10.9096C139.613 11.3 137.996 12.1355 136.239 13.4144V29.1308H139.293V13.7921C140.602 12.8733 141.981 12.399 143.431 12.3723C144.797 12.3421 145.893 12.7129 146.715 13.4782C147.536 14.2465 147.947 15.312 147.947 16.6783V29.1308ZM18.8209 1.07455C17.2496 1.08209 15.75 1.21608 14.4302 1.44946C10.5415 2.13658 9.83558 3.57423 9.83558 6.22572V9.72781H19.0241V10.8951H9.83558H6.38695C3.71661 10.8951 1.37834 12.5003 0.647016 15.5538C-0.19672 19.0538 -0.234418 21.2378 0.647016 24.8928C1.30021 27.6128 2.86019 29.5515 5.53019 29.5515H8.68992V25.3534C8.68992 22.3201 11.314 19.645 14.4302 19.645H23.6081C26.163 19.645 28.2021 17.5415 28.2021 14.9753V6.22572C28.2021 3.73598 26.1017 1.86516 23.6081 1.44946C22.0756 1.19415 20.4871 1.0742 18.9583 1.0742L18.8896 1.07437L18.8209 1.07455ZM12.1272 5.64758C12.1272 4.6791 12.8993 3.89122 13.8517 3.89122C14.8007 3.89122 15.5759 4.6791 15.5759 5.64758C15.5759 6.61298 14.8007 7.39332 13.8517 7.39332C12.8993 7.39332 12.1272 6.61298 12.1272 5.64758ZM29.3483 14.9752V10.895H32.7966C35.4707 10.895 36.7308 12.8957 37.3909 15.5537C38.3097 19.2463 38.3504 22.014 37.3909 24.8927C36.4622 27.6885 35.4673 29.5514 32.7966 29.5514H28.202H19.024V30.7183H28.202V34.2207C28.202 36.8719 25.9213 38.2197 23.608 38.8901C20.1275 39.8997 17.3386 39.7454 14.4301 38.8901C12.0007 38.1759 9.83547 36.7105 9.83547 34.2207V25.4712C9.83547 22.953 11.916 20.8015 14.4301 20.8015H23.608C26.666 20.8015 29.3483 18.139 29.3483 14.9752ZM24.1862 33.0531C23.2369 33.0531 22.462 33.8335 22.462 34.7989C22.462 35.7673 23.2369 36.5552 24.1862 36.5552C25.1389 36.5552 25.9103 35.7673 25.9103 34.7989C25.9103 33.8335 25.1389 33.0531 24.1862 33.0531Z" fill="white"/>
</svg>
