<svg width="234" height="37" viewBox="0 0 234 37" fill="none" xmlns="http://www.w3.org/2000/svg">
<path fill-rule="evenodd" clip-rule="evenodd" d="M34.8815 14.5408H23.2543C23.0627 14.542 22.8727 14.5052 22.6954 14.4324C22.5181 14.3596 22.357 14.2523 22.2215 14.1168C22.086 13.9813 21.9788 13.8202 21.906 13.6429C21.8332 13.4656 21.7963 13.2756 21.7975 13.084V1.45684C21.7975 1.26595 21.7598 1.07695 21.6865 0.900715C21.6131 0.724475 21.5057 0.564475 21.3703 0.429924C21.2349 0.295373 21.0742 0.188926 20.8975 0.116709C20.7208 0.0444932 20.5316 0.00793335 20.3407 0.00913387H15.9885C15.7976 0.00793335 15.6084 0.0444932 15.4317 0.116709C15.255 0.188926 15.0943 0.295373 14.9589 0.429924C14.8235 0.564475 14.7161 0.724475 14.6428 0.900715C14.5694 1.07695 14.5317 1.26595 14.5317 1.45684V13.084C14.5329 13.2756 14.4961 13.4656 14.4233 13.6429C14.3505 13.8202 14.2432 13.9813 14.1077 14.1168C13.9722 14.2523 13.8111 14.3596 13.6338 14.4324C13.4565 14.5052 13.2665 14.542 13.0749 14.5408H8.72267C8.53102 14.542 8.34104 14.5052 8.16375 14.4324C7.98646 14.3596 7.82538 14.2523 7.68986 14.1168C7.55434 13.9813 7.44708 13.8202 7.37429 13.6429C7.30151 13.4656 7.26466 13.2756 7.26587 13.084V1.45684C7.26707 1.26519 7.23022 1.07521 7.15743 0.897914C7.08465 0.72062 6.97739 0.559542 6.84187 0.424023C6.70635 0.288504 6.54527 0.181242 6.36798 0.108459C6.19069 0.0356756 6.0007 -0.00118035 5.80906 2.88163e-05H1.44773C1.25685 2.50314e-05 1.06785 0.0377706 0.89161 0.111093C0.71537 0.184416 0.55537 0.291868 0.420819 0.427266C0.286267 0.562663 0.179821 0.723333 0.107604 0.900029C0.0353882 1.07673 -0.00117171 1.26596 2.88166e-05 1.45684V34.8906C-0.00118036 35.0823 0.0356756 35.2722 0.108459 35.4495C0.181242 35.6268 0.288504 35.7879 0.424023 35.9234C0.559541 36.0589 0.72062 36.1662 0.897914 36.239C1.07521 36.3118 1.26519 36.3486 1.45684 36.3474H34.8815C35.0732 36.3486 35.2631 36.3118 35.4404 36.239C35.6177 36.1662 35.7788 36.0589 35.9143 35.9234C36.0498 35.7879 36.1571 35.6268 36.2299 35.4495C36.3027 35.2722 36.3395 35.0823 36.3383 34.8906V16.0249C36.3432 15.831 36.3091 15.6381 36.2379 15.4576C36.1668 15.2771 36.0601 15.1128 35.9242 14.9743C35.7883 14.8359 35.626 14.7262 35.4469 14.6517C35.2677 14.5772 35.0755 14.5395 34.8815 14.5408ZM29.0361 26.8873C29.0373 27.1738 28.9819 27.4578 28.873 27.7228C28.7642 27.9879 28.6041 28.2289 28.4019 28.4319C28.1997 28.6349 27.9594 28.796 27.6948 28.906C27.4302 29.0159 27.1465 29.0725 26.8599 29.0725H23.9463C23.6598 29.0725 23.3761 29.0159 23.1115 28.906C22.8468 28.796 22.6066 28.6349 22.4044 28.4319C22.2022 28.2289 22.0421 27.9879 21.9332 27.7228C21.8244 27.4578 21.769 27.1738 21.7702 26.8873V23.9828C21.769 23.6962 21.8244 23.4123 21.9332 23.1472C22.0421 22.8821 22.2022 22.6412 22.4044 22.4381C22.6066 22.2351 22.8468 22.074 23.1115 21.9641C23.3761 21.8541 23.6598 21.7975 23.9463 21.7975H26.8599C27.1465 21.7975 27.4302 21.8541 27.6948 21.9641C27.9594 22.074 28.1997 22.2351 28.4019 22.4381C28.6041 22.6412 28.7642 22.8821 28.873 23.1472C28.9819 23.4123 29.0373 23.6962 29.0361 23.9828V26.8873ZM42.7938 36.0012V6.9604H50.4495C59.9803 6.9604 62.0566 10.9739 62.0566 14.4077C62.0566 18.1497 59.8431 20.8938 54.7393 21.6936C54.7393 21.6936 57.8491 22.4273 58.9376 23.7847C59.7608 24.8119 60.1632 25.8245 60.7669 28.187L62.8249 36.0379H59.6602L57.8308 29.1556C57.7567 28.9102 57.6861 28.6471 57.6125 28.3726L57.6124 28.3723L57.6123 28.3721C57.1133 26.5126 56.4756 24.136 53.6783 23.2858C52.5923 22.9771 51.4459 22.8279 50.294 22.8455H45.9402V36.0012H42.7938ZM50.0928 9.22027H45.9402V9.22761V20.527H48.8123C58.5717 20.527 58.8736 15.6844 58.8736 14.3563C58.8736 12.7568 58.3888 9.22027 50.0928 9.22027ZM175.663 36.0379H172.325L161.351 9.23113V36.0379H158.428V6.90171H163.675L173.893 32.4078H174.003L184.258 6.90171H189.385V36.0379H186.49V9.23113L175.663 36.0379ZM226.952 31.4854H229.447H230.224L231.732 36.2755L233.241 31.4854H234V36.9484H233.573V31.9192H233.546L231.959 36.9484H231.471L229.875 31.9192V36.9484H229.447V31.9192H226.952V36.9484H226.47V31.9192H223.984V31.4854H226.47H226.952ZM65.9685 20.582H69.2653C69.565 19.3595 70.2019 17.1897 74.5945 17.1897C80.1765 17.1897 80.1638 21.0194 80.1582 22.6834C80.1581 22.7337 80.1579 22.782 80.1579 22.8282V24.6618C80.1579 24.6618 78.2847 24.6618 77.1233 24.7535C72.7307 25.0286 65.5564 25.9607 65.5564 31.3623C65.5564 36.764 71.0448 36.9473 72.1126 36.9473C73.6899 36.9687 75.2486 36.6665 76.6457 36.0687C78.0256 35.4581 79.2022 34.5822 80.0736 33.5169H80.186V36.4736H82.8553V22.2017C82.8553 22.1442 82.8554 22.0846 82.8556 22.0232C82.8622 19.8054 82.8762 15.0963 74.8474 15.0963C66.596 15.0963 65.9685 19.5887 65.9685 20.582ZM80.1485 26.7553C80.1474 27.5624 80.0848 28.3687 79.9612 29.1696C79.6921 30.6037 78.8011 31.9114 77.4501 32.855C76.0992 33.7985 74.3781 34.3154 72.5996 34.3115C72.1165 34.3488 71.6292 34.3032 71.169 34.1776C70.7088 34.0519 70.286 33.8491 69.9278 33.5821C69.5696 33.315 69.2839 32.9897 69.0891 32.6272C68.8944 32.2646 68.7949 31.8728 68.797 31.4769C68.797 30.3691 69.3215 27.7791 74.5383 26.9616C75.6342 26.7935 80.1485 26.7553 80.1485 26.7553ZM86.5076 28.1261V6.90171H89.2513V19.9376H89.3462C89.7857 18.6935 90.7339 17.5976 92.0447 16.8186C93.3554 16.0397 94.9559 15.621 96.5995 15.6271C98.6882 15.6271 105.619 16.6637 105.619 26.5078C105.619 36.3518 97.7198 36.9484 95.5552 36.9484C86.555 36.9484 86.5076 29.2745 86.5076 28.1261ZM95.5552 34.8752C96.4665 34.8752 102.332 34.7037 102.334 26.4517C102.333 19.9367 99.1243 17.6481 96.2957 17.6481C93.4665 17.6481 89.3557 20.0718 89.3557 26.7837C89.3557 34.8752 94.6438 34.8752 95.5552 34.8752ZM109.288 6.90171V28.1261C109.288 29.2745 109.333 36.9484 117.896 36.9484C119.956 36.9484 127.471 36.3518 127.471 26.5078C127.471 16.6637 120.877 15.6271 118.89 15.6271C117.326 15.621 115.803 16.0397 114.556 16.8186C113.309 17.5976 112.407 18.6935 111.989 19.9376H111.88V6.90171H109.288ZM124.345 26.4481C124.345 34.7037 118.763 34.8752 117.896 34.8752C117.029 34.8752 111.998 34.8752 111.998 26.7837C111.998 20.0718 115.909 17.6481 118.601 17.6481C121.292 17.6481 124.336 19.9376 124.336 26.4555L124.345 26.4481ZM134.755 36.0379V16.0068H132.023V36.0379H134.755ZM135.665 6.90171V9.63322H131.113V6.90171H135.665ZM150.222 36.9367C151.14 36.9121 152.055 36.8492 152.965 36.7482V36.7256V34.4642C152.003 34.7008 151.003 34.8252 149.997 34.8335C146.074 34.8335 146.101 31.9727 146.108 31.2351C146.108 31.2079 146.108 31.1836 146.108 31.1624V17.8951H152.965V15.8296H146.099V9.63322L143.422 11.073V15.8372H139.307V17.9027H143.422V31.8559C143.422 33.6726 143.976 34.9994 145.103 35.7532C146.59 36.6075 148.397 37.0254 150.222 36.9367ZM218.698 21.0294C218.698 27.3202 216.91 31.6828 213.562 34.0204L221.253 33.5588V36.0379H206.656H206.318C198.335 36.0379 193.938 31.1467 193.938 21.0294C193.938 10.9121 199.111 5.9912 206.537 5.9912C214.456 5.9912 218.698 11.865 218.698 21.0294ZM206.501 8.53728C200.324 8.53728 197.377 12.6244 197.377 21.0369C197.377 29.4494 199.713 33.5588 206.345 33.5588C212.978 33.5588 215.222 28.6528 215.222 21.0369C215.222 13.421 212.677 8.53728 206.501 8.53728Z" fill="white"/>
</svg>
