<svg width="117" height="39" viewBox="0 0 117 39" fill="none" xmlns="http://www.w3.org/2000/svg">
<path d="M30.2594 0C30.2135 0 30.1676 0 30.1218 0C29.3724 0.0156008 28.5771 0.198129 27.7665 0.503904C26.1376 1.11389 24.3712 2.24573 22.5741 3.84169C22.2224 4.15448 21.8629 4.4899 21.5035 4.84091C21.2665 4.6069 21.0294 4.38849 20.7924 4.17008C18.8882 2.44776 17.0147 1.23636 15.3018 0.583468C14.4453 0.257412 13.6118 0.0616229 12.8318 0.042902C12.0518 0.0234011 11.3253 0.179409 10.6906 0.556947C9.45177 1.28472 8.77882 2.71843 8.48824 4.4587C8.19 6.2091 8.26647 8.3308 8.72529 10.7177C8.81706 11.1935 8.92412 11.6772 9.04647 12.1764C8.49588 12.3324 7.96059 12.504 7.45588 12.6834C5.22829 13.4713 3.42665 14.4697 2.13276 15.593C0.838882 16.724 0 18.0345 0 19.4619C0 20.9362 0.881706 22.3013 2.24518 23.4869C3.60865 24.6804 5.51124 25.7412 7.86118 26.5525C8.23588 26.6851 8.61824 26.8099 9.01588 26.9269C8.88588 27.4573 8.77118 27.98 8.67941 28.487C8.24353 30.8505 8.19 32.941 8.49588 34.6493C8.80941 36.3576 9.50529 37.7538 10.7212 38.4637C11.9676 39.2047 13.5659 39.1033 15.2635 38.4949C16.9535 37.8864 18.7965 36.732 20.6624 35.0627C20.9606 34.7975 21.2588 34.5167 21.5571 34.2203C21.9471 34.6025 22.3371 34.9691 22.7271 35.3045C24.5088 36.8724 26.2524 37.9644 27.8582 38.5417C29.4641 39.1189 31.0012 39.2047 32.2094 38.4871C33.4635 37.746 34.1747 36.2874 34.5035 34.4855C34.8324 32.6836 34.7712 30.4761 34.2894 27.9956C34.2129 27.6133 34.1288 27.2155 34.0371 26.8255C34.3047 26.7397 34.5724 26.6539 34.8324 26.5681C37.2488 25.7568 39.2141 24.7116 40.6288 23.5259C42.0435 22.3403 42.9612 20.9674 42.9612 19.4619C42.9612 18.0111 42.0818 16.7006 40.7512 15.5618C39.4206 14.4307 37.5776 13.4322 35.3218 12.6444C34.8782 12.4884 34.4194 12.3402 33.9453 12.1998C34.0218 11.88 34.0982 11.5602 34.1594 11.2403C34.6718 8.69742 34.7635 6.43531 34.4653 4.59208C34.1594 2.74963 33.4559 1.25196 32.1788 0.500004C31.6053 0.159908 30.9476 0.00546026 30.2594 0ZM30.1294 1.88379C30.6112 1.87131 30.9935 1.96179 31.2612 2.1217C31.8424 2.46102 32.4006 3.37366 32.6529 4.8963C32.9053 6.42751 32.8365 8.48681 32.3547 10.8581C32.2935 11.1467 32.2324 11.4354 32.1635 11.7318C30.3894 11.3105 28.4547 10.9985 26.4206 10.8035C25.2506 9.10304 24.0271 7.54296 22.7882 6.1779C23.1247 5.85574 23.4459 5.54373 23.7747 5.25511C25.4494 3.77226 27.0629 2.76211 28.4012 2.26133C29.0665 2.01094 29.6476 1.89627 30.1294 1.88379ZM12.6329 1.92669C12.6865 1.92669 12.7553 1.92669 12.8165 1.92669C13.3288 1.94151 13.9482 2.0671 14.6594 2.33699C16.0818 2.87834 17.8024 3.96727 19.5688 5.57415C19.7829 5.76916 19.9971 5.97197 20.2112 6.1857C18.9724 7.54296 17.7412 9.09524 16.5559 10.7957C14.5294 10.9907 12.5947 11.3027 10.8282 11.7084C10.7135 11.2481 10.6141 10.7957 10.53 10.3589C10.1018 8.14359 10.0559 6.2091 10.2929 4.77851C10.5376 3.3487 11.0653 2.49846 11.6082 2.17709C11.8606 2.0281 12.2047 1.93683 12.6329 1.92591V1.92669ZM21.5035 7.52736C22.3524 8.45561 23.1935 9.50086 24.0271 10.6319C23.1935 10.5929 22.3371 10.5695 21.4806 10.5695C20.6318 10.5695 19.7906 10.5929 18.9571 10.6319C19.7982 9.50086 20.6547 8.46341 21.5035 7.52736ZM56.2212 9.38385V27.2623H58.4082V20.1562H61.9029L66.3688 27.2623H68.9459L64.2124 19.969C66.6059 19.7506 68.7624 17.9877 68.7624 14.7661C68.7624 11.4744 66.4759 9.38385 63.2641 9.38385H56.2212ZM111.8 10.7723V14.3137H109.735V16.0844H111.8V24.5556C111.8 26.4823 112.794 27.5821 114.629 27.5821C115.776 27.5821 116.541 27.2311 117 26.7475L116.388 25.2498C116.159 25.5462 115.624 25.788 115.088 25.788C114.247 25.788 113.788 25.086 113.788 24.1266V16.0844H116.388V14.3137H113.788V10.7723H111.8ZM58.4082 11.3651H63.0041C65.0765 11.3651 66.4988 12.7614 66.4988 14.7661C66.4988 16.7786 65.0765 18.1983 63.0041 18.1983H58.4082V11.3651ZM21.4806 12.4416C22.8188 12.4416 24.1265 12.4962 25.3959 12.5898C26.1147 13.6663 26.8106 14.7973 27.4759 15.9674C28.1412 17.1374 28.7606 18.3153 29.3188 19.4775C28.7606 20.6554 28.1488 21.8489 27.4759 23.0267C26.8106 24.2046 26.1224 25.3356 25.4112 26.4199C24.1341 26.5135 22.8188 26.5603 21.4806 26.5603C20.1576 26.5603 18.8576 26.5135 17.5882 26.4355C16.8694 25.3512 16.1659 24.2202 15.4929 23.0423C14.82 21.8645 14.2082 20.6788 13.6576 19.5087C14.2082 18.3309 14.82 17.153 15.4853 15.9752C16.1506 14.7973 16.8541 13.6663 17.5729 12.5898C18.8424 12.4962 20.15 12.4416 21.4806 12.4416ZM15.21 12.8316C14.7588 13.5493 14.3229 14.2825 13.8947 15.0391C13.4665 15.7958 13.0688 16.5524 12.6865 17.3012C12.1435 16.0064 11.6924 14.7349 11.3176 13.5181C12.5412 13.2372 13.8412 13.011 15.21 12.8316ZM27.7512 12.8394C29.1276 13.011 30.4429 13.2528 31.6665 13.5337C31.2994 14.7505 30.8329 16.0142 30.29 17.309C29.9 16.5524 29.4871 15.788 29.0588 15.0313C28.6306 14.2825 28.1947 13.5493 27.7512 12.8394ZM9.53588 13.9783C10.0712 15.749 10.7747 17.6133 11.6312 19.5087C10.7594 21.4354 10.0482 23.3231 9.50529 25.1172C9.14588 25.0158 8.79412 24.8988 8.45 24.7818C6.27824 24.0252 4.56376 23.0501 3.43888 22.0673C2.31324 21.0844 1.83529 20.1328 1.83529 19.4619C1.83529 18.8145 2.27194 17.9409 3.32571 17.0204C4.37871 16.1 5.99529 15.1795 8.06 14.4463C8.52647 14.2825 9.02353 14.1265 9.53588 13.9783ZM76.5471 13.9939C72.9147 13.9939 70.2841 17.0204 70.2841 20.7724C70.2841 24.8208 72.9912 27.5821 76.7 27.5821C78.7647 27.5821 80.5235 26.8879 81.7471 25.6008L80.8294 24.2826C79.8353 25.3278 78.3824 25.9206 76.9294 25.9206C74.1994 25.9206 72.5171 23.8848 72.3641 21.4432H82.5882V20.9362C82.5882 17.0438 80.3706 13.9939 76.5471 13.9939ZM90.1588 13.9939C88.0941 13.9939 86.4882 14.6881 85.1118 16.139L86.0294 17.5274C87.1765 16.295 88.4 15.7334 89.9294 15.7334C91.7647 15.7334 93.1412 16.724 93.1412 18.4713V20.8036C92.0706 19.5945 90.6177 19.0329 88.9353 19.0329C86.7941 19.0329 84.5 20.398 84.5 23.2919C84.5 26.1079 86.7941 27.5821 88.9353 27.5821C90.6177 27.5821 92.0706 26.9659 93.1412 25.788V27.2623H95.0529V18.3621C95.0529 15.2263 92.8353 13.9939 90.1588 13.9939ZM104.229 13.9939C100.482 13.9939 97.8824 16.9424 97.8824 20.7724C97.8824 24.6336 100.482 27.5821 104.229 27.5821C106.524 27.5821 107.9 26.6149 108.894 25.3278L107.594 24.0954C106.753 25.2498 105.682 25.788 104.382 25.788C101.629 25.788 99.9471 23.6429 99.9471 20.7724C99.9471 17.9019 101.629 15.788 104.382 15.788C105.682 15.788 106.753 16.295 107.594 17.4728L108.894 16.2404C107.9 14.9533 106.524 13.9939 104.229 13.9939ZM33.4559 14.0017C33.8918 14.1343 34.32 14.2747 34.7253 14.4151C36.8206 15.1483 38.4876 16.0688 39.5812 17.0048C40.6671 17.9331 41.1259 18.8223 41.1259 19.4619C41.1259 20.1406 40.6365 21.0922 39.4665 22.0751C38.2888 23.0579 36.5071 24.033 34.2588 24.7974C34.0218 24.8754 33.7847 24.9534 33.54 25.0236C32.9894 23.2451 32.2476 21.373 31.3606 19.4775C32.2171 17.6055 32.9206 15.7646 33.4559 14.0017ZM21.4806 15.554C20.4649 15.5554 19.4913 15.9676 18.7731 16.7002C18.0549 17.4327 17.6508 18.4259 17.6494 19.4619C17.6488 20.4993 18.052 21.4945 18.7704 22.2287C19.4888 22.963 20.4636 23.3763 21.4806 23.3777C21.9848 23.378 22.4841 23.277 22.95 23.0803C23.4159 22.8836 23.8392 22.5952 24.1957 22.2315C24.5522 21.8678 24.835 21.436 25.0278 20.9608C25.2206 20.4856 25.3197 19.9763 25.3194 19.4619C25.318 18.4246 24.9128 17.4302 24.193 16.6974C23.4732 15.9646 22.4976 15.5533 21.4806 15.554ZM76.4706 15.6554C79.3765 15.6554 80.6 18.0423 80.6765 19.969H72.3641C72.4635 17.9877 73.8094 15.6554 76.4706 15.6554ZM89.6235 20.476C91 20.476 92.3765 21.0142 93.1412 22.0829V24.5244C92.3765 25.6008 91 26.1313 89.6235 26.1313C87.7882 26.1313 86.4882 24.9534 86.4882 23.3231C86.4882 21.6538 87.7882 20.476 89.6235 20.476ZM30.3129 21.646C30.8788 22.9721 31.3682 24.267 31.7506 25.4994C30.5041 25.788 29.1582 26.0221 27.7512 26.1937C28.1947 25.4682 28.6382 24.7194 29.0665 23.9628C29.5024 23.1905 29.9153 22.4183 30.3129 21.646ZM12.6865 21.7084C13.0688 22.4651 13.4741 23.2217 13.9024 23.9784C14.3382 24.7428 14.7894 25.4916 15.2482 26.2249C13.8565 26.0689 12.5259 25.8504 11.2947 25.5774C11.6694 24.3372 12.1359 23.0423 12.6865 21.7084ZM32.2553 27.3013C32.3471 27.6601 32.4235 28.019 32.4924 28.3622C32.9359 30.6555 32.9665 32.6602 32.6988 34.1422C32.4312 35.6321 31.8576 36.5292 31.2918 36.8646C30.7412 37.1922 29.7776 37.2468 28.47 36.7788C27.1624 36.303 25.5718 35.3357 23.92 33.8848C23.5606 33.5728 23.2012 33.2374 22.8418 32.8786C24.0729 31.5057 25.2812 29.93 26.4435 28.214C28.5082 28.0268 30.4659 27.7225 32.2553 27.3013ZM10.7976 27.3871C12.5871 27.7927 14.5371 28.0736 16.5865 28.2374C17.7794 29.9534 19.0259 31.5213 20.2724 32.8864C19.9971 33.1594 19.7294 33.4168 19.4541 33.6586C17.7335 35.1953 16.0435 36.2249 14.6518 36.7242C13.2524 37.2312 12.2047 37.1766 11.6388 36.8412C11.0882 36.5214 10.5606 35.6945 10.3006 34.3061C10.0482 32.9176 10.0788 31.0299 10.4841 28.838C10.5682 28.37 10.6753 27.8863 10.7976 27.3871ZM24.0729 28.37C23.2394 29.5244 22.3982 30.5853 21.5571 31.5369C20.6929 30.5853 19.8212 29.5244 18.9724 28.3856C19.7982 28.4168 20.6318 28.4324 21.4806 28.4324C22.3524 28.4324 23.2165 28.409 24.0729 28.37Z" fill="white"/>
</svg>
