<svg width="125" height="40" viewBox="0 0 125 40" fill="none" xmlns="http://www.w3.org/2000/svg">
<path d="M68.4133 12.3884C68.4133 13.3812 67.6009 14.2676 66.541 14.2676C65.7287 14.2676 65.0225 14.4803 64.422 14.9413C63.7509 15.3671 63.2207 15.9696 62.7974 16.6432C61.9496 17.7779 61.5264 19.1251 61.3494 19.621V26.3574C61.3494 27.3857 60.4669 28.237 59.407 28.237C58.3829 28.237 57.5351 27.3858 57.5351 26.3574V12.3884C57.5351 11.3602 58.3826 10.5448 59.407 10.5448C60.4671 10.5448 61.3494 11.3607 61.3494 12.3884V12.6368C61.5614 12.3884 61.8437 12.1051 62.0913 11.9276C63.2571 11.148 64.7756 10.5094 66.5414 10.5448C67.6009 10.5448 68.4133 11.3606 68.4133 12.3884ZM67.3761 19.3728C67.4116 14.551 71.1555 10.5093 75.994 10.5093C80.5854 10.5093 84.2234 13.9482 84.5061 18.7342C84.5061 18.77 84.5061 18.841 84.5061 18.9115C84.5061 18.9826 84.5061 19.1594 84.471 19.2305C84.3649 20.0818 83.6236 20.6491 82.6342 20.6491H71.4026C71.5791 21.4649 71.9675 22.3863 72.6035 22.989C73.3452 23.8398 74.7581 24.4774 75.994 24.5838C77.2656 24.6897 78.7842 24.3715 79.6674 23.6978C80.409 22.9173 81.8569 23.0243 82.316 23.5909C82.7754 24.0879 83.128 25.1515 82.316 25.8955C80.5848 27.4905 78.5012 28.2354 75.9936 28.2354C71.1555 28.2012 67.4116 24.1945 67.3761 19.3728ZM71.226 17.6358H81.2214C80.8683 16.2177 79.0672 14.1259 75.9942 13.8777C72.9923 14.0191 71.5087 16.1823 71.226 17.6358ZM102.501 26.322C102.501 27.3505 101.654 28.2368 100.594 28.2368C99.6403 28.2368 98.8985 27.5634 98.7218 26.7123C97.3798 27.6337 95.6843 28.2368 93.9183 28.2368C89.1503 28.2368 85.3356 24.195 85.3356 19.4087C85.3356 14.5513 89.1506 10.5096 93.9183 10.5096C95.6495 10.5096 97.3442 11.0766 98.6511 11.9983V5.33314C98.6511 4.30486 99.4986 3.41866 100.593 3.41866C101.653 3.41866 102.501 4.30486 102.501 5.33314V19.3729C102.501 19.3729 102.501 19.3729 102.501 19.4087V26.322H102.501ZM93.9189 14.3739C92.6472 14.3739 91.4817 14.9055 90.5994 15.8274C89.7163 16.7139 89.1861 17.9898 89.1861 19.4082C89.1861 20.7557 89.7159 22.0317 90.5994 22.9184C91.4817 23.8403 92.6472 24.3719 93.9189 24.3719C95.2256 24.3719 96.3562 23.8403 97.239 22.9184C98.1216 22.0322 98.6517 20.7559 98.6517 19.4082C98.6517 17.9899 98.1219 16.7139 97.239 15.8274C96.3559 14.9055 95.2256 14.3739 93.9189 14.3739ZM109.221 6.07784C109.221 7.1416 108.409 8.02766 107.313 8.02766C106.254 8.02766 105.406 7.1416 105.406 6.07784V5.33314C105.406 4.26952 106.254 3.41866 107.313 3.41866C108.409 3.41866 109.221 4.26952 109.221 5.33314V6.07784ZM109.221 12.495V26.322C109.221 27.3858 108.409 28.2368 107.313 28.2368C106.254 28.2368 105.406 27.3858 105.406 26.322V12.495C105.406 11.3603 106.254 10.5448 107.313 10.5448C108.409 10.5448 109.221 11.3606 109.221 12.495ZM111.649 23.1664C112.285 22.316 113.521 22.2095 114.298 22.8827C115.216 23.6634 116.806 24.478 118.183 24.4429C119.137 24.4429 120.02 24.124 120.585 23.7694C121.08 23.3438 121.22 22.99 121.22 22.7054C121.22 22.5287 121.185 22.4579 121.115 22.3507C121.079 22.2443 120.938 22.1026 120.655 21.9256C120.16 21.571 119.101 21.1807 117.83 20.9329H117.795C116.699 20.7208 115.64 20.4364 114.722 20.0106C113.768 19.5502 112.92 18.9119 112.284 17.9548C111.896 17.3166 111.684 16.5365 111.684 15.7214C111.684 14.0905 112.602 12.7076 113.768 11.8211C115.004 10.9704 116.488 10.5094 118.112 10.5094C120.549 10.5094 122.28 11.6795 123.41 12.4593C124.258 13.0265 124.505 14.1968 123.975 15.0824C123.41 15.9335 122.244 16.1819 121.362 15.579C120.231 14.8347 119.243 14.2671 118.112 14.2671C117.229 14.2671 116.452 14.5507 115.993 14.9053C115.534 15.2246 115.428 15.5437 115.428 15.7209C115.428 15.8624 115.428 15.8981 115.499 16.0044C115.534 16.075 115.639 16.2168 115.887 16.3589C116.347 16.6778 117.265 16.9969 118.466 17.2096L118.501 17.2454H118.536C119.702 17.4577 120.797 17.7771 121.821 18.2734C122.774 18.699 123.729 19.3725 124.329 20.365C124.753 21.0739 125 21.8893 125 22.705C125 24.4423 124.046 25.896 122.775 26.8172C121.503 27.7034 119.914 28.236 118.183 28.236C115.428 28.2005 113.309 26.924 111.897 25.7895C111.119 25.1521 111.013 23.9467 111.649 23.1664ZM46.4884 24.5522C46.49 24.5531 46.4917 24.5536 46.4936 24.5544C46.4936 24.5544 46.4926 28.7673 46.4926 29.2047C46.4926 29.671 45.9346 30.1828 44.672 30.8435C42.1911 32.1416 29.3376 37.4465 26.6012 38.8781C23.8649 40.3106 22.3446 40.2966 20.1831 39.2593C18.0215 38.2217 4.34341 32.6757 1.8796 31.4939C0.64812 30.9027 0.000596742 30.4045 0.000596742 29.9332C0.000596742 29.4638 0.000596742 25.2191 0.000596742 25.2159C0.0198386 25.6856 0.648405 26.1847 1.8796 26.7752C4.34341 27.9567 18.0214 33.5035 20.1831 34.5402C22.3448 35.5778 23.865 35.5918 26.6012 34.1594C29.3376 32.7276 42.191 27.4223 44.672 26.1245C45.8756 25.4948 46.4684 24.9986 46.4884 24.5522ZM44.6719 18.432C42.1908 19.7303 29.3374 25.0354 26.6011 26.4678C23.8648 27.8996 22.3445 27.8854 20.183 26.8481C18.0212 25.8111 4.34327 20.2644 1.87946 19.0826C0.648263 18.4923 0.019696 17.9935 0.00045421 17.5237C0.00045421 17.5331 0.00045421 21.772 0.00045421 22.2418C0.00045421 22.7128 0.647978 23.2106 1.87946 23.8016C4.34327 24.9837 18.0212 30.53 20.183 31.5667C22.3446 32.6043 23.8649 32.6183 26.6011 31.1867C29.3374 29.7543 42.1907 24.4496 44.6719 23.1511C45.9346 22.4902 46.4924 21.9787 46.4924 21.5124C46.4924 21.0746 46.4934 16.8615 46.4934 16.8615C46.4916 16.8611 46.49 16.8604 46.4884 16.8597C46.4686 17.3056 45.8758 17.8021 44.6719 18.432ZM46.4934 8.88454C46.4934 8.88454 46.4924 13.0978 46.4924 13.5352C46.4924 14.001 45.9344 14.5125 44.6719 15.1734C42.1908 16.4715 29.3374 21.7768 26.6011 23.2093C23.8648 24.6412 22.3445 24.627 20.183 23.5896C18.0212 22.5527 4.34327 17.0059 1.87946 15.8241C0.647978 15.2332 0.00045421 14.735 0.00045421 14.2641C0.00045421 13.7941 0.00045421 9.55212 0.00045421 9.54626C-0.0187876 9.07597 0.573291 8.63401 1.78439 8.15815C4.20458 7.2067 17.8076 1.8497 20.6827 0.814271C23.5575 -0.221017 24.5548 -0.258502 27.0012 0.641437C29.4479 1.54109 42.2243 6.64542 44.6419 7.53477C45.887 7.99232 46.5104 8.4091 46.4887 8.88254C46.49 8.88325 46.492 8.88397 46.4934 8.88454ZM18.2982 5.65921L22.9497 6.0787L24.4077 8.50968L25.3102 6.33037L29.337 5.91088L26.2128 4.73709L27.0427 2.74292L23.9769 3.74973L20.7282 2.47336L21.7695 4.40187L18.2982 5.65921ZM13.7434 11.6038C16.9236 11.6038 19.5018 10.6006 19.5018 9.36312C19.5018 8.12581 16.9237 7.12257 13.7433 7.12257C10.5631 7.12257 7.9851 8.12581 7.9851 9.36312C7.98482 10.6006 10.5631 11.6038 13.7434 11.6038ZM27.4212 11.6892L16.6469 13.3495L24.1679 16.4798L27.4212 11.6892ZM40.4757 9.03706L34.1003 6.50592L27.0452 9.30704L33.4138 11.8356L34.104 11.5623L40.4757 9.03706Z" fill="white"/>
</svg>
