<svg width="53" height="40" viewBox="0 0 53 40" fill="none" xmlns="http://www.w3.org/2000/svg">
<path d="M45.6372 22.8489C43.7881 22.8586 42.1812 23.3039 40.8355 23.9622C40.3418 22.9844 39.8481 22.1132 39.761 21.4742C39.6642 20.7288 39.548 20.2738 39.6642 19.3832C39.7804 18.4926 40.3031 17.2244 40.2934 17.1276C40.2837 17.0308 40.1773 16.5758 39.1124 16.5662C38.0475 16.5565 37.1279 16.7694 37.0214 17.0502C36.9149 17.3309 36.7116 17.9699 36.5761 18.6281C36.3921 19.5962 34.4463 23.0522 33.333 24.8625C32.9749 24.1558 32.6651 23.5362 32.5973 23.0425C32.5005 22.2971 32.3843 21.8421 32.5005 20.9515C32.6167 20.0609 33.1394 18.7927 33.1297 18.6959C33.1201 18.5991 33.0136 18.1441 31.9487 18.1344C30.8838 18.1247 29.9642 18.3377 29.8577 18.6185C29.7512 18.8992 29.635 19.5575 29.4124 20.1964C29.1897 20.8353 26.605 26.605 25.9273 28.0958C25.5788 28.8606 25.2787 29.4705 25.0658 29.8867C25.0658 29.8867 25.0561 29.9158 25.027 29.9642C24.8431 30.3224 24.7366 30.516 24.7366 30.516C24.7366 30.516 24.7366 30.516 24.7366 30.5257C24.5914 30.787 24.4365 31.0291 24.3591 31.0291C24.301 31.0291 24.1945 30.332 24.3784 29.3833C24.7657 27.3794 25.6853 24.2623 25.6756 24.1558C25.6756 24.0977 25.8499 23.5556 25.0754 23.2749C24.3203 22.9941 24.0493 23.4588 23.9815 23.4588C23.9138 23.4588 23.8654 23.6234 23.8654 23.6234C23.8654 23.6234 24.7076 20.119 22.2584 20.119C20.7288 20.119 18.6184 21.7937 17.5729 23.3039C16.9146 23.6621 15.5109 24.4268 14.0104 25.2497C13.4393 25.5692 12.8488 25.8886 12.297 26.1887C12.2582 26.15 12.2195 26.1016 12.1808 26.0629C9.21852 22.8973 3.73927 20.6611 3.97161 16.4113C4.05873 14.8624 4.59117 10.7965 14.4945 5.85935C22.6456 1.84188 29.1316 2.95515 30.2546 5.42372C31.8616 8.94748 26.7792 15.4916 18.3571 16.4403C15.1431 16.7985 13.4587 15.5594 13.0327 15.0947C12.5874 14.6107 12.5196 14.5816 12.3551 14.6784C12.084 14.8236 12.2582 15.2593 12.3551 15.511C12.6068 16.1692 13.6426 17.3309 15.3948 17.9021C16.9437 18.4055 20.7095 18.6862 25.269 16.9243C30.3708 14.9495 34.3592 9.46055 33.1878 4.86224C32.0165 0.196167 24.2719 -1.34306 16.9437 1.26104C12.5874 2.80994 7.86323 5.24947 4.46532 8.42472C0.428487 12.2002 -0.210436 15.4819 0.0509415 16.8566C0.989965 21.7356 7.71802 24.9109 10.4092 27.2633C10.2737 27.3407 10.1479 27.4085 10.0414 27.4666C8.69577 28.1345 3.56502 30.8161 2.28717 33.6525C0.835075 36.8665 2.51951 39.1705 3.63278 39.4803C7.08878 40.4387 10.6416 38.7155 12.5487 35.8694C14.4558 33.0233 14.2234 29.3253 13.3425 27.6311C13.3328 27.6118 13.3231 27.5924 13.3038 27.5731C13.6523 27.3698 14.0104 27.1568 14.359 26.9535C15.0463 26.5469 15.7239 26.1694 16.3048 25.8596C15.9756 26.7599 15.7336 27.8344 15.6174 29.3833C15.4722 31.2033 16.2176 33.5654 17.1954 34.4947C17.631 34.9013 18.1441 34.911 18.4732 34.911C19.6155 34.911 20.1286 33.9623 20.6998 32.8393C21.3968 31.4647 22.026 29.8674 22.026 29.8674C22.026 29.8674 21.2419 34.1849 23.3716 34.1849C24.1461 34.1849 24.9302 33.1782 25.2787 32.6651V32.6748C25.2787 32.6748 25.2981 32.6457 25.3368 32.578C25.4143 32.4521 25.4627 32.3747 25.4627 32.3747V32.3553C25.7724 31.8132 26.4695 30.5837 27.5053 28.5411C28.8412 25.908 30.1287 22.6166 30.1287 22.6166C30.1287 22.6166 30.2449 23.4201 30.6418 24.756C30.8741 25.5401 31.3582 26.4017 31.7454 27.2342C31.4356 27.6699 31.242 27.9119 31.242 27.9119C31.242 27.9119 31.242 27.9119 31.2517 27.9216C31 28.2507 30.7289 28.6089 30.4288 28.9574C29.3736 30.2159 28.1152 31.6583 27.9409 32.0746C27.7376 32.5683 27.786 32.9265 28.1732 33.2169C28.454 33.4299 28.9574 33.4589 29.4705 33.4299C30.4192 33.3621 31.0871 33.1298 31.4163 32.9845C31.9293 32.8006 32.5295 32.5199 33.091 32.1036C34.1269 31.3388 34.7561 30.2449 34.698 28.8025C34.669 28.0087 34.4076 27.2149 34.0881 26.4695C34.1849 26.3339 34.2721 26.1984 34.3689 26.0629C36.0049 23.6718 37.2731 21.0483 37.2731 21.0483C37.2731 21.0483 37.3892 21.8518 37.7861 23.1877C37.9798 23.8654 38.3767 24.6011 38.7252 25.3175C37.1859 26.5663 36.2372 28.0184 35.8984 28.9671C35.2885 30.729 35.7629 31.5228 36.6632 31.7067C37.0698 31.7938 37.6506 31.6002 38.0766 31.4163C38.6187 31.242 39.2576 30.9419 39.8675 30.4966C40.9033 29.7318 41.9004 28.667 41.8423 27.2246C41.8133 26.5663 41.639 25.9177 41.397 25.2884C42.7039 24.7463 44.3883 24.4462 46.5375 24.6979C51.1454 25.24 52.0554 28.1152 51.8812 29.3253C51.7069 30.5353 50.7389 31.1936 50.4194 31.3969C50.0999 31.6002 49.9934 31.668 50.0225 31.8132C50.0612 32.0262 50.2161 32.0165 50.4872 31.9778C50.8647 31.91 52.9073 31 52.9944 28.7735C53.1397 25.9273 50.4291 22.8199 45.6372 22.8489ZM10.0898 34.8336C8.56024 36.4986 6.43049 37.1279 5.51083 36.5954C4.5234 36.0243 4.91063 33.5654 6.78868 31.8035C7.931 30.729 9.40246 29.7318 10.3802 29.122C10.6029 28.9864 10.932 28.7928 11.3289 28.5508C11.3967 28.5121 11.4354 28.4927 11.4354 28.4927C11.5128 28.4443 11.5903 28.3959 11.6677 28.3475C12.3551 30.8645 11.6968 33.0814 10.0898 34.8336ZM21.2225 27.2633C20.6901 28.5605 19.5768 31.881 18.8992 31.697C18.3183 31.5421 17.9602 29.0252 18.783 26.5372C19.1993 25.2884 20.0802 23.7976 20.5933 23.2168C21.4258 22.2874 22.3455 21.9776 22.5681 22.3552C22.8489 22.8489 21.5517 26.4501 21.2225 27.2633ZM30.4095 31.6583C30.1868 31.7745 29.9739 31.8519 29.877 31.7938C29.8093 31.7551 29.9738 31.6002 29.9738 31.6002C29.9738 31.6002 31.1258 30.3611 31.5808 29.7996C31.8422 29.4705 32.152 29.0832 32.4811 28.6476V28.7735C32.4811 30.2546 31.0484 31.2517 30.4095 31.6583ZM37.4957 30.0416C37.3311 29.9255 37.3602 29.5382 37.912 28.3282C38.125 27.8538 38.6284 27.06 39.4899 26.2952C39.5867 26.605 39.6545 26.9051 39.6448 27.1858C39.6351 29.0542 38.2992 29.7512 37.4957 30.0416Z" fill="white"/>
</svg>
