<svg width="77" height="40" viewBox="0 0 77 40" fill="none" xmlns="http://www.w3.org/2000/svg">
<path fill-rule="evenodd" clip-rule="evenodd" d="M70.3688 20.1876C70.3359 20.1199 70.3123 20.068 70.2927 20.0248C70.2715 19.9781 70.2548 19.9415 70.236 19.906L69.8418 19.1568L69.8397 19.1529C69.0073 17.5709 68.1762 15.9914 67.3362 14.412C67.2396 14.227 67.2517 14.1184 67.3844 13.9615C68.5908 12.5526 69.7921 11.1386 70.9944 9.72359L71.9695 8.57608C72.0218 8.51173 72.0701 8.44738 72.0902 8.33476L70.7508 8.68468C68.8967 9.17536 67.0466 9.66604 65.1965 10.1607C65.0235 10.205 64.9471 10.1567 64.8586 10.0119C63.8049 8.25432 62.7511 6.50073 61.6933 4.74714C61.637 4.65464 61.5807 4.56616 61.4641 4.48974C61.4379 4.63436 61.4113 4.77937 61.3847 4.92453L61.3847 4.92493L61.3846 4.92506C61.3255 5.248 61.2662 5.57166 61.2107 5.89341L60.3299 10.8525C60.3205 10.9041 60.3101 10.9561 60.2996 11.0082C60.2743 11.1347 60.2488 11.2621 60.2374 11.3875C60.2213 11.5564 60.1368 11.6207 59.98 11.669C57.796 12.3527 55.6161 13.0445 53.4362 13.7363C53.3396 13.7685 53.2471 13.8047 53.1426 13.8972C54.1089 14.2802 55.074 14.6644 56.0437 15.0505L56.0446 15.0508L56.0486 15.0524C56.8693 15.3792 57.6933 15.7072 58.524 16.0369C58.5052 16.0521 58.4881 16.0664 58.4722 16.0797C58.4335 16.112 58.4013 16.1388 58.3671 16.1616L57.7111 16.5853L57.7106 16.5856C56.8142 17.1645 55.9162 17.7444 55.0208 18.3294C54.8881 18.4179 54.7835 18.43 54.6307 18.3616C53.9248 18.0438 53.2167 17.7295 52.508 17.4149L52.5076 17.4147C51.88 17.1361 51.2519 16.8573 50.6248 16.5758C50.0255 16.3104 49.4866 15.9524 49.0683 15.4416C48.1191 14.2793 48.3081 12.9601 49.571 12.1557C49.9853 11.8902 50.4559 11.6931 50.9224 11.5403C52.7697 10.9396 54.62 10.3569 56.4707 9.77399L57.3496 9.49712C57.5306 9.44081 57.611 9.36037 57.6472 9.16732C57.9328 7.51428 58.2304 5.86124 58.528 4.2082C58.5571 4.0485 58.5836 3.88814 58.6101 3.72782L58.6102 3.72757C58.7307 2.99968 58.8511 2.27243 59.2037 1.60999C59.3686 1.3003 59.5657 0.994626 59.803 0.733196C60.6557 -0.211972 61.8421 -0.24817 62.7431 0.652756C63.0487 0.958428 63.3102 1.31639 63.5354 1.68239C64.5288 3.29923 65.5022 4.92813 66.4755 6.55704C66.5881 6.7501 66.6927 6.79032 66.9058 6.72999C68.5013 6.30365 70.0967 5.88088 71.6921 5.45812C72.4898 5.24675 73.2874 5.03538 74.0851 4.82356C74.5798 4.69486 75.0785 4.6466 75.5853 4.7391C76.6873 4.94422 77.1699 5.78482 76.7999 6.85065C76.631 7.33731 76.3374 7.74755 76.0076 8.13366L76.0073 8.13398L76.007 8.1343C74.3381 10.1008 72.6692 12.0674 70.9922 14.0259C70.8554 14.1868 70.8514 14.3034 70.9479 14.4804C71.8123 16.1084 72.6676 17.7364 73.5243 19.367L73.9323 20.1433C74.1695 20.5938 74.3505 21.0644 74.3586 21.5832C74.3706 22.7617 73.5059 23.7269 72.3355 23.8999C71.6799 23.9964 71.0686 23.8556 70.4532 23.6666C68.953 23.2041 67.4528 22.7456 65.9486 22.2951C65.8078 22.2549 65.7555 22.1986 65.7314 22.0498C65.6177 21.3543 65.497 20.6606 65.3763 19.9664C65.3134 19.6047 65.2504 19.2428 65.1884 18.8804C65.186 18.8633 65.188 18.8447 65.1909 18.8183C65.1927 18.8013 65.1949 18.781 65.1965 18.7557C66.0056 18.9804 66.8119 19.2032 67.6241 19.4277C68.5279 19.6774 69.4388 19.9291 70.3688 20.1876ZM67.4448 35.5918C66.0934 35.5878 64.738 35.5838 63.3866 35.5878C63.2096 35.5878 63.1091 35.5355 63.0085 35.3827C61.4078 32.9453 59.799 30.508 58.1902 28.0747L58.1899 28.0742C58.1377 27.998 58.0854 27.9216 57.9931 27.7932C57.6472 30.4235 57.3093 32.9936 56.9715 35.5717H53.4281L53.4562 35.3278L53.4563 35.3269C53.486 35.0673 53.5151 34.8136 53.5488 34.5622C53.8947 31.9197 54.2406 29.2813 54.5905 26.6388C54.9203 24.1171 55.2541 21.5912 55.5879 19.0695C55.596 18.993 55.6483 18.9005 55.7086 18.8603C56.4953 18.3462 57.2837 17.8372 58.0727 17.3277L58.0733 17.3273C58.5063 17.0477 58.9395 16.768 59.3726 16.4873C59.3814 16.4807 59.3939 16.4777 59.4132 16.4731C59.4292 16.4692 59.4499 16.4643 59.4772 16.4552L59.1938 18.616L59.1934 18.6191C58.9193 20.7093 58.6464 22.7912 58.3712 24.8732C58.3823 24.8787 58.3915 24.8862 58.4014 24.8943C58.4058 24.8979 58.4104 24.9016 58.4154 24.9054L58.4204 24.8998L58.4228 24.8972C60.3388 22.7723 62.2549 20.6473 64.2151 18.4782L64.3679 19.3631C64.3973 19.535 64.4265 19.7071 64.4557 19.8793L64.4574 19.8895C64.5636 20.5157 64.67 21.1432 64.7862 21.7682C64.8144 21.9291 64.7742 22.0296 64.6656 22.1423C63.4268 23.4414 62.188 24.7445 60.9533 26.0436C60.9375 26.0606 60.9216 26.0781 60.9055 26.0958C60.8682 26.1368 60.8292 26.1797 60.7844 26.2246C60.7985 26.2472 60.8116 26.2693 60.8244 26.2909L60.8245 26.2909C60.8482 26.3308 60.8709 26.3691 60.897 26.4056L67.3 35.3907C67.3287 35.428 67.3635 35.4612 67.3986 35.4947L67.4103 35.5058C67.4205 35.5156 67.4307 35.5255 67.4407 35.5355C67.4424 35.5454 67.4434 35.554 67.4439 35.5618C67.4448 35.5729 67.4448 35.5823 67.4448 35.5918ZM25.4592 27.8052C25.4449 27.7294 25.4315 27.6443 25.4172 27.5528C25.3789 27.3097 25.3337 27.0222 25.246 26.7474C24.6508 24.9174 22.7765 23.9119 20.8299 24.3664C18.6982 24.8611 17.1739 26.5383 16.9527 28.7142C16.7878 30.323 17.6565 31.8755 19.2694 32.4546C20.5685 32.9252 21.8153 32.7281 22.9776 32.0323C24.514 31.1113 25.3506 29.7398 25.4592 27.8052ZM16.096 34.6104C16.0596 34.8847 16.0237 35.1531 15.9883 35.4178C15.922 35.9141 15.8573 36.3976 15.7944 36.8829C15.6657 37.8682 15.537 38.8577 15.4123 39.843C15.3962 39.9597 15.364 40.0079 15.2393 40.0079C14.266 40.0039 13.2927 40.0039 12.3194 40.0039C12.3063 40.0039 12.2915 39.9988 12.2683 39.9908C12.2559 39.9865 12.2411 39.9814 12.2228 39.9758C12.253 39.7425 12.2822 39.5092 12.3113 39.276C12.3405 39.0427 12.3696 38.8094 12.3998 38.5761C12.613 36.9392 12.8302 35.3022 13.0473 33.6653C13.1229 33.0984 13.1937 32.5304 13.2645 31.9623C13.4273 30.6562 13.5901 29.3495 13.8115 28.0546C14.3746 24.7606 17.1699 21.9251 20.4478 21.2172C22.3462 20.807 24.1681 20.996 25.8252 22.0658C27.4782 23.1317 28.4274 24.6801 28.6446 26.6268C28.9503 29.3778 27.9368 31.6623 25.9821 33.5526C24.699 34.7954 23.1626 35.5838 21.389 35.8492C19.563 36.1227 17.8456 35.8211 16.3092 34.7432C16.2744 34.7183 16.2381 34.6966 16.1927 34.6693L16.1925 34.6692L16.1925 34.6692C16.1644 34.6524 16.1328 34.6334 16.096 34.6104ZM11.3181 21.3387L11.3176 21.3391L11.3139 21.3419C11.2693 21.2708 11.2259 21.2 11.1828 21.1297C11.0624 20.9335 10.9444 20.7412 10.8111 20.5576C10.3526 19.9181 9.78148 19.4395 8.95697 19.3792C8.26921 19.3309 7.67798 19.5561 7.21143 20.0669C6.79314 20.5214 6.73684 21.1649 7.12697 21.6797C7.55732 22.2428 8.03192 22.7777 8.51053 23.3006C8.87663 23.6961 9.24946 24.0849 9.62247 24.4739L9.62251 24.474C10.065 24.9354 10.5077 25.3971 10.9398 25.8706C11.6638 26.663 12.2389 27.5518 12.4159 28.6338C12.6291 29.9208 12.3716 31.1475 11.7603 32.2817C10.6341 34.3772 8.85643 35.5918 6.51563 35.9699C5.48197 36.1388 4.44832 36.1026 3.4388 35.809C2.09948 35.4148 1.16638 34.534 0.567101 33.2952C0.422141 32.9971 0.30136 32.6878 0.178197 32.3724C0.120247 32.2241 0.0617708 32.0743 0 31.9237C0.643262 31.5801 1.27566 31.2413 1.90646 30.9033C2.42732 30.6242 2.94709 30.3457 3.47098 30.0656C3.48595 30.1015 3.49926 30.1352 3.51193 30.1673L3.51194 30.1674C3.53329 30.2215 3.55284 30.271 3.57555 30.319C3.63538 30.4386 3.69187 30.5605 3.7484 30.6825L3.74841 30.6825C3.87809 30.9623 4.00799 31.2425 4.17885 31.4974C4.90281 32.5753 6.07321 32.9011 7.25969 32.3702C7.56537 32.2334 7.85897 32.0404 8.10833 31.8192C8.87251 31.1395 9.0173 30.1943 8.4502 29.3416C8.15172 28.8921 7.78572 28.4864 7.42025 28.0813L7.32002 27.9701C6.94985 27.559 6.5735 27.1528 6.19702 26.7465L6.19699 26.7464L6.19696 26.7464C5.61221 26.1153 5.02715 25.4838 4.46441 24.833C3.82894 24.0929 3.39456 23.2322 3.25781 22.2428C3.109 21.1649 3.32216 20.1474 3.88524 19.2384C5.28087 16.982 7.30796 15.8076 9.99063 15.9042C11.519 15.9605 12.7376 16.6764 13.6828 17.8629C13.8864 18.1159 14.0795 18.3773 14.2787 18.6472C14.355 18.7505 14.4323 18.8551 14.5113 18.9609C13.4229 19.7722 12.3705 20.5555 11.3181 21.3387ZM40.421 31.0791C40.244 32.4386 40.0751 33.7296 39.9022 35.0207C39.8941 35.085 39.8418 35.1735 39.7855 35.2017C37.1471 36.4244 33.6681 36.2554 31.5002 33.79C30.3339 32.4667 29.8472 30.8981 29.9196 29.1526C30.0885 25.1105 33.4388 21.5792 37.4488 21.0885C39.7896 20.7989 41.8448 21.4344 43.4335 23.2523C44.5154 24.4911 45.0141 25.9712 44.9417 27.6041C44.9036 28.4558 44.7901 29.305 44.6767 30.1536L44.6767 30.1538L44.6766 30.1543C44.6465 30.3795 44.6165 30.6046 44.5878 30.8298C44.4528 31.9157 44.3075 33.0016 44.1622 34.0875L44.1611 34.0959C44.1033 34.5275 44.0456 34.9591 43.9885 35.3907L43.9863 35.4049C43.979 35.4532 43.971 35.5054 43.9563 35.5677H40.7991C40.8393 35.2178 40.8795 34.8759 40.9238 34.534C40.9921 34.0101 41.0622 33.4868 41.1323 32.9638C41.2974 31.7322 41.4623 30.5017 41.6035 29.2652C41.7282 28.1712 41.6517 27.0813 41.149 26.0677C40.6181 24.9898 39.7212 24.4187 38.5468 24.294C36.1135 24.0366 33.8008 25.7259 33.282 28.1189C32.9401 29.6996 33.4791 31.2119 34.7379 32.0524C35.9646 32.8689 37.2798 32.8689 38.6151 32.342C39.2949 32.0766 39.87 31.6502 40.421 31.0791ZM53.7177 21.3942C53.6178 22.1491 53.5198 22.8964 53.4211 23.6493L53.2874 24.6681C53.0639 24.6681 52.8418 24.6676 52.6206 24.6672C52.1809 24.6663 51.7447 24.6654 51.3085 24.6681C50.7776 24.6721 50.295 25.014 50.1341 25.5087C50.0803 25.67 50.0575 25.8426 50.035 26.0124C50.0305 26.0457 50.0261 26.079 50.0215 26.112C49.6877 28.6257 49.3579 31.1395 49.0281 33.6572C48.9786 34.0292 48.9306 34.3998 48.8823 34.7722L48.8817 34.7764L48.8815 34.7782C48.8475 35.0401 48.8135 35.3029 48.7787 35.5677H45.4927C45.5531 35.085 45.6134 34.6145 45.6737 34.1479L45.6738 34.1476C45.8869 32.5188 46.1001 30.89 46.3173 29.2612C46.3746 28.8345 46.4296 28.407 46.4847 27.9794L46.4848 27.9786C46.6115 26.9957 46.7383 26.012 46.8924 25.0341C47.186 23.1518 49.0602 21.4786 50.9627 21.3982C51.5788 21.3737 52.195 21.3805 52.8199 21.3875H52.8199C53.1169 21.3908 53.4158 21.3942 53.7177 21.3942ZM71.322 34.1841V35.5717H71.5955V33.9106H71.1772L70.6905 35.1735L70.1958 33.9106H69.7735V35.5717H70.047V34.1841H70.055L70.598 35.5717H70.771L71.3139 34.1841H71.322ZM68.9088 35.5717V34.1318H69.4316V33.9106H68.1164V34.1318H68.6353V35.5717H68.9088ZM19.7319 16.6281H18.9154L19.5388 15.3934L19.7319 16.6281ZM18.5012 17.4245H19.8566L19.9853 18.2691H20.8741L20.1542 14.3114H19.2291L17.1096 18.2691H18.0708L18.5012 17.4245ZM24.2285 15.1078H24.7111C24.9243 15.1078 25.0731 15.2285 25.0731 15.4698C25.0731 15.8277 24.8398 16.0208 24.5502 16.0208H24.0676L24.2285 15.1078ZM24.8076 14.3114H23.5407L22.8409 18.2691H23.6654L23.9228 16.8212H24.4698C25.3345 16.8212 25.9378 16.246 25.9378 15.3893C25.9378 14.7056 25.4713 14.3114 24.8076 14.3114ZM29.5616 16.6281H28.7452L29.3686 15.3934L29.5616 16.6281ZM28.3349 17.4245H29.6903L29.819 18.2691H30.7079L29.988 14.3114H29.0629L26.9433 18.2691H27.9046L28.3349 17.4245ZM34.1507 18.3334C34.4604 18.3334 34.7701 18.257 35.0476 18.1283L35.1562 17.1872C34.931 17.3762 34.5931 17.5089 34.2432 17.5089C33.6721 17.5089 33.3101 17.0585 33.3101 16.4833C33.3101 15.7272 33.9537 15.0756 34.6736 15.0756C35.0235 15.0756 35.305 15.2083 35.478 15.4014L35.5946 14.4522C35.3614 14.3235 35.0758 14.2471 34.7621 14.2471C33.5032 14.2471 32.4454 15.3049 32.4454 16.5638C32.4454 17.5491 33.105 18.3334 34.1507 18.3334ZM38.3778 16.6724H40.0993L39.8217 18.2651H40.6462L41.3461 14.3074H40.5175L40.24 15.872H38.5186L38.7961 14.3074H37.9716L37.2718 18.2651H38.0963L38.3778 16.6724ZM43.8276 14.3114L43.1318 18.2691L45.3158 18.2651L45.4565 17.4687H44.0891L44.2298 16.6724H45.4887L45.6295 15.876H44.3746L44.5154 15.1078H45.8829L46.0236 14.3114H43.8276Z" fill="white"/>
</svg>
