<svg width="208" height="32" viewBox="0 0 208 32" fill="none" xmlns="http://www.w3.org/2000/svg">
<path d="M49.6342 0.106445C43.9047 0.106445 38.6306 3.05752 33.5313 8.21307C28.5216 2.97746 23.158 0.106445 17.1642 0.106445C7.24018 0.106445 0 6.59137 0 15.3236C0 24.0558 7.24018 30.4588 17.1642 30.4588C23.2637 30.4588 27.9909 27.8391 33.267 22.6184C38.3642 27.854 43.5529 30.4737 49.6342 30.4737C59.5582 30.4588 66.7984 24.0781 66.7984 15.3236C66.7984 6.56717 59.5561 0.106445 49.6342 0.106445ZM17.2313 21.2984C13.0266 21.2984 10.5197 18.7606 10.5197 15.4036C10.5197 12.0485 13.0266 9.43818 17.2313 9.43818C20.7731 9.43818 23.6683 12.0485 26.8015 15.5675C23.8452 18.8425 20.7202 21.2984 17.2313 21.2984ZM49.3312 21.2984C45.8443 21.2984 42.8942 18.7606 39.761 15.4036C42.9836 11.8847 45.7549 9.43818 49.3312 9.43818C53.5359 9.43818 56.0164 12.0802 56.0164 15.4036C56.0164 18.7271 53.5359 21.2984 49.3312 21.2984Z" fill="white"/>
<path d="M87.6547 20.4621C87.6832 19.7192 87.3375 19.0043 86.7174 18.5239C85.7252 17.8704 84.6029 17.3956 83.4155 17.1293C81.1932 16.6266 79.093 15.7534 77.2184 14.5506C75.8378 13.5936 75.051 12.0818 75.112 10.4973C75.0937 8.80488 76.0005 7.2167 77.5274 6.26528C79.341 5.11091 81.5185 4.54118 83.7246 4.64172C85.9672 4.55049 88.1691 5.20773 89.9217 6.49056C91.4405 7.58535 92.2944 9.2778 92.2233 11.0466V11.1285H87.7421C87.7787 10.2348 87.3863 9.36903 86.6706 8.76206C85.835 8.12157 84.7655 7.79946 83.6798 7.86277C82.6592 7.80505 81.6487 8.06757 80.813 8.60752C80.1685 9.07299 79.7964 9.78423 79.8025 10.5364C79.8168 11.2179 80.199 11.8491 80.8212 12.2233C81.9841 12.8545 83.2346 13.3367 84.5399 13.6588C86.6483 14.1075 88.6225 14.9826 90.3121 16.2207C91.6194 17.2783 92.3412 18.8162 92.2761 20.4118C92.3351 22.1061 91.4568 23.7129 89.938 24.683C88.1122 25.8057 85.9367 26.355 83.7408 26.247C81.4067 26.2954 79.1133 25.6735 77.1838 24.4726C75.3661 23.3815 74.3251 21.4824 74.4573 19.4958V19.4064H79.0523C78.9547 20.4602 79.4223 21.4917 80.3088 22.1694C81.3518 22.8118 82.5982 23.119 83.8506 23.0445C84.8692 23.1078 85.8818 22.8565 86.7276 22.3314C87.3477 21.8827 87.6933 21.1864 87.6547 20.4621ZM105.583 23.7371C105.099 24.5136 104.408 25.1671 103.575 25.6344C101.253 26.8074 98.3655 26.4294 96.493 24.7109C95.4784 23.631 94.9701 21.987 94.9701 19.7825V10.3223H99.5733V19.8309C99.5041 20.6818 99.7237 21.5308 100.202 22.2625C100.657 22.7727 101.352 23.0501 102.07 23.0092C102.723 23.0203 103.369 22.9123 103.973 22.6852C104.49 22.4711 104.937 22.1341 105.266 21.7114V10.3223H109.888V25.9919H105.949L105.583 23.7371ZM128.518 18.5686C128.623 20.5626 128.001 22.5307 126.747 24.1635C125.594 25.5674 123.758 26.3587 121.841 26.2786C121.017 26.2898 120.202 26.1352 119.452 25.8224C118.754 25.5059 118.148 25.046 117.681 24.4763V32.0002H113.08V10.2981H117.24L117.514 12.147C117.982 11.499 118.606 10.9572 119.338 10.5662C120.102 10.1827 120.962 9.98904 121.835 10.0077C123.799 9.93877 125.661 10.8008 126.767 12.2885C128.026 14.0647 128.646 16.1556 128.536 18.2707L128.518 18.5686ZM123.896 18.2446C123.949 17.0027 123.673 15.7683 123.091 14.6456C122.636 13.7817 121.67 13.2417 120.621 13.2678C120.003 13.251 119.391 13.3851 118.85 13.6551C118.356 13.9232 117.951 14.3105 117.681 14.7741V21.6556C117.957 22.0894 118.362 22.4394 118.85 22.6684C119.401 22.9123 120.009 23.0315 120.621 23.0166C121.625 23.0725 122.577 22.6051 123.081 21.8082C123.652 20.8103 123.925 19.6913 123.868 18.5648L123.896 18.2446ZM138.525 26.26C136.301 26.3531 134.142 25.5599 132.602 24.0872C131.104 22.5828 130.311 20.6017 130.39 18.5667V17.9914C130.299 15.9024 131.045 13.8562 132.486 12.2345C135.414 9.39509 140.365 9.24428 143.49 11.9012C144.834 13.3348 145.525 15.1855 145.42 17.0735V19.3766H135.18V19.466C135.225 20.4062 135.626 21.3037 136.313 22.0037C137.021 22.6815 138.017 23.0445 139.039 22.9998C139.899 23.0185 140.758 22.9216 141.589 22.7168C142.358 22.4897 143.1 22.1918 143.803 21.825L145.052 24.4447C144.234 25.0256 143.307 25.465 142.317 25.7405C141.091 26.1017 139.81 26.2767 138.525 26.26ZM138.108 13.2883C137.311 13.2641 136.555 13.6011 136.081 14.1894C135.559 14.8876 135.252 15.7031 135.195 16.5484L135.239 16.621H140.906V16.2505C140.949 15.4816 140.707 14.7201 140.215 14.0945C139.706 13.5136 138.917 13.1989 138.106 13.2492C138.108 13.2473 138.108 13.2883 138.108 13.2883ZM157.206 13.9288H155.506C154.915 13.9064 154.327 14.0405 153.815 14.316C153.367 14.5841 153.016 14.9677 152.806 15.4183V25.9658H148.203V10.2962H152.515L152.719 12.6143C153.06 11.8658 153.599 11.2048 154.286 10.6928C154.915 10.2367 155.697 9.99276 156.5 10.0039C156.714 10.0021 156.927 10.0188 157.137 10.0523L157.729 10.1752L157.206 13.9288ZM168.744 21.663C168.734 21.1733 168.458 20.7209 168.01 20.4547C167.173 20.0004 166.246 19.6969 165.282 19.5628C163.637 19.3264 162.073 18.7529 160.705 17.8853C159.684 17.1703 159.105 16.0457 159.156 14.869C159.154 13.5173 159.841 12.2438 161.014 11.4245C162.437 10.4303 164.2 9.92946 165.989 10.0132C167.85 9.92387 169.69 10.4191 171.202 11.4152C172.433 12.2382 173.132 13.5713 173.061 14.9658V15.0552H168.635C168.659 14.4799 168.419 13.9232 167.98 13.5154C167.447 13.0909 166.754 12.8787 166.05 12.9234C165.414 12.8917 164.786 13.0704 164.279 13.4261C163.869 13.7295 163.633 14.1894 163.641 14.6735C163.633 15.1483 163.887 15.597 164.314 15.8651C165.156 16.2971 166.083 16.5726 167.041 16.6769C168.73 16.904 170.338 17.4868 171.741 18.3787C172.762 19.1253 173.333 20.2741 173.272 21.4694C173.286 22.8528 172.546 24.1505 171.298 24.9306C169.759 25.8802 167.927 26.3494 166.075 26.2674C164.119 26.3587 162.193 25.7815 160.677 24.6457C159.443 23.8079 158.717 22.4841 158.719 21.0784V20.9983H162.942C162.897 21.7021 163.228 22.3817 163.828 22.8211C164.487 23.2214 165.268 23.4206 166.058 23.389C166.746 23.4281 167.429 23.2624 168.006 22.9179C168.474 22.6424 168.75 22.1694 168.744 21.663ZM183.357 26.26C181.137 26.3531 178.979 25.5599 177.444 24.0872C175.946 22.5828 175.151 20.6017 175.23 18.5667V17.9914C175.141 15.9042 175.883 13.858 177.32 12.2345C180.246 9.39509 185.199 9.24428 188.324 11.9012C189.672 13.333 190.361 15.1855 190.245 17.0735V19.3766H180.02V19.466C180.063 20.4062 180.46 21.3018 181.145 22.0037C181.856 22.6833 182.853 23.0483 183.879 22.9998C184.737 23.0185 185.593 22.9216 186.421 22.7168C187.193 22.4915 187.94 22.1937 188.643 21.825L189.892 24.4447C189.072 25.0237 188.145 25.4631 187.157 25.7405C185.929 26.1017 184.646 26.2767 183.357 26.26ZM182.95 13.2883C182.153 13.2622 181.393 13.5992 180.923 14.1894C180.401 14.8876 180.094 15.7031 180.037 16.5484L180.09 16.621H185.756V16.2505C185.799 15.4816 185.557 14.7201 185.065 14.0945C184.554 13.5117 183.763 13.1952 182.95 13.2492C182.95 13.2473 182.95 13.2883 182.95 13.2883ZM198.84 6.42354V10.2646H201.725V13.2343H198.84V21.218C198.793 21.6854 198.941 22.1527 199.256 22.5232C199.549 22.7895 199.952 22.931 200.362 22.9105C200.57 22.9123 200.777 22.8993 200.983 22.8714C201.19 22.8416 201.391 22.7988 201.593 22.7485L201.991 25.8038C201.546 25.9453 201.09 26.057 200.629 26.1371C200.155 26.2079 199.675 26.2414 199.195 26.2432C197.839 26.3252 196.508 25.8913 195.513 25.0423C194.556 23.9755 194.092 22.6088 194.22 21.2329V13.2306H191.723V10.2665H194.22V6.42354H198.84Z" fill="white"/>
<path fill-rule="evenodd" clip-rule="evenodd" d="M26.1121 2.31812C28.9179 3.86906 31.4269 5.82962 33.5394 8.12159C33.5394 8.12159 26.8746 15.4351 26.8746 15.4332L26.6082 15.2638C24.2172 12.5957 21.9685 10.5048 19.427 9.69488L26.1121 2.31812ZM47.4302 21.0093L40.7552 28.3041C37.9372 26.8072 35.41 24.8894 33.2832 22.6291L39.7813 15.3734C42.3208 18.0898 44.7748 20.2794 47.4302 21.0093Z" fill="#AAAAAA"/>
<path d="M99.555 5.06617H97.0948L96.617 6.3397H95.2019L97.5929 0.422645H99.0345L101.442 6.3397H100.016L99.555 5.06617ZM97.4404 4.13523H99.2114L98.3249 1.80788L97.4404 4.13523ZM106.724 4.29721C106.757 4.86136 106.565 5.41806 106.183 5.86119C105.624 6.42534 104.742 6.61339 103.969 6.33225C103.756 6.2466 103.568 6.11627 103.42 5.95056V8.05635H102.04V1.97731H103.306L103.385 2.49677C103.686 2.10578 104.182 1.88049 104.705 1.89725C105.287 1.86932 105.846 2.10578 106.199 2.52843C106.58 3.01624 106.771 3.60646 106.74 4.20598L106.724 4.29721ZM105.317 4.20971C105.335 3.85781 105.25 3.50778 105.069 3.19684C104.923 2.94549 104.628 2.79282 104.317 2.80771C104.13 2.80399 103.943 2.84308 103.776 2.92128C103.627 2.9939 103.505 3.10375 103.422 3.2378V5.16671C103.51 5.2896 103.631 5.38641 103.776 5.44972C103.949 5.51861 104.138 5.55212 104.325 5.54653C104.624 5.56701 104.912 5.43669 105.077 5.20581C105.252 4.92839 105.335 4.61001 105.317 4.28977V4.20971ZM110.646 6.34156C110.597 6.23729 110.552 6.13303 110.512 6.02504C110.475 5.91333 110.451 5.79975 110.441 5.68432C110.292 5.89657 110.097 6.07717 109.865 6.21123C109.603 6.36762 109.294 6.44396 108.979 6.42907C108.523 6.45513 108.074 6.32852 107.714 6.07158C107.413 5.82582 107.251 5.46834 107.271 5.09968C107.257 4.69566 107.48 4.31583 107.856 4.10358C108.383 3.8336 108.983 3.71072 109.583 3.7461H110.369V3.39793C110.38 3.21547 110.308 3.03672 110.174 2.90267C110.012 2.77606 109.802 2.71276 109.589 2.72207C109.398 2.7109 109.211 2.76303 109.058 2.86729C108.932 2.96225 108.861 3.10747 108.873 3.25642H107.519C107.507 2.86543 107.726 2.49864 108.094 2.30128C108.564 2.01455 109.123 1.87119 109.688 1.89539C110.225 1.87119 110.758 2.01083 111.201 2.29383C111.591 2.56194 111.809 2.99018 111.787 3.43703V5.25236C111.785 5.44599 111.805 5.63777 111.848 5.82768C111.882 6.01387 111.937 6.19633 112.014 6.37135L110.646 6.34156ZM109.363 5.52978C109.597 5.53536 109.827 5.48137 110.028 5.37524C110.197 5.29705 110.333 5.1723 110.418 5.01962V4.39589H109.629C109.383 4.381 109.141 4.44989 108.948 4.58953C108.802 4.70124 108.717 4.86881 108.717 5.04383C108.714 5.18161 108.78 5.31194 108.895 5.40131C109.028 5.4944 109.194 5.53909 109.363 5.52978ZM115.097 5.51861C115.316 5.52605 115.53 5.45903 115.698 5.33242C115.849 5.20953 115.93 5.0308 115.92 4.84647H117.203C117.217 5.28401 116.996 5.69921 116.611 5.95615C116.176 6.26522 115.637 6.42534 115.089 6.41045C114.428 6.4421 113.785 6.21495 113.318 5.78485C112.876 5.34359 112.647 4.76082 112.679 4.16316V4.04214C112.649 3.44634 112.872 2.86357 113.307 2.42044C114.243 1.6459 115.644 1.57887 116.662 2.25845C117.051 2.55822 117.262 3.01065 117.229 3.47426H115.947C115.955 3.26573 115.875 3.06279 115.725 2.90639C115.568 2.75185 115.345 2.66807 115.115 2.67924C114.796 2.65317 114.489 2.7984 114.328 3.05348C114.163 3.34393 114.084 3.6679 114.098 3.99373V4.11475C114.084 4.44058 114.163 4.76641 114.328 5.055C114.468 5.3287 114.765 5.50744 115.097 5.51861ZM119.364 2.49864C119.954 1.78368 121.066 1.64218 121.847 2.18212C121.908 2.22495 121.965 2.26963 122.02 2.31804C122.367 2.71648 122.536 3.22105 122.489 3.72934V6.3397H121.082V3.72003C121.111 3.46123 121.036 3.20057 120.869 2.99018C120.702 2.83564 120.468 2.75558 120.232 2.77233C120.058 2.77047 119.883 2.80027 119.72 2.86171C119.578 2.91756 119.454 3.00321 119.356 3.11306V6.35645H117.968V0H119.374C119.372 0 119.364 2.49864 119.364 2.49864ZM125.873 6.47189C125.216 6.49051 124.579 6.26894 124.102 5.85561C123.65 5.44785 123.406 4.88557 123.429 4.30652V4.14454C123.402 3.54874 123.632 2.96783 124.065 2.52284C124.506 2.09275 125.13 1.8656 125.773 1.89911C126.377 1.86374 126.968 2.05737 127.412 2.43347C127.816 2.82447 128.028 3.34766 127.997 3.88574V4.52623H124.891C124.899 4.79434 125.019 5.04941 125.226 5.23932C125.45 5.43296 125.751 5.53536 126.058 5.52233C126.32 5.52605 126.58 5.49813 126.836 5.44227C127.07 5.3771 127.294 5.29332 127.509 5.19091L127.889 5.92822C127.637 6.09207 127.357 6.21681 127.058 6.29315C126.676 6.41045 126.275 6.47003 125.873 6.47189ZM125.746 2.81516C125.509 2.80957 125.283 2.90453 125.137 3.07582C124.974 3.26387 124.876 3.49288 124.854 3.73307H126.625V3.62694C126.635 3.40724 126.56 3.19312 126.413 3.01997C126.236 2.86357 125.99 2.78909 125.746 2.81516ZM204.522 6.91874H203.77V9.0748H203.284V6.91874H202.53V6.53147H204.522C204.522 6.52961 204.522 6.91874 204.522 6.91874ZM207.32 7.44565L206.541 9.06735H206.275L205.47 7.36559V9.0599H204.992V6.53147H205.594L206.425 8.37846L207.312 6.53147H207.885V9.07666H207.399C207.399 9.0748 207.32 7.44565 207.32 7.44565Z" fill="white"/>
</svg>
