<svg width="184" height="39" viewBox="0 0 184 39" fill="none" xmlns="http://www.w3.org/2000/svg">
<path fill-rule="evenodd" clip-rule="evenodd" d="M19.2719 1.80283V3.61302H16.0342V4.79038H19.2719V8.39604H20.5375V4.79038H23.8562V3.61302H20.5375V0H19.2719V1.80283ZM8.69038 6.39453V9.02151H3.78962V10.6698H8.69038V16.0047H10.5079V10.6698H15.4823V9.02151H10.5079V3.76755H8.69038V6.39453ZM29.2279 9.02151V6.39453V3.76755H31.1191V9.02151H36.0198V10.7508H31.1191V16.0047H29.2279V10.7508H24.3272V9.02151H29.2279ZM118.641 7.84415H121.165V30.214H118.641V7.84415ZM97.7428 10.1989H100.311V13.3042C100.311 16.2181 100.326 16.3947 100.451 16.3579C100.504 16.3385 100.69 16.2868 100.922 16.2222L100.923 16.2218L100.923 16.2218C101.042 16.1888 101.173 16.1524 101.304 16.1151C101.768 15.99 102.327 15.9091 102.923 15.8723C103.6 15.8428 103.998 15.8649 104.498 15.9606C104.925 16.0415 105.432 16.2181 105.881 16.4389C106.271 16.6302 106.786 16.954 107.029 17.1674C107.265 17.3734 107.64 17.8075 107.853 18.1313C108.074 18.4551 108.346 18.9702 108.464 19.2866C108.589 19.5957 108.744 20.177 108.817 20.5817C108.906 21.1115 108.928 21.5677 108.898 22.2889C108.876 22.826 108.795 23.4957 108.722 23.7753C108.655 24.0549 108.479 24.5332 108.339 24.8349C108.199 25.1366 107.92 25.6002 107.721 25.8577C107.53 26.1153 107.14 26.4979 106.86 26.7113C106.588 26.9247 106.087 27.2191 105.764 27.3662C105.44 27.5208 104.903 27.7121 104.579 27.8004C104.071 27.9402 103.747 27.9623 102.29 27.9696C100.914 27.977 100.465 27.9475 99.9209 27.8298C99.553 27.7489 98.9423 27.5943 98.5744 27.4913C98.2064 27.3883 97.8826 27.2706 97.8532 27.2411C97.8238 27.2117 97.787 23.3706 97.7723 18.6979L97.7428 10.1989ZM100.944 18.5728L100.355 18.7789V25.3058C101.591 25.6296 101.856 25.6517 102.68 25.6296C103.49 25.6075 103.755 25.5708 104.145 25.4236C104.402 25.3206 104.763 25.1292 104.932 24.9894C105.109 24.857 105.359 24.6068 105.491 24.4375C105.624 24.2683 105.815 23.9151 105.911 23.6575C106.014 23.4 106.132 22.907 106.176 22.5611C106.242 22.0902 106.242 21.7664 106.168 21.266C106.109 20.8172 105.984 20.4125 105.8 20.0298C105.653 19.7134 105.396 19.3234 105.234 19.1615C105.072 18.9996 104.778 18.7715 104.579 18.6611C104.388 18.5434 104.012 18.3962 103.747 18.33C103.49 18.2564 103.026 18.2049 102.725 18.2123C102.423 18.2196 102.025 18.2564 101.856 18.2932C101.68 18.33 101.275 18.4551 100.944 18.5728ZM55.9245 10.9862H58.4485V18.124H65.2404V20.4787H58.4485V28.1683H55.9245V20.4787H49.1326V18.124H55.9245V10.9862ZM18.8009 18.2859V15.3425V12.3991H21.0085V18.2859H26.4611V20.4787H21.0085V26.3655H18.8009V20.4787H13.3483V18.2859H18.8009ZM34.8351 16.8289V18.6758H31.5164V20.1696H34.8351V23.8562H36.4908V20.1696H39.8094V18.6758H36.4908V14.9892H34.8351V16.8289ZM3.23774 18.7568V16.9908V15.2247H4.5034V18.7568H7.82208V19.89L4.5034 20.0077V23.5398H3.23774V20.0077H0V18.7568H3.23774ZM83.0185 15.7692H85.5425V20.4198C85.5425 22.9806 85.513 25.5781 85.4247 27.3147L84.7919 27.506C84.4461 27.6091 83.7176 27.7709 83.173 27.8666C82.3415 28.0064 81.9662 28.0211 80.7668 27.9917C79.6557 27.9623 79.2068 27.9181 78.7138 27.793C78.3606 27.6974 77.7572 27.4692 77.3672 27.2779C76.9551 27.0719 76.4621 26.7481 76.1825 26.5053C75.9249 26.2698 75.557 25.8504 75.3804 25.5781C75.1964 25.2985 74.9536 24.857 74.8506 24.5994C74.7476 24.3419 74.593 23.8268 74.5194 23.4662C74.4164 22.9364 74.3944 22.5464 74.4238 21.6192C74.4606 20.7289 74.5121 20.2947 74.6372 19.8532C74.7328 19.5294 74.9536 18.9996 75.1228 18.6758C75.2921 18.3521 75.6306 17.8591 75.8808 17.5868C76.1383 17.3072 76.5577 16.9392 76.8153 16.7626C77.0728 16.5934 77.4996 16.3653 77.7645 16.2623C78.0221 16.1592 78.493 16.0194 78.8094 15.9606C79.1259 15.9017 79.7145 15.8502 80.1119 15.8502C80.5166 15.8502 81.0906 15.9091 81.3996 15.9679C81.7013 16.0342 82.1796 16.196 82.4666 16.3285L82.5708 16.3752C82.804 16.4797 82.99 16.563 82.9964 16.5566C83.0038 16.5566 83.0185 16.38 83.0185 16.1666V15.7692ZM78.7211 18.6611C78.5077 18.7789 78.1987 19.0217 78.0294 19.2057C77.8602 19.3896 77.6321 19.7134 77.5291 19.9342C77.4187 20.1475 77.2789 20.5449 77.2127 20.8172C77.1464 21.0821 77.0949 21.5677 77.0949 21.8915C77.0949 22.2153 77.1317 22.6936 77.1759 22.9511C77.2274 23.2087 77.3598 23.6355 77.4849 23.893C77.6321 24.2021 77.8676 24.5185 78.1693 24.7981C78.4636 25.0704 78.8094 25.2985 79.1111 25.4162C79.4791 25.5634 79.7734 25.6075 80.5313 25.6443C81.0685 25.6664 81.7455 25.637 82.1061 25.5855C82.4519 25.534 82.7757 25.4677 82.8272 25.4383C82.886 25.4015 82.9302 24.3787 82.967 22.1859L83.0185 18.9923C82.371 18.6391 82.0104 18.4772 81.7896 18.4036C81.5762 18.3226 81.0759 18.2491 80.6859 18.2343C80.2002 18.2123 79.8396 18.2417 79.5379 18.33C79.3025 18.3962 78.9345 18.5434 78.7211 18.6611ZM161.136 15.7692H163.66V19.7134C163.66 21.8842 163.638 24.4817 163.542 27.3147L162.91 27.506C162.564 27.6091 161.865 27.7709 161.35 27.8519C160.695 27.9696 160.069 28.0138 159.223 28.0138C158.553 28.0138 157.781 27.977 157.501 27.9328C157.222 27.8813 156.67 27.7415 156.28 27.6164C155.86 27.484 155.316 27.2264 154.977 27.0057C154.646 26.7923 154.19 26.417 153.954 26.1594C153.726 25.9092 153.402 25.4677 153.248 25.1881C153.093 24.9085 152.88 24.3934 152.777 24.0549C152.622 23.5619 152.578 23.1792 152.542 22.2889C152.519 21.5751 152.542 20.9423 152.6 20.5964C152.652 20.2947 152.784 19.787 152.895 19.4632C152.998 19.1394 153.241 18.6243 153.432 18.3226C153.616 18.0209 154.013 17.5426 154.315 17.263C154.653 16.954 155.095 16.6375 155.455 16.4609C155.779 16.3064 156.25 16.1151 156.515 16.0415C156.773 15.9753 157.413 15.8943 157.935 15.8723C158.634 15.8428 159.039 15.8723 159.473 15.9606C159.804 16.0342 160.297 16.196 160.584 16.3285L160.688 16.375C160.922 16.4796 161.108 16.563 161.114 16.5566C161.129 16.5566 161.136 16.38 161.136 16.1666V15.7692ZM156.839 18.6611C156.625 18.7789 156.316 19.0217 156.147 19.2057C155.978 19.3896 155.757 19.7134 155.647 19.9342C155.536 20.1475 155.397 20.5449 155.33 20.8172C155.264 21.0821 155.213 21.6045 155.213 21.9725C155.213 22.3404 155.264 22.8628 155.33 23.1277C155.397 23.4 155.522 23.7679 155.617 23.9519C155.713 24.1358 155.956 24.4596 156.155 24.6657C156.353 24.8791 156.677 25.1292 156.868 25.2249C157.067 25.3279 157.42 25.4677 157.663 25.534C157.935 25.6149 158.384 25.6591 158.907 25.6591C159.348 25.6591 159.974 25.6223 160.283 25.5781C160.599 25.534 160.901 25.4677 160.945 25.4383C161.011 25.4015 161.048 24.4523 161.07 22.1785L161.092 18.9628C160.297 18.5581 159.856 18.3889 159.591 18.3226C159.333 18.2564 158.892 18.2049 158.605 18.2123C158.325 18.2123 157.899 18.2711 157.663 18.33C157.42 18.3962 157.052 18.5434 156.839 18.6611ZM137.442 15.887C137.898 15.9091 138.479 15.9826 138.744 16.0489C139.002 16.1151 139.429 16.2696 139.686 16.3947C139.951 16.5125 140.378 16.77 140.635 16.9687C140.9 17.1674 141.268 17.5353 141.46 17.7855C141.651 18.0357 141.923 18.4919 142.07 18.7936C142.218 19.0953 142.409 19.6251 142.497 19.9709C142.585 20.3168 142.689 21.0159 142.769 22.4434H134.042L134.094 22.7377C134.116 22.8996 134.212 23.2455 134.285 23.503C134.366 23.7606 134.572 24.1653 134.734 24.3934C134.896 24.6215 135.139 24.8938 135.264 24.9894C135.396 25.0851 135.661 25.247 135.86 25.35C136.051 25.4457 136.39 25.5708 136.61 25.6296C136.831 25.6885 137.42 25.74 137.95 25.74C138.472 25.74 139.223 25.6885 139.613 25.6223C140.003 25.556 140.555 25.4236 140.834 25.3353C141.114 25.247 141.482 25.1072 141.644 25.0262C141.805 24.9453 141.975 24.8717 142.019 24.8717C142.07 24.8717 142.1 25.3206 142.1 27.2264L141.666 27.4251C141.423 27.5355 140.922 27.7121 140.54 27.8225C140.157 27.9255 139.458 28.0579 138.98 28.1094C138.325 28.1757 137.883 28.1757 137.199 28.1094C136.699 28.0579 135.97 27.9255 135.58 27.8151C135.19 27.7047 134.624 27.484 134.329 27.3221C134.028 27.1602 133.52 26.7849 133.196 26.4832C132.865 26.1815 132.453 25.6885 132.262 25.3868C132.07 25.0851 131.835 24.57 131.724 24.2462C131.614 23.9225 131.482 23.3559 131.43 22.9953C131.371 22.5906 131.356 22.024 131.386 21.5825C131.408 21.1704 131.504 20.5523 131.592 20.2064C131.68 19.8606 131.894 19.294 132.063 18.9481C132.232 18.6023 132.549 18.1092 132.755 17.8517C132.968 17.5942 133.387 17.1968 133.689 16.9687C133.991 16.7406 134.499 16.4536 134.815 16.3211C135.199 16.1692 135.595 16.051 136 15.9679C136.404 15.8943 136.89 15.8649 137.442 15.887ZM135.713 18.6979C135.477 18.8377 135.146 19.11 134.969 19.3013C134.8 19.5 134.572 19.8238 134.469 20.0298C134.366 20.2358 134.278 20.4345 134.278 20.4787C134.278 20.5302 135.271 20.5596 137.103 20.5596H139.929C139.848 19.9783 139.775 19.6913 139.716 19.5368C139.649 19.3896 139.458 19.11 139.289 18.926C139.083 18.6979 138.833 18.536 138.546 18.4257C138.303 18.3447 137.861 18.2564 137.56 18.2343C137.206 18.2196 136.846 18.2491 136.566 18.3226C136.331 18.3889 135.948 18.5581 135.713 18.6979ZM173.447 16.0857H176.067L176.059 20.0298C176.059 23.7458 176.067 24.0034 176.214 24.4817C176.309 24.776 176.486 25.1219 176.633 25.2985C176.773 25.4604 177.067 25.6811 177.288 25.7842C177.502 25.8872 177.914 26.0049 178.193 26.0417C178.495 26.0858 178.922 26.0858 179.223 26.0417C179.503 26.0049 179.915 25.8872 180.128 25.7842C180.349 25.6811 180.644 25.4604 180.783 25.2985C180.931 25.1219 181.115 24.776 181.203 24.4817C181.35 24.0034 181.357 23.7458 181.357 16.0857H183.94L183.925 20.3462C183.918 24.3787 183.911 24.6215 183.764 25.0704C183.675 25.3279 183.491 25.7179 183.352 25.9313C183.212 26.1521 182.969 26.4538 182.8 26.6157C182.638 26.7775 182.285 27.0351 182.027 27.1896C181.769 27.3442 181.269 27.5575 180.923 27.6679C180.526 27.793 179.996 27.8887 179.503 27.9255C179.062 27.9475 178.355 27.9475 177.921 27.9181C177.428 27.8887 176.891 27.793 176.501 27.6679C176.116 27.5436 175.744 27.3834 175.39 27.1896C175.132 27.0351 174.786 26.7775 174.617 26.6157C174.455 26.4538 174.205 26.1521 174.065 25.9313C173.933 25.7179 173.749 25.3279 173.66 25.0704C173.506 24.6289 173.499 24.3566 173.476 20.3462L173.447 16.0857ZM8.69038 27.9328V25.3058V22.6789H10.5815V27.9328H15.4823V29.6621H10.5815V34.916H8.69038V29.6621H3.78962V27.9328H8.69038ZM29.2279 25.3058V27.9328H24.3272V29.5811H29.2279V34.916H31.1191V29.5811H36.0198V27.9328H31.1191V22.6789H29.2279V25.3058ZM19.1174 33.8196V31.98V30.133H20.773V33.8196H24.0917V35.3134H20.773V39H19.1174V35.3134H15.7987V33.8196H19.1174Z" fill="white"/>
</svg>
