<svg width="190" height="24" viewBox="0 0 190 24" fill="none" xmlns="http://www.w3.org/2000/svg">
<path fill-rule="evenodd" clip-rule="evenodd" d="M9.81358 7.81808C11.1225 2.60603 14.3961 0 19.6295 0C24.4947 0 26.7231 2.24969 28.6473 4.1953L28.6508 4.19883C29.8301 5.38998 30.8984 6.46911 32.3888 6.83933C35.0067 7.49025 37.2968 6.51388 39.2591 3.90785C37.9501 9.1199 34.6789 11.7259 29.4455 11.7259C24.582 11.7259 22.3535 9.47547 20.4298 7.53271L20.4277 7.53063L20.4241 7.52695C19.2425 6.3335 18.1765 5.25681 16.6862 4.88422C14.0683 4.23331 11.7782 5.21205 9.81358 7.81808ZM0 19.544C1.30895 14.332 4.58014 11.7259 9.81358 11.7259C14.6771 11.7259 16.9055 13.9764 18.8293 15.9192L18.8313 15.9212L18.835 15.9249C20.0166 17.1184 21.0826 18.1951 22.5753 18.5676C25.1908 19.2186 27.4809 18.2398 29.4455 15.6338C28.1365 20.8458 24.8653 23.4519 19.6295 23.4519C14.7643 23.4519 12.536 21.2022 10.6118 19.2566L10.6009 19.2456C9.42454 18.0574 8.35987 16.982 6.87022 16.6125C4.25231 15.9616 1.96224 16.938 0 19.544ZM55.4606 9.88247H58.8862V7.01988H55.4606V2.44686L52.4769 3.32583V7.01988H49.935V9.88247H52.4769V16.4842C52.4769 20.0595 54.3013 21.3257 58.8862 20.7746V18.1068C56.6223 18.2161 55.4606 18.2446 55.4606 16.4842V9.88247ZM74.931 7.01988H71.9472V8.97262C70.8972 7.54251 69.2652 6.66354 67.1105 6.66354C63.3547 6.66354 60.2332 9.79933 60.2332 13.8972C60.2332 17.969 63.3547 21.1333 67.1105 21.1333C69.2652 21.1333 70.8972 20.2519 71.9472 18.7933V20.7746H74.931V7.01988ZM71.9472 13.8972C71.9472 16.4557 70.0681 18.2992 67.5809 18.2992C65.0936 18.2992 63.2169 16.4557 63.2169 13.8972C63.2169 11.3387 65.0936 9.49525 67.5809 9.49525C70.0681 9.49525 71.9472 11.3387 71.9472 13.8972ZM77.9955 3.05977C77.9955 4.07652 78.8531 4.95786 79.9031 4.95786C80.9531 4.95786 81.8083 4.07652 81.8083 3.05977C81.8083 2.81033 81.7584 2.56327 81.6634 2.33283C81.566 2.10478 81.4258 1.89572 81.25 1.71755C81.0719 1.54176 80.8628 1.4016 80.6324 1.30658C80.3996 1.21155 80.1525 1.16167 79.9031 1.16167C79.6536 1.16167 79.4042 1.21155 79.1738 1.30658C78.9429 1.40152 78.7331 1.54102 78.5562 1.71711C78.3792 1.8932 78.2388 2.10243 78.1428 2.33283C78.0477 2.56327 77.9979 2.81033 77.9955 3.05977ZM81.395 7.01988H78.4112V20.7746H81.395V7.01988ZM84.8491 0.693673V20.7746H87.8328V0.693673H84.8491ZM110.349 7.01988H107.199L104.49 16.5104L101.618 7.01988H98.7724L95.8718 16.5104L93.1922 7.01988H90.0421L94.38 20.7746H97.3091L100.21 11.505L103.082 20.7746H106.011L110.349 7.01988ZM112.145 3.05977C112.145 4.07652 113 4.95786 114.05 4.95786C115.1 4.95786 115.957 4.07652 115.957 3.05977C115.957 2.81033 115.908 2.56327 115.81 2.33283C115.715 2.10478 115.575 1.89572 115.397 1.71755C115.039 1.36163 114.555 1.16178 114.05 1.16167C113.8 1.16167 113.553 1.21155 113.321 1.30658C113.09 1.4016 112.881 1.54176 112.703 1.71755C112.527 1.89572 112.387 2.10478 112.29 2.33283C112.195 2.56327 112.145 2.81033 112.145 3.05977ZM131.567 20.7746V12.3293C131.567 8.75407 129.356 6.66354 126.263 6.66354C124.384 6.66354 122.892 7.35009 121.98 8.7802V7.01988H118.996V20.7746H121.98V13.4031C121.98 10.5975 123.526 9.44061 125.488 9.44061C127.367 9.44061 128.584 10.5405 128.584 12.6334V20.7746H131.567ZM112.558 7.01988V20.7746H115.542V7.01988H112.558ZM148.696 1.518H145.712V8.97262C144.662 7.54251 143.032 6.66354 140.877 6.66354C137.119 6.66354 133.998 9.79933 133.998 13.8972C133.998 17.969 137.119 21.1333 140.877 21.1333C143.032 21.1333 144.662 20.2519 145.712 18.7933V20.7746H148.696V1.518ZM145.712 13.8972C145.712 16.4557 143.833 18.2992 141.348 18.2992C138.861 18.2992 136.981 16.4557 136.981 13.8972C136.981 11.3387 138.861 9.49525 141.348 9.49525C143.833 9.49525 145.712 11.3387 145.712 13.8972ZM158.697 6.66354C154.525 6.66354 151.404 9.79933 151.404 13.8972C151.404 17.969 154.525 21.1333 158.697 21.1333C161.405 21.1333 163.752 19.7293 164.914 17.5556L162.343 16.0994C161.681 17.3632 160.326 18.2161 158.668 18.2161C156.238 18.2161 154.387 16.3726 154.387 13.8972C154.387 11.4219 156.238 9.5784 158.668 9.5784C160.326 9.5784 161.681 10.4051 162.289 11.6974L164.857 10.2127C163.752 8.06514 161.405 6.66354 158.697 6.66354ZM171.874 21.1333C174.858 21.1333 177.262 19.6462 177.262 16.8952C177.262 13.9046 174.695 13.1943 172.579 12.6087C171.094 12.1979 169.831 11.8484 169.831 10.8161C169.831 9.82546 170.77 9.35984 171.848 9.35984C172.981 9.35984 173.948 9.85396 174.445 10.9277L176.958 9.52376C175.991 7.7088 174.112 6.66354 171.848 6.66354C169.031 6.66354 166.793 8.28607 166.793 10.8707C166.793 13.7587 169.348 14.48 171.462 15.0766C172.953 15.4974 174.224 15.8562 174.224 16.8691C174.224 17.969 173.202 18.4085 171.874 18.4085C170.356 18.4085 169.252 17.6673 168.807 16.4272L166.239 17.9144C167.123 19.8932 169.111 21.1333 171.874 21.1333ZM184.612 21.1333C187.596 21.1333 190 19.6462 190 16.8952C190 13.9046 187.432 13.1943 185.315 12.6087C183.83 12.1979 182.567 11.8484 182.567 10.8161C182.567 9.82546 183.507 9.35984 184.584 9.35984C185.717 9.35984 186.684 9.85396 187.18 10.9277L189.696 9.52376C188.729 7.7088 186.85 6.66354 184.584 6.66354C181.766 6.66354 179.528 8.28607 179.528 10.8707C179.528 13.7587 182.084 14.48 184.198 15.0766C185.688 15.4974 186.959 15.8562 186.959 16.8691C186.959 17.969 185.938 18.4085 184.612 18.4085C183.092 18.4085 181.987 17.6673 181.545 16.4272L178.975 17.9144C179.859 19.8932 181.849 21.1333 184.612 21.1333Z" fill="white"/>
</svg>
