<svg width="154" height="40" viewBox="0 0 154 40" fill="none" xmlns="http://www.w3.org/2000/svg">
<path fill-rule="evenodd" clip-rule="evenodd" d="M0 19.6639V39.3277H19.6639H39.3277V19.6639V0H19.6639H0V19.6639ZM34.1929 19.561C33.4938 18.8369 32.7322 18.3937 31.7334 18.144C31.0529 17.9754 29.4424 17.9255 28.7495 18.0566C26.6145 18.4623 25.135 19.8294 24.7168 21.7896C24.5982 22.3514 24.6356 23.7435 24.7855 24.2991C24.9665 24.967 25.4035 25.7661 25.8654 26.2655C26.6645 27.1269 27.5384 27.67 29.5672 28.544C31.3401 29.3118 31.9643 29.6801 32.2702 30.1171C32.5074 30.4604 32.5636 30.6602 32.5636 31.1159C32.5636 31.6215 32.4138 31.9649 32.0517 32.2957C31.2028 33.0573 29.4798 33.1509 28.2251 32.4892C27.7881 32.2583 27.064 31.5653 26.7331 31.0597L26.4959 30.7101L25.366 31.3656C24.7418 31.7276 24.0801 32.1084 23.9053 32.2083C23.7242 32.3144 23.5619 32.4143 23.5432 32.4393C23.4995 32.5142 24.2049 33.5567 24.567 33.9562C25.4909 34.98 26.9891 35.7603 28.5684 36.0412C29.2925 36.1723 30.8906 36.191 31.5648 36.0724C33.7435 35.7041 35.2916 34.5929 35.9158 32.9574C36.4839 31.453 36.2966 29.4304 35.4601 28.1632C34.711 27.027 33.5062 26.228 30.6909 25.017C29.1615 24.3553 28.6745 24.0306 28.4124 23.4875C28.2875 23.2378 28.2438 23.0568 28.2438 22.7509C28.2376 21.7084 29.0054 21.0842 30.1977 21.1653C31.0092 21.2215 31.5399 21.5399 32.0455 22.2765C32.214 22.5262 32.3639 22.6885 32.4013 22.6635C33.4376 22.0206 35.148 20.8719 35.1355 20.822C35.0918 20.6534 34.555 19.948 34.1929 19.561ZM8.68393 21.4045L8.69641 19.7939L8.71514 18.1896L15.5881 18.1709C19.3648 18.1647 22.4799 18.1771 22.4986 18.2021C22.5236 18.2208 22.5423 18.9512 22.5423 19.8252V21.4045H19.9829H17.4234V28.677V35.9495H15.6131H13.8028V28.677V21.4045H11.2434H8.68393ZM54.0543 10.4132H59.6065V8.42773H46.2677V10.4132H51.7861V27.2237H54.0543V10.4132ZM63.7368 29.3747L70.0676 13.7886H67.7655L63.8722 24.1462C63.852 24.2153 63.8326 24.2814 63.814 24.3446C63.708 24.7052 63.6302 24.97 63.6014 25.1389H63.5337C63.4358 24.7323 63.3556 24.4467 63.3059 24.2697C63.2868 24.2018 63.2722 24.1498 63.2628 24.1131L59.5388 13.7886H57.1013L62.4503 27.1906L61.367 29.7387C60.7914 31.0292 59.9789 31.6911 58.8617 31.6911C58.4893 31.6911 58.0492 31.6249 57.5752 31.4594V33.3787C57.9476 33.478 58.4216 33.5442 58.9971 33.5442C61.0284 33.5442 62.6196 32.1543 63.7368 29.3747ZM73.5885 33.3787V25.2713H73.6562C74.638 26.7935 76.0261 27.5546 77.7527 27.4884C79.6824 27.4884 81.2059 26.8266 82.3231 25.4699C83.4403 24.1131 84.0158 22.3262 84.0158 20.0759C84.0158 18.0574 83.508 16.4359 82.5262 15.2446C81.5444 14.0533 80.1564 13.4576 78.3959 13.4576C76.3308 13.4576 74.7396 14.3511 73.6562 16.138H73.5885V13.7886H71.388V33.3787H73.5885ZM73.6224 21.7636V19.8774C73.6224 18.5537 73.9948 17.4617 74.8073 16.6013C75.586 15.741 76.6016 15.3108 77.8881 15.3108C79.1069 15.3108 80.0548 15.7079 80.7657 16.5682C81.4767 17.3955 81.8152 18.5868 81.8152 20.0759C81.8152 21.8629 81.4428 23.2527 80.698 24.2455C79.9194 25.2382 78.8699 25.7346 77.5495 25.7346C76.3985 25.7346 75.4844 25.3375 74.7396 24.5764C73.9948 23.8153 73.6224 22.8887 73.6224 21.7636ZM87.8075 21.0356H97.49L97.5239 19.9767C97.5239 17.9581 97.016 16.3697 96.0342 15.2446C95.0525 14.0864 93.6644 13.5238 91.8701 13.5238C90.0758 13.5238 88.5862 14.1857 87.3674 15.5093C86.1487 16.7999 85.5393 18.5206 85.5393 20.6054C85.5393 22.7894 86.0809 24.5102 87.1982 25.7346C88.3154 26.959 89.8388 27.5546 91.7685 27.5546C93.7321 27.5546 95.3233 27.1244 96.5421 26.2641V24.2455C95.2556 25.2382 93.8337 25.7346 92.2764 25.7346C90.8883 25.7346 89.805 25.3375 89.0263 24.5102C88.2477 23.6829 87.8414 22.5247 87.8075 21.0356ZM94.3077 16.3035C94.917 16.9984 95.2217 17.9581 95.2217 19.2156H87.8075C87.9768 18.0574 88.4508 17.0977 89.1617 16.3697C89.8727 15.6417 90.7529 15.2777 91.8024 15.2777C92.8519 15.2777 93.6983 15.6086 94.3077 16.3035ZM98.5734 25.0728V26.5619C99.0135 26.8266 99.6567 26.9921 100.537 27.1906C101.417 27.3892 102.162 27.4884 102.839 27.4884C104.701 27.4884 106.157 27.0582 107.172 26.1317C108.188 25.2051 108.696 24.0469 108.696 22.5909C108.696 21.5651 108.425 20.6716 107.816 19.9105C107.206 19.1494 106.021 18.2559 104.227 17.2632C102.501 16.3035 101.349 15.5093 100.842 14.9468C100.334 14.3842 100.063 13.6231 100.063 12.6634C100.063 11.6707 100.435 10.8765 101.214 10.2147C101.993 9.58593 103.008 9.25502 104.329 9.25502C105.615 9.25502 106.834 9.51975 107.951 10.0161V8.65937C106.834 8.29536 105.683 8.09681 104.532 8.09681C102.771 8.09681 101.349 8.5601 100.3 9.48666C99.2505 10.4132 98.7088 11.5383 98.7088 12.862C98.7088 13.8216 98.9796 14.682 99.4874 15.4431C99.9953 16.1711 101.214 17.0977 103.178 18.2228C104.904 19.2156 106.055 20.0098 106.563 20.5723C107.071 21.168 107.342 21.9291 107.342 22.8887C107.342 23.9807 106.969 24.808 106.191 25.4368C105.412 26.0655 104.261 26.3633 102.771 26.3633C101.349 26.3633 99.9614 25.9331 98.5734 25.0728ZM116.483 27.5546C117.904 27.5546 119.123 27.2237 120.139 26.6281V25.3706C119.123 26.0655 117.938 26.4295 116.55 26.4295C115.061 26.4295 113.842 25.9 112.928 24.8411C112.014 23.7822 111.54 22.3923 111.54 20.6385C111.54 18.8516 112.014 17.3624 113.029 16.2373C114.045 15.1122 115.331 14.5497 116.956 14.5497C118.108 14.5497 119.191 14.8475 120.173 15.4431V14.0864C119.191 13.6562 118.175 13.4576 117.126 13.4576C115.094 13.4576 113.436 14.1526 112.149 15.5093C110.863 16.8661 110.219 18.6199 110.219 20.7378C110.219 22.7894 110.795 24.4109 111.946 25.6684C113.097 26.9259 114.621 27.5546 116.483 27.5546ZM126.876 14.6158C127.451 14.6158 127.925 14.7482 128.332 15.046H128.366V13.7555C127.993 13.59 127.519 13.5238 127.011 13.5238C126.097 13.5238 125.319 13.8216 124.642 14.3842C123.964 14.9468 123.457 15.741 123.152 16.7668H123.084V13.7886H121.865V27.2568H123.084V20.9363C123.084 18.9177 123.423 17.3624 124.168 16.2704C124.879 15.1784 125.793 14.6158 126.876 14.6158ZM129.584 10.1154C129.787 10.3139 130.024 10.4132 130.295 10.4132C130.566 10.4132 130.803 10.3139 131.04 10.1154C131.243 9.91685 131.345 9.65212 131.345 9.38738C131.345 9.08956 131.243 8.85792 131.04 8.69246C130.803 8.527 130.566 8.42773 130.295 8.42773C130.024 8.42773 129.787 8.527 129.584 8.69246C129.381 8.85792 129.28 9.08956 129.28 9.38738C129.28 9.68521 129.381 9.91685 129.584 10.1154ZM129.686 13.7886V27.2237H130.905V13.7886H129.686ZM135.069 24.8411H135.137C136.118 26.6612 137.642 27.5546 139.673 27.5877C141.501 27.5877 142.991 26.8928 144.108 25.5029C145.225 24.1131 145.801 22.2931 145.801 20.0428C145.801 18.0243 145.327 16.4359 144.345 15.2446C143.363 14.0864 142.009 13.4907 140.249 13.4907C139.165 13.4907 138.15 13.7555 137.236 14.2849C136.321 14.8144 135.644 15.5755 135.137 16.5682H135.069V13.7886H133.85V33.4118H135.069V24.8411ZM135.069 21.532V19.8443C135.069 18.4214 135.475 17.2301 136.355 16.1711C137.236 15.1122 138.488 14.5827 140.079 14.5827C141.434 14.5827 142.483 15.0791 143.296 16.0719C144.108 17.0646 144.514 18.3883 144.514 20.0759C144.514 21.9952 144.074 23.5175 143.194 24.7087C142.314 25.867 141.163 26.4626 139.775 26.4626C138.353 26.4626 137.236 25.9662 136.355 25.0066C135.509 24.0469 135.069 22.8887 135.069 21.532ZM151.488 27.4553C152.03 27.4553 152.639 27.323 153.283 27.0252V25.9331C152.673 26.2641 152.132 26.4295 151.624 26.4295C150.913 26.4295 150.405 26.231 150.1 25.8008C149.796 25.3706 149.66 24.7088 149.66 23.7822V14.9137H153.283V13.8216H149.66V9.91685L149.051 10.1154L148.441 10.3139V13.8216H145.97V14.9137H148.441V23.8815C148.441 26.2641 149.457 27.4553 151.488 27.4553Z" fill="white"/>
</svg>
