<svg width="43" height="40" viewBox="0 0 43 40" fill="none" xmlns="http://www.w3.org/2000/svg">
<path d="M7.61436 0C3.40405 0 0 3.24808 0 7.26538V32.7346C0 36.7519 3.40405 40 7.61436 40H35.3856C39.5959 40 43 36.7519 43 32.7346V7.26538C43 3.24808 39.5959 0 35.3856 0H7.61436ZM32.8234 8.76923H36.4603C36.55 8.75224 36.6216 8.82051 36.6394 8.88878V25.1962C36.6394 25.5038 36.6575 25.8462 36.6756 26.2221C36.7113 26.5811 36.7294 26.9224 36.7472 27.2131C36.7472 27.3327 36.6934 27.4356 36.5678 27.4869C35.6294 27.8631 34.6499 28.1383 33.6475 28.3074C32.7338 28.4612 31.82 28.5465 30.8884 28.5465C29.5628 28.5635 28.2369 28.3077 27.0363 27.7779C25.9075 27.282 24.9756 26.4612 24.3306 25.4529C23.6675 24.4099 23.3456 23.1109 23.3456 21.5554C23.3274 20.2905 23.6677 19.0443 24.3306 17.9487C25.0112 16.8375 25.9969 15.9147 27.1794 15.2994C28.4337 14.6327 29.9388 14.3077 31.7125 14.3077C31.8022 14.3077 31.9275 14.3077 32.0887 14.3247C32.25 14.3417 32.4294 14.342 32.6444 14.3593V8.95737C32.6444 8.83782 32.6981 8.76955 32.8234 8.76955V8.76923ZM6.59345 10.2564H10.66C10.7497 10.2564 10.8397 10.2737 10.9112 10.2907C10.9831 10.325 11.0369 10.3763 11.0906 10.4446C11.4309 11.1798 11.8247 11.9144 12.2369 12.6497C12.6669 13.3846 13.0794 14.1026 13.5275 14.8205C13.9521 15.5315 14.3523 16.2555 14.7275 16.9913H14.7634C15.1374 16.2495 15.5257 15.5143 15.9281 14.7862C16.3271 14.0647 16.733 13.3467 17.1459 12.6324C17.5581 11.9144 17.9522 11.1795 18.3466 10.4785C18.3647 10.4103 18.4003 10.3417 18.4541 10.3077C18.5259 10.2734 18.5975 10.2567 18.6872 10.2737H22.4678C22.489 10.2692 22.5109 10.2687 22.5322 10.2722C22.5536 10.2758 22.574 10.2834 22.5923 10.2945C22.6106 10.3056 22.6264 10.32 22.6388 10.337C22.6513 10.3539 22.66 10.3731 22.6647 10.3933C22.6825 10.4106 22.6466 10.4788 22.6109 10.5128L17.2359 18.9744L22.9691 27.9487C23.005 28.0173 23.0228 28.0853 23.005 28.1538C22.9872 28.2221 22.915 28.1712 22.8075 28.1881H18.705C18.4184 28.1881 18.2213 28.1712 18.0959 28.0003C17.7197 27.2824 17.3253 26.5811 16.9491 25.8631C16.5728 25.1622 16.1606 24.4449 15.7306 23.7096C15.2968 22.9709 14.8668 22.2302 14.4406 21.4875H14.4053C14.0291 22.2224 13.6166 22.957 13.2047 23.6923C12.7925 24.4272 12.3803 25.1622 11.9863 25.8801C11.5741 26.5981 11.1622 27.3333 10.75 28.034C10.6784 28.2051 10.535 28.2224 10.3378 28.2224H6.39625C6.3247 28.2224 6.27095 28.2567 6.27095 28.1712C6.26296 28.1391 6.26202 28.1058 6.26821 28.0733C6.2744 28.0409 6.28757 28.01 6.30689 27.9827L11.8788 19.2651L6.45 10.4955C6.39625 10.4269 6.37878 10.3587 6.41473 10.3247C6.45034 10.2734 6.52189 10.2564 6.59345 10.2564ZM31.5691 17.4872C30.8703 17.4872 30.1716 17.624 29.5447 17.9317C28.9325 18.2228 28.4083 18.6583 28.0219 19.1968C27.6278 19.7439 27.4306 20.4788 27.4306 21.3679C27.415 21.9678 27.5182 22.565 27.735 23.1282C27.9144 23.5897 28.1831 24 28.5412 24.342C28.8866 24.6565 29.3035 24.8905 29.7594 25.0256C30.2431 25.1795 30.745 25.2478 31.2469 25.2478C31.5156 25.2478 31.7666 25.2311 31.9994 25.2141C32.2322 25.2311 32.4294 25.1965 32.6444 25.1282V17.6067C32.4846 17.5701 32.3229 17.5417 32.16 17.5218C31.9631 17.5045 31.7662 17.4872 31.5691 17.4872Z" fill="white"/>
</svg>
